<svg width="503.642" height="434.077" viewBox="0 0 133.255 114.85" xmlns="http://www.w3.org/2000/svg"><g aria-label="À à Á á Ã ã     È è É é Ẽ ẽ         Ì  Í  Ĩ      Ý ý Ỹ ỹ       Ñ ñ   Ò ò Ó ó Õ õ Ù ù Ú ú Ũ ũ        " style="line-height:1.25;-inkscape-font-specification:'Palemonas Bold'" font-weight="400" font-size="16.933" font-family="Palemonas" letter-spacing=".003" word-spacing="0" stroke-width=".265"><path d="M5.78 7.09H3.864v-.198l.596-.133-.674-1.748H1.794l-.653 1.748.732.133v.198H.124v-.198l.69-.133 1.852-4.936.58-.111 1.942 5.047.591.133zM1.89 4.762h1.802l-.91-2.356zm1.19-3.427L1.45 0h.877l.864 1.298zM8.771 4.63v-.558q.438-.43 1.199-.43 1.182 0 1.182 1.034v2.083l.542.133v.198h-1.112v-.36q-.149.124-.343.215l-.314.145q-.12.054-.236.079-.116.024-.24.024-.182 0-.339-.053-.157-.054-.277-.157-.116-.104-.182-.249-.066-.144-.066-.326 0-.24.091-.422t.24-.318q.153-.14.347-.24.198-.1.405-.17.211-.074.476-.128.268-.053.438-.103v-.351q0-.806-.728-.806-.744 0-.827.76zm1.81.587q-.181.07-.475.15-.289.078-.496.202-.202.12-.343.297-.14.174-.14.439 0 .111.05.214.053.104.136.187.082.078.186.128.103.05.206.05.145 0 .397-.088.252-.086.48-.243zm.013-2.154L8.965 1.728h.877l.864 1.298zM24.759 7.09h-1.914v-.198l.595-.133-.674-1.748h-1.992l-.654 1.748.732.133v.198h-1.749v-.198l.69-.133 1.853-4.936.579-.111 1.943 5.047.59.133zm-3.89-2.328h1.802l-.91-2.356zM23.362 0l-1.633 1.335-.112-.037L22.48 0zM27.75 4.63v-.558q.439-.43 1.2-.43 1.182 0 1.182 1.034v2.083l.541.133v.198h-1.112v-.36q-.149.124-.343.215l-.314.145q-.12.054-.236.079-.116.024-.24.024-.181 0-.339-.053-.157-.054-.277-.157-.115-.104-.181-.249-.067-.144-.067-.326 0-.24.091-.422t.24-.318q.153-.14.347-.24.199-.1.406-.17.21-.074.475-.128.269-.053.438-.103v-.351q0-.806-.727-.806-.745 0-.827.76zm1.811.587q-.182.07-.475.15-.29.078-.496.202-.203.12-.343.297-.141.174-.141.439 0 .111.05.214.053.104.136.187.083.078.186.128t.207.05q.144 0 .397-.088.252-.086.48-.243zm.678-3.489l-1.633 1.335-.111-.037.864-1.298zM43.738 7.09h-1.914v-.198l.595-.133-.673-1.748h-1.993L39.1 6.759l.731.133v.198h-1.748v-.198l.69-.133 1.852-4.936.579-.111 1.943 5.047.591.133zm-3.89-2.328h1.802l-.909-2.356zm-.079-3.547q.038-.454.22-.649.181-.198.504-.198.244 0 .554.219.314.215.459.215.173 0 .273-.09.099-.096.115-.344h.15q-.017.446-.195.653-.174.207-.496.19-.24 0-.53-.215-.289-.219-.491-.219-.157 0-.277.1-.116.099-.137.338zM46.73 4.63v-.558q.438-.43 1.199-.43 1.182 0 1.182 1.034v2.083l.542.133v.198H48.54v-.36q-.15.124-.344.215l-.314.145q-.12.054-.235.079-.116.024-.24.024-.182 0-.34-.053-.156-.054-.276-.157-.116-.104-.182-.249-.066-.144-.066-.326 0-.24.09-.422.092-.182.24-.318.153-.14.348-.24.198-.1.405-.17.21-.074.475-.128.269-.053.439-.103v-.351q0-.806-.728-.806-.744 0-.827.76zm1.81.587q-.181.07-.475.15-.29.078-.496.202-.203.12-.343.297-.14.174-.14.439 0 .111.049.214.054.104.136.187.083.078.186.128.104.05.207.05.145 0 .397-.088.252-.086.48-.243zm-1.744-2.274q.037-.454.219-.649.182-.198.504-.198.244 0 .554.22.315.214.46.214.173 0 .272-.09.1-.096.116-.344h.149q-.017.446-.195.653-.173.207-.496.19-.24 0-.529-.215-.29-.219-.492-.219-.157 0-.277.1-.116.099-.136.338zM62.713 7.09h-.09q-.84.012-1.179.244-.36.244-.36.76 0 .278.154.447.157.174.388.174.33 0 .575-.17l.082.145q-.293.182-.537.248-.244.066-.438.066-.34 0-.546-.194-.207-.19-.207-.496 0-.36.15-.563.148-.198.396-.384.252-.186.252-.492 0-.19-.095-.463l-.537-1.401h-1.993l-.653 1.748.732.133v.198h-1.75v-.198l.691-.133L59.6 1.823l.58-.111 1.942 5.047.591.133zm-3.89-2.328h1.803l-.91-2.356zM61.32 0l-1.633 1.335-.111-.037L60.44 0zM65.705 4.63v-.558q.442-.43 1.199-.43 1.182 0 1.182 1.034v2.083l.542.133v.198h-.608q-.17.12-.298.227-.128.108-.21.22-.083.115-.124.248-.042.132-.042.297 0 .273.14.43.141.161.369.161.128 0 .285-.058.161-.053.351-.177l.05.124q-.31.198-.562.28-.248.088-.447.088-.297 0-.48-.178-.181-.178-.181-.48 0-.153.066-.322.066-.165.182-.327.12-.157.281-.297.161-.137.355-.236-.103-.054-.157-.145-.053-.095-.082-.215-.112.095-.252.166l-.26.128q-.12.058-.278.111-.153.058-.343.058-.182 0-.339-.053-.157-.054-.277-.157-.116-.104-.182-.249-.066-.144-.066-.326 0-.302.145-.521.148-.22.376-.368.227-.153.5-.244.277-.09.538-.145l.243-.053q.112-.025.195-.05v-.351q0-.806-.728-.806-.748 0-.827.76zm1.81.587q-.136.054-.297.104-.161.05-.322.107-.162.054-.315.128-.148.075-.264.178-.116.1-.186.24-.07.14-.07.33 0 .112.05.215.053.104.136.187.082.078.186.128.103.05.206.05.07 0 .174-.021.103-.025.219-.067.12-.045.244-.107.128-.062.24-.136zm.683-3.489l-1.633 1.335-.112-.037.864-1.298zM81.693 7.09h-.091q-.84.012-1.178.244-.36.244-.36.76 0 .278.153.447.157.174.388.174.331 0 .575-.17l.083.145q-.294.182-.538.248-.244.066-.438.066-.339 0-.546-.194-.206-.19-.206-.496 0-.36.149-.563.148-.198.396-.384.253-.186.253-.492 0-.19-.095-.463L79.7 5.011h-1.993l-.653 1.748.732.133v.198h-1.749v-.198l.69-.133 1.853-4.936.579-.111 1.943 5.047.59.133zm-3.89-2.328h1.802l-.91-2.356zm-.075-3.547q.037-.454.22-.649.181-.198.504-.198.244 0 .554.219.314.215.458.215.174 0 .273-.09.1-.096.116-.344h.149q-.017.446-.194.653-.174.207-.496.19-.24 0-.53-.215-.289-.219-.492-.219-.157 0-.277.1-.115.099-.136.338zM84.684 4.63v-.558q.443-.43 1.2-.43 1.182 0 1.182 1.034v2.083l.541.133v.198H87q-.169.12-.297.227-.128.108-.211.22-.083.115-.124.248-.041.132-.041.297 0 .273.14.43.14.161.368.161.128 0 .285-.058.162-.053.352-.177l.05.124q-.31.198-.563.28-.248.088-.446.088-.298 0-.48-.178t-.182-.48q0-.153.066-.322.066-.165.182-.327.12-.157.281-.297.162-.137.356-.236-.103-.054-.157-.145-.054-.095-.083-.215-.112.095-.252.166l-.26.128q-.12.058-.278.111-.152.058-.343.058-.182 0-.339-.053-.157-.054-.277-.157-.115-.104-.182-.249-.066-.144-.066-.326 0-.302.145-.521.149-.22.376-.368.228-.153.5-.244.277-.09.538-.145l.244-.053q.111-.025.194-.05v-.351q0-.806-.728-.806-.748 0-.826.76zm1.811.587q-.136.054-.298.104-.16.05-.322.107-.161.054-.314.128-.149.075-.265.178-.116.1-.186.24-.07.14-.07.33 0 .112.05.215.053.104.136.187.083.078.186.128t.207.05q.07 0 .173-.021.104-.025.22-.067.12-.045.243-.107.128-.062.24-.136zm-1.782-2.274q.037-.454.22-.649.181-.198.504-.198.244 0 .554.22.314.214.459.214.173 0 .272-.09.1-.096.116-.344h.15q-.017.446-.195.653-.174.207-.496.19-.24 0-.53-.215-.289-.219-.491-.219-.158 0-.277.1-.116.099-.137.338zM3.617 24.743v1.608H3.42l-.199-.69H1.794v2.331H4.21l.405-.996h.198l-.132 1.26H.294v-.198l.797-.132V23.32l-.797-.132v-.198h4.27l.07 1.178h-.198l-.298-.914H1.794v2.142H3.22l.199-.653zm-.649-2.2L1.34 21.208h.877l.864 1.298zM9.95 27.934q.289 0 .524-.124.24-.128.463-.364l.124.112q-.132.161-.293.306-.161.145-.347.256-.186.112-.393.174-.203.066-.418.066-.31 0-.583-.136-.268-.141-.467-.377-.198-.235-.314-.55-.112-.318-.112-.673 0-.36.124-.687.124-.33.344-.578.219-.253.516-.401.302-.15.654-.15.339 0 .595.133.256.132.426.356.173.223.26.516.087.294.087.616H8.66q0 .323.107.6.107.277.285.48.178.198.41.314.235.111.487.111zm.578-1.724q0-.19-.058-.405-.054-.219-.165-.405-.112-.186-.285-.306-.17-.124-.401-.124-.236 0-.41.12-.17.116-.285.302-.112.182-.174.4-.062.22-.078.418zm-.541-1.98l-1.63-1.335h.877l.864 1.298zM22.283 24.743v1.608h-.199l-.198-.69h-1.427v2.331h2.415l.405-.996h.198l-.132 1.26h-4.386v-.198l.798-.132V23.32l-.798-.132v-.198h4.27l.07 1.178h-.198l-.298-.914H20.46v2.142h1.427l.198-.653zm.363-3.535l-1.633 1.335-.111-.037.864-1.298zM28.614 27.934q.29 0 .525-.124.24-.128.464-.364l.124.112q-.133.161-.294.306-.161.145-.347.256-.186.112-.393.174-.203.066-.418.066-.31 0-.582-.136-.27-.141-.468-.377-.198-.235-.314-.55-.111-.318-.111-.673 0-.36.124-.687.124-.33.343-.578.219-.253.517-.401.301-.15.653-.15.339 0 .595.133.256.132.426.356.173.223.26.516.087.294.087.616h-2.48q0 .323.107.6.108.277.285.48.178.198.41.314.235.111.487.111zm.58-1.724q0-.19-.059-.405-.053-.219-.165-.405-.112-.186-.285-.306-.17-.124-.401-.124-.236 0-.41.12-.169.116-.285.302-.111.182-.173.4-.062.22-.079.418zm.359-3.315L27.92 24.23l-.112-.037.864-1.298zM40.948 24.743v1.608h-.199l-.198-.69h-1.426v2.331h2.414l.405-.996h.198l-.132 1.26h-4.386v-.198l.798-.132V23.32l-.798-.132v-.198h4.27l.07 1.178h-.198l-.297-.914h-2.344v2.142h1.426l.198-.653zm-2.043-2.36q.038-.456.22-.65.181-.198.504-.198.244 0 .554.219.314.215.459.215.173 0 .273-.091.099-.095.115-.343h.15q-.017.446-.195.653-.174.206-.496.19-.24 0-.53-.215-.289-.22-.491-.22-.157 0-.277.1-.116.1-.137.34zM47.28 27.934q.289 0 .525-.124.24-.128.463-.364l.124.112q-.133.161-.294.306-.161.145-.347.256-.186.112-.393.174-.202.066-.417.066-.31 0-.583-.136-.269-.141-.467-.377-.199-.235-.315-.55-.111-.318-.111-.673 0-.36.124-.687.124-.33.343-.578.219-.253.517-.401.301-.15.653-.15.339 0 .595.133.256.132.426.356.174.223.26.516.087.294.087.616h-2.48q0 .323.107.6.108.277.286.48.177.198.409.314.235.111.488.111zm.578-1.724q0-.19-.057-.405-.054-.219-.166-.405-.111-.186-.285-.306-.17-.124-.401-.124-.236 0-.41.12-.169.116-.285.302-.111.182-.173.4-.062.22-.079.418zm-2.025-2.1q.037-.455.219-.649.182-.198.504-.198.244 0 .554.219.314.215.459.215.174 0 .273-.091.1-.095.116-.343h.148q-.016.446-.194.653-.173.207-.496.19-.24 0-.53-.215-.289-.22-.491-.22-.157 0-.277.1-.116.1-.136.34zM59.609 24.743v1.608h-.199l-.198-.69h-1.426v2.331H60.2l.405-.996h.198l-.132 1.26h-1q-.43 0-.715.29-.286.29-.286.674 0 .293.15.467.152.174.384.174.215 0 .339-.05.128-.05.235-.12l.083.145q-.294.182-.538.248-.24.066-.438.066-.33 0-.545-.22-.211-.218-.211-.557 0-.368.223-.645.227-.277.62-.471h-2.687v-.199l.798-.132V23.32l-.798-.132v-.198h4.27l.07 1.178h-.198l-.297-.914h-2.344v2.142h1.426l.198-.653zm.368-3.535l-1.633 1.335-.112-.037.864-1.298zM67.061 27.558q-.277.368-.88.711-.7.41-.7.98 0 .273.141.43.14.161.368.161.128 0 .286-.058.16-.054.35-.178l.05.124q-.31.199-.562.281-.248.087-.446.087-.298 0-.48-.177-.182-.178-.182-.48 0-.182.066-.347.067-.162.166-.302.103-.14.227-.252.124-.108.24-.182-.02.004-.046.004h-.05q-.31 0-.582-.136-.269-.141-.467-.377-.199-.235-.314-.55-.112-.318-.112-.673 0-.36.124-.687.124-.33.343-.578.22-.253.517-.401.302-.15.653-.15.34 0 .595.133.257.132.426.356.174.223.26.516.088.294.088.616h-2.48q0 .323.107.6.107.277.285.48.178.198.41.314.235.111.487.111.29 0 .525-.124.24-.128.463-.364zm-.533-1.348q0-.19-.058-.405-.054-.219-.166-.405-.111-.186-.285-.306-.17-.124-.4-.124-.236 0-.41.12-.17.116-.285.302-.112.182-.174.4-.062.22-.079.418zm.355-3.315L65.25 24.23l-.111-.037.864-1.298zM78.274 24.743v1.608h-.199l-.198-.69h-1.426v2.331h2.414l.405-.996h.199l-.133 1.26h-1q-.43 0-.715.29-.286.29-.286.674 0 .293.15.467.152.174.384.174.215 0 .339-.05.128-.05.235-.12l.083.145q-.293.182-.537.248-.24.066-.439.066-.33 0-.545-.22-.211-.218-.211-.557 0-.368.223-.645.227-.277.62-.471H74.95v-.199l.798-.132V23.32l-.798-.132v-.198h4.27l.07 1.178h-.198l-.297-.914H76.45v2.142h1.426l.198-.653zm-2.038-2.36q.037-.456.219-.65.182-.198.504-.198.244 0 .554.219.314.215.46.215.173 0 .272-.091.1-.095.116-.343h.148q-.016.446-.194.653-.173.206-.496.19-.24 0-.53-.215-.288-.22-.491-.22-.157 0-.277.1-.116.1-.136.34zM85.726 27.558q-.277.368-.88.711-.7.41-.7.98 0 .273.141.43.141.161.368.161.129 0 .286-.058.16-.054.351-.178l.05.124q-.31.199-.563.281-.248.087-.446.087-.298 0-.48-.177-.182-.178-.182-.48 0-.182.067-.347.066-.162.165-.302.103-.14.227-.252.124-.108.24-.182-.02.004-.045.004h-.05q-.31 0-.583-.136-.269-.141-.467-.377-.198-.235-.314-.55-.112-.318-.112-.673 0-.36.124-.687.124-.33.343-.578.22-.253.517-.401.302-.15.653-.15.34 0 .596.133.256.132.425.356.174.223.26.516.088.294.088.616h-2.48q0 .323.107.6.107.277.285.48.178.198.41.314.235.111.487.111.29 0 .525-.124.24-.128.463-.364zm-.533-1.348q0-.19-.058-.405-.054-.219-.165-.405-.112-.186-.286-.306-.17-.124-.4-.124-.236 0-.41.12-.17.116-.285.302-.112.182-.174.4-.062.22-.078.418zm-2.03-2.1q.037-.455.22-.649.181-.198.503-.198.244 0 .554.219.315.215.46.215.173 0 .272-.091.1-.095.116-.343h.149q-.017.446-.195.653-.173.207-.496.19-.24 0-.529-.215-.29-.22-.492-.22-.157 0-.277.1-.115.1-.136.34zM96.939 24.743v1.608h-.198l-.199-.69h-1.426v2.331h2.414l.405-.996h.199L98 28.256h-4.386v-.198l.798-.132V23.32l-.798-.132v-.198h4.27l.071 1.178h-.198l-.298-.914h-2.344v2.142h1.426l.199-.653zm-.442-2.716q0 .169-.116.285-.112.111-.285.111-.17 0-.286-.111-.111-.116-.111-.285 0-.174.111-.286.116-.115.286-.115.173 0 .285.115.116.112.116.286zm1.083-2.018l-1.633 1.335-.112-.037.864-1.298zM103.28 27.934q.289 0 .524-.124.24-.128.463-.364l.124.112q-.132.161-.293.306-.161.145-.347.256-.187.112-.393.174-.203.066-.418.066-.31 0-.583-.136-.268-.141-.467-.377-.198-.235-.314-.55-.112-.318-.112-.673 0-.36.124-.687.124-.33.344-.578.219-.253.516-.401.302-.15.653-.15.34 0 .596.133.256.132.426.356.173.223.26.516.087.294.087.616h-2.48q0 .323.107.6.107.277.285.48.178.198.41.314.235.111.487.111zm.578-1.724q0-.19-.058-.405-.054-.219-.165-.405-.112-.186-.285-.306-.17-.124-.401-.124-.236 0-.41.12-.17.116-.285.302-.112.182-.174.4-.062.22-.078.418zm-.434-2.62q0 .169-.116.284-.111.112-.285.112-.17 0-.285-.112-.112-.115-.112-.285 0-.173.112-.285.115-.116.285-.116.174 0 .285.116.116.112.116.285zm1.137-2.34l-1.633 1.335-.112-.038.864-1.298zM115.608 24.743v1.608h-.198l-.199-.69h-1.426v2.331h2.414l.406-.996h.198l-.132 1.26h-4.387v-.198l.798-.132V23.32l-.798-.132v-.198h4.271l.07 1.178h-.198l-.298-.914h-2.344v2.142h1.426l.199-.653zm-.442-2.716q0 .169-.116.285-.111.111-.285.111-.17 0-.285-.111-.112-.116-.112-.285 0-.174.112-.286.115-.115.285-.115.174 0 .285.115.116.112.116.286zm-1.538-.927q.037-.454.22-.649.181-.198.504-.198.243 0 .554.22.314.214.458.214.174 0 .273-.09.1-.096.116-.344h.149q-.017.446-.194.653-.174.207-.497.19-.24 0-.529-.215-.29-.219-.492-.219-.157 0-.277.1-.115.099-.136.338zM121.949 27.934q.289 0 .525-.124.24-.128.463-.364l.124.112q-.133.161-.294.306-.161.145-.347.256-.186.112-.393.174-.202.066-.417.066-.31 0-.583-.136-.27-.141-.468-.377-.198-.235-.314-.55-.111-.318-.111-.673 0-.36.124-.687.124-.33.343-.578.219-.253.517-.401.301-.15.653-.15.339 0 .595.133.256.132.426.356.174.223.26.516.087.294.087.616h-2.48q0 .323.107.6.108.277.285.48.178.198.41.314.235.111.488.111zm.578-1.724q0-.19-.058-.405-.053-.219-.165-.405-.112-.186-.285-.306-.17-.124-.401-.124-.236 0-.41.12-.169.116-.285.302-.111.182-.173.4-.062.22-.079.418zm-.434-2.62q0 .169-.116.284-.111.112-.285.112-.17 0-.285-.112-.112-.115-.112-.285 0-.173.112-.285.116-.116.285-.116.174 0 .285.116.116.112.116.285zm-1.513-1.125q.037-.455.22-.65.181-.198.504-.198.244 0 .554.22.314.214.458.214.174 0 .273-.09.1-.096.116-.344h.149q-.017.447-.194.653-.174.207-.496.19-.24 0-.53-.214-.29-.22-.492-.22-.157 0-.277.1-.115.099-.136.339zM2.385 44.355l-.636.132v4.606l.636.132v.198H.41v-.198l.637-.132v-4.606l-.637-.132v-.199h1.976zm-.756-.645L0 42.375h.876l.864 1.298zM6.621 49.093l.58.132v.198H5.471v-.198l.579-.132v-2.688h-.579v-.136l.95-.335h.2zm.1-4.337q0 .17-.116.285-.112.112-.285.112-.17 0-.286-.112-.111-.116-.111-.285 0-.174.111-.285.116-.116.286-.116.173 0 .285.116.116.111.116.285zm-.236-1.005l-1.629-1.335h.877l.864 1.298zM17.007 44.355l-.636.132v4.606l.636.132v.198h-1.976v-.198l.637-.132v-4.606l-.637-.132v-.199h1.976zm.377-1.98L15.75 43.71l-.112-.037.864-1.298zM21.243 49.093l.58.132v.198h-1.729v-.198l.579-.132v-2.688h-.579v-.136l.95-.335h.2zm.1-4.337q0 .17-.116.285-.112.112-.285.112-.17 0-.286-.112-.111-.116-.111-.285 0-.174.111-.285.116-.116.286-.116.173 0 .285.116.116.111.116.285zm.95-2.34L20.66 43.75l-.111-.037.864-1.298zM31.63 44.355l-.637.132v4.606l.636.132v.198h-1.976v-.198l.637-.132v-4.606l-.637-.132v-.199h1.976zm-2.126-.806q.038-.455.22-.65.181-.198.504-.198.244 0 .554.22.314.214.459.214.173 0 .273-.09.099-.096.115-.344h.15q-.017.447-.195.653-.174.207-.496.19-.24 0-.53-.214-.289-.22-.491-.22-.157 0-.277.1-.116.099-.137.339zM35.865 49.093l.58.132v.198h-1.729v-.198l.579-.132v-2.688h-.579v-.136l.95-.335h.2zm.1-4.337q0 .17-.116.285-.112.112-.285.112-.17 0-.286-.112-.111-.116-.111-.285 0-.174.111-.285.116-.116.286-.116.173 0 .285.116.116.111.116.285zm-1.522-1.125q.037-.454.22-.649.181-.198.504-.198.244 0 .554.219.314.215.459.215.173 0 .272-.091.1-.095.116-.343h.149q-.017.446-.194.653-.174.207-.496.19-.24 0-.53-.215-.289-.219-.492-.219-.157 0-.277.1-.115.099-.136.338zM46.251 44.355l-.636.132v4.606l.636.132v.198h-.194q-.405 0-.703.26-.297.261-.297.703 0 .294.148.468.153.173.385.173.215 0 .339-.05.128-.049.236-.12l.082.145q-.293.182-.537.249-.24.066-.438.066-.331 0-.546-.22-.21-.219-.21-.558 0-.33.235-.628t.661-.488h-1.137v-.198l.637-.132v-4.606l-.637-.132v-.199h1.976zm.377-1.98l-1.633 1.335-.112-.037.864-1.298zM51.066 49.423h-.26q-.36.013-.65.302-.289.29-.289.69 0 .273.14.43.141.162.369.162.128 0 .285-.058.161-.054.351-.178l.05.124q-.306.198-.558.281-.252.087-.45.087-.298 0-.48-.178t-.182-.48q0-.371.256-.686.256-.314.657-.496h-.967v-.198l.579-.132v-2.688h-.579v-.136l.95-.335h.2v3.159l.578.132zm-.48-4.667q0 .17-.115.285-.112.112-.285.112-.17 0-.286-.112-.111-.116-.111-.285 0-.174.111-.285.116-.116.286-.116.173 0 .285.116.116.111.116.285zm.951-2.34l-1.633 1.335-.111-.037.864-1.298zM60.873 44.355l-.636.132v4.606l.636.132v.198h-.194q-.405 0-.703.26-.297.261-.297.703 0 .294.148.468.153.173.385.173.215 0 .339-.05.128-.049.236-.12l.082.145q-.293.182-.537.249-.24.066-.438.066-.331 0-.546-.22-.21-.219-.21-.558 0-.33.235-.628t.661-.488h-1.137v-.198l.637-.132v-4.606l-.637-.132v-.199h1.976zm-2.125-.806q.038-.455.22-.65.181-.198.504-.198.244 0 .554.22.314.214.459.214.173 0 .273-.09.099-.096.115-.344h.15q-.017.447-.195.653-.174.207-.496.19-.24 0-.53-.214-.289-.22-.491-.22-.157 0-.277.1-.116.099-.137.339zM65.688 49.423h-.26q-.36.013-.65.302-.289.29-.289.69 0 .273.14.43.141.162.369.162.128 0 .285-.058.161-.054.351-.178l.05.124q-.306.198-.558.281-.252.087-.45.087-.298 0-.48-.178t-.182-.48q0-.371.256-.686.256-.314.657-.496h-.967v-.198l.579-.132v-2.688h-.579v-.136l.95-.335h.2v3.159l.578.132zm-.48-4.667q0 .17-.115.285-.112.112-.285.112-.17 0-.286-.112-.111-.116-.111-.285 0-.174.111-.285.116-.116.286-.116.173 0 .285.116.116.111.116.285zm-1.52-1.125q.036-.454.218-.649.182-.198.505-.198.244 0 .554.219.314.215.459.215.173 0 .272-.091.1-.095.116-.343h.149q-.017.446-.194.653-.174.207-.496.19-.24 0-.53-.215-.289-.219-.492-.219-.157 0-.277.1-.115.099-.136.338zM78.927 44.355l-.682.132-1.7 2.836v1.77l.844.132v.198h-2.39v-.198l.844-.132v-1.675l-1.914-2.93-.67-.133v-.199h2.17v.199l-.703.132 1.609 2.431 1.467-2.43-.707-.133v-.199h1.832zm-1.493-1.935l-1.633 1.335-.111-.037.864-1.298zM82.311 50.957q.703-.384.922-.938l.215-.513-1.46-3.1-.52-.137v-.199h1.699v.199l-.562.136 1.116 2.398.959-2.398-.65-.136v-.199h1.406v.199l-.504.136-1.558 3.907q-.253.633-.604 1.083zm2.617-6.896l-1.633 1.336-.112-.038.864-1.298zM98.493 44.355l-.682.132-1.7 2.836v1.77l.844.132v.198h-2.39v-.198l.844-.132v-1.675l-1.914-2.93-.67-.133v-.199h2.17v.199l-.702.132 1.608 2.431 1.468-2.43-.707-.133v-.199h1.831zm-3.882-.806q.037-.455.22-.65.181-.198.504-.198.244 0 .554.22.314.214.459.214.173 0 .272-.09.1-.096.116-.344h.149q-.017.447-.194.653-.174.207-.496.19-.24 0-.53-.214-.289-.22-.492-.22-.157 0-.277.1-.115.099-.136.339zM101.877 50.957q.703-.384.922-.938l.215-.513-1.459-3.1-.52-.137v-.199h1.698v.199l-.562.136 1.116 2.398.96-2.398-.65-.136v-.199h1.406v.199l-.505.136-1.558 3.907q-.252.633-.604 1.083zm.129-5.68q.037-.455.219-.65.182-.198.504-.198.244 0 .554.22.314.214.459.214.174 0 .273-.09.099-.096.116-.344h.148q-.016.447-.194.653-.174.207-.496.19-.24 0-.53-.214-.289-.22-.491-.22-.157 0-.277.1-.116.099-.137.339zM114.628 44.355l-.636.132v5.263l-1.026 1.645-.21-.136q.19-.277.297-.542.108-.26.161-.508.054-.244.062-.472.013-.227.013-.438v-4.812l-.637-.132v-.199h1.976zm-2.125-.848q.037-.454.22-.649.181-.198.504-.198.244 0 .554.219.314.215.459.215.173 0 .272-.091.1-.095.116-.343h.149q-.017.446-.194.653-.174.207-.496.19-.24 0-.53-.215-.289-.219-.491-.219-.158 0-.277.1-.116.099-.137.338zM118.864 50.163l-.678 1.232-.186-.136q.112-.124.17-.252.058-.124.086-.277.03-.15.034-.34.003-.19.003-.45v-3.535h-.578v-.136l.95-.335h.199zm.1-5.407q0 .17-.116.285-.112.112-.286.112-.17 0-.285-.112-.112-.116-.112-.285 0-.174.112-.285.116-.116.285-.116.174 0 .286.116.115.111.115.285zm-1.534-1.125q.037-.454.219-.649.182-.198.504-.198.244 0 .554.219.314.215.459.215.174 0 .273-.091.099-.095.116-.343h.148q-.016.446-.194.653-.174.207-.496.19-.24 0-.53-.215-.289-.219-.491-.219-.157 0-.277.1-.116.099-.137.338zM4.407 69.354L4.25 70.59H.41v-.199l.677-.132v-4.605L.41 65.52v-.198h2.142v.198l-.76.133v4.671h2.087l.33-.971zm-4.113-4.68q.037-.455.219-.65.182-.198.504-.198.244 0 .554.22.314.215.459.215.173 0 .273-.091.099-.095.115-.344h.15q-.017.447-.195.654-.174.206-.496.19-.24 0-.53-.215-.289-.22-.491-.22-.157 0-.277.1-.116.1-.137.339zM9.13 70.59H7.404v-.199l.578-.132v-4.738h-.578v-.198l.955-.364h.194v5.3l.579.132zm-2-6.205q.037-.455.219-.65.182-.198.504-.198.244 0 .554.22.314.214.46.214.173 0 .272-.09.1-.096.116-.344h.149q-.017.447-.195.653-.173.207-.496.19-.24 0-.529-.215-.29-.219-.492-.219-.157 0-.277.1-.116.099-.136.339zM20.277 70.59h-.157l-2.112-4.597h-.017l-.17 4.266.658.132v.199h-1.761v-.199l.707-.132.318-4.605-.595-.133v-.198h1.277l1.96 4.275 1.947-4.275h1.244v.198l-.57.133.322 4.605.7.132v.199h-2.175v-.199l.78-.132-.276-4.266h-.02zm-1.045-5.792q.037-.455.219-.65.182-.198.504-.198.244 0 .554.22.314.215.459.215.173 0 .273-.091.099-.095.115-.344h.15q-.017.447-.195.654-.174.206-.496.19-.24 0-.53-.215-.289-.22-.491-.22-.157 0-.277.1-.116.1-.137.339zM33.195 70.59h-1.728v-.199l.579-.132v-2.108q0-.67-.629-.67-.372 0-1.083.5v2.278l.579.132v.199h-1.728v-.199l.579-.132v-2.108q0-.67-.629-.67-.38 0-1.083.513v2.265l.579.132v.199h-1.728v-.199l.579-.132v-2.687h-.58v-.136l.952-.335h.198v.686q.782-.645 1.455-.645.687 0 .802.65.807-.65 1.48-.65.827 0 .827.943v2.174l.58.132zm-4.283-4.147q.037-.454.22-.649.181-.198.504-.198.244 0 .554.219.314.215.458.215.174 0 .273-.091.1-.095.116-.343h.149q-.017.446-.194.653-.174.207-.497.19-.24 0-.529-.215-.29-.219-.492-.219-.157 0-.277.1-.115.099-.136.338zM46.735 65.521l-.694.133-.075 4.994h-.177l-3.878-4.63.05 4.241.818.132v.199h-1.877v-.199l.666-.132.07-4.605-.715-.133v-.198h1.248l3.543 4.217-.07-3.886-.794-.133v-.198h1.885zm-4.055-.723q.037-.455.219-.65.182-.198.504-.198.244 0 .554.22.314.215.46.215.173 0 .272-.091.1-.095.116-.344h.149q-.017.447-.195.654-.173.206-.496.19-.24 0-.529-.215-.29-.22-.492-.22-.157 0-.277.1-.116.1-.136.339zM53.663 70.59h-1.728v-.199l.578-.132v-2.108q0-.67-.628-.67-.38 0-1.083.513v2.265l.579.132v.199h-1.728v-.199l.578-.132v-2.687h-.578v-.136l.95-.335h.199v.686q.781-.645 1.455-.645.827 0 .827.943v2.174l.579.132zm-3.142-4.147q.037-.454.219-.649.182-.198.504-.198.244 0 .554.219.314.215.46.215.173 0 .272-.091.1-.095.116-.343h.149q-.017.446-.195.653-.173.207-.496.19-.24 0-.529-.215-.29-.219-.492-.219-.157 0-.277.1-.116.099-.136.338zM66.484 70.59H65.18q-.124-.33-.227-.65-.103-.318-.223-.599-.12-.285-.273-.52-.153-.24-.372-.41-.22-.173-.521-.269-.298-.095-.711-.095-.033 0-.05.009v2.203l.89.132v.199h-2.39v-.199l.798-.132v-4.61l-.798-.128v-.198h.48q.222 0 .66-.037.439-.037 1.1-.037.484 0 .827.111.343.108.558.294.22.186.319.434.103.244.103.517 0 .264-.087.487-.087.224-.26.393-.174.166-.439.273-.264.107-.624.14v.017q.203.03.352.079.153.05.268.124.12.07.215.16.095.092.182.203.17.22.29.426.12.207.215.45.124.32.219.522.099.202.206.318.108.112.244.153.14.041.352.041zm-1.919-3.932q0-.248-.05-.467-.045-.219-.164-.384-.116-.166-.323-.26-.203-.1-.517-.1-.215 0-.392.008-.174.009-.315.025v2.336q.095.008.182.012.091.004.178.004.322 0 .583-.066.26-.066.442-.207.182-.144.277-.363.1-.224.1-.538zm-2.224-2.067q.038-.454.22-.649.181-.198.504-.198.244 0 .554.219.314.215.459.215.173 0 .273-.091.099-.095.115-.343h.15q-.017.446-.195.653-.174.207-.496.19-.24 0-.53-.215-.289-.219-.491-.219-.158 0-.277.1-.116.099-.137.338zM71.724 67.952l-.492-.182q-.099-.037-.149-.037-.285 0-.537.43v2.096l.69.132v.199h-1.84v-.199l.58-.132v-2.687h-.58v-.136l.952-.335h.198v.822q.376-.727.819-.727.078 0 .157.029l.421.153zm-2.19-1.604q.036-.454.218-.649.182-.198.505-.198.244 0 .554.219.314.215.459.215.173 0 .272-.091.1-.095.116-.343h.149q-.017.446-.194.653-.174.207-.496.19-.24 0-.53-.215-.289-.219-.492-.219-.157 0-.277.1-.115.098-.136.338zM6.028 88.978q0 1.245-.782 2.08-.781.835-1.976.835-1.224 0-2.013-.752-.786-.753-.786-1.898 0-1.253.81-2.067.81-.815 2.026-.815 1.112 0 1.914.753.807.748.807 1.864zm-.794.281q0-1.12-.575-1.901-.575-.782-1.554-.782-.86 0-1.352.712-.492.71-.492 1.69 0 1.133.591 1.919.591.78 1.58.78.847 0 1.322-.69.48-.69.48-1.728zm-1.902-3.381l-1.629-1.336h.877l.864 1.299zM12.823 90.107q0 .736-.497 1.244-.496.509-1.24.509-.79 0-1.294-.509-.504-.512-.504-1.244 0-.802.517-1.298.52-.5 1.256-.5.765 0 1.261.516.5.517.5 1.282zm-.637.194q0-.731-.364-1.256-.36-.53-.88-.53-.402 0-.712.385-.305.38-.305.918 0 .735.355 1.285.36.55.897.55.397 0 .703-.372.306-.376.306-.98zm-1.05-2.571l-1.629-1.335h.876l.864 1.298zM26.4 88.978q0 1.245-.781 2.08-.782.835-1.976.835-1.224 0-2.014-.752-.785-.753-.785-1.898 0-1.253.81-2.067.81-.815 2.026-.815 1.112 0 1.914.753.806.748.806 1.864zm-.794.281q0-1.12-.574-1.901-.575-.782-1.555-.782-.86 0-1.352.712-.492.71-.492 1.69 0 1.133.592 1.919.59.78 1.579.78.847 0 1.323-.69.48-.69.48-1.728zm-.756-4.717l-1.633 1.336-.112-.037.864-1.299zM33.195 90.107q0 .736-.496 1.244-.496.509-1.24.509-.79 0-1.294-.509-.505-.512-.505-1.244 0-.802.517-1.298.521-.5 1.257-.5.765 0 1.26.516.501.517.501 1.282zm-.637.194q0-.731-.363-1.256-.36-.53-.881-.53-.401 0-.711.385-.306.38-.306.918 0 .735.356 1.285.36.55.897.55.397 0 .702-.372.306-.376.306-.98zm.236-3.906l-1.633 1.335-.112-.037.864-1.298zM46.773 88.978q0 1.245-.782 2.08-.781.835-1.976.835-1.224 0-2.013-.752-.786-.753-.786-1.898 0-1.253.81-2.067.81-.815 2.026-.815 1.112 0 1.914.753.807.748.807 1.864zm-.794.281q0-1.12-.575-1.901-.574-.782-1.554-.782-.86 0-1.352.712-.492.71-.492 1.69 0 1.133.591 1.919.591.78 1.58.78.847 0 1.322-.69.48-.69.48-1.728zm-3.121-3.418q.037-.455.219-.65.182-.198.504-.198.244 0 .554.22.314.214.459.214.174 0 .273-.09.099-.096.116-.344h.148q-.016.447-.194.653-.174.207-.496.19-.24 0-.53-.215-.289-.219-.491-.219-.157 0-.277.1-.116.099-.137.339zM53.568 90.107q0 .736-.496 1.244-.497.509-1.24.509-.79 0-1.295-.509-.504-.512-.504-1.244 0-.802.517-1.298.52-.5 1.256-.5.765 0 1.261.516.5.517.5 1.282zm-.637.194q0-.731-.364-1.256-.36-.53-.88-.53-.401 0-.711.385-.306.38-.306.918 0 .735.355 1.285.36.55.897.55.397 0 .703-.372.306-.376.306-.98zm-2.27-2.691q.038-.455.22-.65.181-.198.504-.198.244 0 .554.22.314.215.459.215.173 0 .273-.091.099-.095.115-.344h.15q-.017.447-.195.654-.174.206-.496.19-.24 0-.53-.215-.289-.22-.491-.22-.158 0-.277.1-.116.1-.137.339zM5.841 107.855l-.768.132v2.894q0 .496-.112.901-.112.401-.351.686-.236.281-.608.434-.372.153-.889.153-.566 0-.98-.153-.413-.157-.682-.438-.269-.28-.397-.67-.128-.392-.128-.868v-2.939l-.728-.132v-.199h2.175v.199l-.744.132v2.844q0 .418.087.765.086.343.268.591.182.248.468.385.289.136.686.136.434 0 .736-.128.306-.128.5-.368.194-.244.281-.595.091-.352.091-.794v-2.836l-.831-.132v-.199h1.926zm-2.368-.488l-1.63-1.335h.877l.864 1.298zM12.674 112.923h-1.129v-.52q-.426.322-.781.475-.356.148-.604.148-.38 0-.64-.277-.257-.277-.257-.628v-2.216h-.579v-.136l.951-.335h.199v2.381q0 .471.19.67.194.194.57.194.157 0 .41-.128.256-.128.541-.351v-2.295h-.579v-.136l.951-.335h.199v3.158l.558.133zm-1.654-4.027l-1.629-1.335h.877l.864 1.298zM25.937 107.855l-.769.132v2.894q0 .496-.112.901-.111.401-.35.686-.237.281-.609.434-.372.153-.888.153-.567 0-.98-.153-.414-.157-.682-.438-.27-.28-.397-.67-.128-.392-.128-.868v-2.939l-.728-.132v-.199h2.175v.199l-.745.132v2.844q0 .418.087.765.087.343.269.591.182.248.467.385.29.136.686.136.434 0 .736-.128.306-.128.5-.368.195-.244.282-.595.09-.352.09-.794v-2.836l-.83-.132v-.199h1.926zm-1.24-1.823l-1.633 1.335-.112-.037.864-1.298zM32.77 112.923h-1.13v-.52q-.425.322-.78.475-.356.148-.604.148-.38 0-.641-.277-.256-.277-.256-.628v-2.216h-.58v-.136l.952-.335h.198v2.381q0 .471.19.67.195.194.57.194.158 0 .41-.128.256-.128.542-.351v-2.295h-.58v-.136l.952-.335h.198v3.158l.558.133zm-.757-5.362l-1.633 1.335-.112-.037.864-1.298zM46.033 107.855l-.77.132v2.894q0 .496-.11.901-.113.401-.352.686-.236.281-.608.434-.372.153-.889.153-.566 0-.98-.153-.413-.157-.682-.438-.269-.28-.397-.67-.128-.392-.128-.868v-2.939l-.727-.132v-.199h2.174v.199l-.744.132v2.844q0 .418.087.765.087.343.268.591.182.248.468.385.289.136.686.136.434 0 .736-.128.306-.128.5-.368.194-.244.281-.595.091-.352.091-.794v-2.836l-.83-.132v-.199h1.926zm-3.878-.848q.037-.455.219-.649.182-.198.504-.198.244 0 .554.219.314.215.46.215.173 0 .272-.091.1-.095.116-.343h.149q-.017.446-.195.653-.173.207-.496.19-.24 0-.529-.215-.29-.219-.492-.219-.157 0-.277.1-.116.098-.136.338zM52.865 112.923h-1.129v-.52q-.426.322-.781.475-.356.148-.604.148-.38 0-.64-.277-.257-.277-.257-.628v-2.216h-.579v-.136l.951-.335h.199v2.381q0 .471.19.67.194.194.57.194.157 0 .41-.128.256-.128.541-.351v-2.295h-.579v-.136l.951-.335h.199v3.158l.558.133zm-3.13-4.146q.037-.455.22-.65.181-.198.504-.198.244 0 .554.22.314.214.459.214.173 0 .272-.09.1-.096.116-.344h.149q-.017.447-.194.653-.174.207-.496.19-.24 0-.53-.214-.289-.22-.491-.22-.158 0-.277.1-.116.099-.137.339zM66.132 107.855l-.769.132v2.894q0 .496-.111.901-.112.401-.352.686-.235.281-.607.434-.067.025-.286.12-.219.1-.47.281-.249.186-.253.616 0 .294.149.468.153.173.384.173.215 0 .34-.05.127-.049.235-.12l.083.145q-.294.182-.538.248-.24.067-.438.067-.33 0-.546-.22-.21-.219-.21-.558 0-.368.198-.611.198-.244.541-.406h-.078q-.567 0-.98-.153-.413-.157-.682-.438-.269-.28-.397-.67-.128-.392-.128-.868v-2.939l-.728-.132v-.199h2.175v.199l-.744.132v2.844q0 .418.086.765.087.343.27.591.181.248.466.385.29.136.687.136.434 0 .735-.128.306-.128.5-.368.195-.244.282-.595.09-.352.09-.794v-2.836l-.83-.132v-.199h1.926zm-1.244-1.823l-1.633 1.335-.112-.037.864-1.298zM72.965 112.923h-.43q-.248 0-.422.087-.17.09-.277.231-.108.141-.157.319-.046.178-.046.355 0 .1.03.203.032.107.094.194.066.087.162.14.095.054.223.054t.285-.057q.161-.054.351-.178l.05.124q-.31.198-.562.281-.248.087-.447.087-.153 0-.277-.062-.12-.062-.206-.157-.087-.095-.133-.211-.045-.116-.045-.228 0-.773.678-1.178v-.525q-.426.323-.781.476-.356.148-.604.148-.19 0-.356-.078-.16-.074-.285-.199-.12-.128-.19-.289-.066-.165-.066-.339v-2.216h-.579v-.136l.95-.335h.2v2.381q0 .471.19.67.194.194.57.194.157 0 .41-.128.256-.128.54-.351v-2.295h-.578v-.136l.95-.335h.2v3.158l.557.133zm-.761-5.362l-1.633 1.335-.112-.037.864-1.298zM86.228 107.855l-.77.132v2.894q0 .496-.11.901-.112.401-.352.686-.236.281-.608.434-.066.025-.285.12-.22.1-.471.281-.248.186-.253.616 0 .294.15.468.152.173.384.173.215 0 .339-.05.128-.049.235-.12l.083.145q-.293.182-.537.248-.24.067-.439.067-.33 0-.545-.22-.211-.219-.211-.558 0-.368.198-.611.199-.244.542-.406h-.079q-.566 0-.98-.153-.413-.157-.682-.438-.268-.28-.396-.67-.129-.392-.129-.868v-2.939l-.727-.132v-.199h2.174v.199l-.744.132v2.844q0 .418.087.765.087.343.269.591.182.248.467.385.29.136.686.136.434 0 .736-.128.306-.128.5-.368.195-.244.281-.595.091-.352.091-.794v-2.836l-.83-.132v-.199h1.926zm-3.882-.848q.037-.455.22-.649.181-.198.503-.198.244 0 .554.219.315.215.46.215.173 0 .272-.091.1-.095.116-.343h.149q-.017.446-.195.653-.173.207-.496.19-.24 0-.529-.215-.29-.219-.492-.219-.157 0-.277.1-.116.098-.136.338zM93.06 112.923h-.43q-.248 0-.422.087-.17.09-.277.231-.107.141-.157.319-.045.178-.045.355 0 .1.029.203.033.107.095.194.066.087.161.14.095.054.223.054.129 0 .286-.057.16-.054.351-.178l.05.124q-.31.198-.563.281-.248.087-.446.087-.153 0-.277-.062-.12-.062-.207-.157t-.132-.211q-.045-.116-.045-.228 0-.773.678-1.178v-.525q-.426.323-.782.476-.355.148-.603.148-.19 0-.356-.078-.161-.074-.285-.199-.12-.128-.19-.289-.067-.165-.067-.339v-2.216h-.578v-.136l.95-.335h.199v2.381q0 .471.19.67.194.194.57.194.158 0 .41-.128.256-.128.542-.351v-2.295h-.58v-.136l.952-.335h.198v3.158l.558.133zm-3.134-4.146q.038-.455.22-.65.181-.198.504-.198.244 0 .554.22.314.214.459.214.173 0 .273-.09.099-.096.115-.344h.15q-.017.447-.195.653-.174.207-.496.19-.24 0-.53-.214-.289-.22-.491-.22-.157 0-.277.1-.116.099-.137.339zM106.323 107.855l-.769.132v2.894q0 .496-.111.901-.112.401-.352.686-.235.281-.607.434-.372.153-.89.153-.565 0-.979-.153-.413-.157-.682-.438-.269-.28-.397-.67-.128-.392-.128-.868v-2.939l-.728-.132v-.199h2.175v.199l-.744.132v2.844q0 .418.087.765.086.343.268.591.182.248.467.385.29.136.687.136.434 0 .736-.128.306-.128.5-.368.194-.244.28-.595.092-.352.092-.794v-2.836l-.831-.132v-.199h1.926zm-3.832-1.063h2.332v.298h-2.332zm2.658-1.91l-1.633 1.336-.111-.038.864-1.298zM113.156 112.923h-1.129v-.52q-.426.322-.781.475-.356.148-.604.148-.38 0-.64-.277-.257-.277-.257-.628v-2.216h-.579v-.136l.951-.335h.198v2.381q0 .471.19.67.195.194.571.194.157 0 .41-.128.256-.128.541-.351v-2.295h-.579v-.136l.951-.335h.199v3.158l.558.133zm-3.167-4.791h2.332v.297h-2.332zm2.571-1.935l-1.633 1.335-.111-.037.864-1.298zM126.423 107.855l-.769.132v2.894q0 .496-.111.901-.112.401-.352.686-.235.281-.608.434-.372.153-.888.153-.567 0-.98-.153-.414-.157-.682-.438-.269-.28-.397-.67-.128-.392-.128-.868v-2.939l-.728-.132v-.199h2.175v.199l-.745.132v2.844q0 .418.087.765.087.343.269.591.182.248.467.385.29.136.686.136.435 0 .736-.128.306-.128.5-.368.195-.244.282-.595.09-.352.09-.794v-2.836l-.83-.132v-.199h1.926zm-3.832-1.063h2.331v.298h-2.331zm.004-.694q.037-.455.219-.65.182-.198.504-.198.244 0 .554.22.314.214.46.214.173 0 .272-.09.1-.096.116-.344h.149q-.017.447-.195.653-.173.207-.496.19-.24 0-.529-.214-.29-.22-.492-.22-.157 0-.277.1-.116.099-.136.339zM133.255 112.923h-1.128v-.52q-.426.322-.782.475-.355.148-.603.148-.38 0-.641-.277-.256-.277-.256-.628v-2.216h-.58v-.136l.952-.335h.198v2.381q0 .471.19.67.195.194.57.194.158 0 .41-.128.256-.128.542-.351v-2.295h-.58v-.136l.952-.335h.198v3.158l.558.133zm-3.166-4.791h2.331v.297h-2.331zm.033-.819q.037-.455.219-.649.182-.198.504-.198.244 0 .554.219.314.215.459.215.174 0 .273-.091.099-.095.116-.343h.148q-.016.446-.194.653-.174.207-.496.19-.24 0-.53-.215-.289-.22-.491-.22-.157 0-.277.1-.116.1-.137.34z" style="-inkscape-font-specification:Palemonas"/></g></svg>