<svg width="166.222" height="212.446" viewBox="0 0 43.98 56.21" xmlns="http://www.w3.org/2000/svg"><defs><path id="a" d="M37.557 72.821h210.672v114.07H37.557z"/></defs><g aria-label="                                  " style="line-height:1.25;-inkscape-font-specification:'Palemonas Bold'" font-weight="400" font-size="16.933" font-family="Palemonas" letter-spacing=".003" word-spacing="0" stroke-width=".265"><path d="M3.664 4.254h-.055q-.503.007-.707.146-.216.147-.216.457 0 .166.092.268.094.104.233.104.199 0 .345-.102l.05.087q-.176.11-.323.149-.146.04-.263.04-.203 0-.327-.117-.124-.114-.124-.298 0-.216.09-.337.088-.12.237-.23.152-.112.152-.296 0-.114-.057-.278l-.323-.84H1.272L.881 4.055l.439.079v.119H.27v-.12l.415-.078 1.11-2.962.348-.067L3.31 4.056l.355.079zM1.33 2.857H2.41l-.546-1.413zM2.828 0l-.98.801L1.78.78 2.299 0zM5.459 2.778v-.335q.265-.258.719-.258.71 0 .71.62v1.25l.324.08v.119h-.364q-.102.072-.179.136-.077.065-.126.132-.05.07-.075.149-.025.08-.025.178 0 .164.085.258.084.097.22.097.077 0 .172-.035.096-.032.21-.106l.03.074q-.186.12-.337.169-.149.052-.268.052-.179 0-.288-.107-.109-.107-.109-.288 0-.091.04-.193.04-.1.109-.196.072-.094.169-.179.096-.081.213-.141-.062-.032-.094-.087-.033-.057-.05-.129-.067.057-.151.1l-.157.076q-.071.035-.166.067-.091.035-.206.035-.109 0-.203-.032-.094-.032-.166-.094-.07-.063-.11-.15-.039-.086-.039-.195 0-.181.087-.313.09-.131.226-.22.136-.092.3-.147.166-.054.322-.087l.146-.032q.067-.015.117-.03v-.21q0-.484-.437-.484-.448 0-.496.456zm1.086.352q-.082.033-.179.062-.096.03-.193.065-.097.032-.189.077-.089.044-.158.106-.07.06-.112.144-.042.085-.042.199 0 .067.03.129.032.062.082.111.05.047.111.077.062.03.124.03.042 0 .104-.012.062-.015.132-.04.072-.027.146-.065.077-.037.144-.081zm.41-2.093l-.98.801-.067-.022.518-.78zM15.051 4.254h-.054q-.504.007-.707.146-.216.147-.216.457 0 .166.092.268.094.104.233.104.198 0 .345-.102l.05.087q-.177.11-.323.149-.147.04-.263.04-.203 0-.328-.117-.124-.114-.124-.298 0-.216.09-.337.089-.12.238-.23.151-.112.151-.296 0-.114-.057-.278l-.322-.84H12.66l-.392 1.049.44.079v.119h-1.05v-.12l.414-.078 1.111-2.962.348-.067 1.166 3.029.354.079zm-2.334-1.397H13.8l-.546-1.413zM12.672.73q.023-.273.132-.39.11-.118.303-.118.146 0 .332.131.188.13.275.13.104 0 .164-.055.06-.057.07-.206h.089q-.01.268-.117.392-.104.124-.297.114-.144 0-.318-.13-.174-.13-.295-.13-.094 0-.166.059-.07.06-.082.203zM16.846 2.778v-.335q.266-.258.72-.258.709 0 .709.62v1.25l.325.08v.119h-.365q-.101.072-.178.136-.077.065-.127.132-.05.07-.074.149-.025.08-.025.178 0 .164.084.258.085.097.221.097.077 0 .171-.035.097-.032.211-.106l.03.074q-.186.12-.338.169-.148.052-.267.052-.179 0-.288-.107-.11-.107-.11-.288 0-.091.04-.193.04-.1.11-.196.071-.094.168-.179.097-.081.214-.141-.062-.032-.095-.087-.032-.057-.05-.129-.066.057-.15.1l-.157.076q-.072.035-.166.067-.092.035-.206.035-.11 0-.203-.032-.095-.032-.167-.094-.069-.063-.109-.15-.04-.086-.04-.195 0-.181.087-.313.09-.131.226-.22.137-.092.3-.147.166-.054.323-.087l.146-.032q.067-.015.117-.03v-.21q0-.484-.437-.484-.449 0-.496.456zm1.087.352q-.082.033-.179.062-.097.03-.193.065-.097.032-.189.077-.09.044-.159.106-.07.06-.111.144-.042.085-.042.199 0 .067.03.129.032.062.081.111.05.047.112.077t.124.03q.042 0 .104-.012.062-.015.131-.04.072-.027.147-.065.077-.037.144-.081zm-1.07-1.364q.023-.273.132-.39.11-.118.303-.118.146 0 .332.131.189.129.275.129.105 0 .164-.055.06-.057.07-.205h.089q-.01.267-.117.392-.104.124-.297.114-.144 0-.318-.13-.174-.13-.295-.13-.094 0-.166.059-.07.06-.082.203zM2.366 14.846v.964h-.119l-.119-.414h-.856v1.4h1.45l.242-.599h.12l-.08.757h-.6q-.258 0-.43.174-.17.173-.17.404 0 .176.089.28.091.104.23.104.13 0 .204-.03.077-.03.141-.071l.05.087q-.176.109-.323.148-.144.04-.263.04-.198 0-.327-.131-.127-.132-.127-.335 0-.221.134-.387.137-.166.372-.283H.372v-.12l.479-.078v-2.764l-.479-.08v-.118h2.562l.043.707h-.12l-.178-.548H1.272v1.284h.856l.12-.391zm.221-2.121l-.98.801-.067-.022.519-.78zM6.838 16.535q-.166.22-.529.426-.419.246-.419.588 0 .164.085.258.084.097.22.097.077 0 .171-.035.097-.032.211-.106l.03.074q-.186.12-.337.169-.15.052-.268.052-.179 0-.288-.107-.109-.107-.109-.288 0-.109.04-.208.04-.097.099-.181.062-.084.136-.151.075-.065.144-.11-.012.003-.027.003h-.03q-.186 0-.35-.082-.16-.084-.28-.226-.119-.141-.188-.33-.067-.19-.067-.404 0-.216.074-.412.074-.198.206-.347.131-.151.31-.24.181-.09.392-.09.203 0 .357.08.154.079.256.213.104.134.156.31.052.176.052.37H5.397q0 .193.064.36.065.165.171.287.107.12.246.189.141.067.293.067.173 0 .315-.075.143-.077.277-.218zm-.32-.809q0-.114-.035-.243-.032-.131-.1-.243-.066-.112-.17-.184-.102-.074-.24-.074-.142 0-.247.072-.101.07-.17.181-.068.11-.105.24-.037.132-.047.251zm.213-1.99l-.98.802-.067-.022.519-.78zM13.565 14.846v.964h-.119l-.119-.414h-.855v1.4h1.448l.243-.599h.12l-.08.757h-.6q-.258 0-.43.174-.17.173-.17.404 0 .176.089.28.091.104.23.104.13 0 .204-.03.077-.03.141-.071l.05.087q-.176.109-.323.148-.144.04-.263.04-.198 0-.327-.131-.127-.132-.127-.335 0-.221.134-.387.137-.166.372-.283h-1.612v-.12l.479-.078v-2.764l-.479-.08v-.118h2.562l.043.707h-.12l-.178-.548h-1.406v1.284h.855l.12-.391zm-1.222-1.417q.022-.273.131-.39.11-.118.303-.118.146 0 .332.131.189.13.275.13.105 0 .164-.055.06-.057.07-.206h.089q-.01.268-.117.392-.104.124-.297.114-.144 0-.318-.13-.174-.13-.295-.13-.094 0-.166.059-.07.06-.082.203zM18.037 16.535q-.166.22-.528.426-.42.246-.42.588 0 .164.085.258.084.097.22.097.077 0 .172-.035.096-.032.21-.106l.03.074q-.186.12-.337.169-.149.052-.268.052-.179 0-.288-.107-.109-.107-.109-.288 0-.109.04-.208.04-.097.099-.181.062-.084.136-.151.075-.065.144-.11-.012.003-.027.003h-.03q-.186 0-.35-.082-.16-.084-.28-.226-.119-.141-.188-.33-.067-.19-.067-.404 0-.216.074-.412.075-.198.206-.347.131-.151.31-.24.181-.09.392-.09.203 0 .357.08.154.079.256.213.104.134.156.31.052.176.052.37h-1.488q0 .193.064.36.065.165.171.287.107.12.246.189.141.067.293.067.173 0 .315-.075.143-.077.277-.218zm-.32-.809q0-.114-.035-.243-.032-.131-.1-.243-.066-.112-.17-.184-.102-.074-.24-.074-.142 0-.246.072-.102.07-.172.181-.067.11-.104.24-.037.132-.047.251zm-1.218-1.26q.022-.273.131-.39.11-.118.303-.118.146 0 .332.131.189.129.276.129.104 0 .163-.055.06-.057.07-.205h.09q-.01.267-.117.391-.105.125-.298.115-.144 0-.318-.13-.173-.13-.295-.13-.094 0-.166.059-.07.06-.082.203zM24.765 14.846v.964h-.12l-.119-.414h-.855v1.4h1.448l.243-.599h.12l-.08.757H22.77v-.12l.479-.078v-2.764l-.479-.08v-.118h2.563l.042.707h-.12l-.178-.548h-1.406v1.284h.855l.12-.391zm-.266-1.63q0 .102-.07.171-.066.067-.17.067-.102 0-.172-.067-.067-.07-.067-.171 0-.104.067-.171.07-.07.172-.07.104 0 .17.07.07.067.07.17zm.65-1.21l-.98.8-.067-.022.519-.779zM28.569 16.76q.173 0 .315-.074.144-.077.278-.218l.074.067q-.08.097-.176.183-.097.087-.209.154-.111.067-.235.104-.122.04-.25.04-.187 0-.35-.082-.162-.084-.28-.226-.12-.141-.19-.33-.066-.19-.066-.404 0-.216.074-.412.075-.198.206-.347.132-.151.31-.24.181-.09.392-.09.203 0 .357.08.154.079.256.213.104.134.156.31.052.176.052.37h-1.488q0 .193.064.36.065.165.171.287.107.12.246.189.141.066.293.066zm.347-1.034q0-.114-.035-.243-.032-.131-.099-.243-.067-.112-.171-.184-.102-.074-.24-.074-.142 0-.246.072-.102.07-.171.181-.067.11-.105.24-.037.132-.047.251zm-.26-1.572q0 .101-.07.17-.067.068-.171.068-.102 0-.171-.067-.067-.07-.067-.171 0-.105.067-.172.07-.07.17-.07.105 0 .172.07.07.067.07.172zm.682-1.404l-.98.8-.067-.022.518-.778zM35.966 14.846v.964h-.119l-.119-.414h-.856v1.4h1.449l.243-.599h.119l-.08.757h-2.631v-.12l.479-.078v-2.764l-.48-.08v-.118h2.563l.042.707h-.119l-.178-.548h-1.407v1.284h.856l.12-.391zm-.265-1.63q0 .102-.07.171-.067.067-.17.067-.103 0-.172-.067-.067-.07-.067-.171 0-.104.067-.171.07-.07.171-.07.104 0 .171.07.07.067.07.17zm-.923-.556q.022-.273.131-.39.11-.118.303-.118.146 0 .332.131.189.13.276.13.104 0 .163-.055.06-.057.07-.206h.09q-.01.268-.117.392-.105.124-.298.114-.144 0-.317-.13-.174-.13-.296-.13-.094 0-.166.059-.07.06-.082.203zM39.77 16.76q.174 0 .315-.074.144-.077.278-.218l.075.067q-.08.097-.177.183-.096.087-.208.154-.112.067-.236.104-.121.04-.25.04-.186 0-.35-.082-.161-.084-.28-.226-.12-.141-.189-.33-.067-.19-.067-.404 0-.216.075-.412.074-.198.206-.347.131-.151.31-.24.18-.09.392-.09.203 0 .357.08.154.079.255.213.104.134.157.31.052.176.052.37h-1.489q0 .193.065.36.064.165.171.287.107.12.246.189.141.066.292.066zm.348-1.034q0-.114-.035-.243-.032-.131-.1-.243-.066-.112-.17-.184-.102-.074-.241-.074-.142 0-.246.072-.101.07-.17.181-.068.11-.105.24-.037.132-.047.251zm-.26-1.572q0 .101-.07.17-.067.068-.172.068-.101 0-.17-.067-.068-.07-.068-.171 0-.105.067-.172.07-.07.171-.07.105 0 .172.07.07.067.07.172zm-.909-.675q.023-.273.132-.39.109-.119.302-.119.147 0 .333.132.188.129.275.129.104 0 .164-.055.06-.057.07-.206h.088q-.01.268-.116.392-.104.124-.298.114-.144 0-.317-.129-.174-.131-.295-.131-.095 0-.167.06-.07.059-.081.203zM1.06 29.456l.346.079v.119H.37v-.12l.347-.078v-1.613H.37v-.082l.57-.2h.12zm.059-2.602q0 .101-.07.17-.067.068-.17.068-.103 0-.172-.067-.067-.07-.067-.171 0-.105.067-.172.07-.07.171-.07.104 0 .171.07.07.067.07.172zm-.142-.603L0 25.45h.526l.518.778zM6.72 29.456l.348.079v.119H6.03v-.12l.347-.078v-1.613h-.347v-.082l.57-.2h.12zm.06-2.602q0 .101-.07.17-.067.068-.17.068-.103 0-.172-.067-.067-.07-.067-.171 0-.105.067-.172.07-.07.171-.07.104 0 .171.07.07.067.07.172zm.57-1.404l-.98.8-.066-.022.518-.778zM12.381 29.456l.348.079v.119h-1.037v-.12l.347-.078v-1.613h-.347v-.082l.57-.2h.12zm.06-2.602q0 .101-.07.17-.067.068-.17.068-.102 0-.172-.067-.067-.07-.067-.171 0-.105.067-.172.07-.07.171-.07.104 0 .171.07.07.067.07.172zm-.913-.675q.022-.273.132-.39.109-.119.302-.119.147 0 .333.132.188.129.275.129.104 0 .164-.055.06-.057.07-.206h.088q-.01.268-.116.392-.104.124-.298.114-.144 0-.317-.129-.174-.131-.296-.131-.094 0-.166.06-.07.059-.082.203zM18.613 26.613l-.382.08v2.763l.382.079v.119h-.117q-.243 0-.421.156-.179.156-.179.422 0 .176.09.28.091.104.23.104.13 0 .204-.03.076-.03.14-.071l.05.086q-.176.11-.322.15-.144.039-.263.039-.198 0-.327-.131-.127-.132-.127-.335 0-.199.142-.377.141-.179.396-.293h-.682v-.12l.382-.078v-2.764l-.382-.08v-.118h1.186zm.226-1.188l-.98.8-.067-.021.518-.78zM21.502 29.654h-.156q-.216.007-.39.181-.173.174-.173.414 0 .164.084.258.084.097.22.097.078 0 .172-.035.097-.032.21-.106l.03.074q-.183.12-.334.169-.152.052-.27.052-.18 0-.289-.107-.109-.107-.109-.288 0-.223.154-.411.154-.189.394-.298h-.58v-.12l.347-.078v-1.613h-.347v-.082l.57-.2h.12v1.895l.347.079zm-.288-2.8q0 .101-.07.17-.066.068-.17.068-.102 0-.172-.067-.067-.07-.067-.171 0-.105.067-.172.07-.07.172-.07.104 0 .17.07.07.067.07.172zm.57-1.404l-.98.8-.066-.022.518-.778zM27.386 26.613l-.382.08v2.763l.382.079v.119h-.116q-.243 0-.422.156t-.179.422q0 .176.09.28.091.104.23.104.13 0 .204-.03.077-.03.141-.071l.05.086q-.176.11-.323.15-.144.039-.263.039-.198 0-.327-.131-.127-.132-.127-.335 0-.199.142-.377.141-.179.397-.293H26.2v-.12l.382-.078v-2.764l-.382-.08v-.118h1.185zm-1.275-.484q.023-.273.132-.39.109-.118.302-.118.147 0 .333.131.188.13.275.13.104 0 .164-.055.06-.057.07-.206h.089q-.01.268-.117.392-.104.124-.298.114-.144 0-.317-.13-.174-.13-.295-.13-.095 0-.167.059-.07.06-.081.203zM30.275 29.654h-.156q-.216.007-.39.181-.173.174-.173.414 0 .164.084.258.084.097.22.097.078 0 .172-.035.097-.032.21-.106l.03.074q-.183.12-.334.169-.152.052-.27.052-.18 0-.288-.107-.11-.107-.11-.288 0-.223.154-.411.154-.189.395-.298h-.58v-.12l.346-.078v-1.613h-.347v-.082l.57-.2h.12v1.895l.347.079zm-.288-2.8q0 .101-.07.17-.066.068-.17.068-.102 0-.171-.067-.067-.07-.067-.171 0-.105.067-.172.069-.07.17-.07.105 0 .172.07.07.067.07.172zm-.912-.675q.022-.273.131-.39.11-.119.303-.119.146 0 .332.132.188.129.275.129.104 0 .164-.055.06-.057.07-.206h.089q-.01.268-.117.392-.104.124-.297.114-.144 0-.318-.129-.174-.131-.295-.131-.094 0-.166.06-.07.059-.082.203zM36.16 26.613l-.383.08v3.157l-.615.987-.126-.082q.114-.166.178-.325.065-.156.097-.305.032-.146.037-.283.008-.136.008-.262v-2.888l-.382-.08v-.118h1.185zm-1.276-.509q.023-.272.132-.389.11-.12.303-.12.146 0 .332.132.188.13.275.13.104 0 .164-.055.06-.057.07-.206h.089q-.01.268-.117.392-.104.124-.298.114-.143 0-.317-.13-.174-.13-.295-.13-.094 0-.166.059-.07.06-.082.203zM38.701 30.098l-.407.74-.111-.083q.067-.074.101-.151.035-.074.052-.166.018-.09.02-.204.003-.114.003-.27v-2.12h-.348v-.083l.57-.2h.12zm.06-3.244q0 .101-.07.17-.067.068-.171.068-.102 0-.171-.067-.067-.07-.067-.171 0-.105.067-.172.07-.07.17-.07.105 0 .172.07.07.067.07.172zm-.92-.675q.022-.273.13-.39.11-.119.303-.119.147 0 .333.132.188.129.275.129.104 0 .164-.055.06-.057.07-.206h.089q-.01.268-.117.392-.104.124-.298.114-.144 0-.317-.129-.174-.131-.295-.131-.095 0-.167.06-.069.059-.081.203zM2.843 41.612l-.095.742H.444v-.12l.407-.079v-2.763l-.407-.08v-.118h1.285v.119l-.457.08v2.802h1.253l.199-.583zM.375 38.804q.022-.272.131-.39.11-.118.303-.118.146 0 .332.131.189.13.275.13.105 0 .164-.055.06-.057.07-.206h.089q-.01.268-.117.392-.104.124-.297.114-.144 0-.318-.13-.174-.13-.295-.13-.094 0-.166.059-.07.06-.082.203zM5.677 42.354H4.64v-.12l.347-.079v-2.842H4.64v-.12l.573-.217h.117v3.18l.347.079zm-1.2-3.723q.022-.273.13-.39.11-.119.303-.119.147 0 .333.132.188.129.275.129.104 0 .164-.055.06-.057.07-.206h.089q-.01.268-.117.392-.104.124-.298.114-.144 0-.317-.129-.174-.131-.295-.131-.095 0-.167.06-.069.059-.081.203zM12.365 42.354h-.094l-1.268-2.758h-.01l-.101 2.56.394.079v.119h-1.057v-.12l.424-.079.191-2.763-.357-.08v-.118h.767l1.175 2.565 1.169-2.565h.746v.119l-.342.08.193 2.762.42.08v.119H13.31v-.12l.469-.079-.166-2.56H13.6zm-.628-3.475q.023-.273.132-.39.109-.119.302-.119.147 0 .333.132.188.129.275.129.104 0 .164-.055.06-.057.07-.206h.089q-.01.268-.117.392-.104.124-.298.114-.143 0-.317-.129-.174-.131-.295-.131-.095 0-.166.06-.07.059-.082.203zM20.115 42.354H19.08v-.12l.347-.079V40.89q0-.401-.377-.401-.223 0-.65.3v1.366l.347.08v.119H17.71v-.12l.348-.079V40.89q0-.401-.377-.401-.229 0-.65.307v1.36l.347.079v.119H16.34v-.12l.347-.079v-1.612h-.347v-.082l.57-.2h.12v.411q.469-.387.873-.387.412 0 .481.39.484-.39.888-.39.496 0 .496.566v1.304l.347.08zm-2.57-2.488q.023-.273.132-.39.11-.118.303-.118.146 0 .332.131.189.129.276.129.104 0 .163-.055.06-.057.07-.205h.089q-.01.267-.117.391-.104.124-.297.115-.144 0-.318-.13-.173-.13-.295-.13-.094 0-.166.059-.07.06-.082.203zM27.81 42.354h-.78q-.075-.199-.137-.39-.062-.19-.134-.36-.072-.17-.164-.312-.092-.144-.223-.245-.132-.104-.313-.162-.178-.057-.426-.057-.02 0-.03.005v1.322l.533.08v.119h-1.433v-.12l.478-.079V39.39l-.478-.077v-.12h.287q.134 0 .397-.022t.66-.022q.29 0 .496.067.206.065.335.176.131.112.19.26.063.147.063.31 0 .16-.052.293-.052.134-.156.236-.105.1-.263.164-.16.064-.375.084v.01q.122.017.21.047.093.03.162.075.072.042.13.096.056.055.108.122.102.131.174.255t.129.27q.074.192.131.313.06.122.124.191.065.067.147.092.084.025.21.025zm-1.15-2.359q0-.149-.03-.28-.027-.132-.1-.231-.069-.1-.193-.156-.121-.06-.31-.06-.129 0-.236.005-.104.005-.188.015v1.402l.11.007.106.002q.193 0 .35-.04.156-.039.265-.123.11-.087.166-.219.06-.134.06-.322zm-1.335-1.24q.022-.273.132-.39.109-.119.302-.119.147 0 .333.132.188.129.275.129.104 0 .164-.055.06-.057.07-.206h.088q-.01.268-.116.392-.104.124-.298.114-.144 0-.317-.129-.174-.131-.296-.131-.094 0-.166.06-.07.059-.082.203zM30.955 40.771l-.295-.109q-.06-.022-.09-.022-.17 0-.322.258v1.257l.414.08v.119h-1.104v-.12l.348-.079v-1.612h-.348v-.082l.57-.2h.12v.493q.226-.437.491-.437.047 0 .094.018l.253.092zm-1.315-.962q.023-.273.132-.39.109-.119.302-.119.147 0 .333.132.188.129.275.129.104 0 .164-.055.06-.057.07-.206h.089q-.01.268-.117.392-.104.124-.298.114-.144 0-.317-.128-.174-.132-.295-.132-.095 0-.167.06-.069.06-.081.203zM3.706 52.013l-.462.08v1.736q0 .297-.067.54-.066.24-.21.412-.142.169-.365.26-.04.015-.171.072-.132.06-.283.17-.149.11-.151.369 0 .176.09.28.09.104.23.104.129 0 .203-.03.077-.03.142-.072l.05.087q-.177.11-.323.15-.144.039-.263.039-.199 0-.328-.132-.126-.131-.126-.335 0-.22.119-.367.119-.146.325-.243h-.047q-.34 0-.588-.092-.248-.094-.41-.262-.16-.17-.238-.402-.076-.236-.076-.521v-1.764l-.437-.08v-.118h1.305v.119l-.447.08v1.706q0 .25.052.459.052.206.162.354.109.15.28.231.173.082.412.082.26 0 .441-.077.184-.077.3-.22.117-.147.169-.358.054-.21.054-.476v-1.702l-.498-.08v-.118h1.156zm-.747-1.094l-.98.801-.067-.022.519-.779zM7.805 55.054h-.258q-.149 0-.253.052-.102.055-.166.139-.065.084-.094.19-.028.108-.028.214 0 .06.018.122.02.064.057.116.04.052.097.085.057.032.134.032.076 0 .17-.035.097-.032.212-.106l.03.074q-.187.119-.338.169-.149.052-.268.052-.092 0-.166-.038-.072-.037-.124-.094-.052-.057-.08-.126-.027-.07-.027-.137 0-.464.407-.707v-.315q-.256.194-.469.286-.213.089-.362.089-.114 0-.213-.047-.097-.045-.171-.12-.072-.076-.115-.173-.04-.1-.04-.203v-1.33h-.347v-.082l.571-.2h.12v1.428q0 .283.113.402.117.117.342.117.095 0 .246-.077.154-.077.325-.211v-1.377h-.347v-.082l.57-.2h.12v1.894l.334.08zm-.456-3.217l-.98.8-.067-.021.518-.78zM15.763 52.013l-.461.08v1.736q0 .297-.067.54-.067.24-.211.412-.141.169-.365.26-.04.015-.17.072-.132.06-.284.17-.148.11-.15.369 0 .176.088.28.092.104.231.104.13 0 .203-.03.077-.03.142-.072l.05.087q-.177.11-.323.15-.144.039-.263.039-.198 0-.327-.132-.127-.131-.127-.335 0-.22.12-.367.118-.146.324-.243h-.047q-.34 0-.588-.092-.248-.094-.41-.262-.16-.17-.237-.402-.077-.236-.077-.521v-1.764l-.437-.08v-.118h1.305v.119l-.446.08v1.706q0 .25.052.459.052.206.16.354.11.15.281.231.174.082.412.082.26 0 .441-.077.184-.077.3-.22.117-.147.17-.358.054-.21.054-.476v-1.702l-.499-.08v-.118h1.156zm-2.329-.509q.022-.273.131-.39.11-.118.303-.118.146 0 .332.131.189.13.276.13.104 0 .164-.055.059-.057.069-.206h.09q-.01.268-.117.392-.105.124-.298.114-.144 0-.317-.13-.174-.13-.296-.13-.094 0-.166.059-.07.06-.082.203zM19.862 55.054h-.258q-.148 0-.253.052-.101.055-.166.139-.064.084-.094.19-.027.108-.027.214 0 .06.017.122.02.064.057.116.04.052.097.085.057.032.134.032.077 0 .171-.035.097-.032.21-.106l.03.074q-.185.119-.337.169-.149.052-.268.052-.091 0-.166-.038-.072-.037-.124-.094-.052-.057-.08-.126-.026-.07-.026-.137 0-.464.406-.707v-.315q-.255.194-.469.286-.213.089-.362.089-.114 0-.213-.047-.097-.045-.171-.12-.072-.076-.114-.173-.04-.1-.04-.203v-1.33h-.347v-.082l.57-.2h.12v1.428q0 .283.113.402.117.117.343.117.094 0 .245-.077.154-.077.325-.211v-1.377h-.347v-.082l.57-.2h.12v1.894l.334.08zm-1.88-2.488q.023-.273.132-.39.109-.119.302-.119.147 0 .333.132.188.129.275.129.104 0 .164-.055.06-.057.07-.206h.089q-.01.268-.117.392-.104.124-.298.115-.144 0-.317-.13-.174-.13-.295-.13-.095 0-.167.059-.069.06-.081.203zM27.82 52.013l-.46.08v1.736q0 .297-.068.54-.067.24-.21.412-.142.169-.365.26-.224.092-.534.092-.34 0-.587-.092-.249-.094-.41-.262-.161-.17-.238-.402-.077-.236-.077-.521v-1.764l-.436-.08v-.118h1.304v.119l-.446.08v1.706q0 .25.052.459.052.206.161.354.11.15.28.231.174.082.412.082.26 0 .442-.077.183-.077.3-.22.117-.147.169-.358.054-.21.054-.476v-1.702l-.498-.08v-.118h1.155zm-2.299-.638h1.4v.179h-1.4zm1.595-1.146l-.98.802-.067-.023.519-.779zM31.92 55.054h-.677v-.313q-.256.194-.47.286-.212.089-.361.089-.229 0-.385-.166-.154-.166-.154-.377v-1.33h-.347v-.082l.57-.2h.12v1.428q0 .283.114.402.116.117.342.117.094 0 .246-.077.153-.077.325-.211v-1.377h-.348v-.082l.57-.2h.12v1.894l.335.08zm-1.9-2.875h1.399v.179h-1.4zm1.543-1.16l-.98.8-.067-.022.518-.779zM39.88 52.013l-.461.08v1.736q0 .297-.067.54-.067.24-.21.412-.142.169-.366.26-.223.092-.533.092-.34 0-.588-.092-.248-.094-.409-.262-.161-.17-.238-.402-.077-.236-.077-.521v-1.764l-.437-.08v-.118H37.8v.119l-.446.08v1.706q0 .25.052.459.052.206.161.354.11.15.28.231.174.082.412.082.26 0 .442-.077.183-.077.3-.22.116-.147.168-.358.055-.21.055-.476v-1.702l-.499-.08v-.118h1.156zm-2.3-.638h1.4v.179h-1.4zm.003-.416q.023-.273.132-.39.109-.119.302-.119.147 0 .333.132.188.129.275.129.104 0 .164-.055.06-.057.07-.206h.089q-.01.268-.117.392-.104.124-.298.114-.144 0-.317-.129-.174-.131-.295-.131-.095 0-.167.06-.069.059-.081.203zM43.98 55.054h-.678v-.313q-.255.194-.468.286-.214.089-.363.089-.228 0-.384-.166-.154-.166-.154-.377v-1.33h-.347v-.082l.57-.2h.12v1.428q0 .283.114.402.116.117.342.117.094 0 .246-.077.153-.077.324-.211v-1.377h-.347v-.082l.57-.2h.12v1.894l.335.08zm-1.9-2.875h1.399v.179h-1.4zm.02-.491q.022-.273.13-.39.11-.119.303-.119.147 0 .333.132.188.129.275.129.104 0 .164-.055.06-.057.07-.206h.089q-.01.268-.117.392-.104.124-.298.114-.143 0-.317-.129-.174-.131-.295-.131-.094 0-.166.06-.07.059-.082.203z" style="-inkscape-font-specification:Palemonas"/></g></svg>