<?xml version="1.0" encoding="UTF-8"?>
<svg width="900" height="300" version="1.0" xmlns="http://www.w3.org/2000/svg" xmlns:cc="http://creativecommons.org/ns#" xmlns:dc="http://purl.org/dc/elements/1.1/" xmlns:rdf="http://www.w3.org/1999/02/22-rdf-syntax-ns#">
 <metadata>
  <rdf:RDF>
   <cc:Work rdf:about="">
    <dc:format>image/svg+xml</dc:format>
    <dc:type rdf:resource="http://purl.org/dc/dcmitype/StillImage"/>
    <dc:title/>
   </cc:Work>
  </rdf:RDF>
 </metadata>
 <g fill-rule="evenodd" stroke="#000">
  <path d="M330 60h60v60h-60zM765 120h60v60h-60zM0 0h60v60H0V0zM60 0h60v60H60V0zM120 0h60v60h-60V0zM180 0h60v60h-60V0zM240 0h60v60h-60V0zM300 0h60v60h-60V0zM360 0h60v60h-60V0zM420 0h60v60h-60V0zM480 0h60v60h-60V0zM540 0h60v60h-60V0zM600 0h60v60h-60V0zM660 0h60v60h-60V0zM720 0h60v60h-60V0z" fill="#fff"/>
  <path d="M780 0h120v60H780V0zM0 60h90v60H0V60z" fill="#ccc"/>
  <path d="m90 60h60v60h-60v-60zm60 0h60v60h-60v-60zm60 0h60v60h-60v-60zm60 0h60v60h-60v-60zm90-60h60v60h-60zm30 60h60v60h-60v-60zm60 0h60v60h-60v-60zm60 0h60v60h-60v-60zm60 0h60v60h-60v-60zm60 0h60v60h-60v-60zm60 0h60v60h-60v-60zm60 0h60v60h-60v-60z" fill="#fff"/>
  <path d="M0 120h105v60H0v-60z" fill="#4d4d4d"/>
  <path d="m105 120h60v60h-60v-60zm60 0h60v60h-60v-60zm60 0h60v60h-60v-60zm60 0h60v60h-60v-60zm60 0h60v60h-60v-60zm60 0h60v60h-60v-60zm60 0h60v60h-60v-60zm60 0h60v60h-60v-60zm60 0h60v60h-60v-60zm60 0h60v60h-60v-60zm60 0h60v60h-60v-60z" fill="#fff"/>
  <path d="M825 120h-15V60h90v120h-75.11l.11-60zM0 180h75.002v60H0v-60z" fill="#ccc"/>
  <path d="m135 180h60v60h-60v-60zm60 0h60v60h-60v-60zm60 0h60v60h-60v-60zm60 0h60v60h-60v-60zm60 0h60v60h-60v-60zm60 0h60v60h-60v-60zm60 0h60v60h-60v-60zm60 0h60v60h-60v-60zm60 0h60v60h-60v-60zm60 0h60v60h-60v-60z" fill="#fff"/>
  <path d="m735 180h165v60h-165v-60zm-735 60h90v60h-90v-60zm810 0h90v60h-90v-60zm-660 0h90v60h-90v-60zm450 0h90v60h-90v-60z" fill="#ccc"/>
  <path d="M240 240h360v60H240v-60z" fill="#fff"/>
  <path d="m90 240h60v60h-60v-60zm600 0h60v60h-60v-60zm60 0h60v60h-60v-60z" fill="#e6e6e6"/>
  <path d="M75 180h60v60H75v-60z" fill="#fff"/>
 </g>
 <g font-family="Noto Sans" font-size="26.667" font-weight="600">
  <text x="96.377" y="89.022" style="font-variant-caps:normal;font-variant-east-asian:normal;font-variant-ligatures:normal;font-variant-numeric:normal;line-height:1.25"><tspan x="96.377" y="89.022">Ū</tspan></text>
  <text x="157.611" y="89.043" style="line-height:1.25"><tspan x="157.611" y="89.043">Ė</tspan></text>
  <text x="218.01" y="88.838" style="line-height:1.25"><tspan x="218.01" y="88.838">Y</tspan></text>
  <text x="275.609" y="89.162" style="line-height:1.25"><tspan x="275.609" y="89.162">O</tspan></text>
  <text x="335.467" y="89.353" style="line-height:1.25"><tspan x="335.467" y="89.353">Q</tspan></text>
  <text x="401.666" y="88.907" style="line-height:1.25"><tspan x="401.666" y="88.907">J</tspan></text>
  <text x="455.405" y="89.028" style="line-height:1.25"><tspan x="455.405" y="89.028">N</tspan></text>
  <text x="517.878" y="88.832" style="line-height:1.25"><tspan x="517.878" y="88.832">K</tspan></text>
  <text x="576.485" y="88.781" style="line-height:1.25"><tspan x="576.485" y="88.781">G</tspan></text>
  <text x="637.417" y="89.279" style="line-height:1.25"><tspan x="637.417" y="89.279">B</tspan></text>
  <text x="696.673" y="89.311" style="line-height:1.25"><tspan x="696.673" y="89.311">C</tspan></text>
  <text x="757.889" y="89.046" style="line-height:1.25"><tspan x="757.889" y="89.046">F</tspan></text>
  <text x="773.768" y="149.01" style="line-height:1.25"><tspan x="773.768" y="149.01">Z</tspan></text>
  <text x="713.039" y="149.077" style="line-height:1.25"><tspan x="713.039" y="149.077">Ž</tspan></text>
  <text x="653.67" y="148.787" style="line-height:1.25"><tspan x="653.67" y="148.787">P</tspan></text>
 </g>
 <text x="594.10822" y="148.87085" font-family="'Noto Sans'" font-size="26.667px" font-weight="600" style="line-height:1.25"><tspan x="594.10822" y="148.87085">S</tspan></text>
 <g font-family="Noto Sans" font-weight="600">
  <g font-size="26.667">
   <text x="533.201" y="148.696" style="line-height:1.25"><tspan x="533.201" y="148.696">T</tspan></text>
   <text x="473.148" y="148.671" style="line-height:1.25"><tspan x="473.148" y="148.671">R</tspan></text>
   <text x="411.786" y="148.985" style="line-height:1.25"><tspan x="411.786" y="148.985">L</tspan></text>
   <text x="351.053" y="148.936" style="line-height:1.25"><tspan x="351.053" y="148.936">H</tspan></text>
   <text x="292.179" y="148.863" style="line-height:1.25"><tspan x="292.179" y="148.863">A</tspan></text>
   <text x="235.662" y="149.022" style="line-height:1.25"><tspan x="235.662" y="149.022">I</tspan></text>
   <text x="172.726" y="149.092" style="line-height:1.25"><tspan x="172.726" y="149.092">E</tspan></text>
   <text x="110.967" y="149.054" style="line-height:1.25"><tspan x="110.967" y="149.054">U</tspan></text>
  </g>
  <text x="90" y="202.5" font-size="24" style="line-height:1.25"/>
 </g>
 <g font-weight="600">
  <text x="85.963997" y="231.763" font-family="'Noto Sans'" font-size="24px" style="line-height:1.25"><tspan x="85.963997" y="231.763" font-family="'Noto Sans'" font-weight="normal">-</tspan></text>
  <text x="8.2530003" y="53.424" font-family="'Noto Sans'" font-size="24px" style="line-height:1.25"><tspan x="8.2530003" y="53.424" font-family="'Noto Sans'" font-weight="normal">+</tspan></text>
  <text x="45" y="7.5" font-family="Noto Sans" font-size="24" style="line-height:1.25"/>
 </g>
 <g font-family="'Noto Sans'" font-size="24px" font-weight="600">
  <text x="71.713997" y="52.097" style="line-height:1.25"><tspan x="71.713997" y="52.097" font-family="'Noto Sans'" font-weight="normal">!</tspan></text>
  <text x="131.761" y="52.492001" style="line-height:1.25"><tspan x="131.761" y="52.492001" font-family="'Noto Sans'" font-weight="normal">:</tspan></text>
  <text x="191.674" y="52.410999" style="line-height:1.25"><tspan x="191.674" y="52.410999" font-family="'Noto Sans'" font-weight="normal">.</tspan></text>
  <text x="248.661" y="51.443001" style="line-height:1.25"><tspan x="248.661" y="51.443001" font-family="'Noto Sans'" font-weight="normal">*</tspan></text>
  <text x="309.61899" y="50.344002" style="line-height:1.25"><tspan x="309.61899" y="50.344002" font-family="'Noto Sans'" font-weight="normal">_</tspan></text>
  <text x="364.05099" y="51.904999" style="line-height:1.25"><tspan x="364.05099" y="51.904999" font-family="'Noto Sans'" font-weight="normal">—</tspan></text>
  <text x="428.40601" y="53.324001" style="line-height:1.25"><tspan x="428.40601" y="53.324001" font-family="'Noto Sans'" font-weight="normal">=</tspan></text>
  <text x="492.13501" y="52.291" style="line-height:1.25"><tspan x="492.13501" y="52.291" font-family="'Noto Sans'" font-weight="normal">,</tspan></text>
  <text x="551.66901" y="52.75" style="line-height:1.25"><tspan x="551.66901" y="52.75" font-family="'Noto Sans'" font-weight="normal">;</tspan></text>
  <text x="610.039" y="52.459" style="line-height:1.25"><tspan x="610.039" y="52.459" font-family="'Noto Sans'" font-weight="normal">/</tspan></text>
 </g>
 <text x="663.53" y="28.915" font-family="Noto Sans" font-size="26.667" font-weight="600" style="line-height:1.25"><tspan x="663.53" y="28.915">W</tspan></text>
 <text x="730.29102" y="52.382999" font-family="'Noto Sans'" font-size="24px" font-weight="600" style="line-height:1.25"><tspan x="730.29102" y="52.382999" font-family="'Noto Sans'" font-weight="normal">?</tspan></text>
 <g font-family="Noto Sans" font-size="26.667" font-weight="600">
  <text x="141.234" y="209.203" style="line-height:1.25"><tspan x="141.234" y="209.203">Ų</tspan></text>
  <text x="202.995" y="209.065" style="line-height:1.25"><tspan x="202.995" y="209.065">Ę</tspan></text>
  <text x="265.925" y="209.061" style="line-height:1.25"><tspan x="265.925" y="209.061">Į</tspan></text>
  <text x="321.976" y="209.283" style="line-height:1.25"><tspan x="321.976" y="209.283">Ą</tspan></text>
  <text x="382.271" y="209.27" style="line-height:1.25"><tspan x="382.271" y="209.27">X</tspan></text>
  <text x="442.561" y="209.127" style="line-height:1.25"><tspan x="442.561" y="209.127">V</tspan></text>
  <text x="499.119" y="208.942" style="line-height:1.25"><tspan x="499.119" y="208.942">M</tspan></text>
  <text x="563.007" y="209.132" style="line-height:1.25"><tspan x="563.007" y="209.132">D</tspan></text>
  <text x="623.203" y="209.233" style="line-height:1.25"><tspan x="623.203" y="209.233">Š</tspan></text>
  <text x="681.952" y="209.198" style="line-height:1.25"><tspan x="681.952" y="209.198">Č</tspan></text>
 </g>
 <g fill="#fff" font-family="Noto Sans" font-weight="600" stroke-width="1.162">
  <text x="178.91" y="278.923" font-size="26.667" style="font-variant-caps:normal;font-variant-east-asian:normal;font-variant-ligatures:normal;font-variant-numeric:normal;line-height:1.25"><tspan x="178.91" y="278.923" font-weight="400" style="font-variant-caps:normal;font-variant-east-asian:normal;font-variant-ligatures:normal;font-variant-numeric:normal">⎇</tspan></text>
  <text x="633.838" y="277.435" font-size="27.887" style="line-height:1.25"><tspan x="633.838" y="277.435" font-size="26.667" font-weight="400" style="font-variant-caps:normal;font-variant-east-asian:normal;font-variant-ligatures:normal;font-variant-numeric:normal">⇮</tspan></text>
  <text x="37.251" y="277.48" font-size="26.667" style="font-variant-caps:normal;font-variant-east-asian:normal;font-variant-ligatures:normal;font-variant-numeric:normal;line-height:1.25"><tspan x="37.251" y="277.48" font-weight="400" style="font-variant-caps:normal;font-variant-east-asian:normal;font-variant-ligatures:normal;font-variant-numeric:normal">⎈</tspan></text>
  <text x="113.35" y="277.417" font-size="27.887" style="line-height:1.25"><tspan x="113.35" y="277.417" font-size="26.667" style="font-variant-caps:normal;font-variant-east-asian:normal;font-variant-ligatures:normal;font-variant-numeric:normal">◊</tspan></text>
  <text x="849.272" y="132.623" font-size="27.887" style="line-height:1.25"><tspan x="849.272" y="132.623" font-size="26.667" font-weight="400" style="font-variant-caps:normal;font-variant-east-asian:normal;font-variant-ligatures:normal;font-variant-numeric:normal">⏎</tspan></text>
  <g font-size="26.667">
   <text x="34.096" y="98.7" style="font-variant-caps:normal;font-variant-east-asian:normal;font-variant-ligatures:normal;font-variant-numeric:normal;line-height:1.25"><tspan x="34.096" y="98.7" font-weight="400" style="font-variant-caps:normal;font-variant-east-asian:normal;font-variant-ligatures:normal;font-variant-numeric:normal">↹</tspan></text>
   <text x="806.464" y="220.396" style="font-variant-caps:normal;font-variant-east-asian:normal;font-variant-ligatures:normal;font-variant-numeric:normal;line-height:1.25"><tspan x="806.464" y="220.396" font-weight="400" style="font-variant-caps:normal;font-variant-east-asian:normal;font-variant-ligatures:normal;font-variant-numeric:normal">⇧</tspan></text>
   <text x="41.446" y="159.65" style="font-variant-caps:normal;font-variant-east-asian:normal;font-variant-ligatures:normal;font-variant-numeric:normal;line-height:1.25"><tspan x="41.446" y="159.65" font-weight="400" style="font-variant-caps:normal;font-variant-east-asian:normal;font-variant-ligatures:normal;font-variant-numeric:normal">⇪</tspan></text>
   <text x="817.679" y="40.185" style="font-variant-caps:normal;font-variant-east-asian:normal;font-variant-ligatures:normal;font-variant-numeric:normal;line-height:1.25"><tspan x="817.679" y="40.185" font-weight="400" style="font-variant-caps:normal;font-variant-east-asian:normal;font-variant-ligatures:normal;font-variant-numeric:normal">⌫</tspan></text>
   <text x="26.298" y="219.327" style="font-variant-caps:normal;font-variant-east-asian:normal;font-variant-ligatures:normal;font-variant-numeric:normal;line-height:1.25"><tspan x="26.298" y="219.327" font-weight="400" style="font-variant-caps:normal;font-variant-east-asian:normal;font-variant-ligatures:normal;font-variant-numeric:normal">⇧</tspan></text>
   <text x="768.761" y="278.296" style="font-variant-caps:normal;font-variant-east-asian:normal;font-variant-ligatures:normal;font-variant-numeric:normal;line-height:1.25"><tspan x="768.761" y="278.296" font-weight="400" style="font-variant-caps:normal;font-variant-east-asian:normal;font-variant-ligatures:normal;font-variant-numeric:normal">≣</tspan></text>
   <text x="847.004" y="277.524" style="font-variant-caps:normal;font-variant-east-asian:normal;font-variant-ligatures:normal;font-variant-numeric:normal;line-height:1.25"><tspan x="847.004" y="277.524" font-weight="400" style="font-variant-caps:normal;font-variant-east-asian:normal;font-variant-ligatures:normal;font-variant-numeric:normal">⎈</tspan></text>
  </g>
  <text x="713.577" y="277.875" font-size="27.887" style="line-height:1.25"><tspan x="713.577" y="277.875" font-size="26.667" font-weight="700" style="font-variant-caps:normal;font-variant-east-asian:normal;font-variant-ligatures:normal;font-variant-numeric:normal">◊</tspan></text>
 </g>
</svg>
