<?xml version="1.0" encoding="UTF-8"?>
<svg width="900" height="300" version="1.0" xmlns="http://www.w3.org/2000/svg" xmlns:cc="http://creativecommons.org/ns#" xmlns:dc="http://purl.org/dc/elements/1.1/" xmlns:rdf="http://www.w3.org/1999/02/22-rdf-syntax-ns#">
 <metadata>
  <rdf:RDF>
   <cc:Work rdf:about="">
    <dc:format>image/svg+xml</dc:format>
    <dc:type rdf:resource="http://purl.org/dc/dcmitype/StillImage"/>
    <dc:title/>
   </cc:Work>
  </rdf:RDF>
 </metadata>
 <text x="101.756" y="216.72099" font-family="'Noto Sans'" font-size="18.667px" font-weight="600" letter-spacing=".01" style="line-height:1.25"/>
 <path d="M330 60h60v60h-60zm435 60h60v60h-60zM0 0h60v60H0V0zm60 0h60v60H60V0z" fill="#fff" fill-rule="evenodd" stroke="#000"/>
 <g font-family="'Noto Sans'" font-weight="600" letter-spacing=".01">
  <g font-size="16px">
   <text x="791.82599" y="156.55299" style="line-height:1.25"><tspan x="791.82599" y="156.55299" fill="#999999" font-family="'Noto Sans'" font-weight="normal">\</tspan></text>
   <text x="85.555" y="35.271" style="line-height:1.25"><tspan x="85.555" y="35.271" fill="#999999" font-family="'Noto Sans'" font-style="italic" font-weight="normal">1</tspan></text>
   <text x="358.79599" y="98.18" style="line-height:1.25"><tspan x="358.79599" y="98.18" fill="#999999" font-family="'Noto Sans'" font-style="italic" font-weight="normal">T</tspan></text>
  </g>
  <text x="790.703" y="157.819" font-size="18.667px" style="line-height:1.25"/>
 </g>
 <path d="M120 0h60v60h-60V0zm60 0h60v60h-60V0zm60 0h60v60h-60V0zm60 0h60v60h-60V0zm60 0h60v60h-60V0zm60 0h60v60h-60V0zm60 0h60v60h-60V0zm60 0h60v60h-60V0zm60 0h60v60h-60V0zm60 0h60v60h-60V0zm60 0h60v60h-60V0z" fill="#fff" fill-rule="evenodd" stroke="#000"/>
 <g font-family="'Noto Sans'" font-size="16px" font-weight="600" letter-spacing=".01">
  <text x="746.28003" y="35.191002" style="line-height:1.25"><tspan x="746.28003" y="35.191002" fill="#999999" font-family="'Noto Sans'" font-style="italic" font-weight="normal">=</tspan></text>
  <text x="688.72125" y="34.738216" style="line-height:1.25"><tspan x="688.72125" y="34.738216" fill="#999999" font-family="'Noto Sans'" font-style="italic" font-weight="normal">-</tspan></text>
  <text x="626.26703" y="35.278999" style="line-height:1.25"><tspan x="626.26703" y="35.278999" fill="#999999" font-family="'Noto Sans'" font-style="italic" font-weight="normal">0</tspan></text>
  <text x="565.25403" y="35.271" style="line-height:1.25"><tspan x="565.25403" y="35.271" fill="#999999" font-family="'Noto Sans'" font-style="italic" font-weight="normal">9</tspan></text>
  <text x="506.00299" y="35.271" style="line-height:1.25"><tspan x="506.00299" y="35.271" fill="#999999" font-family="'Noto Sans'" font-style="italic" font-weight="normal">8</tspan></text>
  <text x="447.48801" y="35.271" style="line-height:1.25"><tspan x="447.48801" y="35.271" fill="#999999" font-family="'Noto Sans'" font-style="italic" font-weight="normal">7</tspan></text>
  <text x="325.754" y="35.191002" style="line-height:1.25"><tspan x="325.754" y="35.191002" fill="#999999" font-family="'Noto Sans'" font-style="italic" font-weight="normal">5</tspan></text>
  <text x="267.047" y="35.303001" style="line-height:1.25"><tspan x="267.047" y="35.303001" fill="#999999" font-family="'Noto Sans'" font-style="italic" font-weight="normal">4</tspan></text>
  <text x="204.841" y="35.271" style="line-height:1.25"><tspan x="204.841" y="35.271" fill="#999999" font-family="'Noto Sans'" font-style="italic" font-weight="normal">3</tspan></text>
  <text x="146.771" y="35.351002" style="line-height:1.25"><tspan x="146.771" y="35.351002" fill="#999999" font-family="'Noto Sans'" font-style="italic" font-weight="normal">2</tspan></text>
 </g>
 <path d="M780 0h120v60H780V0zM0 60h90v60H0V60z" fill="#ccc" fill-rule="evenodd" stroke="#000"/>
 <path d="M90 60h60v60H90V60zm60 0h60v60h-60V60zm60 0h60v60h-60V60zm60 0h60v60h-60V60zm90-60h60v60h-60zm30 60h60v60h-60V60zm60 0h60v60h-60V60zm60 0h60v60h-60V60zm60 0h60v60h-60V60zm60 0h60v60h-60V60zm60 0h60v60h-60V60zm60 0h60v60h-60V60z" fill="#fff" fill-rule="evenodd" stroke="#000"/>
 <g font-family="'Noto Sans'" font-weight="600" letter-spacing=".01">
  <g font-size="16px">
   <text x="715.55798" y="96.916" style="line-height:1.25"><tspan x="715.55798" y="96.916" fill="#999999" font-family="'Noto Sans'" font-style="italic" font-weight="normal">[</tspan></text>
   <text x="777.40698" y="96.916" style="line-height:1.25"><tspan x="777.40698" y="96.916" fill="#999999" font-family="'Noto Sans'" font-style="italic" font-weight="normal">]</tspan></text>
   <text x="386.00101" y="35.271" style="line-height:1.25"><tspan x="386.00101" y="35.271" fill="#999999" font-family="'Noto Sans'" font-style="italic" font-weight="normal">6</tspan></text>
   <text x="595.59399" y="98.188004" style="line-height:1.25"><tspan x="595.59399" y="98.188004" fill="#999999" font-family="'Noto Sans'" font-style="italic" font-weight="normal">O</tspan></text>
   <text x="537.20398" y="98.18" style="line-height:1.25"><tspan x="537.20398" y="98.18" fill="#999999" font-family="'Noto Sans'" font-style="italic" font-weight="normal">I</tspan></text>
   <text x="474.87" y="98.099998" style="line-height:1.25"><tspan x="474.87" y="98.099998" fill="#999999" font-family="'Noto Sans'" font-style="italic" font-weight="normal">U</tspan></text>
   <text x="415.953" y="98.18" style="line-height:1.25"><tspan x="415.953" y="98.18" fill="#999999" font-family="'Noto Sans'" font-style="italic" font-weight="normal">Y</tspan></text>
   <text x="296.66299" y="98.18" style="line-height:1.25"><tspan x="296.66299" y="98.18" fill="#999999" font-family="'Noto Sans'" font-style="italic" font-weight="normal">R</tspan></text>
   <text x="236.213" y="98.18" style="line-height:1.25"><tspan x="236.213" y="98.18" fill="#999999" font-family="'Noto Sans'" font-style="italic" font-weight="normal">E</tspan></text>
   <text x="174.439" y="98.18" style="line-height:1.25"><tspan x="174.439" y="98.18" fill="#999999" font-family="'Noto Sans'" font-style="italic" font-weight="normal">W</tspan></text>
   <text x="114.415" y="96.907997" style="line-height:1.25"><tspan x="114.415" y="96.907997" fill="#999999" font-family="'Noto Sans'" font-style="italic" font-weight="normal">Q</tspan></text>
   <text x="657.07202" y="98.18" style="line-height:1.25"><tspan x="657.07202" y="98.18" fill="#999999" font-family="'Noto Sans'" font-style="italic" font-weight="normal">P</tspan></text>
  </g>
  <text x="716.25598" y="96.985001" font-size="18.667px" style="line-height:1.25"/>
  <text x="775.35797" y="96.654999" font-size="18.667px" style="line-height:1.25"/>
 </g>
 <path d="M0 120h105v60H0v-60z" fill="#ccc" fill-rule="evenodd" stroke="#000"/>
 <path d="m105 120h60v60h-60v-60zm60 0h60v60h-60v-60zm60 0h60v60h-60v-60zm60 0h60v60h-60v-60zm60 0h60v60h-60v-60zm60 0h60v60h-60v-60zm60 0h60v60h-60v-60zm60 0h60v60h-60v-60zm60 0h60v60h-60v-60zm60 0h60v60h-60v-60zm60 0h60v60h-60v-60z" fill="#fff" fill-rule="evenodd" stroke="#000"/>
 <g font-family="'Noto Sans'" font-weight="600" letter-spacing=".01">
  <text x="674.17999" y="155.985" font-size="16px" style="line-height:1.25"><tspan x="674.17999" y="155.985" fill="#999999" font-family="'Noto Sans'" font-style="italic" font-weight="normal">;</tspan></text>
  <text x="734.10999" y="155.927" font-size="16px" style="line-height:1.25"><tspan x="734.10999" y="155.927" fill="#999999" font-family="'Noto Sans'" font-style="italic" font-weight="normal">'</tspan></text>
  <text x="729.29303" y="158.772" font-size="18.667px" style="line-height:1.25"/>
  <text x="673.96002" y="159.123" font-size="18.667px" style="line-height:1.25"/>
  <g font-size="16px">
   <text x="611.13898" y="156.55299" style="line-height:1.25"><tspan x="611.13898" y="156.55299" fill="#999999" font-family="'Noto Sans'" font-style="italic" font-weight="normal">L</tspan></text>
   <text x="550.88501" y="156.55299" style="line-height:1.25"><tspan x="550.88501" y="156.55299" fill="#999999" font-family="'Noto Sans'" font-style="italic" font-weight="normal">K</tspan></text>
   <text x="493.45499" y="155.033" style="line-height:1.25"><tspan x="493.45499" y="155.033" fill="#999999" font-family="'Noto Sans'" font-style="italic" font-weight="normal">J</tspan></text>
   <text x="429.56799" y="156.55299" style="line-height:1.25"><tspan x="429.56799" y="156.55299" fill="#999999" font-family="'Noto Sans'" font-style="italic" font-weight="normal">H</tspan></text>
   <text x="370.08701" y="156.55299" style="line-height:1.25"><tspan x="370.08701" y="156.55299" fill="#999999" font-family="'Noto Sans'" font-style="italic" font-weight="normal">G</tspan></text>
   <text x="311.51901" y="156.55299" style="line-height:1.25"><tspan x="311.51901" y="156.55299" fill="#999999" font-family="'Noto Sans'" font-style="italic" font-weight="normal">F</tspan></text>
   <text x="249.19901" y="156.55299" style="line-height:1.25"><tspan x="249.19901" y="156.55299" fill="#999999" font-family="'Noto Sans'" font-style="italic" font-weight="normal">D</tspan></text>
   <text x="190.58099" y="156.55299" style="line-height:1.25"><tspan x="190.58099" y="156.55299" fill="#999999" font-family="'Noto Sans'" font-style="italic" font-weight="normal">S</tspan></text>
  </g>
 </g>
 <path d="M825 120h-15V60h90v120h-75.11l.11-60zM0 180h75.002v60H0v-60z" fill="#ccc" fill-rule="evenodd" stroke="#000"/>
 <path d="m135 180h60v60h-60v-60zm60 0h60v60h-60v-60zm60 0h60v60h-60v-60zm60 0h60v60h-60v-60zm60 0h60v60h-60v-60zm60 0h60v60h-60v-60zm60 0h60v60h-60v-60zm60 0h60v60h-60v-60zm60 0h60v60h-60v-60zm60 0h60v60h-60v-60z" fill="#fff" fill-rule="evenodd" stroke="#000"/>
 <g font-family="'Noto Sans'" font-weight="600" letter-spacing=".01">
  <g font-size="16px">
   <text x="519.09003" y="216.44701" style="line-height:1.25"><tspan x="519.09003" y="216.44701" fill="#999999" font-family="'Noto Sans'" font-style="italic" font-weight="normal">M</tspan></text>
   <text x="583.94397" y="217.80901" style="line-height:1.25"><tspan x="583.94397" y="217.80901" fill="#999999" font-family="'Noto Sans'" font-style="italic" font-weight="normal">,</tspan></text>
   <text x="644.091" y="217.004" style="line-height:1.25"><tspan x="644.091" y="217.004" fill="#999999" font-weight="400">.</tspan></text>
   <text x="700.66602" y="216.44701" style="line-height:1.25"><tspan x="700.66602" y="216.44701" fill="#999999" font-family="'Noto Sans'" font-style="italic" font-weight="normal">/</tspan></text>
   <text x="161.62399" y="216.44701" style="line-height:1.25"><tspan x="161.62399" y="216.44701" fill="#999999" font-family="'Noto Sans'" font-style="italic" font-weight="normal">Z</tspan></text>
   <text x="220.528" y="216.44701" style="line-height:1.25"><tspan x="220.528" y="216.44701" fill="#999999" font-family="'Noto Sans'" font-style="italic" font-weight="normal">X</tspan></text>
   <text x="280.629" y="216.44701" style="line-height:1.25"><tspan x="280.629" y="216.44701" fill="#999999" font-family="'Noto Sans'" font-style="italic" font-weight="normal">C</tspan></text>
   <text x="340.97198" y="216.44701" style="line-height:1.25"><tspan x="340.97198" y="216.44701" fill="#999999" font-family="'Noto Sans'" font-style="italic" font-weight="normal">V</tspan></text>
   <text x="401.646" y="216.44701" style="line-height:1.25"><tspan x="401.646" y="216.44701" fill="#999999" font-family="'Noto Sans'" font-style="italic" font-weight="normal">B</tspan></text>
   <text x="459.37601" y="216.44701" style="line-height:1.25"><tspan x="459.37601" y="216.44701" fill="#999999" font-family="'Noto Sans'" font-style="italic" font-weight="normal">N</tspan></text>
  </g>
  <g font-size="18.667px">
   <text x="520.83801" y="216.62399" style="line-height:1.25"/>
   <text x="582.27802" y="216.83701" style="line-height:1.25"/>
   <text x="641.24597" y="215.686" style="line-height:1.25"/>
   <text x="701.453" y="216.29601" style="line-height:1.25"/>
  </g>
 </g>
 <g fill-rule="evenodd" stroke="#000">
  <path d="m735 180h165v60h-165zm-735 60h90v60h-90zm810 0h90v60h-90zm-660 0h90v60h-90zm450 0h90v60h-90z" fill="#ccc"/>
  <path d="m240 240h360v60h-360z" fill="#fff"/>
  <path d="m90 240h60v60h-60zm600 0h60v60h-60zm60 0h60v60h-60z" fill="#e6e6e6"/>
  <path d="m75 180h60v60h-60z" fill="#fff"/>
 </g>
 <g font-family="'Noto Sans'">
  <g font-weight="600">
   <g font-size="24px">
    <text x="96.320999" y="84.733002" style="font-variant-caps:normal;font-variant-east-asian:normal;font-variant-ligatures:normal;font-variant-numeric:normal;line-height:1.25"><tspan x="96.320999" y="84.733002">Ū</tspan></text>
    <text x="157.554" y="84.754997" style="line-height:1.25"><tspan x="157.554" y="84.754997">Ė</tspan></text>
    <text x="217.95399" y="84.549004" style="line-height:1.25"><tspan x="217.95399" y="84.549004">Y</tspan></text>
    <text x="275.55301" y="84.873001" style="line-height:1.25"><tspan x="275.55301" y="84.873001">O</tspan></text>
    <text x="335.41101" y="85.065002" style="line-height:1.25"><tspan x="335.41101" y="85.065002">Q</tspan></text>
    <text x="401.60999" y="84.619003" style="line-height:1.25"><tspan x="401.60999" y="84.619003">J</tspan></text>
    <text x="455.349" y="84.738998" style="line-height:1.25"><tspan x="455.349" y="84.738998">N</tspan></text>
    <text x="517.82202" y="84.543999" style="line-height:1.25"><tspan x="517.82202" y="84.543999">K</tspan></text>
    <text x="576.42902" y="84.491997" style="line-height:1.25"><tspan x="576.42902" y="84.491997">G</tspan></text>
    <text x="637.35999" y="84.989998" style="line-height:1.25"><tspan x="637.35999" y="84.989998">B</tspan></text>
    <text x="696.617" y="85.023003" style="line-height:1.25"><tspan x="696.617" y="85.023003">C</tspan></text>
    <text x="757.83197" y="84.757004" style="line-height:1.25"><tspan x="757.83197" y="84.757004">F</tspan></text>
    <text x="773.71198" y="144.722" style="line-height:1.25"><tspan x="773.71198" y="144.722">Z</tspan></text>
    <text x="712.98297" y="144.78799" style="line-height:1.25"><tspan x="712.98297" y="144.78799">Ž</tspan></text>
    <text x="653.61401" y="144.49899" style="line-height:1.25"><tspan x="653.61401" y="144.49899">P</tspan></text>
    <text x="593.72894" y="144.44556" style="line-height:1.25"><tspan x="593.72894" y="144.44556">S</tspan></text>
    <text x="533.14502" y="144.408" style="line-height:1.25"><tspan x="533.14502" y="144.408">T</tspan></text>
    <text x="473.09201" y="144.383" style="line-height:1.25"><tspan x="473.09201" y="144.383">R</tspan></text>
    <text x="411.73001" y="144.696" style="line-height:1.25"><tspan x="411.73001" y="144.696">L</tspan></text>
    <text x="350.99701" y="144.647" style="line-height:1.25"><tspan x="350.99701" y="144.647">H</tspan></text>
    <text x="292.12299" y="144.67699" style="line-height:1.25"><tspan x="292.12299" y="144.67699">A</tspan></text>
    <text x="235.605" y="144.73399" style="line-height:1.25"><tspan x="235.605" y="144.73399">I</tspan></text>
    <text x="172.67" y="144.804" style="line-height:1.25"><tspan x="172.67" y="144.804">E</tspan></text>
    <text x="110.911" y="144.76601" style="line-height:1.25"><tspan x="110.911" y="144.76601">U</tspan></text>
    <text x="85.963997" y="231.763" style="line-height:1.25"><tspan x="85.963997" y="231.763" font-family="'Noto Sans'" font-weight="normal">-</tspan></text>
    <text x="83.738998" y="202.799" style="line-height:1.25"><tspan x="83.738998" y="202.799" font-family="'Noto Sans'" font-weight="normal">–</tspan></text>
    <text x="8.2530003" y="53.424" style="line-height:1.25"><tspan x="8.2530003" y="53.424" font-family="'Noto Sans'" font-weight="normal">+</tspan></text>
    <text x="9.1829996" y="25.899" style="line-height:1.25"><tspan x="9.1829996" y="25.899" font-family="'Noto Sans'" font-weight="normal">§</tspan></text>
   </g>
   <text x="42.012001" y="48.692001" fill="#0000ff" font-size="18.667px" style="line-height:1.25"><tspan x="42.012001" y="48.692001" font-size="18.667px" font-weight="400" style="font-variant-caps:normal;font-variant-east-asian:normal;font-variant-ligatures:normal;font-variant-numeric:normal">`</tspan></text>
   <g font-size="24px">
    <text x="71.713997" y="52.097" style="line-height:1.25"><tspan x="71.713997" y="52.097" font-family="'Noto Sans'" font-weight="normal">!</tspan></text>
    <text x="68.160004" y="23.344999" style="line-height:1.25"><tspan x="68.160004" y="23.344999" font-family="'Noto Sans'" font-weight="normal">¤</tspan></text>
    <text x="131.761" y="52.492001" style="line-height:1.25"><tspan x="131.761" y="52.492001" font-family="'Noto Sans'" font-weight="normal">:</tspan></text>
    <text x="126.132" y="25.242001" style="line-height:1.25"><tspan x="126.132" y="25.242001" font-family="'Noto Sans'" font-weight="normal">@</tspan></text>
    <text x="191.674" y="52.410999" style="line-height:1.25"><tspan x="191.674" y="52.410999" font-family="'Noto Sans'" font-weight="normal">.</tspan></text>
    <text x="187.629" y="25.01" style="line-height:1.25"><tspan x="187.629" y="25.01" font-family="'Noto Sans'" font-weight="normal">#</tspan></text>
    <text x="248.661" y="51.443001" style="line-height:1.25"><tspan x="248.661" y="51.443001" font-family="'Noto Sans'" font-weight="normal">*</tspan></text>
    <text x="248.384" y="24.084999" style="line-height:1.25"><tspan x="248.384" y="24.084999" font-family="'Noto Sans'" font-weight="normal">$</tspan></text>
    <text x="309.61899" y="50.344002" style="line-height:1.25"><tspan x="309.61899" y="50.344002" font-family="'Noto Sans'" font-weight="normal">_</tspan></text>
    <text x="305.59201" y="23.677" style="line-height:1.25"><tspan x="305.59201" y="23.677" font-family="'Noto Sans'" font-weight="normal">%</tspan></text>
    <text x="364.05099" y="51.904999" style="line-height:1.25"><tspan x="364.05099" y="51.904999" font-family="'Noto Sans'" font-weight="normal">—</tspan></text>
    <text x="368.55099" y="24.839001" style="line-height:1.25"><tspan x="368.55099" y="24.839001" font-family="'Noto Sans'" font-weight="normal">|</tspan></text>
   </g>
   <text x="399.20099" y="48.146999" fill="#0000ff" font-size="18.667px" style="line-height:1.25"><tspan x="399.20099" y="48.146999" font-size="18.667px" font-weight="400" style="font-variant-caps:normal;font-variant-east-asian:normal;font-variant-ligatures:normal;font-variant-numeric:normal">^</tspan></text>
   <text x="428.40601" y="53.324001" font-size="24px" style="line-height:1.25"><tspan x="428.40601" y="53.324001" font-family="'Noto Sans'" font-weight="normal">=</tspan></text>
   <text x="428.01401" y="25.778999" font-size="24px" style="line-height:1.25"><tspan x="428.01401" y="25.778999" font-family="'Noto Sans'" font-weight="normal">&amp;</tspan></text>
   <text x="459.715" y="52.534" fill="#0000ff" font-size="18.667px" style="line-height:1.25"><tspan x="459.715" y="52.534" font-size="18.667px" font-weight="400" style="font-variant-caps:normal;font-variant-east-asian:normal;font-variant-ligatures:normal;font-variant-numeric:normal">7</tspan></text>
   <text x="518.92798" y="52.491001" fill="#0000ff" font-size="18.667px" style="line-height:1.25"><tspan x="518.92798" y="52.491001" font-size="18.667px" font-weight="400" style="font-variant-caps:normal;font-variant-east-asian:normal;font-variant-ligatures:normal;font-variant-numeric:normal">8</tspan></text>
   <g font-size="24px">
    <text x="492.13501" y="52.291" style="line-height:1.25"><tspan x="492.13501" y="52.291" font-family="'Noto Sans'" font-weight="normal">,</tspan></text>
    <text x="487.853" y="23.632999" style="line-height:1.25"><tspan x="487.853" y="23.632999" font-family="'Noto Sans'" font-weight="normal">&lt;</tspan></text>
    <text x="551.66901" y="52.75" style="line-height:1.25"><tspan x="551.66901" y="52.75" font-family="'Noto Sans'" font-weight="normal">;</tspan></text>
    <text x="548.43799" y="23.454" style="line-height:1.25"><tspan x="548.43799" y="23.454" font-family="'Noto Sans'" font-weight="normal">&gt;</tspan></text>
   </g>
   <text x="579.62903" y="52.387001" fill="#0000ff" font-size="18.667px" style="line-height:1.25"><tspan x="579.62903" y="52.387001" font-size="18.667px" font-weight="400" style="font-variant-caps:normal;font-variant-east-asian:normal;font-variant-ligatures:normal;font-variant-numeric:normal">9</tspan></text>
   <text x="610.039" y="52.459" font-size="24px" style="line-height:1.25"><tspan x="610.039" y="52.459" font-family="'Noto Sans'" font-weight="normal">/</tspan></text>
   <text x="610.38202" y="24.759001" font-size="24px" style="line-height:1.25"><tspan x="610.38202" y="24.759001" font-family="'Noto Sans'" font-weight="normal">\</tspan></text>
   <text x="638.94598" y="52.556999" fill="#0000ff" font-size="18.667px" style="line-height:1.25"><tspan x="638.94598" y="52.556999" font-size="18.667px" font-weight="400" style="font-variant-caps:normal;font-variant-east-asian:normal;font-variant-ligatures:normal;font-variant-numeric:normal">÷</tspan></text>
   <g font-size="24px">
    <text x="663.474" y="24.625999" style="line-height:1.25"><tspan x="663.474" y="24.625999">W</tspan></text>
    <text x="730.29102" y="52.382999" style="line-height:1.25"><tspan x="730.29102" y="52.382999" font-family="'Noto Sans'" font-weight="normal">?</tspan></text>
    <text x="727.93799" y="23.424999" style="line-height:1.25"><tspan x="727.93799" y="23.424999" font-family="'Noto Sans'" font-weight="normal">~</tspan></text>
    <text x="141.17799" y="204.914" style="line-height:1.25"><tspan x="141.17799" y="204.914">Ų</tspan></text>
    <text x="202.939" y="204.77699" style="line-height:1.25"><tspan x="202.939" y="204.77699">Ę</tspan></text>
    <text x="265.86899" y="204.77299" style="line-height:1.25"><tspan x="265.86899" y="204.77299">Į</tspan></text>
    <text x="321.92001" y="204.994" style="line-height:1.25"><tspan x="321.92001" y="204.994">Ą</tspan></text>
    <text x="382.215" y="204.981" style="line-height:1.25"><tspan x="382.215" y="204.981">X</tspan></text>
    <text x="442.504" y="204.838" style="line-height:1.25"><tspan x="442.504" y="204.838">V</tspan></text>
    <text x="499.0452" y="204.89293" style="line-height:1.25"><tspan x="499.0452" y="204.89293">M</tspan></text>
    <text x="562.95099" y="204.843" style="line-height:1.25"><tspan x="562.95099" y="204.843">D</tspan></text>
    <text x="623.14697" y="204.94501" style="line-height:1.25"><tspan x="623.14697" y="204.94501">Š</tspan></text>
    <text x="681.896" y="204.91" style="line-height:1.25"><tspan x="681.896" y="204.91">Č</tspan></text>
   </g>
  </g>
  <g fill="#00f" font-size="18.667px">
   <g font-weight="400">
    <text x="147.83501" y="166.394" style="font-variant-caps:normal;font-variant-east-asian:normal;font-variant-ligatures:normal;font-variant-numeric:normal;line-height:1.25"><tspan x="147.83501" y="166.394" font-size="18.667px" style="font-variant-caps:normal;font-variant-east-asian:normal;font-variant-ligatures:normal;font-variant-numeric:normal">'</tspan></text>
    <text x="204.94" y="170.89" style="font-variant-caps:normal;font-variant-east-asian:normal;font-variant-ligatures:normal;font-variant-numeric:normal;line-height:1.25"><tspan x="204.94" y="170.89" font-size="18.667px" style="font-variant-caps:normal;font-variant-east-asian:normal;font-variant-ligatures:normal;font-variant-numeric:normal">(</tspan></text>
    <text x="268.69601" y="170.745" style="font-variant-caps:normal;font-variant-east-asian:normal;font-variant-ligatures:normal;font-variant-numeric:normal;line-height:1.25"><tspan x="268.69601" y="170.745" font-size="18.667px" style="font-variant-caps:normal;font-variant-east-asian:normal;font-variant-ligatures:normal;font-variant-numeric:normal">)</tspan></text>
    <text x="325.67099" y="166.354" style="font-variant-caps:normal;font-variant-east-asian:normal;font-variant-ligatures:normal;font-variant-numeric:normal;line-height:1.25"><tspan x="325.67099" y="166.354" font-size="18.667px" style="font-variant-caps:normal;font-variant-east-asian:normal;font-variant-ligatures:normal;font-variant-numeric:normal">"</tspan></text>
    <text x="233.16901" y="230.933" style="font-variant-caps:normal;font-variant-east-asian:normal;font-variant-ligatures:normal;font-variant-numeric:normal;line-height:1.25"><tspan x="233.16901" y="230.933" font-size="18.667px" style="font-variant-caps:normal;font-variant-east-asian:normal;font-variant-ligatures:normal;font-variant-numeric:normal">{</tspan></text>
    <text x="298.81299" y="230.823" style="font-variant-caps:normal;font-variant-east-asian:normal;font-variant-ligatures:normal;font-variant-numeric:normal;line-height:1.25"><tspan x="298.81299" y="230.823" font-size="18.667px" style="font-variant-caps:normal;font-variant-east-asian:normal;font-variant-ligatures:normal;font-variant-numeric:normal">}</tspan></text>
    <text x="355.845" y="232.53999" style="font-variant-caps:normal;font-variant-east-asian:normal;font-variant-ligatures:normal;font-variant-numeric:normal;line-height:1.25"><tspan x="355.845" y="232.53999" font-size="18.667px" style="font-variant-caps:normal;font-variant-east-asian:normal;font-variant-ligatures:normal;font-variant-numeric:normal">„</tspan></text>
   </g>
   <g font-weight="600">
    <text x="189.366" y="110.991" style="line-height:1.25"><tspan x="189.366" y="110.991" font-size="18.667px" font-weight="400" style="font-variant-caps:normal;font-variant-east-asian:normal;font-variant-ligatures:normal;font-variant-numeric:normal">[</tspan></text>
    <text x="253.649" y="110.978" style="line-height:1.25"><tspan x="253.649" y="110.978" font-size="18.667px" font-weight="400" style="font-variant-caps:normal;font-variant-east-asian:normal;font-variant-ligatures:normal;font-variant-numeric:normal">]</tspan></text>
    <text x="311.211" y="106.666" style="line-height:1.25"><tspan x="311.211" y="106.666" font-size="18.667px" font-weight="400" style="font-variant-caps:normal;font-variant-east-asian:normal;font-variant-ligatures:normal;font-variant-numeric:normal">“</tspan></text>
    <text x="428.733" y="112.567" style="line-height:1.25"><tspan x="428.733" y="112.567" font-size="18.667px" font-weight="400" style="font-variant-caps:normal;font-variant-east-asian:normal;font-variant-ligatures:normal;font-variant-numeric:normal">€</tspan></text>
    <text x="486.91501" y="112.789" style="line-height:1.25"><tspan x="486.91501" y="112.789" font-size="18.667px" font-weight="400" style="font-variant-caps:normal;font-variant-east-asian:normal;font-variant-ligatures:normal;font-variant-numeric:normal">4</tspan></text>
    <text x="549.39502" y="112.373" style="line-height:1.25"><tspan x="549.39502" y="112.373" font-size="18.667px" font-weight="400" style="font-variant-caps:normal;font-variant-east-asian:normal;font-variant-ligatures:normal;font-variant-numeric:normal">5</tspan></text>
    <text x="608.71899" y="112.715" style="line-height:1.25"><tspan x="608.71899" y="112.715" font-size="18.667px" font-weight="400" style="font-variant-caps:normal;font-variant-east-asian:normal;font-variant-ligatures:normal;font-variant-numeric:normal">6</tspan></text>
    <text x="668.96301" y="112.602" style="line-height:1.25"><tspan x="668.96301" y="112.602" font-size="18.667px" font-weight="400" style="font-variant-caps:normal;font-variant-east-asian:normal;font-variant-ligatures:normal;font-variant-numeric:normal">×</tspan></text>
   </g>
   <g font-weight="400">
    <text x="503.54401" y="172.53101" style="font-variant-caps:normal;font-variant-east-asian:normal;font-variant-ligatures:normal;font-variant-numeric:normal;line-height:1.25"><tspan x="503.54401" y="172.53101" font-size="18.667px" style="font-variant-caps:normal;font-variant-east-asian:normal;font-variant-ligatures:normal;font-variant-numeric:normal">1</tspan></text>
    <text x="564.138" y="172.739" style="font-variant-caps:normal;font-variant-east-asian:normal;font-variant-ligatures:normal;font-variant-numeric:normal;line-height:1.25"><tspan x="564.138" y="172.739" font-size="18.667px" style="font-variant-caps:normal;font-variant-east-asian:normal;font-variant-ligatures:normal;font-variant-numeric:normal">2</tspan></text>
    <text x="624.52399" y="172.565" style="font-variant-caps:normal;font-variant-east-asian:normal;font-variant-ligatures:normal;font-variant-numeric:normal;line-height:1.25"><tspan x="624.52399" y="172.565" font-size="18.667px" style="font-variant-caps:normal;font-variant-east-asian:normal;font-variant-ligatures:normal;font-variant-numeric:normal">3</tspan></text>
    <text x="680.82501" y="171.55099" style="font-variant-caps:normal;font-variant-east-asian:normal;font-variant-ligatures:normal;font-variant-numeric:normal;line-height:1.25"><tspan x="680.82501" y="171.55099" font-size="18.667px" style="font-variant-caps:normal;font-variant-east-asian:normal;font-variant-ligatures:normal;font-variant-numeric:normal">−</tspan></text>
   </g>
   <text x="746.68903" y="170.66701" font-weight="600" style="line-height:1.25"><tspan x="746.68903" y="170.66701" font-size="18.667px" font-weight="400" style="font-variant-caps:normal;font-variant-east-asian:normal;font-variant-ligatures:normal;font-variant-numeric:normal">-</tspan></text>
   <g font-weight="400">
    <text x="533.72601" y="232.427" style="font-variant-caps:normal;font-variant-east-asian:normal;font-variant-ligatures:normal;font-variant-numeric:normal;line-height:1.25"><tspan x="533.72601" y="232.427" font-size="18.667px" style="font-variant-caps:normal;font-variant-east-asian:normal;font-variant-ligatures:normal;font-variant-numeric:normal">0</tspan></text>
    <text x="597.08502" y="232.207" style="font-variant-caps:normal;font-variant-east-asian:normal;font-variant-ligatures:normal;font-variant-numeric:normal;line-height:1.25"><tspan x="597.08502" y="232.207" font-size="18.667px" style="font-variant-caps:normal;font-variant-east-asian:normal;font-variant-ligatures:normal;font-variant-numeric:normal">.</tspan></text>
    <text x="657.30798" y="232.53" style="font-variant-caps:normal;font-variant-east-asian:normal;font-variant-ligatures:normal;font-variant-numeric:normal;line-height:1.25;white-space:pre"><tspan x="657.30798" y="232.53" font-size="18.667px" style="font-variant-caps:normal;font-variant-east-asian:normal;font-variant-ligatures:normal;font-variant-numeric:normal">,</tspan></text>
   </g>
   <text x="713.17401" y="232.84" font-weight="600" style="line-height:1.25"><tspan x="713.17401" y="232.84" font-size="18.667px" font-weight="400" style="font-variant-caps:normal;font-variant-east-asian:normal;font-variant-ligatures:normal;font-variant-numeric:normal">+</tspan></text>
  </g>
  <g fill="#fff" font-weight="600" stroke-width="1.162">
   <text x="178.91" y="278.923" font-size="26.667px" style="font-variant-caps:normal;font-variant-east-asian:normal;font-variant-ligatures:normal;font-variant-numeric:normal;line-height:1.25"><tspan x="178.91" y="278.923" font-weight="400" style="font-variant-caps:normal;font-variant-east-asian:normal;font-variant-ligatures:normal;font-variant-numeric:normal">⎇</tspan></text>
   <text x="633.83801" y="277.435" font-size="27.887px" style="line-height:1.25"><tspan x="633.83801" y="277.435" font-size="26.667px" font-weight="400" style="font-variant-caps:normal;font-variant-east-asian:normal;font-variant-ligatures:normal;font-variant-numeric:normal">⇮</tspan></text>
   <text x="37.250999" y="277.48001" font-size="26.667px" style="font-variant-caps:normal;font-variant-east-asian:normal;font-variant-ligatures:normal;font-variant-numeric:normal;line-height:1.25"><tspan x="37.250999" y="277.48001" font-weight="400" style="font-variant-caps:normal;font-variant-east-asian:normal;font-variant-ligatures:normal;font-variant-numeric:normal">⎈</tspan></text>
   <text x="113.35" y="277.41699" font-size="27.887px" style="line-height:1.25"><tspan x="113.35" y="277.41699" font-size="26.667px" style="font-variant-caps:normal;font-variant-east-asian:normal;font-variant-ligatures:normal;font-variant-numeric:normal">◊</tspan></text>
   <text x="849.27197" y="132.623" font-size="27.887px" style="line-height:1.25"><tspan x="849.27197" y="132.623" font-size="26.667px" font-weight="400" style="font-variant-caps:normal;font-variant-east-asian:normal;font-variant-ligatures:normal;font-variant-numeric:normal">⏎</tspan></text>
   <g font-size="26.667px">
    <text x="34.096001" y="98.699997" style="font-variant-caps:normal;font-variant-east-asian:normal;font-variant-ligatures:normal;font-variant-numeric:normal;line-height:1.25"><tspan x="34.096001" y="98.699997" font-weight="400" style="font-variant-caps:normal;font-variant-east-asian:normal;font-variant-ligatures:normal;font-variant-numeric:normal">↹</tspan></text>
    <text x="806.46399" y="220.396" style="font-variant-caps:normal;font-variant-east-asian:normal;font-variant-ligatures:normal;font-variant-numeric:normal;line-height:1.25"><tspan x="806.46399" y="220.396" font-weight="400" style="font-variant-caps:normal;font-variant-east-asian:normal;font-variant-ligatures:normal;font-variant-numeric:normal">⇧</tspan></text>
    <text x="41.445999" y="159.64999" style="font-variant-caps:normal;font-variant-east-asian:normal;font-variant-ligatures:normal;font-variant-numeric:normal;line-height:1.25"><tspan x="41.445999" y="159.64999" font-weight="400" style="font-variant-caps:normal;font-variant-east-asian:normal;font-variant-ligatures:normal;font-variant-numeric:normal">⇪</tspan></text>
    <text x="817.67902" y="40.185001" style="font-variant-caps:normal;font-variant-east-asian:normal;font-variant-ligatures:normal;font-variant-numeric:normal;line-height:1.25"><tspan x="817.67902" y="40.185001" font-weight="400" style="font-variant-caps:normal;font-variant-east-asian:normal;font-variant-ligatures:normal;font-variant-numeric:normal">⌫</tspan></text>
    <text x="26.298" y="219.327" style="font-variant-caps:normal;font-variant-east-asian:normal;font-variant-ligatures:normal;font-variant-numeric:normal;line-height:1.25"><tspan x="26.298" y="219.327" font-weight="400" style="font-variant-caps:normal;font-variant-east-asian:normal;font-variant-ligatures:normal;font-variant-numeric:normal">⇧</tspan></text>
    <text x="768.76099" y="278.29599" style="font-variant-caps:normal;font-variant-east-asian:normal;font-variant-ligatures:normal;font-variant-numeric:normal;line-height:1.25"><tspan x="768.76099" y="278.29599" font-weight="400" style="font-variant-caps:normal;font-variant-east-asian:normal;font-variant-ligatures:normal;font-variant-numeric:normal">≣</tspan></text>
    <text x="847.00403" y="277.52399" style="font-variant-caps:normal;font-variant-east-asian:normal;font-variant-ligatures:normal;font-variant-numeric:normal;line-height:1.25"><tspan x="847.00403" y="277.52399" font-weight="400" style="font-variant-caps:normal;font-variant-east-asian:normal;font-variant-ligatures:normal;font-variant-numeric:normal">⎈</tspan></text>
   </g>
   <text x="713.57703" y="277.875" font-size="27.887px" style="line-height:1.25"><tspan x="713.57703" y="277.875" font-size="26.667px" font-weight="700" style="font-variant-caps:normal;font-variant-east-asian:normal;font-variant-ligatures:normal;font-variant-numeric:normal">◊</tspan></text>
  </g>
  <g font-size="16px" font-weight="600">
   <text x="130.157" y="156.577" letter-spacing=".01" style="line-height:1.25"><tspan x="130.157" y="156.577" fill="#999999" font-family="'Noto Sans'" font-style="italic" font-weight="normal">A</tspan></text>
   <text x="29.663921" y="39.664982" fill="#999999" style="line-height:1.25"><tspan x="29.663921" y="39.664982" fill="#999999" font-family="'Noto Sans'" font-size="16px" font-style="italic" font-weight="normal" style="font-variant-caps:normal;font-variant-east-asian:normal;font-variant-ligatures:normal;font-variant-numeric:normal">`</tspan></text>
   <text x="101.46081" y="215.17264" fill="#999999" style="line-height:1.25"><tspan x="101.46081" y="215.17264" fill="#999999" font-family="'Noto Sans'" font-size="16px" font-style="italic" font-weight="normal">&lt;</tspan></text>
  </g>
 </g>
</svg>
