<svg width="900" height="300" version="1.0" xmlns="http://www.w3.org/2000/svg"><defs><path id="a" d="M97.5 330H855v202.5H97.5z"/></defs><path d="M330 60h60v60h-60zM765 120h60v60h-60zM0 0h60v60H0V0zM60 0h60v60H60V0zM120 0h60v60h-60V0zM180 0h60v60h-60V0zM240 0h60v60h-60V0zM300 0h60v60h-60V0zM360 0h60v60h-60V0zM420 0h60v60h-60V0zM480 0h60v60h-60V0zM540 0h60v60h-60V0zM600 0h60v60h-60V0zM660 0h60v60h-60V0zM720 0h60v60h-60V0z" fill="#fff" fill-rule="evenodd" stroke="#000"/><path d="M780 0h120v60H780V0zM0 60h90v60H0V60z" fill="#ccc" fill-rule="evenodd" stroke="#000"/><path d="M90 60h60v60H90V60zM150 60h60v60h-60V60zM210 60h60v60h-60V60zM270 60h60v60h-60V60zM360 0h60v60h-60zM390 60h60v60h-60V60zM450 60h60v60h-60V60zM510 60h60v60h-60V60zM570 60h60v60h-60V60zM630 60h60v60h-60V60zM690 60h60v60h-60V60zM750 60h60v60h-60V60z" fill="#fff" fill-rule="evenodd" stroke="#000"/><path d="M0 120h105v60H0v-60z" fill="#ccc" fill-rule="evenodd" stroke="#000"/><path d="M105 120h60v60h-60v-60zM165 120h60v60h-60v-60zM225 120h60v60h-60v-60zM285 120h60v60h-60v-60zM345 120h60v60h-60v-60zM405 120h60v60h-60v-60zM465 120h60v60h-60v-60zM525 120h60v60h-60v-60zM585 120h60v60h-60v-60zM645 120h60v60h-60v-60zM705 120h60v60h-60v-60z" fill="#fff" fill-rule="evenodd" stroke="#000"/><path d="M825 120h-15V60h90v120h-75.11l.11-60zM0 180h75.002v60H0v-60z" fill="#ccc" fill-rule="evenodd" stroke="#000"/><path d="M135 180h60v60h-60v-60zM195 180h60v60h-60v-60zM255 180h60v60h-60v-60zM315 180h60v60h-60v-60zM375 180h60v60h-60v-60zM435 180h60v60h-60v-60zM495 180h60v60h-60v-60zM555 180h60v60h-60v-60zM615 180h60v60h-60v-60zM675 180h60v60h-60v-60z" fill="#fff" fill-rule="evenodd" stroke="#000"/><path d="M735 180h165v60H735z" fill="#666" fill-rule="evenodd" stroke="#000"/><path d="M0 240h90v60H0v-60zM810 240h90v60h-90v-60zM150 240h90v60h-90v-60zM600 240h90v60h-90v-60z" fill="#ccc" fill-rule="evenodd" stroke="#000"/><path d="M240 240h360v60H240v-60z" fill="#fff" fill-rule="evenodd" stroke="#000"/><path d="M90 240h60v60H90v-60zM690 240h60v60h-60v-60zM750 240h60v60h-60v-60z" fill="#e6e6e6" fill-rule="evenodd" stroke="#000"/><path d="M75 180h60v60H75v-60z" fill="#fff" fill-rule="evenodd" stroke="#000"/><text style="line-height:1.25;-inkscape-font-specification:'Noto Sans, Semi-Bold';font-variant-ligatures:normal;font-variant-caps:normal;font-variant-numeric:normal;font-variant-east-asian:normal" x="96.377" y="89.022" font-weight="600" font-size="26.667" font-family="Noto Sans"><tspan x="96.377" y="89.022">Ū</tspan></text><text style="line-height:1.25;-inkscape-font-specification:'Noto Sans, Semi-Bold'" x="157.611" y="89.043" font-weight="600" font-size="26.667" font-family="Noto Sans"><tspan x="157.611" y="89.043">Ė</tspan></text><text style="line-height:1.25;-inkscape-font-specification:'Noto Sans, Semi-Bold'" x="218.01" y="88.838" font-weight="600" font-size="26.667" font-family="Noto Sans"><tspan x="218.01" y="88.838">Y</tspan></text><text style="line-height:1.25;-inkscape-font-specification:'Noto Sans, Semi-Bold'" x="275.609" y="89.162" font-weight="600" font-size="26.667" font-family="Noto Sans"><tspan x="275.609" y="89.162">O</tspan></text><text style="line-height:1.25;-inkscape-font-specification:'Noto Sans, Semi-Bold'" x="335.467" y="89.353" font-weight="600" font-size="26.667" font-family="Noto Sans"><tspan x="335.467" y="89.353">Q</tspan></text><text style="line-height:1.25;-inkscape-font-specification:'Noto Sans, Semi-Bold'" x="401.666" y="88.907" font-weight="600" font-size="26.667" font-family="Noto Sans"><tspan x="401.666" y="88.907">J</tspan></text><text style="line-height:1.25;-inkscape-font-specification:'Noto Sans, Semi-Bold'" x="455.405" y="89.028" font-weight="600" font-size="26.667" font-family="Noto Sans"><tspan x="455.405" y="89.028">N</tspan></text><text style="line-height:1.25;-inkscape-font-specification:'Noto Sans, Semi-Bold'" x="517.878" y="88.832" font-weight="600" font-size="26.667" font-family="Noto Sans"><tspan x="517.878" y="88.832">K</tspan></text><text style="line-height:1.25;-inkscape-font-specification:'Noto Sans, Semi-Bold'" x="576.485" y="88.781" font-weight="600" font-size="26.667" font-family="Noto Sans"><tspan x="576.485" y="88.781">G</tspan></text><text style="line-height:1.25;-inkscape-font-specification:'Noto Sans, Semi-Bold'" x="637.417" y="89.279" font-weight="600" font-size="26.667" font-family="Noto Sans"><tspan x="637.417" y="89.279">B</tspan></text><text style="line-height:1.25;-inkscape-font-specification:'Noto Sans, Semi-Bold'" x="696.673" y="89.311" font-weight="600" font-size="26.667" font-family="Noto Sans"><tspan x="696.673" y="89.311">C</tspan></text><text style="line-height:1.25;-inkscape-font-specification:'Noto Sans, Semi-Bold'" x="757.889" y="89.046" font-weight="600" font-size="26.667" font-family="Noto Sans"><tspan x="757.889" y="89.046">F</tspan></text><text style="line-height:1.25;-inkscape-font-specification:'Noto Sans, Semi-Bold'" x="773.768" y="149.01" font-weight="600" font-size="26.667" font-family="Noto Sans"><tspan x="773.768" y="149.01">Z</tspan></text><text style="line-height:1.25;-inkscape-font-specification:'Noto Sans, Semi-Bold'" x="713.039" y="149.077" font-weight="600" font-size="26.667" font-family="Noto Sans"><tspan x="713.039" y="149.077">Ž</tspan></text><text style="line-height:1.25;-inkscape-font-specification:'Noto Sans, Semi-Bold'" x="653.67" y="148.787" font-weight="600" font-size="26.667" font-family="Noto Sans"><tspan x="653.67" y="148.787" style="-inkscape-font-specification:'Noto Sans Semi-Bold'">P</tspan></text><text style="line-height:1.25;-inkscape-font-specification:'Noto Sans, Semi-Bold'" x="593.785" y="149.257" font-weight="600" font-size="26.667" font-family="Noto Sans"><tspan x="593.785" y="149.257">S</tspan></text><text style="line-height:1.25;-inkscape-font-specification:'Noto Sans, Semi-Bold'" x="533.201" y="148.696" font-weight="600" font-size="26.667" font-family="Noto Sans"><tspan x="533.201" y="148.696">T</tspan></text><text style="line-height:1.25;-inkscape-font-specification:'Noto Sans, Semi-Bold'" x="473.148" y="148.671" font-weight="600" font-size="26.667" font-family="Noto Sans"><tspan x="473.148" y="148.671">R</tspan></text><text style="line-height:1.25;-inkscape-font-specification:'Noto Sans, Semi-Bold'" x="411.786" y="148.985" font-weight="600" font-size="26.667" font-family="Noto Sans"><tspan x="411.786" y="148.985">L</tspan></text><text style="line-height:1.25;-inkscape-font-specification:'Noto Sans, Semi-Bold'" x="351.053" y="148.936" font-weight="600" font-size="26.667" font-family="Noto Sans"><tspan x="351.053" y="148.936">H</tspan></text><text style="line-height:1.25;-inkscape-font-specification:'Noto Sans, Semi-Bold'" x="292.179" y="148.863" font-weight="600" font-size="26.667" font-family="Noto Sans"><tspan x="292.179" y="148.863">A</tspan></text><text style="line-height:1.25;-inkscape-font-specification:'Noto Sans, Semi-Bold'" x="235.662" y="149.022" font-weight="600" font-size="26.667" font-family="Noto Sans"><tspan x="235.662" y="149.022">I</tspan></text><text style="line-height:1.25;-inkscape-font-specification:'Noto Sans, Semi-Bold'" x="172.726" y="149.092" font-weight="600" font-size="26.667" font-family="Noto Sans"><tspan x="172.726" y="149.092">E</tspan></text><text style="line-height:1.25;-inkscape-font-specification:'Noto Sans, Semi-Bold'" x="110.967" y="149.054" font-weight="600" font-size="26.667" font-family="Noto Sans"><tspan x="110.967" y="149.054">U</tspan></text><text style="line-height:1.25;-inkscape-font-specification:'Noto Sans, Semi-Bold'" x="90" y="202.5" font-weight="600" font-size="24" font-family="Noto Sans"/><text style="line-height:1.25;-inkscape-font-specification:'Noto Sans, Semi-Bold'" x="83.739" y="202.799" font-weight="600" font-size="24" font-family="Noto Sans"><tspan x="83.739" y="202.799">–</tspan></text><text style="line-height:1.25;-inkscape-font-specification:'Noto Sans, Semi-Bold'" x="9.183" y="25.899" font-weight="600" font-size="24" font-family="Noto Sans"><tspan x="9.183" y="25.899">§</tspan></text><text style="line-height:1.25;-inkscape-font-specification:'Noto Sans, Semi-Bold'" x="45" y="7.5" font-weight="600" font-size="24" font-family="Noto Sans"/><text style="line-height:1.25;-inkscape-font-specification:'Noto Sans, Semi-Bold'" x="68.16" y="23.345" font-weight="600" font-size="24" font-family="Noto Sans"><tspan x="68.16" y="23.345">¤</tspan></text><text style="line-height:1.25;-inkscape-font-specification:'Noto Sans, Semi-Bold'" x="126.132" y="25.242" font-weight="600" font-size="24" font-family="Noto Sans"><tspan x="126.132" y="25.242">@</tspan></text><text style="line-height:1.25;-inkscape-font-specification:'Noto Sans, Semi-Bold'" x="187.629" y="25.01" font-weight="600" font-size="24" font-family="Noto Sans"><tspan x="187.629" y="25.01">#</tspan></text><text style="line-height:1.25;-inkscape-font-specification:'Noto Sans, Semi-Bold'" x="248.384" y="24.085" font-weight="600" font-size="24" font-family="Noto Sans"><tspan x="248.384" y="24.085">$</tspan></text><text style="line-height:1.25;-inkscape-font-specification:'Noto Sans, Semi-Bold'" x="305.592" y="23.677" font-weight="600" font-size="24" font-family="Noto Sans"><tspan x="305.592" y="23.677">%</tspan></text><text style="line-height:1.25;-inkscape-font-specification:'Noto Sans, Semi-Bold'" x="368.551" y="24.839" font-weight="600" font-size="24" font-family="Noto Sans"><tspan x="368.551" y="24.839">|</tspan></text><text style="line-height:1.25;-inkscape-font-specification:'Noto Sans, Semi-Bold'" x="428.014" y="25.779" font-weight="600" font-size="24" font-family="Noto Sans"><tspan x="428.014" y="25.779">&amp;</tspan></text><text style="line-height:1.25;-inkscape-font-specification:'Noto Sans, Semi-Bold'" x="487.853" y="23.633" font-weight="600" font-size="24" font-family="Noto Sans"><tspan x="487.853" y="23.633">&lt;</tspan></text><text style="line-height:1.25;-inkscape-font-specification:'Noto Sans, Semi-Bold'" x="548.438" y="23.454" font-weight="600" font-size="24" font-family="Noto Sans"><tspan x="548.438" y="23.454">&gt;</tspan></text><text style="line-height:1.25;-inkscape-font-specification:'Noto Sans, Semi-Bold'" x="610.382" y="24.759" font-weight="600" font-size="24" font-family="Noto Sans"><tspan x="610.382" y="24.759">\</tspan></text><text style="line-height:1.25;-inkscape-font-specification:'Noto Sans, Semi-Bold'" x="663.53" y="28.915" font-weight="600" font-size="26.667" font-family="Noto Sans"><tspan x="663.53" y="28.915">W</tspan></text><text style="line-height:1.25;-inkscape-font-specification:'Noto Sans, Semi-Bold'" x="727.938" y="23.425" font-weight="600" font-size="24" font-family="Noto Sans"><tspan x="727.938" y="23.425">~</tspan></text><text style="line-height:1.25;-inkscape-font-specification:'Noto Sans, Semi-Bold'" x="141.234" y="209.203" font-weight="600" font-size="26.667" font-family="Noto Sans"><tspan x="141.234" y="209.203">Ų</tspan></text><text style="line-height:1.25;-inkscape-font-specification:'Noto Sans, Semi-Bold'" x="202.995" y="209.065" font-weight="600" font-size="26.667" font-family="Noto Sans"><tspan x="202.995" y="209.065">Ę</tspan></text><text style="line-height:1.25;-inkscape-font-specification:'Noto Sans, Semi-Bold'" x="265.925" y="209.061" font-weight="600" font-size="26.667" font-family="Noto Sans"><tspan x="265.925" y="209.061">Į</tspan></text><text style="line-height:1.25;-inkscape-font-specification:'Noto Sans, Semi-Bold'" x="321.976" y="209.283" font-weight="600" font-size="26.667" font-family="Noto Sans"><tspan x="321.976" y="209.283">Ą</tspan></text><text style="line-height:1.25;-inkscape-font-specification:'Noto Sans, Semi-Bold'" x="382.271" y="209.27" font-weight="600" font-size="26.667" font-family="Noto Sans"><tspan x="382.271" y="209.27">X</tspan></text><text style="line-height:1.25;-inkscape-font-specification:'Noto Sans, Semi-Bold'" x="442.561" y="209.127" font-weight="600" font-size="26.667" font-family="Noto Sans"><tspan x="442.561" y="209.127">V</tspan></text><text style="line-height:1.25;-inkscape-font-specification:'Noto Sans, Semi-Bold'" x="499.119" y="208.942" font-weight="600" font-size="26.667" font-family="Noto Sans"><tspan x="499.119" y="208.942">M</tspan></text><text style="line-height:1.25;-inkscape-font-specification:'Noto Sans, Semi-Bold'" x="563.007" y="209.132" font-weight="600" font-size="26.667" font-family="Noto Sans"><tspan x="563.007" y="209.132">D</tspan></text><text style="line-height:1.25;-inkscape-font-specification:'Noto Sans, Semi-Bold'" x="623.203" y="209.233" font-weight="600" font-size="26.667" font-family="Noto Sans"><tspan x="623.203" y="209.233">Š</tspan></text><text style="line-height:1.25;-inkscape-font-specification:'Noto Sans, Semi-Bold'" x="681.952" y="209.198" font-weight="600" font-size="26.667" font-family="Noto Sans"><tspan x="681.952" y="209.198">Č</tspan></text><text style="line-height:1.25;-inkscape-font-specification:'Noto Sans, Semi-Bold';font-variant-ligatures:normal;font-variant-caps:normal;font-variant-numeric:normal;font-variant-east-asian:normal" x="178.91" y="278.923" font-weight="600" font-size="26.667" font-family="Noto Sans" stroke-width="1.162" fill="#fff"><tspan x="178.91" y="278.923" style="-inkscape-font-specification:'Noto Sans, Semi-Bold';font-variant-ligatures:normal;font-variant-caps:normal;font-variant-numeric:normal;font-variant-east-asian:normal" font-weight="400">⎇</tspan></text><text style="line-height:1.25;-inkscape-font-specification:'Noto Sans, Semi-Bold'" x="633.838" y="277.435" font-weight="600" font-size="27.887" font-family="Noto Sans" fill="#fff" stroke-width="1.162"><tspan x="633.838" y="277.435" style="-inkscape-font-specification:'Noto Sans, Semi-Bold';font-variant-ligatures:normal;font-variant-caps:normal;font-variant-numeric:normal;font-variant-east-asian:normal" font-weight="400" font-size="26.667">⇮</tspan></text><text style="line-height:1.25;-inkscape-font-specification:'Noto Sans, Semi-Bold';font-variant-ligatures:normal;font-variant-caps:normal;font-variant-numeric:normal;font-variant-east-asian:normal" x="37.251" y="277.48" font-weight="600" font-size="26.667" font-family="Noto Sans" fill="#fff" stroke-width="1.162"><tspan x="37.251" y="277.48" style="-inkscape-font-specification:'Noto Sans, Semi-Bold';font-variant-ligatures:normal;font-variant-caps:normal;font-variant-numeric:normal;font-variant-east-asian:normal" font-weight="400">⎈</tspan></text><text style="line-height:1.25;-inkscape-font-specification:'Noto Sans, Semi-Bold'" x="113.35" y="277.417" font-weight="600" font-size="27.887" font-family="Noto Sans" stroke-width="1.162" fill="#fff"><tspan x="113.35" y="277.417" style="-inkscape-font-specification:'Noto Sans, Semi-Bold';font-variant-ligatures:normal;font-variant-caps:normal;font-variant-numeric:normal;font-variant-east-asian:normal" font-size="26.667">◊</tspan></text><text style="line-height:1.25;-inkscape-font-specification:'Noto Sans, Semi-Bold'" x="849.272" y="132.623" font-weight="600" font-size="27.887" font-family="Noto Sans" stroke-width="1.162" fill="#fff"><tspan x="849.272" y="132.623" style="-inkscape-font-specification:'Noto Sans, Semi-Bold';font-variant-ligatures:normal;font-variant-caps:normal;font-variant-numeric:normal;font-variant-east-asian:normal" font-weight="400" font-size="26.667">⏎</tspan></text><text style="line-height:1.25;-inkscape-font-specification:'Noto Sans, Semi-Bold';font-variant-ligatures:normal;font-variant-caps:normal;font-variant-numeric:normal;font-variant-east-asian:normal" x="34.096" y="98.7" font-weight="600" font-size="26.667" font-family="Noto Sans" stroke-width="1.162" fill="#fff"><tspan x="34.096" y="98.7" style="-inkscape-font-specification:'Noto Sans, Semi-Bold';font-variant-ligatures:normal;font-variant-caps:normal;font-variant-numeric:normal;font-variant-east-asian:normal" font-weight="400">↹</tspan></text><text style="line-height:1.25;-inkscape-font-specification:'Noto Sans, Semi-Bold';font-variant-ligatures:normal;font-variant-caps:normal;font-variant-numeric:normal;font-variant-east-asian:normal" x="806.464" y="220.396" font-weight="600" font-size="26.667" font-family="Noto Sans" stroke-width="1.162" fill="#fff"><tspan x="806.464" y="220.396" style="-inkscape-font-specification:'Noto Sans, Semi-Bold';font-variant-ligatures:normal;font-variant-caps:normal;font-variant-numeric:normal;font-variant-east-asian:normal" font-weight="400">⇧</tspan></text><text style="line-height:1.25;-inkscape-font-specification:'Noto Sans, Semi-Bold';font-variant-ligatures:normal;font-variant-caps:normal;font-variant-numeric:normal;font-variant-east-asian:normal" x="41.446" y="159.65" font-weight="600" font-size="26.667" font-family="Noto Sans" stroke-width="1.162" fill="#fff"><tspan x="41.446" y="159.65" style="-inkscape-font-specification:'Noto Sans, Semi-Bold';font-variant-ligatures:normal;font-variant-caps:normal;font-variant-numeric:normal;font-variant-east-asian:normal" font-weight="400">⇪</tspan></text><text style="line-height:1.25;-inkscape-font-specification:'Noto Sans, Semi-Bold';font-variant-ligatures:normal;font-variant-caps:normal;font-variant-numeric:normal;font-variant-east-asian:normal" x="817.679" y="40.185" font-weight="600" font-size="26.667" font-family="Noto Sans" stroke-width="1.162" fill="#fff"><tspan x="817.679" y="40.185" style="-inkscape-font-specification:'Noto Sans, Semi-Bold';font-variant-ligatures:normal;font-variant-caps:normal;font-variant-numeric:normal;font-variant-east-asian:normal" font-weight="400">⌫</tspan></text><text style="line-height:1.25;-inkscape-font-specification:'Noto Sans, Semi-Bold';font-variant-ligatures:normal;font-variant-caps:normal;font-variant-numeric:normal;font-variant-east-asian:normal" x="26.298" y="219.327" font-weight="600" font-size="26.667" font-family="Noto Sans" stroke-width="1.162" fill="#fff"><tspan x="26.298" y="219.327" style="-inkscape-font-specification:'Noto Sans, Semi-Bold';font-variant-ligatures:normal;font-variant-caps:normal;font-variant-numeric:normal;font-variant-east-asian:normal" font-weight="400">⇧</tspan></text><text style="line-height:1.25;-inkscape-font-specification:'Noto Sans, Semi-Bold';font-variant-ligatures:normal;font-variant-caps:normal;font-variant-numeric:normal;font-variant-east-asian:normal" x="768.761" y="278.296" font-weight="600" font-size="26.667" font-family="Noto Sans" stroke-width="1.162" fill="#fff"><tspan x="768.761" y="278.296" style="-inkscape-font-specification:'Noto Sans, Semi-Bold';font-variant-ligatures:normal;font-variant-caps:normal;font-variant-numeric:normal;font-variant-east-asian:normal" font-weight="400">≣</tspan></text><text style="line-height:1.25;-inkscape-font-specification:'Noto Sans, Semi-Bold';font-variant-ligatures:normal;font-variant-caps:normal;font-variant-numeric:normal;font-variant-east-asian:normal" x="847.004" y="277.524" font-weight="600" font-size="26.667" font-family="Noto Sans" fill="#fff" stroke-width="1.162"><tspan x="847.004" y="277.524" style="-inkscape-font-specification:'Noto Sans, Semi-Bold';font-variant-ligatures:normal;font-variant-caps:normal;font-variant-numeric:normal;font-variant-east-asian:normal" font-weight="400">⎈</tspan></text><text style="line-height:1.25;-inkscape-font-specification:'Noto Sans, Semi-Bold'" x="713.577" y="277.875" font-weight="600" font-size="27.887" font-family="Noto Sans" stroke-width="1.162" fill="#fff"><tspan x="713.577" y="277.875" style="-inkscape-font-specification:'Noto Sans, Semi-Bold';font-variant-ligatures:normal;font-variant-caps:normal;font-variant-numeric:normal;font-variant-east-asian:normal" font-weight="700" font-size="26.667">◊</tspan></text></svg>