<svg width="900" height="300" version="1.0" xmlns="http://www.w3.org/2000/svg"><defs><path id="a" d="M97.5 330H855v202.5H97.5z"/></defs><path d="M330 60h60v60h-60zM765 120h60v60h-60zM0 0h60v60H0V0zM60 0h60v60H60V0zM120 0h60v60h-60V0zM180 0h60v60h-60V0zM240 0h60v60h-60V0zM300 0h60v60h-60V0zM360 0h60v60h-60V0zM420 0h60v60h-60V0zM480 0h60v60h-60V0zM540 0h60v60h-60V0zM600 0h60v60h-60V0zM660 0h60v60h-60V0zM720 0h60v60h-60V0z" fill="#fff" fill-rule="evenodd" stroke="#000"/><path d="M780 0h120v60H780V0zM0 60h90v60H0V60z" fill="#ccc" fill-rule="evenodd" stroke="#000"/><path d="M90 60h60v60H90V60zM150 60h60v60h-60V60zM210 60h60v60h-60V60zM270 60h60v60h-60V60zM360 0h60v60h-60zM390 60h60v60h-60V60zM450 60h60v60h-60V60zM510 60h60v60h-60V60zM570 60h60v60h-60V60zM630 60h60v60h-60V60zM690 60h60v60h-60V60zM750 60h60v60h-60V60z" fill="#fff" fill-rule="evenodd" stroke="#000"/><path d="M0 120h105v60H0v-60z" fill="#ccc" fill-rule="evenodd" stroke="#000"/><path d="M105 120h60v60h-60v-60zM165 120h60v60h-60v-60zM225 120h60v60h-60v-60zM285 120h60v60h-60v-60zM345 120h60v60h-60v-60zM405 120h60v60h-60v-60zM465 120h60v60h-60v-60zM525 120h60v60h-60v-60zM585 120h60v60h-60v-60zM645 120h60v60h-60v-60zM705 120h60v60h-60v-60z" fill="#fff" fill-rule="evenodd" stroke="#000"/><path d="M825 120h-15V60h90v120h-75.11l.11-60zM0 180h75.002v60H0v-60z" fill="#ccc" fill-rule="evenodd" stroke="#000"/><path d="M135 180h60v60h-60v-60zM195 180h60v60h-60v-60zM255 180h60v60h-60v-60zM315 180h60v60h-60v-60zM375 180h60v60h-60v-60zM435 180h60v60h-60v-60zM495 180h60v60h-60v-60zM555 180h60v60h-60v-60zM615 180h60v60h-60v-60zM675 180h60v60h-60v-60z" fill="#fff" fill-rule="evenodd" stroke="#000"/><path d="M735 180h165v60H735v-60zM0 240h90v60H0v-60zM810 240h90v60h-90v-60zM150 240h90v60h-90v-60zM600 240h90v60h-90v-60z" fill="#ccc" fill-rule="evenodd" stroke="#000"/><path d="M240 240h360v60H240v-60z" fill="#fff" fill-rule="evenodd" stroke="#000"/><path d="M90 240h60v60H90v-60zM690 240h60v60h-60v-60zM750 240h60v60h-60v-60z" fill="#e6e6e6" fill-rule="evenodd" stroke="#000"/><path d="M75 180h60v60H75v-60z" fill="#fff" fill-rule="evenodd" stroke="#000"/><text style="line-height:1.25;-inkscape-font-specification:'Noto Sans, Semi-Bold'" x="90" y="202.5" font-weight="600" font-size="24" font-family="Noto Sans"/><text style="line-height:1.25;-inkscape-font-specification:'Noto Sans, Semi-Bold'" x="85.964" y="231.763" font-weight="600" font-size="24" font-family="Noto Sans"><tspan x="85.964" y="231.763" font-weight="400">-</tspan></text><text style="line-height:1.25;-inkscape-font-specification:'Noto Sans, Semi-Bold'" x="8.253" y="53.424" font-weight="600" font-size="24" font-family="Noto Sans"><tspan x="8.253" y="53.424" font-weight="400">+</tspan></text><text style="line-height:1.25;-inkscape-font-specification:'Noto Sans, Semi-Bold'" x="45" y="7.5" font-weight="600" font-size="24" font-family="Noto Sans"/><text style="line-height:1.25;-inkscape-font-specification:'Noto Sans, Semi-Bold'" x="71.714" y="52.097" font-weight="600" font-size="24" font-family="Noto Sans"><tspan x="71.714" y="52.097" font-weight="400">!</tspan></text><text style="line-height:1.25;-inkscape-font-specification:'Noto Sans, Semi-Bold'" x="131.761" y="52.492" font-weight="600" font-size="24" font-family="Noto Sans"><tspan x="131.761" y="52.492" font-weight="400">:</tspan></text><text style="line-height:1.25;-inkscape-font-specification:'Noto Sans, Semi-Bold'" x="191.674" y="52.411" font-weight="600" font-size="24" font-family="Noto Sans"><tspan x="191.674" y="52.411" font-weight="400">.</tspan></text><text style="line-height:1.25;-inkscape-font-specification:'Noto Sans, Semi-Bold'" x="248.661" y="51.443" font-weight="600" font-size="24" font-family="Noto Sans"><tspan x="248.661" y="51.443" font-weight="400">*</tspan></text><text style="line-height:1.25;-inkscape-font-specification:'Noto Sans, Semi-Bold'" x="309.619" y="50.344" font-weight="600" font-size="24" font-family="Noto Sans"><tspan x="309.619" y="50.344" font-weight="400">_</tspan></text><text style="line-height:1.25;-inkscape-font-specification:'Noto Sans, Semi-Bold'" x="364.051" y="51.905" font-weight="600" font-size="24" font-family="Noto Sans"><tspan x="364.051" y="51.905" font-weight="400">—</tspan></text><text style="line-height:1.25;-inkscape-font-specification:'Noto Sans, Semi-Bold'" x="428.406" y="53.324" font-weight="600" font-size="24" font-family="Noto Sans"><tspan x="428.406" y="53.324" font-weight="400">=</tspan></text><text style="line-height:1.25;-inkscape-font-specification:'Noto Sans, Semi-Bold'" x="492.135" y="52.291" font-weight="600" font-size="24" font-family="Noto Sans"><tspan x="492.135" y="52.291" font-weight="400">,</tspan></text><text style="line-height:1.25;-inkscape-font-specification:'Noto Sans, Semi-Bold'" x="551.669" y="52.75" font-weight="600" font-size="24" font-family="Noto Sans"><tspan x="551.669" y="52.75" font-weight="400">;</tspan></text><text style="line-height:1.25;-inkscape-font-specification:'Noto Sans, Semi-Bold'" x="610.039" y="52.459" font-weight="600" font-size="24" font-family="Noto Sans"><tspan x="610.039" y="52.459" font-weight="400">/</tspan></text><text style="line-height:1.25;-inkscape-font-specification:'Noto Sans, Semi-Bold'" x="730.291" y="52.383" font-weight="600" font-size="24" font-family="Noto Sans"><tspan x="730.291" y="52.383" font-weight="400">?</tspan></text><text style="line-height:1.25;-inkscape-font-specification:'Noto Sans, Semi-Bold';font-variant-ligatures:normal;font-variant-caps:normal;font-variant-numeric:normal;font-variant-east-asian:normal" x="178.91" y="278.923" font-weight="600" font-size="26.667" font-family="Noto Sans" stroke-width="1.162" fill="#fff"><tspan x="178.91" y="278.923" style="-inkscape-font-specification:'Noto Sans, Semi-Bold';font-variant-ligatures:normal;font-variant-caps:normal;font-variant-numeric:normal;font-variant-east-asian:normal" font-weight="400">⎇</tspan></text><text style="line-height:1.25;-inkscape-font-specification:'Noto Sans, Semi-Bold'" x="633.892" y="277.444" font-weight="600" font-size="27.887" font-family="Noto Sans" fill="#fff" stroke-width="1.162"><tspan x="633.892" y="277.444" style="-inkscape-font-specification:'Noto Sans, Semi-Bold';font-variant-ligatures:normal;font-variant-caps:normal;font-variant-numeric:normal;font-variant-east-asian:normal" font-weight="400" font-size="26.667">⇮</tspan></text><text style="line-height:1.25;-inkscape-font-specification:'Noto Sans, Semi-Bold';font-variant-ligatures:normal;font-variant-caps:normal;font-variant-numeric:normal;font-variant-east-asian:normal" x="37.251" y="277.48" font-weight="600" font-size="26.667" font-family="Noto Sans" fill="#fff" stroke-width="1.162"><tspan x="37.251" y="277.48" style="-inkscape-font-specification:'Noto Sans, Semi-Bold';font-variant-ligatures:normal;font-variant-caps:normal;font-variant-numeric:normal;font-variant-east-asian:normal" font-weight="400">⎈</tspan></text><text style="line-height:1.25;-inkscape-font-specification:'Noto Sans, Semi-Bold'" x="113.35" y="277.417" font-weight="600" font-size="27.887" font-family="Noto Sans" stroke-width="1.162" fill="#fff"><tspan x="113.35" y="277.417" style="-inkscape-font-specification:'Noto Sans, Semi-Bold';font-variant-ligatures:normal;font-variant-caps:normal;font-variant-numeric:normal;font-variant-east-asian:normal" font-size="26.667">◊</tspan></text><text style="line-height:1.25;-inkscape-font-specification:'Noto Sans, Semi-Bold'" x="849.272" y="132.623" font-weight="600" font-size="27.887" font-family="Noto Sans" stroke-width="1.162" fill="#fff"><tspan x="849.272" y="132.623" style="-inkscape-font-specification:'Noto Sans, Semi-Bold';font-variant-ligatures:normal;font-variant-caps:normal;font-variant-numeric:normal;font-variant-east-asian:normal" font-weight="400" font-size="26.667">⏎</tspan></text><text style="line-height:1.25;-inkscape-font-specification:'Noto Sans, Semi-Bold';font-variant-ligatures:normal;font-variant-caps:normal;font-variant-numeric:normal;font-variant-east-asian:normal" x="34.096" y="98.7" font-weight="600" font-size="26.667" font-family="Noto Sans" stroke-width="1.162" fill="#fff"><tspan x="34.096" y="98.7" style="-inkscape-font-specification:'Noto Sans, Semi-Bold';font-variant-ligatures:normal;font-variant-caps:normal;font-variant-numeric:normal;font-variant-east-asian:normal" font-weight="400">↹</tspan></text><text style="line-height:1.25;-inkscape-font-specification:'Noto Sans, Semi-Bold';font-variant-ligatures:normal;font-variant-caps:normal;font-variant-numeric:normal;font-variant-east-asian:normal" x="806.464" y="220.396" font-weight="600" font-size="26.667" font-family="Noto Sans" stroke-width="1.162" fill="#fff"><tspan x="806.464" y="220.396" style="-inkscape-font-specification:'Noto Sans, Semi-Bold';font-variant-ligatures:normal;font-variant-caps:normal;font-variant-numeric:normal;font-variant-east-asian:normal" font-weight="400">⇧</tspan></text><text style="line-height:1.25;-inkscape-font-specification:'Noto Sans, Semi-Bold';font-variant-ligatures:normal;font-variant-caps:normal;font-variant-numeric:normal;font-variant-east-asian:normal" x="41.446" y="159.65" font-weight="600" font-size="26.667" font-family="Noto Sans" stroke-width="1.162" fill="#fff"><tspan x="41.446" y="159.65" style="-inkscape-font-specification:'Noto Sans, Semi-Bold';font-variant-ligatures:normal;font-variant-caps:normal;font-variant-numeric:normal;font-variant-east-asian:normal" font-weight="400">⇪</tspan></text><text style="line-height:1.25;-inkscape-font-specification:'Noto Sans, Semi-Bold';font-variant-ligatures:normal;font-variant-caps:normal;font-variant-numeric:normal;font-variant-east-asian:normal" x="817.679" y="40.185" font-weight="600" font-size="26.667" font-family="Noto Sans" stroke-width="1.162" fill="#fff"><tspan x="817.679" y="40.185" style="-inkscape-font-specification:'Noto Sans, Semi-Bold';font-variant-ligatures:normal;font-variant-caps:normal;font-variant-numeric:normal;font-variant-east-asian:normal" font-weight="400">⌫</tspan></text><text style="line-height:1.25;-inkscape-font-specification:'Noto Sans, Semi-Bold';font-variant-ligatures:normal;font-variant-caps:normal;font-variant-numeric:normal;font-variant-east-asian:normal" x="26.298" y="219.327" font-weight="600" font-size="26.667" font-family="Noto Sans" stroke-width="1.162" fill="#fff"><tspan x="26.298" y="219.327" style="-inkscape-font-specification:'Noto Sans, Semi-Bold';font-variant-ligatures:normal;font-variant-caps:normal;font-variant-numeric:normal;font-variant-east-asian:normal" font-weight="400">⇧</tspan></text><text style="line-height:1.25;-inkscape-font-specification:'Noto Sans, Semi-Bold';font-variant-ligatures:normal;font-variant-caps:normal;font-variant-numeric:normal;font-variant-east-asian:normal" x="768.761" y="278.296" font-weight="600" font-size="26.667" font-family="Noto Sans" stroke-width="1.162" fill="#fff"><tspan x="768.761" y="278.296" style="-inkscape-font-specification:'Noto Sans, Semi-Bold';font-variant-ligatures:normal;font-variant-caps:normal;font-variant-numeric:normal;font-variant-east-asian:normal" font-weight="400">≣</tspan></text><text style="line-height:1.25;-inkscape-font-specification:'Noto Sans, Semi-Bold';font-variant-ligatures:normal;font-variant-caps:normal;font-variant-numeric:normal;font-variant-east-asian:normal" x="847.004" y="277.524" font-weight="600" font-size="26.667" font-family="Noto Sans" fill="#fff" stroke-width="1.162"><tspan x="847.004" y="277.524" style="-inkscape-font-specification:'Noto Sans, Semi-Bold';font-variant-ligatures:normal;font-variant-caps:normal;font-variant-numeric:normal;font-variant-east-asian:normal" font-weight="400">⎈</tspan></text><text style="line-height:1.25;-inkscape-font-specification:'Noto Sans, Semi-Bold'" x="713.577" y="277.875" font-weight="600" font-size="27.887" font-family="Noto Sans" stroke-width="1.162" fill="#fff"><tspan x="713.577" y="277.875" style="-inkscape-font-specification:'Noto Sans, Semi-Bold';font-variant-ligatures:normal;font-variant-caps:normal;font-variant-numeric:normal;font-variant-east-asian:normal" font-weight="700" font-size="26.667">◊</tspan></text><text style="line-height:1.25;-inkscape-font-specification:'Sans, Normal';font-variant-ligatures:none" x="105" y="105" font-size="21.333" font-family="Sans"/><text style="line-height:1.25;-inkscape-font-specification:'Sans, Normal';font-variant-ligatures:none" x="158.291" y="112.293" font-size="21.333" font-family="Sans"><tspan x="158.291" y="112.293">ė</tspan></text><text style="line-height:1.25;-inkscape-font-specification:'Sans, Normal';font-variant-ligatures:none" x="98.517" y="112.591" font-size="21.333" font-family="Sans"><tspan x="98.517" y="112.591">ū</tspan></text><text style="line-height:1.25;-inkscape-font-specification:'Sans, Normal';font-variant-ligatures:none" x="218.63" y="112.491" font-size="21.333" font-family="Sans"><tspan x="218.63" y="112.491">y</tspan></text><text style="line-height:1.25;-inkscape-font-specification:'Sans, Normal';font-variant-ligatures:none" x="278.395" y="112.247" font-size="21.333" font-family="Sans"><tspan x="278.395" y="112.247">o</tspan></text><text style="line-height:1.25;-inkscape-font-specification:'Sans, Normal';font-variant-ligatures:none" x="113.076" y="172.195" font-size="21.333" font-family="Sans"><tspan x="113.076" y="172.195">u</tspan></text><text style="line-height:1.25;-inkscape-font-specification:'Sans, Normal';font-variant-ligatures:none" x="173.179" y="172.5" font-size="21.333" font-family="Sans"><tspan x="173.179" y="172.5">e</tspan></text><text style="line-height:1.25;-inkscape-font-specification:'Sans, Normal';font-variant-ligatures:none" x="237.01" y="172.304" font-size="21.333" font-family="Sans"><tspan x="237.01" y="172.304">i</tspan></text><text style="line-height:1.25;-inkscape-font-specification:'Sans, Normal';font-variant-ligatures:none" x="293.604" y="171.952" font-size="21.333" font-family="Sans"><tspan x="293.604" y="171.952">a</tspan></text><text style="line-height:1.25;-inkscape-font-specification:'Sans, Normal';font-variant-ligatures:none" x="353.133" y="172.547" font-size="21.333" font-family="Sans"><tspan x="353.133" y="172.547">h</tspan></text><text style="line-height:1.25;-inkscape-font-specification:'Sans, Normal';font-variant-ligatures:none" x="143.285" y="232.196" font-size="21.333" font-family="Sans"><tspan x="143.285" y="232.196">ų</tspan></text><text style="line-height:1.25;-inkscape-font-specification:'Sans, Normal';font-variant-ligatures:none" x="203.268" y="232.039" font-size="21.333" font-family="Sans"><tspan x="203.268" y="232.039">ę</tspan></text><text style="line-height:1.25;-inkscape-font-specification:'Sans, Normal';font-variant-ligatures:none" x="266.927" y="232.336" font-size="21.333" font-family="Sans"><tspan x="266.927" y="232.336">į</tspan></text><text style="line-height:1.25;-inkscape-font-specification:'Sans, Normal';font-variant-ligatures:none" x="323.536" y="232.27" font-size="21.333" font-family="Sans"><tspan x="323.536" y="232.27">ą</tspan></text><text style="line-height:1.25;-inkscape-font-specification:'Sans, Normal';font-variant-ligatures:none" x="383.681" y="232.506" font-size="21.333" font-family="Sans"><tspan x="383.681" y="232.506">x</tspan></text><text style="line-height:1.25;-inkscape-font-specification:'Sans, Normal';font-variant-ligatures:none" x="338.666" y="112.183" font-size="21.333" font-family="Sans"><tspan x="338.666" y="112.183">q</tspan></text><text style="line-height:1.25;-inkscape-font-specification:'Sans, Normal';font-variant-ligatures:none" x="401.982" y="112.19" font-size="21.333" font-family="Sans"><tspan x="401.982" y="112.19">j</tspan></text><text style="line-height:1.25;-inkscape-font-specification:'Sans, Normal';font-variant-ligatures:none" x="458.016" y="112.45" font-size="21.333" font-family="Sans"><tspan x="458.016" y="112.45">n</tspan></text><text style="line-height:1.25;-inkscape-font-specification:'Sans, Normal';font-variant-ligatures:none" x="518.867" y="112.437" font-size="21.333" font-family="Sans"><tspan x="518.867" y="112.437">k</tspan></text><text style="line-height:1.25;-inkscape-font-specification:'Sans, Normal';font-variant-ligatures:none" x="578.616" y="112.383" font-size="21.333" font-family="Sans"><tspan x="578.616" y="112.383">g</tspan></text><text style="line-height:1.25;-inkscape-font-specification:'Sans, Normal';font-variant-ligatures:none" x="637.551" y="112.226" font-size="21.333" font-family="Sans"><tspan x="637.551" y="112.226">b</tspan></text><text style="line-height:1.25;-inkscape-font-specification:'Sans, Normal';font-variant-ligatures:none" x="698.785" y="111.979" font-size="21.333" font-family="Sans"><tspan x="698.785" y="111.979">c</tspan></text><text style="line-height:1.25;-inkscape-font-specification:'Sans, Normal';font-variant-ligatures:none" x="759.64" y="112.262" font-size="21.333" font-family="Sans"><tspan x="759.64" y="112.262">f</tspan></text><text style="line-height:1.25;-inkscape-font-specification:'Sans, Normal';font-variant-ligatures:none" x="774.319" y="172.362" font-size="21.333" font-family="Sans"><tspan x="774.319" y="172.362">z</tspan></text><text style="line-height:1.25;-inkscape-font-specification:'Sans, Normal';font-variant-ligatures:none" x="714.311" y="172.392" font-size="21.333" font-family="Sans"><tspan x="714.311" y="172.392">ž</tspan></text><text style="line-height:1.25;-inkscape-font-specification:'Sans, Normal';font-variant-ligatures:none" x="652.506" y="172.078" font-size="21.333" font-family="Sans"><tspan x="652.506" y="172.078">p</tspan></text><text style="line-height:1.25;-inkscape-font-specification:'Sans, Normal';font-variant-ligatures:none" x="594.504" y="172.132" font-size="21.333" font-family="Sans"><tspan x="594.504" y="172.132">s</tspan></text><text style="line-height:1.25;-inkscape-font-specification:'Sans, Normal';font-variant-ligatures:none" x="534.97" y="172.462" font-size="21.333" font-family="Sans"><tspan x="534.97" y="172.462">t</tspan></text><text style="line-height:1.25;-inkscape-font-specification:'Sans, Normal';font-variant-ligatures:none" x="474.477" y="172.5" font-size="21.333" font-family="Sans"><tspan x="474.477" y="172.5">r</tspan></text><text style="line-height:1.25;-inkscape-font-specification:'Sans, Normal';font-variant-ligatures:none" x="417.221" y="172.538" font-size="21.333" font-family="Sans"><tspan x="417.221" y="172.538">l</tspan></text><text style="line-height:1.25;-inkscape-font-specification:'Sans, Normal';font-variant-ligatures:none" x="443.645" y="232.688" font-size="21.333" font-family="Sans"><tspan x="443.645" y="232.688">v</tspan></text><text style="line-height:1.25;-inkscape-font-specification:'Sans, Normal';font-variant-ligatures:none" x="499.614" y="232.554" font-size="21.333" font-family="Sans"><tspan x="499.614" y="232.554">m</tspan></text><text style="line-height:1.25;-inkscape-font-specification:'Sans, Normal';font-variant-ligatures:none" x="564.064" y="231.908" font-size="21.333" font-family="Sans"><tspan x="564.064" y="231.908">d</tspan></text><text style="line-height:1.25;-inkscape-font-specification:'Sans, Normal';font-variant-ligatures:none" x="624.13" y="232.16" font-size="21.333" font-family="Sans"><tspan x="624.13" y="232.16">š</tspan></text><text style="line-height:1.25;-inkscape-font-specification:'Sans, Normal';font-variant-ligatures:none" x="683.143" y="232.04" font-size="21.333" font-family="Sans"><tspan x="683.143" y="232.04">č</tspan></text><text style="line-height:1.25;-inkscape-font-specification:'Sans, Normal';font-variant-ligatures:none" x="666.209" y="52.519" font-size="21.333" font-family="Sans"><tspan x="666.209" y="52.519">w</tspan></text></svg>