<?xml version="1.0" encoding="UTF-8"?>
<svg width="900" height="300" version="1.0" xmlns="http://www.w3.org/2000/svg" xmlns:cc="http://creativecommons.org/ns#" xmlns:dc="http://purl.org/dc/elements/1.1/" xmlns:rdf="http://www.w3.org/1999/02/22-rdf-syntax-ns#">
 <metadata>
  <rdf:RDF>
   <cc:Work rdf:about="">
    <dc:format>image/svg+xml</dc:format>
    <dc:type rdf:resource="http://purl.org/dc/dcmitype/StillImage"/>
    <dc:title/>
   </cc:Work>
  </rdf:RDF>
 </metadata>
 <path d="M330 60h60v60h-60zM765 120h60v60h-60zM0 0h60v60H0V0zM60 0h60v60H60V0z" fill="#fff" fill-rule="evenodd" stroke="#000"/>
 <text x="103.034" y="47.534" fill="#00f" font-family="Noto Sans" font-size="24" font-weight="600" style="line-height:1.25"><tspan x="103.034" y="47.534" font-size="21.333" font-weight="400" style="font-variant-caps:normal;font-variant-east-asian:normal;font-variant-ligatures:normal;font-variant-numeric:normal">’</tspan></text>
 <g fill-rule="evenodd" stroke="#000">
  <path d="m120 0h60v60h-60zm60 0h60v60h-60zm60 0h60v60h-60zm60 0h60v60h-60zm60 0h60v60h-60zm60 0h60v60h-60zm60 0h60v60h-60zm60 0h60v60h-60zm60 0h60v60h-60zm60 0h60v60h-60zm60 0h60v60h-60z" fill="#fff"/>
  <path d="m780 0h120v60h-120zm-780 60h90v60h-90z" fill="#ccc"/>
  <path d="m90 60h60v60h-60zm60 0h60v60h-60zm60 0h60v60h-60zm60 0h60v60h-60zm90-60h60v60h-60zm30 60h60v60h-60zm60 0h60v60h-60zm60 0h60v60h-60zm60 0h60v60h-60zm60 0h60v60h-60zm60 0h60v60h-60zm60 0h60v60h-60z" fill="#fff"/>
  <path d="m0 120h105v60h-105z" fill="#ccc"/>
  <path d="m105 120h60v60h-60zm60 0h60v60h-60zm60 0h60v60h-60zm60 0h60v60h-60zm60 0h60v60h-60zm60 0h60v60h-60zm60 0h60v60h-60zm60 0h60v60h-60zm60 0h60v60h-60zm60 0h60v60h-60zm60 0h60v60h-60z" fill="#fff"/>
  <path d="m825 120h-15v-60h90v120h-75.11z" fill="#ccc"/>
  <path d="m0 180h135v60h-135z" fill="#ccc" stroke-width="1.342"/>
  <path d="m135 180h60v60h-60zm60 0h60v60h-60zm60 0h60v60h-60zm60 0h60v60h-60zm60 0h60v60h-60zm60 0h60v60h-60zm60 0h60v60h-60zm60 0h60v60h-60zm60 0h60v60h-60zm60 0h60v60h-60z" fill="#fff"/>
  <path d="m735 180h165v60h-165zm-735 60h90v60h-90zm810 0h90v60h-90zm-660 0h90v60h-90zm450 0h90v60h-90z" fill="#ccc"/>
  <path d="m240 240h360v60h-360z" fill="#fff"/>
  <path d="m90 240h60v60h-60zm600 0h60v60h-60zm60 0h60v60h-60z" fill="#e6e6e6"/>
 </g>
 <g font-family="'Noto Sans'" font-weight="600">
  <g font-size="26.667px">
   <text x="95.806343" y="87.869301" style="font-variant-caps:normal;font-variant-east-asian:normal;font-variant-ligatures:normal;font-variant-numeric:normal;line-height:1.25"><tspan x="95.806343" y="87.869301" font-size="26.667px">Ū</tspan></text>
   <text x="157.03934" y="87.891296" style="line-height:1.25"><tspan x="157.03934" y="87.891296" font-size="26.667px">Ė</tspan></text>
   <text x="217.43933" y="87.685303" style="line-height:1.25"><tspan x="217.43933" y="87.685303" font-size="26.667px">Y</tspan></text>
   <text x="275.03833" y="88.0093" style="line-height:1.25"><tspan x="275.03833" y="88.0093" font-size="26.667px">O</tspan></text>
   <text x="334.89633" y="88.201302" style="line-height:1.25"><tspan x="334.89633" y="88.201302" font-size="26.667px">Q</tspan></text>
   <text x="401.09531" y="87.755302" style="line-height:1.25"><tspan x="401.09531" y="87.755302" font-size="26.667px">J</tspan></text>
   <text x="454.83432" y="87.875298" style="line-height:1.25"><tspan x="454.83432" y="87.875298" font-size="26.667px">N</tspan></text>
   <text x="517.30737" y="87.680298" style="line-height:1.25"><tspan x="517.30737" y="87.680298" font-size="26.667px">K</tspan></text>
   <text x="575.91437" y="87.628296" style="line-height:1.25"><tspan x="575.91437" y="87.628296" font-size="26.667px">G</tspan></text>
   <text x="636.84534" y="88.126297" style="line-height:1.25"><tspan x="636.84534" y="88.126297" font-size="26.667px">B</tspan></text>
   <text x="696.10236" y="88.159302" style="line-height:1.25"><tspan x="696.10236" y="88.159302" font-size="26.667px">C</tspan></text>
   <text x="757.31732" y="87.893303" style="line-height:1.25"><tspan x="757.31732" y="87.893303" font-size="26.667px">F</tspan></text>
   <text x="773.19733" y="147.85831" style="line-height:1.25"><tspan x="773.19733" y="147.85831" font-size="26.667px">Z</tspan></text>
   <text x="712.46832" y="147.9243" style="line-height:1.25"><tspan x="712.46832" y="147.9243" font-family="'Noto Sans'" font-size="26.667px" font-weight="600">Ž</tspan></text>
   <text x="653.09937" y="147.6353" style="line-height:1.25"><tspan x="653.09937" y="147.6353" font-size="26.667px">P</tspan></text>
   <text x="593.25665" y="147.51051" style="line-height:1.25"><tspan x="593.25665" y="147.51051" font-size="26.667px">S</tspan></text>
   <text x="532.63037" y="147.54431" style="line-height:1.25"><tspan x="532.63037" y="147.54431" font-size="26.667px">T</tspan></text>
   <text x="472.57733" y="147.5193" style="line-height:1.25"><tspan x="472.57733" y="147.5193" font-size="26.667px">R</tspan></text>
   <text x="411.21533" y="147.83231" style="line-height:1.25"><tspan x="411.21533" y="147.83231" font-size="26.667px">L</tspan></text>
   <text x="350.48233" y="147.78331" style="line-height:1.25"><tspan x="350.48233" y="147.78331" font-size="26.667px">H</tspan></text>
   <text x="291.60831" y="147.7113" style="line-height:1.25"><tspan x="291.60831" y="147.7113" font-size="26.667px">A</tspan></text>
   <text x="235.09033" y="147.8703" style="line-height:1.25"><tspan x="235.09033" y="147.8703" font-size="26.667px">I</tspan></text>
   <text x="172.15533" y="147.94031" style="line-height:1.25"><tspan x="172.15533" y="147.94031" font-size="26.667px">E</tspan></text>
   <text x="110.39635" y="147.90231" style="line-height:1.25"><tspan x="110.39635" y="147.90231" font-size="26.667px">U</tspan></text>
  </g>
  <g font-size="24px">
   <text x="90" y="202.5" style="line-height:1.25"/>
   <text x="8.2530003" y="53.424" style="line-height:1.25"><tspan x="8.2530003" y="53.424" font-family="'Noto Sans'" font-weight="normal">+</tspan></text>
   <text x="9.1829996" y="25.899" style="line-height:1.25"><tspan x="9.1829996" y="25.899">§</tspan></text>
   <text x="42.012001" y="48.692001" fill="#0000ff" style="line-height:1.25"><tspan x="42.012001" y="48.692001" font-size="21.333px" font-weight="400" style="font-variant-caps:normal;font-variant-east-asian:normal;font-variant-ligatures:normal;font-variant-numeric:normal">`</tspan></text>
   <text x="45" y="7.5" style="line-height:1.25"/>
   <text x="71.713997" y="52.097" style="line-height:1.25"><tspan x="71.713997" y="52.097" font-family="'Noto Sans'" font-weight="normal">!</tspan></text>
   <text x="68.160004" y="23.344999" style="line-height:1.25"><tspan x="68.160004" y="23.344999">¤</tspan></text>
   <text x="131.761" y="52.492001" style="line-height:1.25"><tspan x="131.761" y="52.492001" font-family="'Noto Sans'" font-weight="normal">:</tspan></text>
   <text x="126.132" y="25.242001" style="line-height:1.25"><tspan x="126.132" y="25.242001">@</tspan></text>
   <text x="191.674" y="52.410999" style="line-height:1.25"><tspan x="191.674" y="52.410999" font-family="'Noto Sans'" font-weight="normal">.</tspan></text>
   <text x="187.629" y="25.01" style="line-height:1.25"><tspan x="187.629" y="25.01">#</tspan></text>
   <text x="248.661" y="51.443001" style="line-height:1.25"><tspan x="248.661" y="51.443001" font-family="'Noto Sans'" font-weight="normal">*</tspan></text>
   <text x="248.384" y="24.084999" style="line-height:1.25"><tspan x="248.384" y="24.084999">$</tspan></text>
   <text x="309.61899" y="50.344002" style="line-height:1.25"><tspan x="309.61899" y="50.344002" font-family="'Noto Sans'" font-weight="normal">_</tspan></text>
   <text x="305.59201" y="23.677" style="line-height:1.25"><tspan x="305.59201" y="23.677">%</tspan></text>
   <text x="364.05099" y="51.904999" style="line-height:1.25"><tspan x="364.05099" y="51.904999" font-family="'Noto Sans'" font-weight="normal">—</tspan></text>
   <text x="368.55099" y="24.839001" style="line-height:1.25"><tspan x="368.55099" y="24.839001">|</tspan></text>
   <text x="399.20099" y="48.146999" fill="#0000ff" style="line-height:1.25"><tspan x="399.20099" y="48.146999" font-size="21.333px" font-weight="400" style="font-variant-caps:normal;font-variant-east-asian:normal;font-variant-ligatures:normal;font-variant-numeric:normal">^</tspan></text>
   <text x="428.40601" y="53.324001" style="line-height:1.25"><tspan x="428.40601" y="53.324001" font-family="'Noto Sans'" font-weight="normal">=</tspan></text>
   <text x="428.01401" y="25.778999" style="line-height:1.25"><tspan x="428.01401" y="25.778999">&amp;</tspan></text>
   <text x="459.715" y="52.534" fill="#0000ff" style="line-height:1.25"><tspan x="459.715" y="52.534" font-size="21.333px" font-weight="400" style="font-variant-caps:normal;font-variant-east-asian:normal;font-variant-ligatures:normal;font-variant-numeric:normal">7</tspan></text>
   <text x="518.92798" y="52.491001" fill="#0000ff" style="line-height:1.25"><tspan x="518.92798" y="52.491001" font-size="21.333px" font-weight="400" style="font-variant-caps:normal;font-variant-east-asian:normal;font-variant-ligatures:normal;font-variant-numeric:normal">8</tspan></text>
   <text x="492.13501" y="52.291" style="line-height:1.25"><tspan x="492.13501" y="52.291" font-family="'Noto Sans'" font-weight="normal">,</tspan></text>
   <text x="487.853" y="23.632999" style="line-height:1.25"><tspan x="487.853" y="23.632999">&lt;</tspan></text>
   <text x="551.66901" y="52.75" style="line-height:1.25"><tspan x="551.66901" y="52.75" font-family="'Noto Sans'" font-weight="normal">;</tspan></text>
   <text x="548.43799" y="23.454" style="line-height:1.25"><tspan x="548.43799" y="23.454">&gt;</tspan></text>
   <text x="579.62903" y="52.387001" fill="#0000ff" style="line-height:1.25"><tspan x="579.62903" y="52.387001" font-size="21.333px" font-weight="400" style="font-variant-caps:normal;font-variant-east-asian:normal;font-variant-ligatures:normal;font-variant-numeric:normal">9</tspan></text>
   <text x="610.039" y="52.459" style="line-height:1.25"><tspan x="610.039" y="52.459" font-family="'Noto Sans'" font-weight="normal">/</tspan></text>
   <text x="610.38202" y="24.759001" style="line-height:1.25"><tspan x="610.38202" y="24.759001">\</tspan></text>
   <text x="638.94598" y="52.556999" fill="#0000ff" style="line-height:1.25"><tspan x="638.94598" y="52.556999" font-size="21.333px" font-weight="400" style="font-variant-caps:normal;font-variant-east-asian:normal;font-variant-ligatures:normal;font-variant-numeric:normal">÷</tspan></text>
  </g>
  <text x="662.95935" y="27.762302" font-size="26.667px" style="line-height:1.25"><tspan x="662.95935" y="27.762302" font-size="26.667px">W</tspan></text>
  <text x="730.29102" y="52.382999" font-size="24px" style="line-height:1.25"><tspan x="730.29102" y="52.382999" font-family="'Noto Sans'" font-weight="normal">?</tspan></text>
  <text x="727.93799" y="23.424999" font-size="24px" style="line-height:1.25"><tspan x="727.93799" y="23.424999">~</tspan></text>
  <g font-size="26.667px">
   <text x="140.66333" y="208.05031" style="line-height:1.25"><tspan x="140.66333" y="208.05031" font-size="26.667px">Ų</tspan></text>
   <text x="202.42433" y="207.9133" style="line-height:1.25"><tspan x="202.42433" y="207.9133" font-size="26.667px">Ę</tspan></text>
   <text x="265.35431" y="207.9093" style="line-height:1.25"><tspan x="265.35431" y="207.9093" font-size="26.667px">Į</tspan></text>
   <text x="321.40533" y="208.13031" style="line-height:1.25"><tspan x="321.40533" y="208.13031" font-size="26.667px">Ą</tspan></text>
   <text x="381.70032" y="208.11731" style="line-height:1.25"><tspan x="381.70032" y="208.11731" font-size="26.667px">X</tspan></text>
   <text x="441.98932" y="207.9743" style="line-height:1.25"><tspan x="441.98932" y="207.9743" font-size="26.667px">V</tspan></text>
   <text x="498.54831" y="207.78931" style="line-height:1.25"><tspan x="498.54831" y="207.78931" font-size="26.667px">M</tspan></text>
   <text x="562.43634" y="207.97931" style="line-height:1.25"><tspan x="562.43634" y="207.97931" font-size="26.667px">D</tspan></text>
   <text x="622.63232" y="208.08131" style="line-height:1.25"><tspan x="622.63232" y="208.08131" font-size="26.667px">Š</tspan></text>
   <text x="681.38135" y="208.04631" style="line-height:1.25"><tspan x="681.38135" y="208.04631" font-size="26.667px">Č</tspan></text>
  </g>
 </g>
 <g fill="#0000ff" font-family="'Noto Sans'">
  <text x="413.68799" y="231.315" font-size="21.333px" font-weight="400" style="font-variant-caps:normal;font-variant-east-asian:normal;font-variant-ligatures:normal;font-variant-numeric:normal;line-height:1.25"><tspan x="413.68799" y="231.315" style="font-variant-caps:normal;font-variant-east-asian:normal;font-variant-ligatures:normal;font-variant-numeric:normal">̀</tspan></text>
  <text x="383.724" y="171.17599" font-size="21.333px" font-weight="400" style="font-variant-caps:normal;font-variant-east-asian:normal;font-variant-ligatures:normal;font-variant-numeric:normal;line-height:1.25"><tspan x="383.724" y="171.17599" style="font-variant-caps:normal;font-variant-east-asian:normal;font-variant-ligatures:normal;font-variant-numeric:normal">̃</tspan></text>
  <text x="368.64999" y="111.271" font-size="24px" font-weight="600" style="line-height:1.25"><tspan x="368.64999" y="111.271" font-size="21.333px" font-weight="400" style="font-variant-caps:normal;font-variant-east-asian:normal;font-variant-ligatures:normal;font-variant-numeric:normal">́</tspan></text>
  <g font-size="21.333px" font-weight="400">
   <text x="147.83501" y="166.394" style="font-variant-caps:normal;font-variant-east-asian:normal;font-variant-ligatures:normal;font-variant-numeric:normal;line-height:1.25"><tspan x="147.83501" y="166.394" style="font-variant-caps:normal;font-variant-east-asian:normal;font-variant-ligatures:normal;font-variant-numeric:normal">'</tspan></text>
   <text x="204.94" y="170.89" style="font-variant-caps:normal;font-variant-east-asian:normal;font-variant-ligatures:normal;font-variant-numeric:normal;line-height:1.25"><tspan x="204.94" y="170.89" style="font-variant-caps:normal;font-variant-east-asian:normal;font-variant-ligatures:normal;font-variant-numeric:normal">(</tspan></text>
   <text x="268.69601" y="170.745" style="font-variant-caps:normal;font-variant-east-asian:normal;font-variant-ligatures:normal;font-variant-numeric:normal;line-height:1.25"><tspan x="268.69601" y="170.745" style="font-variant-caps:normal;font-variant-east-asian:normal;font-variant-ligatures:normal;font-variant-numeric:normal">)</tspan></text>
   <text x="325.67099" y="166.354" style="font-variant-caps:normal;font-variant-east-asian:normal;font-variant-ligatures:normal;font-variant-numeric:normal;line-height:1.25"><tspan x="325.67099" y="166.354" style="font-variant-caps:normal;font-variant-east-asian:normal;font-variant-ligatures:normal;font-variant-numeric:normal">"</tspan></text>
   <text x="177.855" y="232.13" style="font-variant-caps:normal;font-variant-east-asian:normal;font-variant-ligatures:normal;font-variant-numeric:normal;line-height:1.25"><tspan x="177.855" y="232.13" style="font-variant-caps:normal;font-variant-east-asian:normal;font-variant-ligatures:normal;font-variant-numeric:normal">‚</tspan></text>
   <text x="233.16901" y="230.933" style="font-variant-caps:normal;font-variant-east-asian:normal;font-variant-ligatures:normal;font-variant-numeric:normal;line-height:1.25"><tspan x="233.16901" y="230.933" style="font-variant-caps:normal;font-variant-east-asian:normal;font-variant-ligatures:normal;font-variant-numeric:normal">{</tspan></text>
   <text x="298.81299" y="230.823" style="font-variant-caps:normal;font-variant-east-asian:normal;font-variant-ligatures:normal;font-variant-numeric:normal;line-height:1.25"><tspan x="298.81299" y="230.823" style="font-variant-caps:normal;font-variant-east-asian:normal;font-variant-ligatures:normal;font-variant-numeric:normal">}</tspan></text>
   <text x="355.845" y="232.53999" style="font-variant-caps:normal;font-variant-east-asian:normal;font-variant-ligatures:normal;font-variant-numeric:normal;line-height:1.25"><tspan x="355.845" y="232.53999" style="font-variant-caps:normal;font-variant-east-asian:normal;font-variant-ligatures:normal;font-variant-numeric:normal">„</tspan></text>
  </g>
  <g font-size="24px" font-weight="600">
   <text x="132.92" y="106.346" style="line-height:1.25"><tspan x="132.92" y="106.346" font-size="21.333px" font-weight="400" style="font-variant-caps:normal;font-variant-east-asian:normal;font-variant-ligatures:normal;font-variant-numeric:normal">‘</tspan></text>
   <text x="189.366" y="110.991" style="line-height:1.25"><tspan x="189.366" y="110.991" font-size="21.333px" font-weight="400" style="font-variant-caps:normal;font-variant-east-asian:normal;font-variant-ligatures:normal;font-variant-numeric:normal">[</tspan></text>
   <text x="253.649" y="110.978" style="line-height:1.25"><tspan x="253.649" y="110.978" font-size="21.333px" font-weight="400" style="font-variant-caps:normal;font-variant-east-asian:normal;font-variant-ligatures:normal;font-variant-numeric:normal">]</tspan></text>
   <text x="311.211" y="106.666" style="line-height:1.25"><tspan x="311.211" y="106.666" font-size="21.333px" font-weight="400" style="font-variant-caps:normal;font-variant-east-asian:normal;font-variant-ligatures:normal;font-variant-numeric:normal">“</tspan></text>
   <text x="428.733" y="112.567" style="line-height:1.25"><tspan x="428.733" y="112.567" font-size="21.333px" font-weight="400" style="font-variant-caps:normal;font-variant-east-asian:normal;font-variant-ligatures:normal;font-variant-numeric:normal">€</tspan></text>
   <text x="486.91501" y="112.789" style="line-height:1.25"><tspan x="486.91501" y="112.789" font-size="21.333px" font-weight="400" style="font-variant-caps:normal;font-variant-east-asian:normal;font-variant-ligatures:normal;font-variant-numeric:normal">4</tspan></text>
   <text x="549.39502" y="112.373" style="line-height:1.25"><tspan x="549.39502" y="112.373" font-size="21.333px" font-weight="400" style="font-variant-caps:normal;font-variant-east-asian:normal;font-variant-ligatures:normal;font-variant-numeric:normal">5</tspan></text>
   <text x="608.71899" y="112.715" style="line-height:1.25"><tspan x="608.71899" y="112.715" font-size="21.333px" font-weight="400" style="font-variant-caps:normal;font-variant-east-asian:normal;font-variant-ligatures:normal;font-variant-numeric:normal">6</tspan></text>
   <text x="668.96301" y="112.602" style="line-height:1.25"><tspan x="668.96301" y="112.602" font-size="21.333px" font-weight="400" style="font-variant-caps:normal;font-variant-east-asian:normal;font-variant-ligatures:normal;font-variant-numeric:normal">×</tspan></text>
  </g>
  <g font-size="21.333px" font-weight="400">
   <text x="447.577" y="172.80499" style="font-variant-caps:normal;font-variant-east-asian:normal;font-variant-ligatures:normal;font-variant-numeric:normal;line-height:1.25"><tspan x="447.577" y="172.80499" style="font-variant-caps:normal;font-variant-east-asian:normal;font-variant-ligatures:normal;font-variant-numeric:normal">ł</tspan></text>
   <text x="503.54401" y="172.53101" style="font-variant-caps:normal;font-variant-east-asian:normal;font-variant-ligatures:normal;font-variant-numeric:normal;line-height:1.25"><tspan x="503.54401" y="172.53101" style="font-variant-caps:normal;font-variant-east-asian:normal;font-variant-ligatures:normal;font-variant-numeric:normal">1</tspan></text>
   <text x="564.138" y="172.739" style="font-variant-caps:normal;font-variant-east-asian:normal;font-variant-ligatures:normal;font-variant-numeric:normal;line-height:1.25"><tspan x="564.138" y="172.739" style="font-variant-caps:normal;font-variant-east-asian:normal;font-variant-ligatures:normal;font-variant-numeric:normal">2</tspan></text>
   <text x="624.52399" y="172.565" style="font-variant-caps:normal;font-variant-east-asian:normal;font-variant-ligatures:normal;font-variant-numeric:normal;line-height:1.25"><tspan x="624.52399" y="172.565" style="font-variant-caps:normal;font-variant-east-asian:normal;font-variant-ligatures:normal;font-variant-numeric:normal">3</tspan></text>
   <text x="680.82501" y="171.55099" style="font-variant-caps:normal;font-variant-east-asian:normal;font-variant-ligatures:normal;font-variant-numeric:normal;line-height:1.25"><tspan x="680.82501" y="171.55099" style="font-variant-caps:normal;font-variant-east-asian:normal;font-variant-ligatures:normal;font-variant-numeric:normal">−</tspan></text>
  </g>
  <g font-size="24px" font-weight="600">
   <text x="746.68903" y="170.66701" style="line-height:1.25"><tspan x="746.68903" y="170.66701" font-size="21.333px" font-weight="400" style="font-variant-caps:normal;font-variant-east-asian:normal;font-variant-ligatures:normal;font-variant-numeric:normal">-</tspan></text>
   <text x="805.48499" y="169.55" style="line-height:1.25"><tspan x="805.48499" y="169.55" font-size="21.333px" font-weight="400" style="font-variant-caps:normal;font-variant-east-asian:normal;font-variant-ligatures:normal;font-variant-numeric:normal">°</tspan></text>
   <text x="793.646" y="112.575" style="line-height:1.25"><tspan x="793.646" y="112.575" font-size="21.333px" font-weight="400" style="font-variant-caps:normal;font-variant-east-asian:normal;font-variant-ligatures:normal;font-variant-numeric:normal">⁄</tspan></text>
   <text x="728.20398" y="112.595" style="line-height:1.25"><tspan x="728.20398" y="112.595" font-size="21.333px" font-weight="400" style="font-variant-caps:normal;font-variant-east-asian:normal;font-variant-ligatures:normal;font-variant-numeric:normal">¢</tspan></text>
  </g>
  <g font-size="21.333px" font-weight="400">
   <text x="474.065" y="231.952" style="font-variant-caps:normal;font-variant-east-asian:normal;font-variant-ligatures:normal;font-variant-numeric:normal;line-height:1.25"><tspan x="474.065" y="231.952" style="font-variant-caps:normal;font-variant-east-asian:normal;font-variant-ligatures:normal;font-variant-numeric:normal">√</tspan></text>
   <text x="533.72601" y="232.427" style="font-variant-caps:normal;font-variant-east-asian:normal;font-variant-ligatures:normal;font-variant-numeric:normal;line-height:1.25"><tspan x="533.72601" y="232.427" style="font-variant-caps:normal;font-variant-east-asian:normal;font-variant-ligatures:normal;font-variant-numeric:normal">0</tspan></text>
   <text x="597.08502" y="232.207" style="font-variant-caps:normal;font-variant-east-asian:normal;font-variant-ligatures:normal;font-variant-numeric:normal;line-height:1.25"><tspan x="597.08502" y="232.207" style="font-variant-caps:normal;font-variant-east-asian:normal;font-variant-ligatures:normal;font-variant-numeric:normal">.</tspan></text>
   <text x="657.30798" y="232.53" style="font-variant-caps:normal;font-variant-east-asian:normal;font-variant-ligatures:normal;font-variant-numeric:normal;line-height:1.25;white-space:pre"><tspan x="657.30798" y="232.53" style="font-variant-caps:normal;font-variant-east-asian:normal;font-variant-ligatures:normal;font-variant-numeric:normal">,</tspan></text>
  </g>
  <text x="713.17401" y="232.84" font-size="24px" font-weight="600" style="line-height:1.25"><tspan x="713.17401" y="232.84" font-size="21.333px" font-weight="400" style="font-variant-caps:normal;font-variant-east-asian:normal;font-variant-ligatures:normal;font-variant-numeric:normal">+</tspan></text>
 </g>
 <g fill="#ffffff" font-family="'Noto Sans'" font-weight="600" stroke-width="1.162">
  <text x="178.91" y="278.923" font-size="26.667px" style="font-variant-caps:normal;font-variant-east-asian:normal;font-variant-ligatures:normal;font-variant-numeric:normal;line-height:1.25"><tspan x="178.91" y="278.923" font-weight="400" style="font-variant-caps:normal;font-variant-east-asian:normal;font-variant-ligatures:normal;font-variant-numeric:normal">⎇</tspan></text>
  <text x="633.83801" y="277.435" font-size="27.887px" style="line-height:1.25"><tspan x="633.83801" y="277.435" font-size="26.667px" font-weight="400" style="font-variant-caps:normal;font-variant-east-asian:normal;font-variant-ligatures:normal;font-variant-numeric:normal">⇮</tspan></text>
  <text x="37.250999" y="277.48001" font-size="26.667px" style="font-variant-caps:normal;font-variant-east-asian:normal;font-variant-ligatures:normal;font-variant-numeric:normal;line-height:1.25"><tspan x="37.250999" y="277.48001" font-weight="400" style="font-variant-caps:normal;font-variant-east-asian:normal;font-variant-ligatures:normal;font-variant-numeric:normal">⎈</tspan></text>
  <text x="113.35" y="277.41699" font-size="27.887px" style="line-height:1.25"><tspan x="113.35" y="277.41699" font-size="26.667px" style="font-variant-caps:normal;font-variant-east-asian:normal;font-variant-ligatures:normal;font-variant-numeric:normal">◊</tspan></text>
  <text x="849.27197" y="132.623" font-size="27.887px" style="line-height:1.25"><tspan x="849.27197" y="132.623" font-size="26.667px" font-weight="400" style="font-variant-caps:normal;font-variant-east-asian:normal;font-variant-ligatures:normal;font-variant-numeric:normal">⏎</tspan></text>
  <g font-size="26.667px">
   <text x="34.096001" y="98.699997" style="font-variant-caps:normal;font-variant-east-asian:normal;font-variant-ligatures:normal;font-variant-numeric:normal;line-height:1.25"><tspan x="34.096001" y="98.699997" font-weight="400" style="font-variant-caps:normal;font-variant-east-asian:normal;font-variant-ligatures:normal;font-variant-numeric:normal">↹</tspan></text>
   <text x="806.46399" y="220.396" style="font-variant-caps:normal;font-variant-east-asian:normal;font-variant-ligatures:normal;font-variant-numeric:normal;line-height:1.25"><tspan x="806.46399" y="220.396" font-weight="400" style="font-variant-caps:normal;font-variant-east-asian:normal;font-variant-ligatures:normal;font-variant-numeric:normal">⇧</tspan></text>
   <text x="41.445999" y="159.64999" style="font-variant-caps:normal;font-variant-east-asian:normal;font-variant-ligatures:normal;font-variant-numeric:normal;line-height:1.25"><tspan x="41.445999" y="159.64999" font-weight="400" style="font-variant-caps:normal;font-variant-east-asian:normal;font-variant-ligatures:normal;font-variant-numeric:normal">⇪</tspan></text>
   <text x="817.67902" y="40.185001" style="font-variant-caps:normal;font-variant-east-asian:normal;font-variant-ligatures:normal;font-variant-numeric:normal;line-height:1.25"><tspan x="817.67902" y="40.185001" font-weight="400" style="font-variant-caps:normal;font-variant-east-asian:normal;font-variant-ligatures:normal;font-variant-numeric:normal">⌫</tspan></text>
   <text x="56.290001" y="219.59" style="font-variant-caps:normal;font-variant-east-asian:normal;font-variant-ligatures:normal;font-variant-numeric:normal;line-height:1.25"><tspan x="56.290001" y="219.59" font-weight="400" style="font-variant-caps:normal;font-variant-east-asian:normal;font-variant-ligatures:normal;font-variant-numeric:normal">⇧</tspan></text>
   <text x="768.76099" y="278.29599" style="font-variant-caps:normal;font-variant-east-asian:normal;font-variant-ligatures:normal;font-variant-numeric:normal;line-height:1.25"><tspan x="768.76099" y="278.29599" font-weight="400" style="font-variant-caps:normal;font-variant-east-asian:normal;font-variant-ligatures:normal;font-variant-numeric:normal">≣</tspan></text>
   <text x="847.00403" y="277.52399" style="font-variant-caps:normal;font-variant-east-asian:normal;font-variant-ligatures:normal;font-variant-numeric:normal;line-height:1.25"><tspan x="847.00403" y="277.52399" font-weight="400" style="font-variant-caps:normal;font-variant-east-asian:normal;font-variant-ligatures:normal;font-variant-numeric:normal">⎈</tspan></text>
  </g>
  <text x="713.57703" y="277.875" font-size="27.887px" style="line-height:1.25"><tspan x="713.57703" y="277.875" font-size="26.667px" font-weight="700" style="font-variant-caps:normal;font-variant-east-asian:normal;font-variant-ligatures:normal;font-variant-numeric:normal">◊</tspan></text>
 </g>
 <g fill="#0000ff" font-family="'Noto Sans'" font-size="24px" font-weight="600">
  <text x="336.70401" y="51.987" style="line-height:1.25"><tspan x="336.70401" y="51.987" font-size="21.333px" font-weight="400" style="font-variant-caps:normal;font-variant-east-asian:normal;font-variant-ligatures:normal;font-variant-numeric:normal">…</tspan></text>
  <text x="281.254" y="49.948002" style="line-height:1.25"><tspan x="281.254" y="49.948002" font-size="21.333px" font-weight="400" style="font-variant-caps:normal;font-variant-east-asian:normal;font-variant-ligatures:normal;font-variant-numeric:normal">”</tspan></text>
  <text x="158.62801" y="51.866001" style="line-height:1.25"><tspan x="158.62801" y="51.866001" font-size="21.333px" font-weight="400" style="font-variant-caps:normal;font-variant-east-asian:normal;font-variant-ligatures:normal;font-variant-numeric:normal">⟨</tspan></text>
  <text x="223.196" y="51.771" style="line-height:1.25"><tspan x="223.196" y="51.771" font-size="21.333px" font-weight="400" style="font-variant-caps:normal;font-variant-east-asian:normal;font-variant-ligatures:normal;font-variant-numeric:normal">⟩</tspan></text>
  <text x="696.69098" y="52.527" style="line-height:1.25"><tspan x="696.69098" y="52.527" font-size="21.333px" font-weight="400" style="font-variant-caps:normal;font-variant-east-asian:normal;font-variant-ligatures:normal;font-variant-numeric:normal">Ω</tspan></text>
  <text x="755.46997" y="51.640999" style="line-height:1.25"><tspan x="755.46997" y="51.640999" font-size="21.333px" font-weight="400" style="font-variant-caps:normal;font-variant-east-asian:normal;font-variant-ligatures:normal;font-variant-numeric:normal">≈</tspan></text>
 </g>
</svg>
