<svg width="826" height="308.67" version="1.0" xmlns="http://www.w3.org/2000/svg"><path d="M330.5 93.102h60v60h-60zm435 60h60v60h-60zm-765-120h60v60H.5zm60 0h60v60h-60zm60 0h60v60h-60zm60 0h60v60h-60zm60 0h60v60h-60zm60 0h60v60h-60zm60 0h60v60h-60zm60 0h60v60h-60zm60 0h60v60h-60zm60 0h60v60h-60zm60 0h60v60h-60zm60 0h60v60h-60zm60 0h60v60h-60z" fill="none" stroke="#000"/><path d="M90.5 93.102h60v60h-60zm60 0h60v60h-60zm60 0h60v60h-60zm60 0h60v60h-60zm90-60h60v60h-60zm30 60h60v60h-60zm60 0h60v60h-60zm60 0h60v60h-60zm60 0h60v60h-60zm60 0h60v60h-60zm60 0h60v60h-60zm60 0h60v60h-60zm-645 60h60v60h-60zm60 0h60v60h-60zm60 0h60v60h-60zm60 0h60v60h-60zm60 0h60v60h-60zm60 0h60v60h-60zm60 0h60v60h-60zm60 0h60v60h-60zm60 0h60v60h-60zm60 0h60v60h-60zm60 0h60v60h-60zm-570 60h60v60h-60zm60 0h60v60h-60zm60 0h60v60h-60zm60 0h60v60h-60zm60 0h60v60h-60zm60 0h60v60h-60zm60 0h60v60h-60zm60 0h60v60h-60zm60 0h60v60h-60zm60 0h60v60h-60zm-600 0h60v60h-60z" fill="none" stroke="#000"/><g font-family="'Noto Sans'" font-size="33.575" font-weight="600" stroke-width="1.399"><text x="107.637" y="133.729" fill="#fd5" style="font-variant-caps:normal;font-variant-east-asian:normal;font-variant-ligatures:normal;font-variant-numeric:normal;line-height:1.25" transform="matrix(.99334 0 0 1.0067 0 -.194)"><tspan x="107.637" y="133.729">Ū</tspan></text><text x="169.684" y="134.064" fill="#5f5" style="line-height:1.25" transform="matrix(.99334 0 0 1.0067 0 -.194)"><tspan x="169.684" y="134.064">Ė</tspan></text><text x="231.497" y="133.935" fill="#e580ff" style="line-height:1.25" transform="matrix(.99334 0 0 1.0067 0 -.194)"><tspan x="231.497" y="133.935">Y</tspan></text><text x="289.545" y="133.223" fill="#5df" style="line-height:1.25" transform="matrix(.99334 0 0 1.0067 0 -.194)"><tspan x="289.545" y="133.223">O</tspan></text><text x="348.866" y="132.989" fill="#b3b3b3" style="line-height:1.25" transform="matrix(.99334 0 0 1.0067 0 -.194)"><tspan x="348.866" y="132.989">Q</tspan></text><text x="418.381" y="134.011" fill="#5f5fd3" style="line-height:1.25" transform="matrix(.99334 0 0 1.0067 0 -.194)"><tspan x="418.381" y="134.011">J</tspan></text><text x="471.342" y="134.064" fill="#60f" style="line-height:1.25" transform="matrix(.99334 0 0 1.0067 0 -.194)"><tspan x="471.342" y="134.064">N</tspan></text><text x="531.845" y="134.064" fill="#0a8" style="line-height:1.25" transform="matrix(.99334 0 0 1.0067 0 -.194)"><tspan x="531.845" y="134.064">K</tspan></text><text x="593.581" y="133.729" fill="#0a8" style="line-height:1.25" transform="matrix(.99334 0 0 1.0067 0 -.194)"><tspan x="593.581" y="133.729">G</tspan></text><text x="654.036" y="134.064" fill="#8a0" style="line-height:1.25" transform="matrix(.99334 0 0 1.0067 0 -.194)"><tspan x="654.036" y="134.064">B</tspan></text><text x="714.02" y="133.729" fill="#c97741" style="line-height:1.25" transform="matrix(.99334 0 0 1.0067 0 -.194)"><tspan x="714.02" y="133.729">C</tspan></text><text x="776.433" y="134.064" fill="#b3b3b3" style="line-height:1.25" transform="matrix(.99334 0 0 1.0067 0 -.194)"><tspan x="776.433" y="134.064">F</tspan></text><text x="790.397" y="194.167" fill="#f60" style="line-height:1.25" transform="matrix(.99334 0 0 1.0067 0 -.194)"><tspan x="790.397" y="194.167">Z</tspan></text><text x="730.405" y="194.167" fill="#f55" style="line-height:1.25" transform="matrix(.99334 0 0 1.0067 0 -.194)"><tspan x="730.405" y="194.167">Ž</tspan></text><text x="669.293" y="194.167" fill="#8a0" style="line-height:1.25" transform="matrix(.99334 0 0 1.0067 0 -.194)"><tspan x="669.293" y="194.167">P</tspan></text><text x="609.471" y="193.831" fill="#ff8a00" style="line-height:1.25" transform="matrix(.99334 0 0 1.0067 0 -.194)"><tspan x="609.471" y="193.831">S</tspan></text><text x="549.909" y="194.167" fill="green" style="line-height:1.25" transform="matrix(.99334 0 0 1.0067 0 -.194)"><tspan x="549.909" y="194.167">T</tspan></text><text x="488.042" y="194.167" fill="#06f" style="line-height:1.25" transform="matrix(.99334 0 0 1.0067 0 -.194)"><tspan x="488.042" y="194.167">R</tspan></text><text x="429.801" y="194.167" fill="#06f" style="line-height:1.25" transform="matrix(.99334 0 0 1.0067 0 -.194)"><tspan x="429.801" y="194.167">L</tspan></text><text x="365.182" y="194.167" fill="#b3b3b3" style="line-height:1.25" transform="matrix(.99334 0 0 1.0067 0 -.194)"><tspan x="365.182" y="194.167">H</tspan></text><text x="306.17" y="194.319" fill="#0cf" style="line-height:1.25" transform="matrix(.99334 0 0 1.0067 0 -.194)"><tspan x="306.17" y="194.319">A</tspan></text><text x="250.36" y="194.167" fill="#d42aff" style="line-height:1.25" transform="matrix(.99334 0 0 1.0067 0 -.194)"><tspan x="250.36" y="194.167">I</tspan></text><text x="187.338" y="194.167" fill="#0f0" style="line-height:1.25" transform="matrix(.99334 0 0 1.0067 0 -.194)"><tspan x="187.338" y="194.167">E</tspan></text><text x="124.345" y="193.831" fill="#fc0" style="line-height:1.25" transform="matrix(.99334 0 0 1.0067 0 -.194)"><tspan x="124.345" y="193.831">U</tspan></text></g><g fill="#b3b3b3" font-family="'Noto Sans'" font-weight="600"><g font-size="24"><text x="86.464" y="265.059" style="line-height:1.25" transform="translate(0 -.194)"><tspan x="86.464" y="265.059">-</tspan></text><text x="8.753" y="86.72" style="line-height:1.25" transform="translate(0 -.194)"><tspan x="8.753" y="86.72">+</tspan></text><text x="72.214" y="85.393" style="line-height:1.25" transform="translate(0 -.194)"><tspan x="72.214" y="85.393">!</tspan></text><text x="132.261" y="85.788" style="line-height:1.25" transform="translate(0 -.194)"><tspan x="132.261" y="85.788">:</tspan></text><text x="192.174" y="85.707" style="line-height:1.25" transform="translate(0 -.194)"><tspan x="192.174" y="85.707">.</tspan></text><text x="249.161" y="84.739" style="line-height:1.25" transform="translate(0 -.194)"><tspan x="249.161" y="84.739">*</tspan></text><text x="310.119" y="83.64" style="line-height:1.25" transform="translate(0 -.194)"><tspan x="310.119" y="83.64">_</tspan></text><text x="364.551" y="85.201" style="line-height:1.25" transform="translate(0 -.194)"><tspan x="364.551" y="85.201">—</tspan></text><text x="428.906" y="86.62" style="line-height:1.25" transform="translate(0 -.194)"><tspan x="428.906" y="86.62">=</tspan></text><text x="492.635" y="85.587" style="line-height:1.25" transform="translate(0 -.194)"><tspan x="492.635" y="85.587">,</tspan></text><text x="552.169" y="86.046" style="line-height:1.25" transform="translate(0 -.194)"><tspan x="552.169" y="86.046">;</tspan></text><text x="610.539" y="85.755" style="line-height:1.25" transform="translate(0 -.194)"><tspan x="610.539" y="85.755">/</tspan></text></g><text transform="matrix(.99334 0 0 1.0067 0 -.194)" x="679.859" y="74.42" font-size="33.575" stroke-width="1.399" style="line-height:1.25"><tspan x="679.859" y="74.42">W</tspan></text><text x="730.791" y="85.679" font-size="24" style="line-height:1.25" transform="translate(0 -.194)"><tspan x="730.791" y="85.679">?</tspan></text></g><g font-family="'Noto Sans'" font-size="33.575" font-weight="600" stroke-width="1.399"><text x="152.76" y="253.175" fill="#fd5" style="line-height:1.25" transform="matrix(.99334 0 0 1.0067 0 -.194)"><tspan x="152.76" y="253.175">Ų</tspan></text><text x="215.998" y="253.175" fill="#5f5" style="line-height:1.25" transform="matrix(.99334 0 0 1.0067 0 -.194)"><tspan x="215.998" y="253.175">Ę</tspan></text><text x="281.782" y="253.175" fill="#e580ff" style="line-height:1.25" transform="matrix(.99334 0 0 1.0067 0 -.194)"><tspan x="281.782" y="253.175">Į</tspan></text><text x="337.781" y="253.276" fill="#5df" style="line-height:1.25" transform="matrix(.99334 0 0 1.0067 0 -.194)"><tspan x="337.781" y="253.276">Ą</tspan></text><text x="397.8" y="253.175" fill="#b3b3b3" style="line-height:1.25" transform="matrix(.99334 0 0 1.0067 0 -.194)"><tspan x="397.8" y="253.175">X</tspan></text><text x="458.857" y="253.175" fill="#0055d4" style="line-height:1.25" transform="matrix(.99334 0 0 1.0067 0 -.194)"><tspan x="458.857" y="253.175">V</tspan></text><text x="514.321" y="253.175" fill="#60f" style="line-height:1.25" transform="matrix(.99334 0 0 1.0067 0 -.194)"><tspan x="514.321" y="253.175">M</tspan></text><text x="578.978" y="253.175" fill="green" style="line-height:1.25" transform="matrix(.99334 0 0 1.0067 0 -.194)"><tspan x="578.978" y="253.175">D</tspan></text><text x="640.371" y="253.561" fill="#ff692a" style="line-height:1.25" transform="matrix(.99334 0 0 1.0067 0 -.194)"><tspan x="640.371" y="253.561">Š</tspan></text><text x="698.911" y="253.745" fill="#c97741" style="line-height:1.25" transform="matrix(.99334 0 0 1.0067 0 -.194)"><tspan x="698.911" y="253.745">Č</tspan></text></g><g fill="maroon" stroke="#c00" stroke-dasharray="6, 6" stroke-width=".5"><path d="m130.41.28 111.97 308.5M69.955.28l111.97 308.5M190.2.28l111.97 308.5M249.8.28l111.97 308.5M428.96.28l111.97 308.5M488.72.28l111.97 308.5M548.8.28l111.97 308.5M608.15.28l111.97 308.5" style="mix-blend-mode:exclusion" transform="translate(0 -.194)"/></g><text transform="matrix(1.4337 0 0 .69751 0 -.194)" x="215.287" y="303.769" fill="#9e0005" fill-opacity=".732" font-family="'Noto Sans'" font-size="27.361" font-weight="600" stroke-width="1.14" style="line-height:1.25"><tspan x="215.287" y="303.769">-</tspan></text><text transform="matrix(1.4337 0 0 .69751 0 -.194)" x="340.868" y="303.802" fill="#9e0005" fill-opacity=".732" font-family="'Noto Sans'" font-size="27.361" font-weight="600" stroke-width="1.14" style="line-height:1.25"><tspan x="340.868" y="303.802">-</tspan></text></svg>