<?xml version="1.0" encoding="UTF-8"?>
<svg width="900" height="300" version="1.0" xmlns="http://www.w3.org/2000/svg" xmlns:cc="http://creativecommons.org/ns#" xmlns:dc="http://purl.org/dc/elements/1.1/" xmlns:rdf="http://www.w3.org/1999/02/22-rdf-syntax-ns#">
 <metadata>
  <rdf:RDF>
   <cc:Work rdf:about="">
    <dc:format>image/svg+xml</dc:format>
    <dc:type rdf:resource="http://purl.org/dc/dcmitype/StillImage"/>
    <dc:title/>
   </cc:Work>
  </rdf:RDF>
 </metadata>
 <path d="M330 60h60v60h-60zM765 120h60v60h-60zM0 0h60v60H0V0z" fill="#fff" fill-rule="evenodd" stroke="#000"/>
 <text x="41.972" y="22.325" fill="#f0f" font-family="Noto Sans" font-size="24" font-weight="600" style="line-height:1.25"><tspan x="41.972" y="22.325" font-size="21.333" font-weight="400" style="font-variant-caps:normal;font-variant-east-asian:normal;font-variant-ligatures:normal;font-variant-numeric:normal">´</tspan></text>
 <g fill-rule="evenodd" stroke="#000">
  <path d="M60 0h60v60H60V0zM120 0h60v60h-60V0zM180 0h60v60h-60V0zM240 0h60v60h-60V0zM300 0h60v60h-60V0zM360 0h60v60h-60V0zM420 0h60v60h-60V0zM480 0h60v60h-60V0zM540 0h60v60h-60V0zM600 0h60v60h-60V0zM660 0h60v60h-60V0zM720 0h60v60h-60V0z" fill="#fff"/>
  <path d="M780 0h120v60H780V0zM0 60h90v60H0V60z" fill="#ccc"/>
  <path d="M90 60h60v60H90V60z" fill="#fff"/>
  <path d="m150 60h60v60h-60v-60zm60 0h60v60h-60v-60z" fill="#fff6d5"/>
  <path d="m270 60h60v60h-60v-60zm90-60h60v60h-60zm30 60h60v60h-60v-60zm60 0h60v60h-60v-60zm60 0h60v60h-60v-60zm60 0h60v60h-60v-60zm60 0h60v60h-60v-60zm60 0h60v60h-60v-60zm60 0h60v60h-60v-60z" fill="#fff"/>
  <path d="M0 120h105v60H0v-60z" fill="#ccc"/>
  <path d="m105 120h60v60h-60v-60zm60 0h60v60h-60v-60zm60 0h60v60h-60v-60zm60 0h60v60h-60v-60zm60 0h60v60h-60v-60z" fill="#fff6d5"/>
  <path d="m405 120h60v60h-60v-60zm60 0h60v60h-60v-60zm60 0h60v60h-60v-60zm60 0h60v60h-60v-60zm60 0h60v60h-60v-60z" fill="#fff"/>
  <path d="m705 120h60v60h-60v-60z" fill="#fff6d5"/>
  <path d="M825 120h-15V60h90v120h-75.11l.11-60zM0 180h75.002v60H0v-60z" fill="#ccc"/>
  <path d="m135 180h60v60h-60v-60z" fill="#fff"/>
  <path d="m195 180h60v60h-60v-60zm60 0h60v60h-60v-60z" fill="#fff6d5"/>
  <path d="m315 180h60v60h-60v-60zm60 0h60v60h-60v-60zm60 0h60v60h-60v-60zm60 0h60v60h-60v-60zm60 0h60v60h-60v-60zm60 0h60v60h-60v-60zm60 0h60v60h-60v-60z" fill="#fff"/>
  <path d="M735 180h165v60H735v-60z" fill="#666"/>
  <path d="m0 240h90v60h-90v-60zm810 0h90v60h-90v-60zm-660 0h90v60h-90v-60z" fill="#ccc"/>
  <path d="m600 240h90v60h-90v-60z" fill="#666"/>
  <path d="M240 240h360v60H240v-60z" fill="#fff"/>
 </g>
 <text x="477.72601" y="258.29901" fill="#ff00ff" font-family="'Noto Sans'" font-size="24px" font-weight="600" letter-spacing=".01" style="line-height:1.25"><tspan x="477.72601" y="258.29901" font-family="'Noto Sans'" font-size="12px" font-weight="normal" style="font-variant-caps:normal;font-variant-east-asian:normal;font-variant-ligatures:normal;font-variant-numeric:normal">[nobreakspace]</tspan></text>
 <path d="m90 240h60v60h-60v-60zm600 0h60v60h-60v-60zm60 0h60v60h-60v-60z" fill="#e6e6e6" fill-rule="evenodd" stroke="#000"/>
 <path d="M75 180h60v60H75v-60z" fill="#fff" fill-rule="evenodd" stroke="#000"/>
 <text x="90" y="202.5" font-family="Noto Sans" font-size="24" font-weight="600" style="line-height:1.25"/>
 <text x="45" y="7.5" font-family="Noto Sans" font-size="24" font-weight="600" style="line-height:1.25"/>
 <g fill="#fff" font-family="Noto Sans" font-weight="600" stroke-width="1.162">
  <text x="178.91" y="278.923" font-size="26.667" style="font-variant-caps:normal;font-variant-east-asian:normal;font-variant-ligatures:normal;font-variant-numeric:normal;line-height:1.25"><tspan x="178.91" y="278.923" font-weight="400" style="font-variant-caps:normal;font-variant-east-asian:normal;font-variant-ligatures:normal;font-variant-numeric:normal">⎇</tspan></text>
  <text x="633.898" y="277.557" font-size="27.887" style="line-height:1.25"><tspan x="633.898" y="277.557" font-size="26.667" font-weight="400" style="font-variant-caps:normal;font-variant-east-asian:normal;font-variant-ligatures:normal;font-variant-numeric:normal">⇮</tspan></text>
  <text x="37.251" y="277.48" font-size="26.667" style="font-variant-caps:normal;font-variant-east-asian:normal;font-variant-ligatures:normal;font-variant-numeric:normal;line-height:1.25"><tspan x="37.251" y="277.48" font-weight="400" style="font-variant-caps:normal;font-variant-east-asian:normal;font-variant-ligatures:normal;font-variant-numeric:normal">⎈</tspan></text>
  <text x="113.35" y="277.417" font-size="27.887" style="line-height:1.25"><tspan x="113.35" y="277.417" font-size="26.667" style="font-variant-caps:normal;font-variant-east-asian:normal;font-variant-ligatures:normal;font-variant-numeric:normal">◊</tspan></text>
  <text x="849.272" y="132.623" font-size="27.887" style="line-height:1.25"><tspan x="849.272" y="132.623" font-size="26.667" font-weight="400" style="font-variant-caps:normal;font-variant-east-asian:normal;font-variant-ligatures:normal;font-variant-numeric:normal">⏎</tspan></text>
  <g font-size="26.667">
   <text x="34.096" y="98.7" style="font-variant-caps:normal;font-variant-east-asian:normal;font-variant-ligatures:normal;font-variant-numeric:normal;line-height:1.25"><tspan x="34.096" y="98.7" font-weight="400" style="font-variant-caps:normal;font-variant-east-asian:normal;font-variant-ligatures:normal;font-variant-numeric:normal">↹</tspan></text>
   <text x="806.464" y="220.396" style="font-variant-caps:normal;font-variant-east-asian:normal;font-variant-ligatures:normal;font-variant-numeric:normal;line-height:1.25"><tspan x="806.464" y="220.396" font-weight="400" style="font-variant-caps:normal;font-variant-east-asian:normal;font-variant-ligatures:normal;font-variant-numeric:normal">⇧</tspan></text>
   <text x="41.446" y="159.65" style="font-variant-caps:normal;font-variant-east-asian:normal;font-variant-ligatures:normal;font-variant-numeric:normal;line-height:1.25"><tspan x="41.446" y="159.65" font-weight="400" style="font-variant-caps:normal;font-variant-east-asian:normal;font-variant-ligatures:normal;font-variant-numeric:normal">⇪</tspan></text>
   <text x="817.679" y="40.185" style="font-variant-caps:normal;font-variant-east-asian:normal;font-variant-ligatures:normal;font-variant-numeric:normal;line-height:1.25"><tspan x="817.679" y="40.185" font-weight="400" style="font-variant-caps:normal;font-variant-east-asian:normal;font-variant-ligatures:normal;font-variant-numeric:normal">⌫</tspan></text>
   <text x="26.298" y="219.327" style="font-variant-caps:normal;font-variant-east-asian:normal;font-variant-ligatures:normal;font-variant-numeric:normal;line-height:1.25"><tspan x="26.298" y="219.327" font-weight="400" style="font-variant-caps:normal;font-variant-east-asian:normal;font-variant-ligatures:normal;font-variant-numeric:normal">⇧</tspan></text>
   <text x="768.761" y="278.296" style="font-variant-caps:normal;font-variant-east-asian:normal;font-variant-ligatures:normal;font-variant-numeric:normal;line-height:1.25"><tspan x="768.761" y="278.296" font-weight="400" style="font-variant-caps:normal;font-variant-east-asian:normal;font-variant-ligatures:normal;font-variant-numeric:normal">≣</tspan></text>
   <text x="847.004" y="277.524" style="font-variant-caps:normal;font-variant-east-asian:normal;font-variant-ligatures:normal;font-variant-numeric:normal;line-height:1.25"><tspan x="847.004" y="277.524" font-weight="400" style="font-variant-caps:normal;font-variant-east-asian:normal;font-variant-ligatures:normal;font-variant-numeric:normal">⎈</tspan></text>
  </g>
  <text x="713.577" y="277.875" font-size="27.887" style="line-height:1.25"><tspan x="713.577" y="277.875" font-size="26.667" font-weight="700" style="font-variant-caps:normal;font-variant-east-asian:normal;font-variant-ligatures:normal;font-variant-numeric:normal">◊</tspan></text>
 </g>
 <g fill="#f0f" font-family="Noto Sans" font-size="24" font-weight="600">
  <text x="156.551" y="21.741" style="line-height:1.25"><tspan x="156.551" y="21.741" font-size="21.333" font-weight="400" style="font-variant-caps:normal;font-variant-east-asian:normal;font-variant-ligatures:normal;font-variant-numeric:normal">←</tspan></text>
  <text x="216.343" y="21.802" style="line-height:1.25"><tspan x="216.343" y="21.802" font-size="21.333" font-weight="400" style="font-variant-caps:normal;font-variant-east-asian:normal;font-variant-ligatures:normal;font-variant-numeric:normal">→</tspan></text>
  <text x="279.126" y="22.801" style="line-height:1.25"><tspan x="279.126" y="22.801" font-size="21.333" font-weight="400" style="font-variant-caps:normal;font-variant-east-asian:normal;font-variant-ligatures:normal;font-variant-numeric:normal">£</tspan></text>
  <text x="759.87" y="18.864" style="line-height:1.25"><tspan x="759.87" y="18.864" font-size="21.333" font-weight="400" style="font-variant-caps:normal;font-variant-east-asian:normal;font-variant-ligatures:normal;font-variant-numeric:normal">¿</tspan></text>
  <text x="801.179" y="142.671" style="line-height:1.25"><tspan x="801.179" y="142.671" font-size="21.333" font-weight="400" style="font-variant-caps:normal;font-variant-east-asian:normal;font-variant-ligatures:normal;font-variant-numeric:normal">®</tspan></text>
  <text x="787.389" y="82.766" style="line-height:1.25"><tspan x="787.389" y="82.766" font-size="21.333" font-weight="700" style="font-variant-caps:normal;font-variant-east-asian:normal;font-variant-ligatures:normal;font-variant-numeric:normal">™</tspan></text>
 </g>
 <text x="747.707" y="145.092" fill="#ff00ff" font-family="Noto Sans" font-size="24" font-weight="600" style="line-height:1.25"><tspan x="747.707" y="145.092" fill="#ff00ff" font-size="21.333" font-weight="400" style="font-variant-caps:normal;font-variant-east-asian:normal;font-variant-ligatures:normal;font-variant-numeric:normal">¸</tspan></text>
 <g fill="#f0f" font-family="Noto Sans">
  <text x="726.254" y="82.936" font-size="24" font-weight="600" style="line-height:1.25"><tspan x="726.254" y="82.936" font-size="21.333" font-weight="400" style="font-variant-caps:normal;font-variant-east-asian:normal;font-variant-ligatures:normal;font-variant-numeric:normal">©</tspan></text>
  <text x="666.091" y="81.567" font-size="24" font-weight="600" style="line-height:1.25"><tspan x="666.091" y="81.567" font-size="21.333" font-weight="400" style="font-variant-caps:normal;font-variant-east-asian:normal;font-variant-ligatures:normal;font-variant-numeric:normal">∞</tspan></text>
  <text x="681.376" y="142.978" font-size="21.333" font-weight="400" style="font-variant-caps:normal;font-variant-east-asian:normal;font-variant-ligatures:normal;font-variant-numeric:normal;line-height:1.25"><tspan x="681.376" y="142.978" style="font-variant-caps:normal;font-variant-east-asian:normal;font-variant-ligatures:normal;font-variant-numeric:normal">¶</tspan></text>
  <g font-size="24" font-weight="600">
   <text x="713.94" y="202.416" style="line-height:1.25"><tspan x="713.94" y="202.416" font-size="21.333" font-weight="400" style="font-variant-caps:normal;font-variant-east-asian:normal;font-variant-ligatures:normal;font-variant-numeric:normal">±</tspan></text>
   <text x="639.345" y="21.626" style="line-height:1.25"><tspan x="639.345" y="21.626" font-size="21.333" font-weight="400" style="font-variant-caps:normal;font-variant-east-asian:normal;font-variant-ligatures:normal;font-variant-numeric:normal">‖</tspan></text>
   <text x="576.18" y="19.889" style="line-height:1.25"><tspan x="576.18" y="19.889" font-size="21.333" font-weight="400" style="font-variant-caps:normal;font-variant-east-asian:normal;font-variant-ligatures:normal;font-variant-numeric:normal">≥</tspan></text>
   <text x="515.732" y="20.045" style="line-height:1.25"><tspan x="515.732" y="20.045" font-size="21.333" font-weight="400" style="font-variant-caps:normal;font-variant-east-asian:normal;font-variant-ligatures:normal;font-variant-numeric:normal">≤</tspan></text>
   <text x="456.147" y="21.69" style="line-height:1.25"><tspan x="456.147" y="21.69" font-size="21.333" font-weight="400" style="font-variant-caps:normal;font-variant-east-asian:normal;font-variant-ligatures:normal;font-variant-numeric:normal">≠</tspan></text>
   <text x="399.163" y="23.57" style="line-height:1.25"><tspan x="399.163" y="23.57" font-size="21.333" font-weight="400" style="font-variant-caps:normal;font-variant-east-asian:normal;font-variant-ligatures:normal;font-variant-numeric:normal">¦</tspan></text>
   <text x="331.814" y="22.645" style="line-height:1.25"><tspan x="331.814" y="22.645" font-size="21.333" font-weight="400" style="font-variant-caps:normal;font-variant-east-asian:normal;font-variant-ligatures:normal;font-variant-numeric:normal">‰</tspan></text>
   <text x="102.245" y="21.042" style="line-height:1.25"><tspan x="102.245" y="21.042" font-size="21.333" font-weight="400" style="font-variant-caps:normal;font-variant-east-asian:normal;font-variant-ligatures:normal;font-variant-numeric:normal">¡</tspan></text>
  </g>
  <g font-size="21.333" font-weight="400">
   <text x="116.426" y="201.55" style="font-variant-caps:normal;font-variant-east-asian:normal;font-variant-ligatures:normal;font-variant-numeric:normal;line-height:1.25"><tspan x="116.426" y="201.55" style="font-variant-caps:normal;font-variant-east-asian:normal;font-variant-ligatures:normal;font-variant-numeric:normal">‑</tspan></text>
   <text x="626.597" y="143.72" style="font-variant-caps:normal;font-variant-east-asian:normal;font-variant-ligatures:normal;font-variant-numeric:normal;line-height:1.25"><tspan x="626.597" y="143.72" style="font-variant-caps:normal;font-variant-east-asian:normal;font-variant-ligatures:normal;font-variant-numeric:normal">³</tspan></text>
   <text x="566.621" y="143.906" style="font-variant-caps:normal;font-variant-east-asian:normal;font-variant-ligatures:normal;font-variant-numeric:normal;line-height:1.25"><tspan x="566.621" y="143.906" style="font-variant-caps:normal;font-variant-east-asian:normal;font-variant-ligatures:normal;font-variant-numeric:normal">²</tspan></text>
   <text x="505.64" y="143.92" style="font-variant-caps:normal;font-variant-east-asian:normal;font-variant-ligatures:normal;font-variant-numeric:normal;line-height:1.25"><tspan x="505.64" y="143.92" style="font-variant-caps:normal;font-variant-east-asian:normal;font-variant-ligatures:normal;font-variant-numeric:normal">¹</tspan></text>
  </g>
 </g>
 <g fill="#ff00ff" font-family="Noto Sans">
  <text x="385.052" y="141.821" font-size="21.333" font-weight="400" style="font-variant-caps:normal;font-variant-east-asian:normal;font-variant-ligatures:normal;font-variant-numeric:normal;line-height:1.25"><tspan x="385.052" y="141.821" fill="#ff00ff" style="font-variant-caps:normal;font-variant-east-asian:normal;font-variant-ligatures:normal;font-variant-numeric:normal">˜</tspan></text>
  <text x="323.926" y="142.126" font-size="24" font-weight="600" style="line-height:1.25"><tspan x="323.926" y="142.126" fill="#ff00ff" font-size="21.333" font-weight="400" style="font-variant-caps:normal;font-variant-east-asian:normal;font-variant-ligatures:normal;font-variant-numeric:normal">¨</tspan></text>
  <g font-size="21.333" font-weight="400">
   <text x="266.838" y="142.347" style="font-variant-caps:normal;font-variant-east-asian:normal;font-variant-ligatures:normal;font-variant-numeric:normal;line-height:1.25"><tspan x="266.838" y="142.347" fill="#ff00ff" style="font-variant-caps:normal;font-variant-east-asian:normal;font-variant-ligatures:normal;font-variant-numeric:normal">´</tspan></text>
   <text x="207.106" y="142.3" style="font-variant-caps:normal;font-variant-east-asian:normal;font-variant-ligatures:normal;font-variant-numeric:normal;line-height:1.25"><tspan x="207.106" y="142.3" fill="#ff00ff" style="font-variant-caps:normal;font-variant-east-asian:normal;font-variant-ligatures:normal;font-variant-numeric:normal">`</tspan></text>
   <text x="144.304" y="144.299" style="font-variant-caps:normal;font-variant-east-asian:normal;font-variant-ligatures:normal;font-variant-numeric:normal;line-height:1.25"><tspan x="144.304" y="144.299" fill="#ff00ff" style="font-variant-caps:normal;font-variant-east-asian:normal;font-variant-ligatures:normal;font-variant-numeric:normal">¯</tspan></text>
  </g>
 </g>
 <g font-family="Noto Sans">
  <text x="175.458" y="201.288" fill="#f0f" font-size="21.333" font-weight="400" style="font-variant-caps:normal;font-variant-east-asian:normal;font-variant-ligatures:normal;font-variant-numeric:normal;line-height:1.25"><tspan x="175.458" y="201.288" style="font-variant-caps:normal;font-variant-east-asian:normal;font-variant-ligatures:normal;font-variant-numeric:normal">‹</tspan></text>
  <text x="133.141" y="80.966" fill="#f0f" font-size="24" font-weight="600" style="line-height:1.25"><tspan x="133.141" y="80.966" font-size="21.333" font-weight="400" style="font-variant-caps:normal;font-variant-east-asian:normal;font-variant-ligatures:normal;font-variant-numeric:normal">›</tspan></text>
  <g font-size="21.333" font-weight="400">
   <text x="235.67" y="202.323" fill="#ff00ff" style="font-variant-caps:normal;font-variant-east-asian:normal;font-variant-ligatures:normal;font-variant-numeric:normal;line-height:1.25"><tspan x="235.67" y="202.323" fill="#ff00ff" style="font-variant-caps:normal;font-variant-east-asian:normal;font-variant-ligatures:normal;font-variant-numeric:normal">˘</tspan></text>
   <text x="295.61" y="202.504" fill="#ff00ff" style="font-variant-caps:normal;font-variant-east-asian:normal;font-variant-ligatures:normal;font-variant-numeric:normal;line-height:1.25"><tspan x="295.61" y="202.504" fill="#ff00ff" style="font-variant-caps:normal;font-variant-east-asian:normal;font-variant-ligatures:normal;font-variant-numeric:normal">ˇ</tspan></text>
   <text x="353.817" y="200.924" fill="#f0f" style="font-variant-caps:normal;font-variant-east-asian:normal;font-variant-ligatures:normal;font-variant-numeric:normal;line-height:1.25"><tspan x="353.817" y="200.924" style="font-variant-caps:normal;font-variant-east-asian:normal;font-variant-ligatures:normal;font-variant-numeric:normal">«</tspan></text>
  </g>
  <text x="310.052" y="80.823" fill="#f0f" font-size="24" font-weight="600" style="line-height:1.25"><tspan x="310.052" y="80.823" font-size="21.333" font-weight="400" style="font-variant-caps:normal;font-variant-east-asian:normal;font-variant-ligatures:normal;font-variant-numeric:normal">»</tspan></text>
  <text x="250.782" y="81.865" fill="#ff00ff" font-size="24" font-weight="600" style="line-height:1.25"><tspan x="250.782" y="81.865" fill="#ff00ff" font-size="21.333" font-weight="400" style="font-variant-caps:normal;font-variant-east-asian:normal;font-variant-ligatures:normal;font-variant-numeric:normal">ˆ</tspan></text>
 </g>
 <g fill="#f0f" font-family="Noto Sans">
  <text x="428.905" y="82.796" font-size="24" font-weight="600" style="line-height:1.25"><tspan x="428.905" y="82.796" font-size="21.333" font-weight="400" style="font-variant-caps:normal;font-variant-east-asian:normal;font-variant-ligatures:normal;font-variant-numeric:normal">¥</tspan></text>
  <text x="410.906" y="203.082" font-size="21.333" font-weight="400" style="font-variant-caps:normal;font-variant-east-asian:normal;font-variant-ligatures:normal;font-variant-numeric:normal;line-height:1.25"><tspan x="410.906" y="203.082" style="font-variant-caps:normal;font-variant-east-asian:normal;font-variant-ligatures:normal;font-variant-numeric:normal">↓</tspan></text>
  <text x="366.252" y="82.818" font-size="24" font-weight="600" style="line-height:1.25"><tspan x="366.252" y="82.818" font-size="21.333" font-weight="400" style="font-variant-caps:normal;font-variant-east-asian:normal;font-variant-ligatures:normal;font-variant-numeric:normal">↑</tspan></text>
  <text x="488.738" y="83.312" font-size="24" font-weight="600" style="line-height:1.25"><tspan x="488.738" y="83.312" font-size="21.333" font-weight="400" style="font-variant-caps:normal;font-variant-east-asian:normal;font-variant-ligatures:normal;font-variant-numeric:normal">¬</tspan></text>
  <g font-size="21.333" font-weight="400">
   <text x="474.741" y="201.187" style="font-variant-caps:normal;font-variant-east-asian:normal;font-variant-ligatures:normal;font-variant-numeric:normal;line-height:1.25"><tspan x="474.741" y="201.187" style="font-variant-caps:normal;font-variant-east-asian:normal;font-variant-ligatures:normal;font-variant-numeric:normal">◊</tspan></text>
   <text x="533.824" y="199.22" style="font-variant-caps:normal;font-variant-east-asian:normal;font-variant-ligatures:normal;font-variant-numeric:normal;line-height:1.25"><tspan x="533.824" y="199.22" style="font-variant-caps:normal;font-variant-east-asian:normal;font-variant-ligatures:normal;font-variant-numeric:normal">µ</tspan></text>
   <text x="594.667" y="203.727" style="font-variant-caps:normal;font-variant-east-asian:normal;font-variant-ligatures:normal;font-variant-numeric:normal;line-height:1.25"><tspan x="594.667" y="203.727" style="font-variant-caps:normal;font-variant-east-asian:normal;font-variant-ligatures:normal;font-variant-numeric:normal">‡</tspan></text>
  </g>
  <g font-size="24" font-weight="600">
   <text x="549.702" y="83.688" style="line-height:1.25"><tspan x="549.702" y="83.688" font-size="21.333" font-weight="400" style="font-variant-caps:normal;font-variant-east-asian:normal;font-variant-ligatures:normal;font-variant-numeric:normal">†</tspan></text>
   <text x="611.172" y="82.891" style="line-height:1.25"><tspan x="611.172" y="82.891" font-size="21.333" font-weight="400" style="font-variant-caps:normal;font-variant-east-asian:normal;font-variant-ligatures:normal;font-variant-numeric:normal">•</tspan></text>
   <text x="657.188" y="202.553" style="line-height:1.25"><tspan x="657.188" y="202.553" font-size="21.333" font-weight="400" style="font-variant-caps:normal;font-variant-east-asian:normal;font-variant-ligatures:normal;font-variant-numeric:normal">·</tspan></text>
   <text x="698.858" y="23.475" style="line-height:1.25"><tspan x="698.858" y="23.475" font-size="21.333" font-weight="400" style="font-variant-caps:normal;font-variant-east-asian:normal;font-variant-ligatures:normal;font-variant-numeric:normal">ß</tspan></text>
  </g>
 </g>
 <text x="191.62" y="82.781" fill="#ff00ff" font-family="Noto Sans" font-size="24" font-weight="600" style="line-height:1.25"><tspan x="191.62" y="82.781" fill="#ff00ff" font-size="21.333" style="font-variant-caps:normal;font-variant-east-asian:normal;font-variant-ligatures:normal;font-variant-numeric:normal">˚</tspan></text>
 <text x="105" y="105" font-family="Sans" font-size="21.333" style="font-variant-ligatures:none;line-height:1.25"/>
 <text x="442.5" y="142.5" fill="#f0f" font-family="Sans" font-size="21.333" style="font-variant-ligatures:none;line-height:1.25"><tspan x="442.5" y="142.5">Ł</tspan></text>
</svg>
