<?xml version="1.0" encoding="UTF-8"?>
<svg width="900" height="300" version="1.0" xmlns="http://www.w3.org/2000/svg" xmlns:cc="http://creativecommons.org/ns#" xmlns:dc="http://purl.org/dc/elements/1.1/" xmlns:rdf="http://www.w3.org/1999/02/22-rdf-syntax-ns#">
 <metadata>
  <rdf:RDF>
   <cc:Work rdf:about="">
    <dc:format>image/svg+xml</dc:format>
    <dc:type rdf:resource="http://purl.org/dc/dcmitype/StillImage"/>
    <dc:title/>
   </cc:Work>
  </rdf:RDF>
 </metadata>
 <text x="101.756" y="216.72099" font-family="'Noto Sans'" font-size="18.667px" font-weight="600" letter-spacing=".01" style="line-height:1.25"/>
 <path d="M330 60h60v60h-60zm435 60h60v60h-60zM0 0h60v60H0V0zm60 0h60v60H60V0z" fill="#fff" fill-rule="evenodd" stroke="#000"/>
 <g font-family="Noto Sans" font-weight="600">
  <g font-size="16" letter-spacing=".01">
   <text x="791.826" y="156.553" style="line-height:1.25"><tspan x="791.826" y="156.553" fill="#999" font-weight="400">\</tspan></text>
   <text x="85.555" y="35.271" style="line-height:1.25"><tspan x="85.555" y="35.271" fill="#999" font-weight="400">1</tspan></text>
   <text x="358.796" y="98.18" style="line-height:1.25"><tspan x="358.796" y="98.18" fill="#999" font-weight="400">T</tspan></text>
  </g>
  <text x="790.703" y="157.819" font-size="18.667" letter-spacing=".01" style="line-height:1.25"/>
  <text x="103.034" y="47.534" fill="#00f" font-size="24" style="line-height:1.25"><tspan x="103.034" y="47.534" font-size="21.333" font-weight="400" style="font-variant-caps:normal;font-variant-east-asian:normal;font-variant-ligatures:normal;font-variant-numeric:normal">’</tspan></text>
 </g>
 <path d="M120 0h60v60h-60V0zm60 0h60v60h-60V0zm60 0h60v60h-60V0zm60 0h60v60h-60V0zm60 0h60v60h-60V0zm60 0h60v60h-60V0zm60 0h60v60h-60V0zm60 0h60v60h-60V0zm60 0h60v60h-60V0zm60 0h60v60h-60V0zm60 0h60v60h-60V0z" fill="#fff" fill-rule="evenodd" stroke="#000"/>
 <g font-family="Noto Sans" font-size="16" font-weight="600" letter-spacing=".01">
  <text x="746.28" y="35.191" style="line-height:1.25"><tspan x="746.28" y="35.191" fill="#999" font-weight="400">=</tspan></text>
  <text x="687.142" y="33.847" style="line-height:1.25"><tspan x="687.142" y="33.847" fill="#999" font-weight="400">-</tspan></text>
  <text x="626.267" y="35.279" style="line-height:1.25"><tspan x="626.267" y="35.279" fill="#999" font-weight="400">0</tspan></text>
  <text x="565.254" y="35.271" style="line-height:1.25"><tspan x="565.254" y="35.271" fill="#999" font-weight="400">9</tspan></text>
  <text x="506.003" y="35.271" style="line-height:1.25"><tspan x="506.003" y="35.271" fill="#999" font-weight="400">8</tspan></text>
  <text x="447.488" y="35.271" style="line-height:1.25"><tspan x="447.488" y="35.271" fill="#999" font-weight="400">7</tspan></text>
  <text x="325.754" y="35.191" style="line-height:1.25"><tspan x="325.754" y="35.191" fill="#999" font-weight="400">5</tspan></text>
  <text x="267.047" y="35.303" style="line-height:1.25"><tspan x="267.047" y="35.303" fill="#999" font-weight="400">4</tspan></text>
  <text x="204.841" y="35.271" style="line-height:1.25"><tspan x="204.841" y="35.271" fill="#999" font-weight="400">3</tspan></text>
  <text x="146.771" y="35.351" style="line-height:1.25"><tspan x="146.771" y="35.351" fill="#999" font-weight="400">2</tspan></text>
 </g>
 <path d="M780 0h120v60H780V0zM0 60h90v60H0V60z" fill="#ccc" fill-rule="evenodd" stroke="#000"/>
 <path d="M90 60h60v60H90V60zm60 0h60v60h-60V60zm60 0h60v60h-60V60zm60 0h60v60h-60V60zm90-60h60v60h-60zm30 60h60v60h-60V60zm60 0h60v60h-60V60zm60 0h60v60h-60V60zm60 0h60v60h-60V60zm60 0h60v60h-60V60zm60 0h60v60h-60V60zm60 0h60v60h-60V60z" fill="#fff" fill-rule="evenodd" stroke="#000"/>
 <g font-family="Noto Sans" font-weight="600" letter-spacing=".01">
  <g font-size="16">
   <text x="715.558" y="96.916" style="line-height:1.25"><tspan x="715.558" y="96.916" fill="#999" font-weight="400">[</tspan></text>
   <text x="777.407" y="96.916" style="line-height:1.25"><tspan x="777.407" y="96.916" fill="#999" font-weight="400">]</tspan></text>
   <text x="386.001" y="35.271" style="line-height:1.25"><tspan x="386.001" y="35.271" fill="#999" font-weight="400">6</tspan></text>
   <text x="595.594" y="98.188" style="line-height:1.25"><tspan x="595.594" y="98.188" fill="#999" font-weight="400">O</tspan></text>
   <text x="537.204" y="98.18" style="line-height:1.25"><tspan x="537.204" y="98.18" fill="#999" font-weight="400">I</tspan></text>
   <text x="474.87" y="98.1" style="line-height:1.25"><tspan x="474.87" y="98.1" fill="#999" font-weight="400">U</tspan></text>
   <text x="415.953" y="98.18" style="line-height:1.25"><tspan x="415.953" y="98.18" fill="#999" font-weight="400">Y</tspan></text>
   <text x="296.663" y="98.18" style="line-height:1.25"><tspan x="296.663" y="98.18" fill="#999" font-weight="400">R</tspan></text>
   <text x="236.213" y="98.18" style="line-height:1.25"><tspan x="236.213" y="98.18" fill="#999" font-weight="400">E</tspan></text>
   <text x="174.439" y="98.18" style="line-height:1.25"><tspan x="174.439" y="98.18" fill="#999" font-weight="400">W</tspan></text>
   <text x="114.415" y="96.908" style="line-height:1.25"><tspan x="114.415" y="96.908" fill="#999" font-weight="400">Q</tspan></text>
   <text x="657.072" y="98.18" style="line-height:1.25"><tspan x="657.072" y="98.18" fill="#999" font-weight="400">P</tspan></text>
  </g>
  <text x="716.256" y="96.985" font-size="18.667" style="line-height:1.25"/>
  <text x="775.358" y="96.655" font-size="18.667" style="line-height:1.25"/>
 </g>
 <path d="M0 120h105v60H0v-60z" fill="#ccc" fill-rule="evenodd" stroke="#000"/>
 <path d="m105 120h60v60h-60v-60zm60 0h60v60h-60v-60zm60 0h60v60h-60v-60zm60 0h60v60h-60v-60zm60 0h60v60h-60v-60zm60 0h60v60h-60v-60zm60 0h60v60h-60v-60zm60 0h60v60h-60v-60zm60 0h60v60h-60v-60zm60 0h60v60h-60v-60zm60 0h60v60h-60v-60z" fill="#fff" fill-rule="evenodd" stroke="#000"/>
 <g font-family="Noto Sans" font-weight="600" letter-spacing=".01">
  <text x="674.18" y="155.985" font-size="16" style="line-height:1.25"><tspan x="674.18" y="155.985" fill="#999" font-weight="400">;</tspan></text>
  <text x="734.11" y="155.927" font-size="16" style="line-height:1.25"><tspan x="734.11" y="155.927" fill="#999" font-weight="400">'</tspan></text>
  <text x="729.293" y="158.772" font-size="18.667" style="line-height:1.25"/>
  <text x="673.96" y="159.123" font-size="18.667" style="line-height:1.25"/>
  <g font-size="16">
   <text x="611.139" y="156.553" style="line-height:1.25"><tspan x="611.139" y="156.553" fill="#999" font-weight="400">L</tspan></text>
   <text x="550.885" y="156.553" style="line-height:1.25"><tspan x="550.885" y="156.553" fill="#999" font-weight="400">K</tspan></text>
   <text x="493.455" y="155.033" style="line-height:1.25"><tspan x="493.455" y="155.033" fill="#999" font-weight="400">J</tspan></text>
   <text x="429.568" y="156.553" style="line-height:1.25"><tspan x="429.568" y="156.553" fill="#999" font-weight="400">H</tspan></text>
   <text x="370.087" y="156.553" style="line-height:1.25"><tspan x="370.087" y="156.553" fill="#999" font-weight="400">G</tspan></text>
   <text x="311.519" y="156.553" style="line-height:1.25"><tspan x="311.519" y="156.553" fill="#999" font-weight="400">F</tspan></text>
   <text x="249.199" y="156.553" style="line-height:1.25"><tspan x="249.199" y="156.553" fill="#999" font-weight="400">D</tspan></text>
   <text x="190.581" y="156.553" style="line-height:1.25"><tspan x="190.581" y="156.553" fill="#999" font-weight="400">S</tspan></text>
  </g>
 </g>
 <path d="M825 120h-15V60h90v120h-75.11l.11-60zM0 180h75.002v60H0v-60z" fill="#ccc" fill-rule="evenodd" stroke="#000"/>
 <path d="m135 180h60v60h-60v-60zm60 0h60v60h-60v-60zm60 0h60v60h-60v-60zm60 0h60v60h-60v-60zm60 0h60v60h-60v-60zm60 0h60v60h-60v-60zm60 0h60v60h-60v-60zm60 0h60v60h-60v-60zm60 0h60v60h-60v-60zm60 0h60v60h-60v-60z" fill="#fff" fill-rule="evenodd" stroke="#000"/>
 <g font-family="Noto Sans" font-weight="600" letter-spacing=".01">
  <g font-size="16">
   <text x="519.09" y="216.447" style="line-height:1.25"><tspan x="519.09" y="216.447" fill="#999" font-weight="400">M</tspan></text>
   <text x="583.944" y="217.809" style="line-height:1.25"><tspan x="583.944" y="217.809" fill="#999" font-weight="400">,</tspan></text>
   <text x="644.091" y="217.004" style="line-height:1.25"><tspan x="644.091" y="217.004" fill="#999" font-weight="400">.</tspan></text>
   <text x="700.666" y="216.447" style="line-height:1.25"><tspan x="700.666" y="216.447" fill="#999" font-weight="400">/</tspan></text>
   <text x="161.624" y="216.447" style="line-height:1.25"><tspan x="161.624" y="216.447" fill="#999" font-weight="400">Z</tspan></text>
   <text x="220.528" y="216.447" style="line-height:1.25"><tspan x="220.528" y="216.447" fill="#999" font-weight="400">X</tspan></text>
   <text x="280.629" y="216.447" style="line-height:1.25"><tspan x="280.629" y="216.447" fill="#999" font-weight="400">C</tspan></text>
   <text x="340.972" y="216.447" style="line-height:1.25"><tspan x="340.972" y="216.447" fill="#999" font-weight="400">V</tspan></text>
   <text x="401.646" y="216.447" style="line-height:1.25"><tspan x="401.646" y="216.447" fill="#999" font-weight="400">B</tspan></text>
   <text x="459.376" y="216.447" style="line-height:1.25"><tspan x="459.376" y="216.447" fill="#999" font-weight="400">N</tspan></text>
  </g>
  <g font-size="18.667">
   <text x="520.838" y="216.624" style="line-height:1.25"/>
   <text x="582.278" y="216.837" style="line-height:1.25"/>
   <text x="641.246" y="215.686" style="line-height:1.25"/>
   <text x="701.453" y="216.296" style="line-height:1.25"/>
  </g>
 </g>
 <g fill-rule="evenodd" stroke="#000">
  <path d="M735 180h165v60H735v-60zM0 240h90v60H0v-60zm810 0h90v60h-90v-60zm-660 0h90v60h-90v-60zm450 0h90v60h-90v-60z" fill="#ccc"/>
  <path d="M240 240h360v60H240v-60z" fill="#fff"/>
  <path d="M90 240h60v60H90v-60zm600 0h60v60h-60v-60zm60 0h60v60h-60v-60z" fill="#e6e6e6"/>
  <path d="M75 180h60v60H75v-60z" fill="#fff"/>
 </g>
 <g font-family="'Noto Sans'">
  <g font-size="24px" font-weight="600">
   <text x="96.320999" y="84.733002" style="font-variant-caps:normal;font-variant-east-asian:normal;font-variant-ligatures:normal;font-variant-numeric:normal;line-height:1.25"><tspan x="96.320999" y="84.733002">Ū</tspan></text>
   <text x="157.554" y="84.754997" style="line-height:1.25"><tspan x="157.554" y="84.754997">Ė</tspan></text>
   <text x="217.95399" y="84.549004" style="line-height:1.25"><tspan x="217.95399" y="84.549004">Y</tspan></text>
   <text x="275.55301" y="84.873001" style="line-height:1.25"><tspan x="275.55301" y="84.873001">O</tspan></text>
   <text x="335.41101" y="85.065002" style="line-height:1.25"><tspan x="335.41101" y="85.065002">Q</tspan></text>
   <text x="401.60999" y="84.619003" style="line-height:1.25"><tspan x="401.60999" y="84.619003">J</tspan></text>
   <text x="455.349" y="84.738998" style="line-height:1.25"><tspan x="455.349" y="84.738998">N</tspan></text>
   <text x="517.82202" y="84.543999" style="line-height:1.25"><tspan x="517.82202" y="84.543999">K</tspan></text>
   <text x="576.42902" y="84.491997" style="line-height:1.25"><tspan x="576.42902" y="84.491997">G</tspan></text>
   <text x="637.35999" y="84.989998" style="line-height:1.25"><tspan x="637.35999" y="84.989998">B</tspan></text>
   <text x="696.617" y="85.023003" style="line-height:1.25"><tspan x="696.617" y="85.023003">C</tspan></text>
   <text x="757.83197" y="84.757004" style="line-height:1.25"><tspan x="757.83197" y="84.757004">F</tspan></text>
   <text x="773.71198" y="144.722" style="line-height:1.25"><tspan x="773.71198" y="144.722">Z</tspan></text>
   <text x="712.98297" y="144.78799" style="line-height:1.25"><tspan x="712.98297" y="144.78799">Ž</tspan></text>
   <text x="653.61401" y="144.49899" style="line-height:1.25"><tspan x="653.61401" y="144.49899">P</tspan></text>
   <text x="593.72894" y="144.44556" style="line-height:1.25"><tspan x="593.72894" y="144.44556">S</tspan></text>
   <text x="533.14502" y="144.408" style="line-height:1.25"><tspan x="533.14502" y="144.408">T</tspan></text>
   <text x="473.09201" y="144.383" style="line-height:1.25"><tspan x="473.09201" y="144.383">R</tspan></text>
   <text x="411.73001" y="144.696" style="line-height:1.25"><tspan x="411.73001" y="144.696">L</tspan></text>
   <text x="350.99701" y="144.647" style="line-height:1.25"><tspan x="350.99701" y="144.647">H</tspan></text>
   <text x="292.12299" y="144.575" style="line-height:1.25"><tspan x="292.12299" y="144.575">A</tspan></text>
   <text x="235.605" y="144.73399" style="line-height:1.25"><tspan x="235.605" y="144.73399">I</tspan></text>
   <text x="172.67" y="144.804" style="line-height:1.25"><tspan x="172.67" y="144.804">E</tspan></text>
   <text x="110.911" y="144.76601" style="line-height:1.25"><tspan x="110.911" y="144.76601">U</tspan></text>
   <text x="85.963997" y="231.763" style="line-height:1.25"><tspan x="85.963997" y="231.763">-</tspan></text>
   <text x="83.738998" y="202.799" style="line-height:1.25"><tspan x="83.738998" y="202.799">–</tspan></text>
  </g>
  <text x="113.717" y="231.2" fill="#0000ff" font-size="21.333px" font-weight="400" style="font-variant-caps:normal;font-variant-east-asian:normal;font-variant-ligatures:normal;font-variant-numeric:normal;line-height:1.25"><tspan x="113.717" y="231.2" style="font-variant-caps:normal;font-variant-east-asian:normal;font-variant-ligatures:normal;font-variant-numeric:normal">̇</tspan></text>
  <g font-size="24px" font-weight="600">
   <text x="8.2530003" y="53.424" style="line-height:1.25"><tspan x="8.2530003" y="53.424">+</tspan></text>
   <text x="9.1829996" y="25.899" style="line-height:1.25"><tspan x="9.1829996" y="25.899">§</tspan></text>
   <text x="42.012001" y="48.692001" fill="#0000ff" style="line-height:1.25"><tspan x="42.012001" y="48.692001" font-size="21.333px" font-weight="400" style="font-variant-caps:normal;font-variant-east-asian:normal;font-variant-ligatures:normal;font-variant-numeric:normal">`</tspan></text>
   <text x="71.713997" y="52.097" style="line-height:1.25"><tspan x="71.713997" y="52.097">!</tspan></text>
   <text x="68.160004" y="23.344999" style="line-height:1.25"><tspan x="68.160004" y="23.344999">¤</tspan></text>
   <text x="131.761" y="52.492001" style="line-height:1.25"><tspan x="131.761" y="52.492001">:</tspan></text>
   <text x="126.132" y="25.242001" style="line-height:1.25"><tspan x="126.132" y="25.242001">@</tspan></text>
   <text x="191.674" y="52.410999" style="line-height:1.25"><tspan x="191.674" y="52.410999">.</tspan></text>
   <text x="187.629" y="25.01" style="line-height:1.25"><tspan x="187.629" y="25.01">#</tspan></text>
   <text x="248.661" y="51.443001" style="line-height:1.25"><tspan x="248.661" y="51.443001">*</tspan></text>
   <text x="248.384" y="24.084999" style="line-height:1.25"><tspan x="248.384" y="24.084999">$</tspan></text>
   <text x="309.61899" y="50.344002" style="line-height:1.25"><tspan x="309.61899" y="50.344002">_</tspan></text>
   <text x="305.59201" y="23.677" style="line-height:1.25"><tspan x="305.59201" y="23.677">%</tspan></text>
   <text x="364.05099" y="51.904999" style="line-height:1.25"><tspan x="364.05099" y="51.904999">—</tspan></text>
   <text x="368.55099" y="24.839001" style="line-height:1.25"><tspan x="368.55099" y="24.839001">|</tspan></text>
   <text x="399.20099" y="48.146999" fill="#0000ff" style="line-height:1.25"><tspan x="399.20099" y="48.146999" font-size="21.333px" font-weight="400" style="font-variant-caps:normal;font-variant-east-asian:normal;font-variant-ligatures:normal;font-variant-numeric:normal">^</tspan></text>
   <text x="428.40601" y="53.324001" style="line-height:1.25"><tspan x="428.40601" y="53.324001">=</tspan></text>
   <text x="428.01401" y="25.778999" style="line-height:1.25"><tspan x="428.01401" y="25.778999">&amp;</tspan></text>
   <text x="459.715" y="52.534" fill="#0000ff" style="line-height:1.25"><tspan x="459.715" y="52.534" font-size="21.333px" font-weight="400" style="font-variant-caps:normal;font-variant-east-asian:normal;font-variant-ligatures:normal;font-variant-numeric:normal">7</tspan></text>
   <text x="518.92798" y="52.491001" fill="#0000ff" style="line-height:1.25"><tspan x="518.92798" y="52.491001" font-size="21.333px" font-weight="400" style="font-variant-caps:normal;font-variant-east-asian:normal;font-variant-ligatures:normal;font-variant-numeric:normal">8</tspan></text>
   <text x="492.13501" y="52.291" style="line-height:1.25"><tspan x="492.13501" y="52.291">,</tspan></text>
   <text x="487.853" y="23.632999" style="line-height:1.25"><tspan x="487.853" y="23.632999">&lt;</tspan></text>
   <text x="551.66901" y="52.75" style="line-height:1.25"><tspan x="551.66901" y="52.75">;</tspan></text>
   <text x="548.43799" y="23.454" style="line-height:1.25"><tspan x="548.43799" y="23.454">&gt;</tspan></text>
   <text x="579.62903" y="52.387001" fill="#0000ff" style="line-height:1.25"><tspan x="579.62903" y="52.387001" font-size="21.333px" font-weight="400" style="font-variant-caps:normal;font-variant-east-asian:normal;font-variant-ligatures:normal;font-variant-numeric:normal">9</tspan></text>
   <text x="610.039" y="52.459" style="line-height:1.25"><tspan x="610.039" y="52.459">/</tspan></text>
   <text x="610.38202" y="24.759001" style="line-height:1.25"><tspan x="610.38202" y="24.759001">\</tspan></text>
   <text x="638.94598" y="52.556999" fill="#0000ff" style="line-height:1.25"><tspan x="638.94598" y="52.556999" font-size="21.333px" font-weight="400" style="font-variant-caps:normal;font-variant-east-asian:normal;font-variant-ligatures:normal;font-variant-numeric:normal">÷</tspan></text>
   <text x="663.474" y="24.625999" style="line-height:1.25"><tspan x="663.474" y="24.625999">W</tspan></text>
   <text x="730.29102" y="52.382999" style="line-height:1.25"><tspan x="730.29102" y="52.382999">?</tspan></text>
   <text x="727.93799" y="23.424999" style="line-height:1.25"><tspan x="727.93799" y="23.424999">~</tspan></text>
   <text x="141.17799" y="204.914" style="line-height:1.25"><tspan x="141.17799" y="204.914">Ų</tspan></text>
   <text x="202.939" y="204.77699" style="line-height:1.25"><tspan x="202.939" y="204.77699">Ę</tspan></text>
   <text x="265.86899" y="204.77299" style="line-height:1.25"><tspan x="265.86899" y="204.77299">Į</tspan></text>
   <text x="321.92001" y="204.994" style="line-height:1.25"><tspan x="321.92001" y="204.994">Ą</tspan></text>
   <text x="382.215" y="204.981" style="line-height:1.25"><tspan x="382.215" y="204.981">X</tspan></text>
   <text x="442.504" y="204.838" style="line-height:1.25"><tspan x="442.504" y="204.838">V</tspan></text>
   <text x="499.06299" y="204.653" style="line-height:1.25"><tspan x="499.06299" y="204.653">M</tspan></text>
   <text x="562.95099" y="204.843" style="line-height:1.25"><tspan x="562.95099" y="204.843">D</tspan></text>
   <text x="623.14697" y="204.94501" style="line-height:1.25"><tspan x="623.14697" y="204.94501">Š</tspan></text>
   <text x="681.896" y="204.91" style="line-height:1.25"><tspan x="681.896" y="204.91">Č</tspan></text>
  </g>
 </g>
 <g font-family="Noto Sans">
  <g fill="#00f">
   <text x="413.688" y="231.315" font-size="21.333" font-weight="400" style="font-variant-caps:normal;font-variant-east-asian:normal;font-variant-ligatures:normal;font-variant-numeric:normal;line-height:1.25"><tspan x="413.688" y="231.315" style="font-variant-caps:normal;font-variant-east-asian:normal;font-variant-ligatures:normal;font-variant-numeric:normal">̀</tspan></text>
   <text x="383.724" y="171.176" font-size="21.333" font-weight="400" style="font-variant-caps:normal;font-variant-east-asian:normal;font-variant-ligatures:normal;font-variant-numeric:normal;line-height:1.25"><tspan x="383.724" y="171.176" style="font-variant-caps:normal;font-variant-east-asian:normal;font-variant-ligatures:normal;font-variant-numeric:normal">̃</tspan></text>
   <text x="368.65" y="111.271" font-size="24" font-weight="600" style="line-height:1.25"><tspan x="368.65" y="111.271" font-size="21.333" font-weight="400" style="font-variant-caps:normal;font-variant-east-asian:normal;font-variant-ligatures:normal;font-variant-numeric:normal">́</tspan></text>
   <g font-size="21.333" font-weight="400">
    <text x="147.835" y="166.394" style="font-variant-caps:normal;font-variant-east-asian:normal;font-variant-ligatures:normal;font-variant-numeric:normal;line-height:1.25"><tspan x="147.835" y="166.394" style="font-variant-caps:normal;font-variant-east-asian:normal;font-variant-ligatures:normal;font-variant-numeric:normal">'</tspan></text>
    <text x="204.94" y="170.89" style="font-variant-caps:normal;font-variant-east-asian:normal;font-variant-ligatures:normal;font-variant-numeric:normal;line-height:1.25"><tspan x="204.94" y="170.89" style="font-variant-caps:normal;font-variant-east-asian:normal;font-variant-ligatures:normal;font-variant-numeric:normal">(</tspan></text>
    <text x="268.696" y="170.745" style="font-variant-caps:normal;font-variant-east-asian:normal;font-variant-ligatures:normal;font-variant-numeric:normal;line-height:1.25"><tspan x="268.696" y="170.745" style="font-variant-caps:normal;font-variant-east-asian:normal;font-variant-ligatures:normal;font-variant-numeric:normal">)</tspan></text>
    <text x="325.671" y="166.354" style="font-variant-caps:normal;font-variant-east-asian:normal;font-variant-ligatures:normal;font-variant-numeric:normal;line-height:1.25"><tspan x="325.671" y="166.354" style="font-variant-caps:normal;font-variant-east-asian:normal;font-variant-ligatures:normal;font-variant-numeric:normal">"</tspan></text>
    <text x="177.855" y="232.13" style="font-variant-caps:normal;font-variant-east-asian:normal;font-variant-ligatures:normal;font-variant-numeric:normal;line-height:1.25"><tspan x="177.855" y="232.13" style="font-variant-caps:normal;font-variant-east-asian:normal;font-variant-ligatures:normal;font-variant-numeric:normal">‚</tspan></text>
    <text x="233.169" y="230.933" style="font-variant-caps:normal;font-variant-east-asian:normal;font-variant-ligatures:normal;font-variant-numeric:normal;line-height:1.25"><tspan x="233.169" y="230.933" style="font-variant-caps:normal;font-variant-east-asian:normal;font-variant-ligatures:normal;font-variant-numeric:normal">{</tspan></text>
    <text x="298.813" y="230.823" style="font-variant-caps:normal;font-variant-east-asian:normal;font-variant-ligatures:normal;font-variant-numeric:normal;line-height:1.25"><tspan x="298.813" y="230.823" style="font-variant-caps:normal;font-variant-east-asian:normal;font-variant-ligatures:normal;font-variant-numeric:normal">}</tspan></text>
    <text x="355.845" y="232.54" style="font-variant-caps:normal;font-variant-east-asian:normal;font-variant-ligatures:normal;font-variant-numeric:normal;line-height:1.25"><tspan x="355.845" y="232.54" style="font-variant-caps:normal;font-variant-east-asian:normal;font-variant-ligatures:normal;font-variant-numeric:normal">„</tspan></text>
   </g>
   <g font-size="24" font-weight="600">
    <text x="132.92" y="106.346" style="line-height:1.25"><tspan x="132.92" y="106.346" font-size="21.333" font-weight="400" style="font-variant-caps:normal;font-variant-east-asian:normal;font-variant-ligatures:normal;font-variant-numeric:normal">‘</tspan></text>
    <text x="189.366" y="110.991" style="line-height:1.25"><tspan x="189.366" y="110.991" font-size="21.333" font-weight="400" style="font-variant-caps:normal;font-variant-east-asian:normal;font-variant-ligatures:normal;font-variant-numeric:normal">[</tspan></text>
    <text x="253.649" y="110.978" style="line-height:1.25"><tspan x="253.649" y="110.978" font-size="21.333" font-weight="400" style="font-variant-caps:normal;font-variant-east-asian:normal;font-variant-ligatures:normal;font-variant-numeric:normal">]</tspan></text>
    <text x="311.211" y="106.666" style="line-height:1.25"><tspan x="311.211" y="106.666" font-size="21.333" font-weight="400" style="font-variant-caps:normal;font-variant-east-asian:normal;font-variant-ligatures:normal;font-variant-numeric:normal">“</tspan></text>
    <text x="428.733" y="112.567" style="line-height:1.25"><tspan x="428.733" y="112.567" font-size="21.333" font-weight="400" style="font-variant-caps:normal;font-variant-east-asian:normal;font-variant-ligatures:normal;font-variant-numeric:normal">€</tspan></text>
    <text x="486.915" y="112.789" style="line-height:1.25"><tspan x="486.915" y="112.789" font-size="21.333" font-weight="400" style="font-variant-caps:normal;font-variant-east-asian:normal;font-variant-ligatures:normal;font-variant-numeric:normal">4</tspan></text>
    <text x="549.395" y="112.373" style="line-height:1.25"><tspan x="549.395" y="112.373" font-size="21.333" font-weight="400" style="font-variant-caps:normal;font-variant-east-asian:normal;font-variant-ligatures:normal;font-variant-numeric:normal">5</tspan></text>
    <text x="608.719" y="112.715" style="line-height:1.25"><tspan x="608.719" y="112.715" font-size="21.333" font-weight="400" style="font-variant-caps:normal;font-variant-east-asian:normal;font-variant-ligatures:normal;font-variant-numeric:normal">6</tspan></text>
    <text x="668.963" y="112.602" style="line-height:1.25"><tspan x="668.963" y="112.602" font-size="21.333" font-weight="400" style="font-variant-caps:normal;font-variant-east-asian:normal;font-variant-ligatures:normal;font-variant-numeric:normal">×</tspan></text>
   </g>
   <g font-size="21.333" font-weight="400">
    <text x="447.577" y="172.805" style="font-variant-caps:normal;font-variant-east-asian:normal;font-variant-ligatures:normal;font-variant-numeric:normal;line-height:1.25"><tspan x="447.577" y="172.805" style="font-variant-caps:normal;font-variant-east-asian:normal;font-variant-ligatures:normal;font-variant-numeric:normal">ł</tspan></text>
    <text x="503.544" y="172.531" style="font-variant-caps:normal;font-variant-east-asian:normal;font-variant-ligatures:normal;font-variant-numeric:normal;line-height:1.25"><tspan x="503.544" y="172.531" style="font-variant-caps:normal;font-variant-east-asian:normal;font-variant-ligatures:normal;font-variant-numeric:normal">1</tspan></text>
    <text x="564.138" y="172.739" style="font-variant-caps:normal;font-variant-east-asian:normal;font-variant-ligatures:normal;font-variant-numeric:normal;line-height:1.25"><tspan x="564.138" y="172.739" style="font-variant-caps:normal;font-variant-east-asian:normal;font-variant-ligatures:normal;font-variant-numeric:normal">2</tspan></text>
    <text x="624.524" y="172.565" style="font-variant-caps:normal;font-variant-east-asian:normal;font-variant-ligatures:normal;font-variant-numeric:normal;line-height:1.25"><tspan x="624.524" y="172.565" style="font-variant-caps:normal;font-variant-east-asian:normal;font-variant-ligatures:normal;font-variant-numeric:normal">3</tspan></text>
    <text x="680.825" y="171.551" style="font-variant-caps:normal;font-variant-east-asian:normal;font-variant-ligatures:normal;font-variant-numeric:normal;line-height:1.25"><tspan x="680.825" y="171.551" style="font-variant-caps:normal;font-variant-east-asian:normal;font-variant-ligatures:normal;font-variant-numeric:normal">−</tspan></text>
   </g>
   <g font-size="24" font-weight="600">
    <text x="746.689" y="170.667" style="line-height:1.25"><tspan x="746.689" y="170.667" font-size="21.333" font-weight="400" style="font-variant-caps:normal;font-variant-east-asian:normal;font-variant-ligatures:normal;font-variant-numeric:normal">-</tspan></text>
    <text x="805.485" y="169.55" style="line-height:1.25"><tspan x="805.485" y="169.55" font-size="21.333" font-weight="400" style="font-variant-caps:normal;font-variant-east-asian:normal;font-variant-ligatures:normal;font-variant-numeric:normal">°</tspan></text>
    <text x="793.646" y="112.575" style="line-height:1.25"><tspan x="793.646" y="112.575" font-size="21.333" font-weight="400" style="font-variant-caps:normal;font-variant-east-asian:normal;font-variant-ligatures:normal;font-variant-numeric:normal">⁄</tspan></text>
    <text x="728.204" y="112.595" style="line-height:1.25"><tspan x="728.204" y="112.595" font-size="21.333" font-weight="400" style="font-variant-caps:normal;font-variant-east-asian:normal;font-variant-ligatures:normal;font-variant-numeric:normal">¢</tspan></text>
   </g>
   <g font-size="21.333" font-weight="400">
    <text x="474.065" y="231.952" style="font-variant-caps:normal;font-variant-east-asian:normal;font-variant-ligatures:normal;font-variant-numeric:normal;line-height:1.25"><tspan x="474.065" y="231.952" style="font-variant-caps:normal;font-variant-east-asian:normal;font-variant-ligatures:normal;font-variant-numeric:normal">√</tspan></text>
    <text x="533.726" y="232.427" style="font-variant-caps:normal;font-variant-east-asian:normal;font-variant-ligatures:normal;font-variant-numeric:normal;line-height:1.25"><tspan x="533.726" y="232.427" style="font-variant-caps:normal;font-variant-east-asian:normal;font-variant-ligatures:normal;font-variant-numeric:normal">0</tspan></text>
    <text x="597.085" y="232.207" style="font-variant-caps:normal;font-variant-east-asian:normal;font-variant-ligatures:normal;font-variant-numeric:normal;line-height:1.25"><tspan x="597.085" y="232.207" style="font-variant-caps:normal;font-variant-east-asian:normal;font-variant-ligatures:normal;font-variant-numeric:normal">.</tspan></text>
    <text x="657.308" y="232.53" style="font-variant-caps:normal;font-variant-east-asian:normal;font-variant-ligatures:normal;font-variant-numeric:normal;line-height:1.25;white-space:pre"><tspan x="657.308" y="232.53" style="font-variant-caps:normal;font-variant-east-asian:normal;font-variant-ligatures:normal;font-variant-numeric:normal">,</tspan></text>
   </g>
   <text x="713.174" y="232.84" font-size="24" font-weight="600" style="line-height:1.25"><tspan x="713.174" y="232.84" font-size="21.333" font-weight="400" style="font-variant-caps:normal;font-variant-east-asian:normal;font-variant-ligatures:normal;font-variant-numeric:normal">+</tspan></text>
  </g>
  <g font-weight="600">
   <g fill="#fff" stroke-width="1.162">
    <text x="178.91" y="278.923" font-size="26.667" style="font-variant-caps:normal;font-variant-east-asian:normal;font-variant-ligatures:normal;font-variant-numeric:normal;line-height:1.25"><tspan x="178.91" y="278.923" font-weight="400" style="font-variant-caps:normal;font-variant-east-asian:normal;font-variant-ligatures:normal;font-variant-numeric:normal">⎇</tspan></text>
    <text x="633.838" y="277.435" font-size="27.887" style="line-height:1.25"><tspan x="633.838" y="277.435" font-size="26.667" font-weight="400" style="font-variant-caps:normal;font-variant-east-asian:normal;font-variant-ligatures:normal;font-variant-numeric:normal">⇮</tspan></text>
    <text x="37.251" y="277.48" font-size="26.667" style="font-variant-caps:normal;font-variant-east-asian:normal;font-variant-ligatures:normal;font-variant-numeric:normal;line-height:1.25"><tspan x="37.251" y="277.48" font-weight="400" style="font-variant-caps:normal;font-variant-east-asian:normal;font-variant-ligatures:normal;font-variant-numeric:normal">⎈</tspan></text>
    <text x="113.35" y="277.417" font-size="27.887" style="line-height:1.25"><tspan x="113.35" y="277.417" font-size="26.667" style="font-variant-caps:normal;font-variant-east-asian:normal;font-variant-ligatures:normal;font-variant-numeric:normal">◊</tspan></text>
    <text x="849.272" y="132.623" font-size="27.887" style="line-height:1.25"><tspan x="849.272" y="132.623" font-size="26.667" font-weight="400" style="font-variant-caps:normal;font-variant-east-asian:normal;font-variant-ligatures:normal;font-variant-numeric:normal">⏎</tspan></text>
    <g font-size="26.667">
     <text x="34.096" y="98.7" style="font-variant-caps:normal;font-variant-east-asian:normal;font-variant-ligatures:normal;font-variant-numeric:normal;line-height:1.25"><tspan x="34.096" y="98.7" font-weight="400" style="font-variant-caps:normal;font-variant-east-asian:normal;font-variant-ligatures:normal;font-variant-numeric:normal">↹</tspan></text>
     <text x="806.464" y="220.396" style="font-variant-caps:normal;font-variant-east-asian:normal;font-variant-ligatures:normal;font-variant-numeric:normal;line-height:1.25"><tspan x="806.464" y="220.396" font-weight="400" style="font-variant-caps:normal;font-variant-east-asian:normal;font-variant-ligatures:normal;font-variant-numeric:normal">⇧</tspan></text>
     <text x="41.446" y="159.65" style="font-variant-caps:normal;font-variant-east-asian:normal;font-variant-ligatures:normal;font-variant-numeric:normal;line-height:1.25"><tspan x="41.446" y="159.65" font-weight="400" style="font-variant-caps:normal;font-variant-east-asian:normal;font-variant-ligatures:normal;font-variant-numeric:normal">⇪</tspan></text>
     <text x="817.679" y="40.185" style="font-variant-caps:normal;font-variant-east-asian:normal;font-variant-ligatures:normal;font-variant-numeric:normal;line-height:1.25"><tspan x="817.679" y="40.185" font-weight="400" style="font-variant-caps:normal;font-variant-east-asian:normal;font-variant-ligatures:normal;font-variant-numeric:normal">⌫</tspan></text>
     <text x="26.298" y="219.327" style="font-variant-caps:normal;font-variant-east-asian:normal;font-variant-ligatures:normal;font-variant-numeric:normal;line-height:1.25"><tspan x="26.298" y="219.327" font-weight="400" style="font-variant-caps:normal;font-variant-east-asian:normal;font-variant-ligatures:normal;font-variant-numeric:normal">⇧</tspan></text>
     <text x="768.761" y="278.296" style="font-variant-caps:normal;font-variant-east-asian:normal;font-variant-ligatures:normal;font-variant-numeric:normal;line-height:1.25"><tspan x="768.761" y="278.296" font-weight="400" style="font-variant-caps:normal;font-variant-east-asian:normal;font-variant-ligatures:normal;font-variant-numeric:normal">≣</tspan></text>
     <text x="847.004" y="277.524" style="font-variant-caps:normal;font-variant-east-asian:normal;font-variant-ligatures:normal;font-variant-numeric:normal;line-height:1.25"><tspan x="847.004" y="277.524" font-weight="400" style="font-variant-caps:normal;font-variant-east-asian:normal;font-variant-ligatures:normal;font-variant-numeric:normal">⎈</tspan></text>
    </g>
    <text x="713.577" y="277.875" font-size="27.887" style="line-height:1.25"><tspan x="713.577" y="277.875" font-size="26.667" font-weight="700" style="font-variant-caps:normal;font-variant-east-asian:normal;font-variant-ligatures:normal;font-variant-numeric:normal">◊</tspan></text>
   </g>
   <g fill="#00f" font-size="24">
    <text x="336.704" y="51.987" style="line-height:1.25"><tspan x="336.704" y="51.987" font-size="21.333" font-weight="400" style="font-variant-caps:normal;font-variant-east-asian:normal;font-variant-ligatures:normal;font-variant-numeric:normal">…</tspan></text>
    <text x="281.254" y="49.948" style="line-height:1.25"><tspan x="281.254" y="49.948" font-size="21.333" font-weight="400" style="font-variant-caps:normal;font-variant-east-asian:normal;font-variant-ligatures:normal;font-variant-numeric:normal">”</tspan></text>
    <text x="158.628" y="51.866" style="line-height:1.25"><tspan x="158.628" y="51.866" font-size="21.333" font-weight="400" style="font-variant-caps:normal;font-variant-east-asian:normal;font-variant-ligatures:normal;font-variant-numeric:normal">⟨</tspan></text>
    <text x="223.196" y="51.771" style="line-height:1.25"><tspan x="223.196" y="51.771" font-size="21.333" font-weight="400" style="font-variant-caps:normal;font-variant-east-asian:normal;font-variant-ligatures:normal;font-variant-numeric:normal">⟩</tspan></text>
    <text x="696.691" y="52.527" style="line-height:1.25"><tspan x="696.691" y="52.527" font-size="21.333" font-weight="400" style="font-variant-caps:normal;font-variant-east-asian:normal;font-variant-ligatures:normal;font-variant-numeric:normal">Ω</tspan></text>
    <text x="755.47" y="51.641" style="line-height:1.25"><tspan x="755.47" y="51.641" font-size="21.333" font-weight="400" style="font-variant-caps:normal;font-variant-east-asian:normal;font-variant-ligatures:normal;font-variant-numeric:normal">≈</tspan></text>
   </g>
   <text x="130.157" y="156.577" font-size="16" letter-spacing=".01" style="line-height:1.25"><tspan x="130.157" y="156.577" fill="#999" font-weight="400">A</tspan></text>
  </g>
 </g>
 <text x="29.663921" y="39.664982" fill="#999999" font-family="'Noto Sans'" font-size="16px" font-weight="600" style="line-height:1.25"><tspan x="29.663921" y="39.664982" fill="#999999" font-size="16px" font-weight="400" style="font-variant-caps:normal;font-variant-east-asian:normal;font-variant-ligatures:normal;font-variant-numeric:normal">`</tspan></text>
 <text x="101.46081" y="215.17264" fill="#999999" font-family="'Noto Sans'" font-size="16px" font-weight="600" style="line-height:1.25"><tspan x="101.46081" y="215.17264" fill="#999999" font-family="'Noto Sans'" font-size="16px" font-weight="normal">&lt;</tspan></text>
</svg>
