<?xml version="1.0" encoding="UTF-8"?>
<svg width="900" height="300" version="1.0" xmlns="http://www.w3.org/2000/svg" xmlns:cc="http://creativecommons.org/ns#" xmlns:dc="http://purl.org/dc/elements/1.1/" xmlns:rdf="http://www.w3.org/1999/02/22-rdf-syntax-ns#">
 <metadata>
  <rdf:RDF>
   <cc:Work rdf:about="">
    <dc:format>image/svg+xml</dc:format>
    <dc:type rdf:resource="http://purl.org/dc/dcmitype/StillImage"/>
    <dc:title/>
   </cc:Work>
  </rdf:RDF>
 </metadata>
 <path d="M330 60h60v60h-60zM780 0h60v60h-60zM0 0h60v60H0V0zM60 0h60v60H60V0z" fill="#fff" fill-rule="evenodd" stroke="#000"/>
 <text x="103.034" y="47.534" fill="#00f" font-family="Noto Sans" font-size="24" font-weight="600" style="line-height:1.25"><tspan x="103.034" y="47.534" font-size="21.333" font-weight="400" style="font-variant-caps:normal;font-variant-east-asian:normal;font-variant-ligatures:normal;font-variant-numeric:normal">’</tspan></text>
 <g fill-rule="evenodd" stroke="#000">
  <path d="m120 0h60v60h-60zm60 0h60v60h-60zm60 0h60v60h-60zm60 0h60v60h-60zm60 0h60v60h-60zm60 0h60v60h-60zm60 0h60v60h-60zm60 0h60v60h-60zm60 0h60v60h-60zm60 0h60v60h-60zm60 0h60v60h-60z" fill="#fff"/>
  <path d="m840 0h60v60h-60z" fill="#ccc" stroke-width=".707"/>
  <path d="m0 60h90v60h-90z" fill="#ccc"/>
  <path d="m90 60h60v60h-60zm60 0h60v60h-60zm60 0h60v60h-60zm60 0h60v60h-60zm90-60h60v60h-60zm30 60h60v60h-60zm60 0h60v60h-60zm60 0h60v60h-60zm60 0h60v60h-60zm60 0h60v60h-60zm60 0h60v60h-60zm60 0h60v60h-60z" fill="#fff"/>
  <path d="m0 120h105v60h-105z" fill="#ccc"/>
  <path d="m105 120h60v60h-60zm60 0h60v60h-60zm60 0h60v60h-60zm60 0h60v60h-60zm60 0h60v60h-60zm60 0h60v60h-60zm60 0h60v60h-60zm60 0h60v60h-60zm60 0h60v60h-60zm60 0h60v60h-60zm60 0h60v60h-60z" fill="#fff"/>
  <path d="m765 120h45v-60h90v120h-135z" fill="#ccc"/>
  <path d="m0 180h135v60h-135z" fill="#ccc" stroke-width="1.342"/>
  <path d="m135 180h60v60h-60zm60 0h60v60h-60zm60 0h60v60h-60zm60 0h60v60h-60zm60 0h60v60h-60zm60 0h60v60h-60zm60 0h60v60h-60zm60 0h60v60h-60zm60 0h60v60h-60zm60 0h60v60h-60z" fill="#fff"/>
  <path d="m735 180h165v60h-165zm-735 60h90v60h-90zm810 0h90v60h-90zm-660 0h90v60h-90zm450 0h90v60h-90z" fill="#ccc"/>
  <path d="m240 240h360v60h-360z" fill="#fff"/>
  <path d="m90 240h60v60h-60zm600 0h60v60h-60zm60 0h60v60h-60z" fill="#e6e6e6"/>
 </g>
 <g font-family="'Noto Sans'" font-weight="600">
  <g font-size="26.667px">
   <text x="96.320999" y="88.305473" style="font-variant-caps:normal;font-variant-east-asian:normal;font-variant-ligatures:normal;font-variant-numeric:normal;line-height:1.25"><tspan x="96.320999" y="88.305473" font-size="26.667px">Ū</tspan></text>
   <text x="157.554" y="88.327469" style="line-height:1.25"><tspan x="157.554" y="88.327469" font-size="26.667px">Ė</tspan></text>
   <text x="217.95399" y="88.121475" style="line-height:1.25"><tspan x="217.95399" y="88.121475" font-size="26.667px">Y</tspan></text>
   <text x="275.55301" y="88.445473" style="line-height:1.25"><tspan x="275.55301" y="88.445473" font-size="26.667px">O</tspan></text>
   <text x="335.41101" y="88.637474" style="line-height:1.25"><tspan x="335.41101" y="88.637474" font-size="26.667px">Q</tspan></text>
   <text x="401.60999" y="88.191475" style="line-height:1.25"><tspan x="401.60999" y="88.191475" font-size="26.667px">J</tspan></text>
   <text x="455.349" y="88.31147" style="line-height:1.25"><tspan x="455.349" y="88.31147" font-size="26.667px">N</tspan></text>
   <text x="517.82202" y="88.11647" style="line-height:1.25"><tspan x="517.82202" y="88.11647" font-size="26.667px">K</tspan></text>
   <text x="576.42902" y="88.064468" style="line-height:1.25"><tspan x="576.42902" y="88.064468" font-size="26.667px">G</tspan></text>
   <text x="637.35999" y="88.562469" style="line-height:1.25"><tspan x="637.35999" y="88.562469" font-size="26.667px">B</tspan></text>
   <text x="696.617" y="88.595474" style="line-height:1.25"><tspan x="696.617" y="88.595474" font-size="26.667px">C</tspan></text>
   <text x="757.83197" y="88.329475" style="line-height:1.25"><tspan x="757.83197" y="88.329475" font-size="26.667px">F</tspan></text>
   <text x="788.56" y="28.40147" style="line-height:1.25"><tspan x="788.56" y="28.40147" font-size="26.667px">Z</tspan></text>
   <text x="712.98297" y="148.36046" style="line-height:1.25"><tspan x="712.98297" y="148.36046" font-size="26.667px">Ž</tspan></text>
   <text x="653.61401" y="148.07146" style="line-height:1.25"><tspan x="653.61401" y="148.07146" font-size="26.667px">P</tspan></text>
   <text x="593.92059" y="147.85226" style="line-height:1.25"><tspan x="593.92059" y="147.85226" font-size="26.667px">S</tspan></text>
   <text x="533.14502" y="147.98047" style="line-height:1.25"><tspan x="533.14502" y="147.98047" font-size="26.667px">T</tspan></text>
   <text x="473.09201" y="147.95546" style="line-height:1.25"><tspan x="473.09201" y="147.95546" font-size="26.667px">R</tspan></text>
   <text x="411.73001" y="148.26846" style="line-height:1.25"><tspan x="411.73001" y="148.26846" font-size="26.667px">L</tspan></text>
   <text x="350.99701" y="148.21947" style="line-height:1.25"><tspan x="350.99701" y="148.21947" font-size="26.667px">H</tspan></text>
   <text x="292.12299" y="148.14746" style="line-height:1.25"><tspan x="292.12299" y="148.14746" font-size="26.667px">A</tspan></text>
   <text x="235.605" y="148.30646" style="line-height:1.25"><tspan x="235.605" y="148.30646" font-size="26.667px">I</tspan></text>
   <text x="172.67" y="148.37646" style="line-height:1.25"><tspan x="172.67" y="148.37646" font-size="26.667px">E</tspan></text>
   <text x="110.911" y="148.33847" style="line-height:1.25"><tspan x="110.911" y="148.33847" font-size="26.667px">U</tspan></text>
  </g>
  <g font-size="24px">
   <text x="90" y="202.5" style="line-height:1.25"/>
   <text x="8.2530003" y="53.424" style="line-height:1.25"><tspan x="8.2530003" y="53.424" font-family="'Noto Sans'" font-weight="normal">+</tspan></text>
   <text x="9.1829996" y="25.899" style="line-height:1.25"><tspan x="9.1829996" y="25.899">§</tspan></text>
   <text x="42.012001" y="48.692001" fill="#0000ff" style="line-height:1.25"><tspan x="42.012001" y="48.692001" font-size="21.333px" font-weight="400" style="font-variant-caps:normal;font-variant-east-asian:normal;font-variant-ligatures:normal;font-variant-numeric:normal">`</tspan></text>
   <text x="45" y="7.5" style="line-height:1.25"/>
   <text x="71.713997" y="52.097" style="line-height:1.25"><tspan x="71.713997" y="52.097" font-family="'Noto Sans'" font-weight="normal">!</tspan></text>
   <text x="68.160004" y="23.344999" style="line-height:1.25"><tspan x="68.160004" y="23.344999">¤</tspan></text>
   <text x="131.761" y="52.492001" style="line-height:1.25"><tspan x="131.761" y="52.492001" font-family="'Noto Sans'" font-weight="normal">:</tspan></text>
   <text x="126.132" y="25.242001" style="line-height:1.25"><tspan x="126.132" y="25.242001">@</tspan></text>
   <text x="191.674" y="52.410999" style="line-height:1.25"><tspan x="191.674" y="52.410999" font-family="'Noto Sans'" font-weight="normal">.</tspan></text>
   <text x="187.629" y="25.01" style="line-height:1.25"><tspan x="187.629" y="25.01">#</tspan></text>
   <text x="248.661" y="51.443001" style="line-height:1.25"><tspan x="248.661" y="51.443001" font-family="'Noto Sans'" font-weight="normal">*</tspan></text>
   <text x="248.384" y="24.084999" style="line-height:1.25"><tspan x="248.384" y="24.084999">$</tspan></text>
   <text x="309.61899" y="50.344002" style="line-height:1.25"><tspan x="309.61899" y="50.344002" font-family="'Noto Sans'" font-weight="normal">_</tspan></text>
   <text x="305.59201" y="23.677" style="line-height:1.25"><tspan x="305.59201" y="23.677">%</tspan></text>
   <text x="364.05099" y="51.904999" style="line-height:1.25"><tspan x="364.05099" y="51.904999" font-family="'Noto Sans'" font-weight="normal">—</tspan></text>
   <text x="368.55099" y="24.839001" style="line-height:1.25"><tspan x="368.55099" y="24.839001">|</tspan></text>
   <text x="399.20099" y="48.146999" fill="#0000ff" style="line-height:1.25"><tspan x="399.20099" y="48.146999" font-size="21.333px" font-weight="400" style="font-variant-caps:normal;font-variant-east-asian:normal;font-variant-ligatures:normal;font-variant-numeric:normal">^</tspan></text>
   <text x="428.40601" y="53.324001" style="line-height:1.25"><tspan x="428.40601" y="53.324001" font-family="'Noto Sans'" font-weight="normal">=</tspan></text>
   <text x="428.01401" y="25.778999" style="line-height:1.25"><tspan x="428.01401" y="25.778999">&amp;</tspan></text>
   <text x="459.715" y="52.534" fill="#0000ff" style="line-height:1.25"><tspan x="459.715" y="52.534" font-size="21.333px" font-weight="400" style="font-variant-caps:normal;font-variant-east-asian:normal;font-variant-ligatures:normal;font-variant-numeric:normal">7</tspan></text>
   <text x="518.92798" y="52.491001" fill="#0000ff" style="line-height:1.25"><tspan x="518.92798" y="52.491001" font-size="21.333px" font-weight="400" style="font-variant-caps:normal;font-variant-east-asian:normal;font-variant-ligatures:normal;font-variant-numeric:normal">8</tspan></text>
   <text x="492.13501" y="52.291" style="line-height:1.25"><tspan x="492.13501" y="52.291" font-family="'Noto Sans'" font-weight="normal">,</tspan></text>
   <text x="487.853" y="23.632999" style="line-height:1.25"><tspan x="487.853" y="23.632999">&lt;</tspan></text>
   <text x="551.66901" y="52.75" style="line-height:1.25"><tspan x="551.66901" y="52.75" font-family="'Noto Sans'" font-weight="normal">;</tspan></text>
   <text x="548.43799" y="23.454" style="line-height:1.25"><tspan x="548.43799" y="23.454">&gt;</tspan></text>
   <text x="579.62903" y="52.387001" fill="#0000ff" style="line-height:1.25"><tspan x="579.62903" y="52.387001" font-size="21.333px" font-weight="400" style="font-variant-caps:normal;font-variant-east-asian:normal;font-variant-ligatures:normal;font-variant-numeric:normal">9</tspan></text>
   <text x="610.039" y="52.459" style="line-height:1.25"><tspan x="610.039" y="52.459" font-family="'Noto Sans'" font-weight="normal">/</tspan></text>
   <text x="610.38202" y="24.759001" style="line-height:1.25"><tspan x="610.38202" y="24.759001">\</tspan></text>
   <text x="638.94598" y="52.556999" fill="#0000ff" style="line-height:1.25"><tspan x="638.94598" y="52.556999" font-size="21.333px" font-weight="400" style="font-variant-caps:normal;font-variant-east-asian:normal;font-variant-ligatures:normal;font-variant-numeric:normal">÷</tspan></text>
  </g>
  <text x="663.474" y="28.198469" font-size="26.667px" style="line-height:1.25"><tspan x="663.474" y="28.198469" font-size="26.667px">W</tspan></text>
  <text x="730.29102" y="52.382999" font-size="24px" style="line-height:1.25"><tspan x="730.29102" y="52.382999" font-family="'Noto Sans'" font-weight="normal">?</tspan></text>
  <text x="727.93799" y="23.424999" font-size="24px" style="line-height:1.25"><tspan x="727.93799" y="23.424999">~</tspan></text>
  <g font-size="26.667px">
   <text x="141.17799" y="208.48647" style="line-height:1.25"><tspan x="141.17799" y="208.48647" font-size="26.667px">Ų</tspan></text>
   <text x="202.939" y="208.34946" style="line-height:1.25"><tspan x="202.939" y="208.34946" font-size="26.667px">Ę</tspan></text>
   <text x="265.86899" y="208.34546" style="line-height:1.25"><tspan x="265.86899" y="208.34546" font-size="26.667px">Į</tspan></text>
   <text x="321.92001" y="208.56647" style="line-height:1.25"><tspan x="321.92001" y="208.56647" font-size="26.667px">Ą</tspan></text>
   <text x="382.215" y="208.55347" style="line-height:1.25"><tspan x="382.215" y="208.55347" font-size="26.667px">X</tspan></text>
   <text x="442.504" y="208.41046" style="line-height:1.25"><tspan x="442.504" y="208.41046" font-size="26.667px">V</tspan></text>
   <text x="499.06299" y="208.22546" style="line-height:1.25"><tspan x="499.06299" y="208.22546" font-size="26.667px">M</tspan></text>
   <text x="562.95099" y="208.41547" style="line-height:1.25"><tspan x="562.95099" y="208.41547" font-size="26.667px">D</tspan></text>
   <text x="623.14697" y="208.51747" style="line-height:1.25"><tspan x="623.14697" y="208.51747" font-size="26.667px">Š</tspan></text>
   <text x="681.896" y="208.48247" style="line-height:1.25"><tspan x="681.896" y="208.48247" font-size="26.667px">Č</tspan></text>
  </g>
 </g>
 <g fill="#0000ff" font-family="'Noto Sans'">
  <text x="413.68799" y="231.315" font-size="21.333px" font-weight="400" style="font-variant-caps:normal;font-variant-east-asian:normal;font-variant-ligatures:normal;font-variant-numeric:normal;line-height:1.25"><tspan x="413.68799" y="231.315" style="font-variant-caps:normal;font-variant-east-asian:normal;font-variant-ligatures:normal;font-variant-numeric:normal">̀</tspan></text>
  <text x="383.724" y="171.17599" font-size="21.333px" font-weight="400" style="font-variant-caps:normal;font-variant-east-asian:normal;font-variant-ligatures:normal;font-variant-numeric:normal;line-height:1.25"><tspan x="383.724" y="171.17599" style="font-variant-caps:normal;font-variant-east-asian:normal;font-variant-ligatures:normal;font-variant-numeric:normal">̃</tspan></text>
  <text x="368.64999" y="111.271" font-size="24px" font-weight="600" style="line-height:1.25"><tspan x="368.64999" y="111.271" font-size="21.333px" font-weight="400" style="font-variant-caps:normal;font-variant-east-asian:normal;font-variant-ligatures:normal;font-variant-numeric:normal">́</tspan></text>
  <g font-size="21.333px" font-weight="400">
   <text x="147.83501" y="166.394" style="font-variant-caps:normal;font-variant-east-asian:normal;font-variant-ligatures:normal;font-variant-numeric:normal;line-height:1.25"><tspan x="147.83501" y="166.394" style="font-variant-caps:normal;font-variant-east-asian:normal;font-variant-ligatures:normal;font-variant-numeric:normal">'</tspan></text>
   <text x="204.94" y="170.89" style="font-variant-caps:normal;font-variant-east-asian:normal;font-variant-ligatures:normal;font-variant-numeric:normal;line-height:1.25"><tspan x="204.94" y="170.89" style="font-variant-caps:normal;font-variant-east-asian:normal;font-variant-ligatures:normal;font-variant-numeric:normal">(</tspan></text>
   <text x="268.69601" y="170.745" style="font-variant-caps:normal;font-variant-east-asian:normal;font-variant-ligatures:normal;font-variant-numeric:normal;line-height:1.25"><tspan x="268.69601" y="170.745" style="font-variant-caps:normal;font-variant-east-asian:normal;font-variant-ligatures:normal;font-variant-numeric:normal">)</tspan></text>
   <text x="325.67099" y="166.354" style="font-variant-caps:normal;font-variant-east-asian:normal;font-variant-ligatures:normal;font-variant-numeric:normal;line-height:1.25"><tspan x="325.67099" y="166.354" style="font-variant-caps:normal;font-variant-east-asian:normal;font-variant-ligatures:normal;font-variant-numeric:normal">"</tspan></text>
   <text x="177.855" y="232.13" style="font-variant-caps:normal;font-variant-east-asian:normal;font-variant-ligatures:normal;font-variant-numeric:normal;line-height:1.25"><tspan x="177.855" y="232.13" style="font-variant-caps:normal;font-variant-east-asian:normal;font-variant-ligatures:normal;font-variant-numeric:normal">‚</tspan></text>
   <text x="233.16901" y="230.933" style="font-variant-caps:normal;font-variant-east-asian:normal;font-variant-ligatures:normal;font-variant-numeric:normal;line-height:1.25"><tspan x="233.16901" y="230.933" style="font-variant-caps:normal;font-variant-east-asian:normal;font-variant-ligatures:normal;font-variant-numeric:normal">{</tspan></text>
   <text x="298.81299" y="230.823" style="font-variant-caps:normal;font-variant-east-asian:normal;font-variant-ligatures:normal;font-variant-numeric:normal;line-height:1.25"><tspan x="298.81299" y="230.823" style="font-variant-caps:normal;font-variant-east-asian:normal;font-variant-ligatures:normal;font-variant-numeric:normal">}</tspan></text>
   <text x="355.845" y="232.53999" style="font-variant-caps:normal;font-variant-east-asian:normal;font-variant-ligatures:normal;font-variant-numeric:normal;line-height:1.25"><tspan x="355.845" y="232.53999" style="font-variant-caps:normal;font-variant-east-asian:normal;font-variant-ligatures:normal;font-variant-numeric:normal">„</tspan></text>
  </g>
  <g font-size="24px" font-weight="600">
   <text x="132.92" y="106.346" style="line-height:1.25"><tspan x="132.92" y="106.346" font-size="21.333px" font-weight="400" style="font-variant-caps:normal;font-variant-east-asian:normal;font-variant-ligatures:normal;font-variant-numeric:normal">‘</tspan></text>
   <text x="189.366" y="110.991" style="line-height:1.25"><tspan x="189.366" y="110.991" font-size="21.333px" font-weight="400" style="font-variant-caps:normal;font-variant-east-asian:normal;font-variant-ligatures:normal;font-variant-numeric:normal">[</tspan></text>
   <text x="253.649" y="110.978" style="line-height:1.25"><tspan x="253.649" y="110.978" font-size="21.333px" font-weight="400" style="font-variant-caps:normal;font-variant-east-asian:normal;font-variant-ligatures:normal;font-variant-numeric:normal">]</tspan></text>
   <text x="311.211" y="106.666" style="line-height:1.25"><tspan x="311.211" y="106.666" font-size="21.333px" font-weight="400" style="font-variant-caps:normal;font-variant-east-asian:normal;font-variant-ligatures:normal;font-variant-numeric:normal">“</tspan></text>
   <text x="428.733" y="112.567" style="line-height:1.25"><tspan x="428.733" y="112.567" font-size="21.333px" font-weight="400" style="font-variant-caps:normal;font-variant-east-asian:normal;font-variant-ligatures:normal;font-variant-numeric:normal">€</tspan></text>
   <text x="486.91501" y="112.789" style="line-height:1.25"><tspan x="486.91501" y="112.789" font-size="21.333px" font-weight="400" style="font-variant-caps:normal;font-variant-east-asian:normal;font-variant-ligatures:normal;font-variant-numeric:normal">4</tspan></text>
   <text x="549.39502" y="112.373" style="line-height:1.25"><tspan x="549.39502" y="112.373" font-size="21.333px" font-weight="400" style="font-variant-caps:normal;font-variant-east-asian:normal;font-variant-ligatures:normal;font-variant-numeric:normal">5</tspan></text>
   <text x="608.71899" y="112.715" style="line-height:1.25"><tspan x="608.71899" y="112.715" font-size="21.333px" font-weight="400" style="font-variant-caps:normal;font-variant-east-asian:normal;font-variant-ligatures:normal;font-variant-numeric:normal">6</tspan></text>
   <text x="668.96301" y="112.602" style="line-height:1.25"><tspan x="668.96301" y="112.602" font-size="21.333px" font-weight="400" style="font-variant-caps:normal;font-variant-east-asian:normal;font-variant-ligatures:normal;font-variant-numeric:normal">×</tspan></text>
  </g>
  <g font-size="21.333px" font-weight="400">
   <text x="447.577" y="172.80499" style="font-variant-caps:normal;font-variant-east-asian:normal;font-variant-ligatures:normal;font-variant-numeric:normal;line-height:1.25"><tspan x="447.577" y="172.80499" style="font-variant-caps:normal;font-variant-east-asian:normal;font-variant-ligatures:normal;font-variant-numeric:normal">ł</tspan></text>
   <text x="503.54401" y="172.53101" style="font-variant-caps:normal;font-variant-east-asian:normal;font-variant-ligatures:normal;font-variant-numeric:normal;line-height:1.25"><tspan x="503.54401" y="172.53101" style="font-variant-caps:normal;font-variant-east-asian:normal;font-variant-ligatures:normal;font-variant-numeric:normal">1</tspan></text>
   <text x="564.138" y="172.739" style="font-variant-caps:normal;font-variant-east-asian:normal;font-variant-ligatures:normal;font-variant-numeric:normal;line-height:1.25"><tspan x="564.138" y="172.739" style="font-variant-caps:normal;font-variant-east-asian:normal;font-variant-ligatures:normal;font-variant-numeric:normal">2</tspan></text>
   <text x="624.52399" y="172.565" style="font-variant-caps:normal;font-variant-east-asian:normal;font-variant-ligatures:normal;font-variant-numeric:normal;line-height:1.25"><tspan x="624.52399" y="172.565" style="font-variant-caps:normal;font-variant-east-asian:normal;font-variant-ligatures:normal;font-variant-numeric:normal">3</tspan></text>
   <text x="680.82501" y="171.55099" style="font-variant-caps:normal;font-variant-east-asian:normal;font-variant-ligatures:normal;font-variant-numeric:normal;line-height:1.25"><tspan x="680.82501" y="171.55099" style="font-variant-caps:normal;font-variant-east-asian:normal;font-variant-ligatures:normal;font-variant-numeric:normal">−</tspan></text>
  </g>
  <g font-size="24px" font-weight="600">
   <text x="746.68903" y="170.66701" style="line-height:1.25"><tspan x="746.68903" y="170.66701" font-size="21.333px" font-weight="400" style="font-variant-caps:normal;font-variant-east-asian:normal;font-variant-ligatures:normal;font-variant-numeric:normal">-</tspan></text>
   <text x="820.48999" y="49.749001" style="line-height:1.25"><tspan x="820.48999" y="49.749001" font-size="21.333px" font-weight="400" style="font-variant-caps:normal;font-variant-east-asian:normal;font-variant-ligatures:normal;font-variant-numeric:normal">°</tspan></text>
   <text x="793.646" y="112.575" style="line-height:1.25"><tspan x="793.646" y="112.575" font-size="21.333px" font-weight="400" style="font-variant-caps:normal;font-variant-east-asian:normal;font-variant-ligatures:normal;font-variant-numeric:normal">⁄</tspan></text>
   <text x="728.20398" y="112.595" style="line-height:1.25"><tspan x="728.20398" y="112.595" font-size="21.333px" font-weight="400" style="font-variant-caps:normal;font-variant-east-asian:normal;font-variant-ligatures:normal;font-variant-numeric:normal">¢</tspan></text>
  </g>
  <g font-size="21.333px" font-weight="400">
   <text x="474.065" y="231.952" style="font-variant-caps:normal;font-variant-east-asian:normal;font-variant-ligatures:normal;font-variant-numeric:normal;line-height:1.25"><tspan x="474.065" y="231.952" style="font-variant-caps:normal;font-variant-east-asian:normal;font-variant-ligatures:normal;font-variant-numeric:normal">√</tspan></text>
   <text x="533.72601" y="232.427" style="font-variant-caps:normal;font-variant-east-asian:normal;font-variant-ligatures:normal;font-variant-numeric:normal;line-height:1.25"><tspan x="533.72601" y="232.427" style="font-variant-caps:normal;font-variant-east-asian:normal;font-variant-ligatures:normal;font-variant-numeric:normal">0</tspan></text>
   <text x="597.08502" y="232.207" style="font-variant-caps:normal;font-variant-east-asian:normal;font-variant-ligatures:normal;font-variant-numeric:normal;line-height:1.25"><tspan x="597.08502" y="232.207" style="font-variant-caps:normal;font-variant-east-asian:normal;font-variant-ligatures:normal;font-variant-numeric:normal">.</tspan></text>
   <text x="657.30798" y="232.53" style="font-variant-caps:normal;font-variant-east-asian:normal;font-variant-ligatures:normal;font-variant-numeric:normal;line-height:1.25;white-space:pre"><tspan x="657.30798" y="232.53" style="font-variant-caps:normal;font-variant-east-asian:normal;font-variant-ligatures:normal;font-variant-numeric:normal">,</tspan></text>
  </g>
  <text x="713.17401" y="232.84" font-size="24px" font-weight="600" style="line-height:1.25"><tspan x="713.17401" y="232.84" font-size="21.333px" font-weight="400" style="font-variant-caps:normal;font-variant-east-asian:normal;font-variant-ligatures:normal;font-variant-numeric:normal">+</tspan></text>
 </g>
 <g fill="#ffffff" font-family="'Noto Sans'" font-weight="600" stroke-width="1.162">
  <text x="178.91" y="278.923" font-size="26.667px" style="font-variant-caps:normal;font-variant-east-asian:normal;font-variant-ligatures:normal;font-variant-numeric:normal;line-height:1.25"><tspan x="178.91" y="278.923" font-weight="400" style="font-variant-caps:normal;font-variant-east-asian:normal;font-variant-ligatures:normal;font-variant-numeric:normal">⎇</tspan></text>
  <text x="633.83801" y="277.435" font-size="27.887px" style="line-height:1.25"><tspan x="633.83801" y="277.435" font-size="26.667px" font-weight="400" style="font-variant-caps:normal;font-variant-east-asian:normal;font-variant-ligatures:normal;font-variant-numeric:normal">⇮</tspan></text>
  <text x="37.250999" y="277.48001" font-size="26.667px" style="font-variant-caps:normal;font-variant-east-asian:normal;font-variant-ligatures:normal;font-variant-numeric:normal;line-height:1.25"><tspan x="37.250999" y="277.48001" font-weight="400" style="font-variant-caps:normal;font-variant-east-asian:normal;font-variant-ligatures:normal;font-variant-numeric:normal">⎈</tspan></text>
  <text x="113.35" y="277.41699" font-size="27.887px" style="line-height:1.25"><tspan x="113.35" y="277.41699" font-size="26.667px" style="font-variant-caps:normal;font-variant-east-asian:normal;font-variant-ligatures:normal;font-variant-numeric:normal">◊</tspan></text>
  <text x="838.72498" y="144.845" font-size="27.887px" style="line-height:1.25"><tspan x="838.72498" y="144.845" font-size="26.667px" font-weight="400" style="font-variant-caps:normal;font-variant-east-asian:normal;font-variant-ligatures:normal;font-variant-numeric:normal">⏎</tspan></text>
  <g font-size="26.667px">
   <text x="34.096001" y="98.699997" style="font-variant-caps:normal;font-variant-east-asian:normal;font-variant-ligatures:normal;font-variant-numeric:normal;line-height:1.25"><tspan x="34.096001" y="98.699997" font-weight="400" style="font-variant-caps:normal;font-variant-east-asian:normal;font-variant-ligatures:normal;font-variant-numeric:normal">↹</tspan></text>
   <text x="806.46399" y="220.396" style="font-variant-caps:normal;font-variant-east-asian:normal;font-variant-ligatures:normal;font-variant-numeric:normal;line-height:1.25"><tspan x="806.46399" y="220.396" font-weight="400" style="font-variant-caps:normal;font-variant-east-asian:normal;font-variant-ligatures:normal;font-variant-numeric:normal">⇧</tspan></text>
   <text x="41.445999" y="159.64999" style="font-variant-caps:normal;font-variant-east-asian:normal;font-variant-ligatures:normal;font-variant-numeric:normal;line-height:1.25"><tspan x="41.445999" y="159.64999" font-weight="400" style="font-variant-caps:normal;font-variant-east-asian:normal;font-variant-ligatures:normal;font-variant-numeric:normal">⇪</tspan></text>
   <text x="847.66498" y="40.139999" style="font-variant-caps:normal;font-variant-east-asian:normal;font-variant-ligatures:normal;font-variant-numeric:normal;line-height:1.25"><tspan x="847.66498" y="40.139999" font-weight="400" style="font-variant-caps:normal;font-variant-east-asian:normal;font-variant-ligatures:normal;font-variant-numeric:normal">⌫</tspan></text>
   <text x="56.290001" y="219.59" style="font-variant-caps:normal;font-variant-east-asian:normal;font-variant-ligatures:normal;font-variant-numeric:normal;line-height:1.25"><tspan x="56.290001" y="219.59" font-weight="400" style="font-variant-caps:normal;font-variant-east-asian:normal;font-variant-ligatures:normal;font-variant-numeric:normal">⇧</tspan></text>
   <text x="768.76099" y="278.29599" style="font-variant-caps:normal;font-variant-east-asian:normal;font-variant-ligatures:normal;font-variant-numeric:normal;line-height:1.25"><tspan x="768.76099" y="278.29599" font-weight="400" style="font-variant-caps:normal;font-variant-east-asian:normal;font-variant-ligatures:normal;font-variant-numeric:normal">≣</tspan></text>
   <text x="847.00403" y="277.52399" style="font-variant-caps:normal;font-variant-east-asian:normal;font-variant-ligatures:normal;font-variant-numeric:normal;line-height:1.25"><tspan x="847.00403" y="277.52399" font-weight="400" style="font-variant-caps:normal;font-variant-east-asian:normal;font-variant-ligatures:normal;font-variant-numeric:normal">⎈</tspan></text>
  </g>
  <text x="713.57703" y="277.875" font-size="27.887px" style="line-height:1.25"><tspan x="713.57703" y="277.875" font-size="26.667px" font-weight="700" style="font-variant-caps:normal;font-variant-east-asian:normal;font-variant-ligatures:normal;font-variant-numeric:normal">◊</tspan></text>
 </g>
 <g fill="#0000ff" font-family="'Noto Sans'" font-size="24px" font-weight="600">
  <text x="336.70401" y="51.987" style="line-height:1.25"><tspan x="336.70401" y="51.987" font-size="21.333px" font-weight="400" style="font-variant-caps:normal;font-variant-east-asian:normal;font-variant-ligatures:normal;font-variant-numeric:normal">…</tspan></text>
  <text x="281.254" y="49.948002" style="line-height:1.25"><tspan x="281.254" y="49.948002" font-size="21.333px" font-weight="400" style="font-variant-caps:normal;font-variant-east-asian:normal;font-variant-ligatures:normal;font-variant-numeric:normal">”</tspan></text>
  <text x="158.62801" y="51.866001" style="line-height:1.25"><tspan x="158.62801" y="51.866001" font-size="21.333px" font-weight="400" style="font-variant-caps:normal;font-variant-east-asian:normal;font-variant-ligatures:normal;font-variant-numeric:normal">⟨</tspan></text>
  <text x="223.196" y="51.771" style="line-height:1.25"><tspan x="223.196" y="51.771" font-size="21.333px" font-weight="400" style="font-variant-caps:normal;font-variant-east-asian:normal;font-variant-ligatures:normal;font-variant-numeric:normal">⟩</tspan></text>
  <text x="696.69098" y="52.527" style="line-height:1.25"><tspan x="696.69098" y="52.527" font-size="21.333px" font-weight="400" style="font-variant-caps:normal;font-variant-east-asian:normal;font-variant-ligatures:normal;font-variant-numeric:normal">Ω</tspan></text>
  <text x="755.46997" y="51.640999" style="line-height:1.25"><tspan x="755.46997" y="51.640999" font-size="21.333px" font-weight="400" style="font-variant-caps:normal;font-variant-east-asian:normal;font-variant-ligatures:normal;font-variant-numeric:normal">≈</tspan></text>
 </g>
</svg>
