<svg width="900" height="300" version="1.0" xmlns="http://www.w3.org/2000/svg"><defs><path id="a" d="M97.5 330H855v202.5H97.5z"/></defs><path d="M330 60h60v60h-60zM765 120h60v60h-60zM0 0h60v60H0V0zM60 0h60v60H60V0zM120 0h60v60h-60V0zM180 0h60v60h-60V0zM240 0h60v60h-60V0zM300 0h60v60h-60V0zM360 0h60v60h-60V0zM420 0h60v60h-60V0zM480 0h60v60h-60V0zM540 0h60v60h-60V0zM600 0h60v60h-60V0zM660 0h60v60h-60V0zM720 0h60v60h-60V0z" fill="#fff" fill-rule="evenodd" stroke="#000"/><path d="M780 0h120v60H780V0zM0 60h90v60H0V60z" fill="#ccc" fill-rule="evenodd" stroke="#000"/><path d="M90 60h60v60H90V60zM150 60h60v60h-60V60zM210 60h60v60h-60V60zM270 60h60v60h-60V60zM360 0h60v60h-60zM390 60h60v60h-60V60zM450 60h60v60h-60V60zM510 60h60v60h-60V60zM570 60h60v60h-60V60zM630 60h60v60h-60V60zM690 60h60v60h-60V60zM750 60h60v60h-60V60z" fill="#fff" fill-rule="evenodd" stroke="#000"/><path d="M0 120h105v60H0v-60z" fill="#4d4d4d" fill-rule="evenodd" stroke="#000"/><path d="M105 120h60v60h-60v-60zM165 120h60v60h-60v-60zM225 120h60v60h-60v-60zM285 120h60v60h-60v-60zM345 120h60v60h-60v-60zM405 120h60v60h-60v-60zM465 120h60v60h-60v-60zM525 120h60v60h-60v-60zM585 120h60v60h-60v-60zM645 120h60v60h-60v-60zM705 120h60v60h-60v-60z" fill="#fff" fill-rule="evenodd" stroke="#000"/><path d="M825 120h-15V60h90v120h-75.11l.11-60zM0 180h75.002v60H0v-60z" fill="#ccc" fill-rule="evenodd" stroke="#000"/><path d="M135 180h60v60h-60v-60zM195 180h60v60h-60v-60zM255 180h60v60h-60v-60zM315 180h60v60h-60v-60zM375 180h60v60h-60v-60zM435 180h60v60h-60v-60zM495 180h60v60h-60v-60zM555 180h60v60h-60v-60zM615 180h60v60h-60v-60zM675 180h60v60h-60v-60z" fill="#fff" fill-rule="evenodd" stroke="#000"/><path d="M735 180h165v60H735v-60zM0 240h90v60H0v-60zM810 240h90v60h-90v-60zM150 240h90v60h-90v-60zM600 240h90v60h-90v-60z" fill="#ccc" fill-rule="evenodd" stroke="#000"/><path d="M240 240h360v60H240v-60z" fill="#fff" fill-rule="evenodd" stroke="#000"/><path d="M90 240h60v60H90v-60zM690 240h60v60h-60v-60zM750 240h60v60h-60v-60z" fill="#e6e6e6" fill-rule="evenodd" stroke="#000"/><path d="M75 180h60v60H75v-60z" fill="#fff" fill-rule="evenodd" stroke="#000"/><text style="line-height:1.25;-inkscape-font-specification:'Noto Sans, Semi-Bold';font-variant-ligatures:normal;font-variant-caps:normal;font-variant-numeric:normal;font-variant-east-asian:normal" x="96.321" y="84.733" font-weight="600" font-size="24" font-family="Noto Sans"><tspan x="96.321" y="84.733">Ū</tspan></text><text style="line-height:1.25;-inkscape-font-specification:'Noto Sans, Semi-Bold'" x="157.554" y="84.755" font-weight="600" font-size="24" font-family="Noto Sans"><tspan x="157.554" y="84.755">Ė</tspan></text><text style="line-height:1.25;-inkscape-font-specification:'Noto Sans, Semi-Bold'" x="217.954" y="84.549" font-weight="600" font-size="24" font-family="Noto Sans"><tspan x="217.954" y="84.549">Y</tspan></text><text style="line-height:1.25;-inkscape-font-specification:'Noto Sans, Semi-Bold'" x="275.553" y="84.873" font-weight="600" font-size="24" font-family="Noto Sans"><tspan x="275.553" y="84.873">O</tspan></text><text style="line-height:1.25;-inkscape-font-specification:'Noto Sans, Semi-Bold'" x="335.411" y="85.065" font-weight="600" font-size="24" font-family="Noto Sans"><tspan x="335.411" y="85.065">Q</tspan></text><text style="line-height:1.25;-inkscape-font-specification:'Noto Sans, Semi-Bold'" x="401.61" y="84.619" font-weight="600" font-size="24" font-family="Noto Sans"><tspan x="401.61" y="84.619">J</tspan></text><text style="line-height:1.25;-inkscape-font-specification:'Noto Sans, Semi-Bold'" x="455.349" y="84.739" font-weight="600" font-size="24" font-family="Noto Sans"><tspan x="455.349" y="84.739">N</tspan></text><text style="line-height:1.25;-inkscape-font-specification:'Noto Sans, Semi-Bold'" x="517.822" y="84.544" font-weight="600" font-size="24" font-family="Noto Sans"><tspan x="517.822" y="84.544">K</tspan></text><text style="line-height:1.25;-inkscape-font-specification:'Noto Sans, Semi-Bold'" x="576.429" y="84.492" font-weight="600" font-size="24" font-family="Noto Sans"><tspan x="576.429" y="84.492">G</tspan></text><text style="line-height:1.25;-inkscape-font-specification:'Noto Sans, Semi-Bold'" x="637.36" y="84.99" font-weight="600" font-size="24" font-family="Noto Sans"><tspan x="637.36" y="84.99">B</tspan></text><text style="line-height:1.25;-inkscape-font-specification:'Noto Sans, Semi-Bold'" x="696.617" y="85.023" font-weight="600" font-size="24" font-family="Noto Sans"><tspan x="696.617" y="85.023">C</tspan></text><text style="line-height:1.25;-inkscape-font-specification:'Noto Sans, Semi-Bold'" x="757.832" y="84.757" font-weight="600" font-size="24" font-family="Noto Sans"><tspan x="757.832" y="84.757">F</tspan></text><text style="line-height:1.25;-inkscape-font-specification:'Noto Sans, Semi-Bold'" x="773.712" y="144.722" font-weight="600" font-size="24" font-family="Noto Sans"><tspan x="773.712" y="144.722">Z</tspan></text><text style="line-height:1.25;-inkscape-font-specification:'Noto Sans, Semi-Bold'" x="712.983" y="144.788" font-weight="600" font-size="24" font-family="Noto Sans"><tspan x="712.983" y="144.788">Ž</tspan></text><text style="line-height:1.25;-inkscape-font-specification:'Noto Sans, Semi-Bold'" x="653.614" y="144.499" font-weight="600" font-size="24" font-family="Noto Sans"><tspan x="653.614" y="144.499">P</tspan></text><text style="line-height:1.25;-inkscape-font-specification:'Noto Sans, Semi-Bold'" x="593.729" y="144.969" font-weight="600" font-size="24" font-family="Noto Sans"><tspan x="593.729" y="144.969">S</tspan></text><text style="line-height:1.25;-inkscape-font-specification:'Noto Sans, Semi-Bold'" x="533.145" y="144.408" font-weight="600" font-size="24" font-family="Noto Sans"><tspan x="533.145" y="144.408">T</tspan></text><text style="line-height:1.25;-inkscape-font-specification:'Noto Sans, Semi-Bold'" x="473.092" y="144.383" font-weight="600" font-size="24" font-family="Noto Sans"><tspan x="473.092" y="144.383">R</tspan></text><text style="line-height:1.25;-inkscape-font-specification:'Noto Sans, Semi-Bold'" x="411.73" y="144.696" font-weight="600" font-size="24" font-family="Noto Sans"><tspan x="411.73" y="144.696">L</tspan></text><text style="line-height:1.25;-inkscape-font-specification:'Noto Sans, Semi-Bold'" x="350.997" y="144.647" font-weight="600" font-size="24" font-family="Noto Sans"><tspan x="350.997" y="144.647">H</tspan></text><text style="line-height:1.25;-inkscape-font-specification:'Noto Sans, Semi-Bold'" x="292.123" y="144.575" font-weight="600" font-size="24" font-family="Noto Sans"><tspan x="292.123" y="144.575">A</tspan></text><text style="line-height:1.25;-inkscape-font-specification:'Noto Sans, Semi-Bold'" x="235.605" y="144.734" font-weight="600" font-size="24" font-family="Noto Sans"><tspan x="235.605" y="144.734">I</tspan></text><text style="line-height:1.25;-inkscape-font-specification:'Noto Sans, Semi-Bold'" x="172.67" y="144.804" font-weight="600" font-size="24" font-family="Noto Sans"><tspan x="172.67" y="144.804">E</tspan></text><text style="line-height:1.25;-inkscape-font-specification:'Noto Sans, Semi-Bold'" x="110.911" y="144.766" font-weight="600" font-size="24" font-family="Noto Sans"><tspan x="110.911" y="144.766">U</tspan></text><text style="line-height:1.25;-inkscape-font-specification:'Noto Sans, Semi-Bold'" x="90" y="202.5" font-weight="600" font-size="24" font-family="Noto Sans"/><text style="line-height:1.25;-inkscape-font-specification:'Noto Sans, Semi-Bold'" x="85.964" y="231.763" font-weight="600" font-size="24" font-family="Noto Sans"><tspan x="85.964" y="231.763" font-weight="700">-</tspan></text><text style="line-height:1.25;-inkscape-font-specification:'Noto Sans, Semi-Bold'" x="8.253" y="53.424" font-weight="600" font-size="24" font-family="Noto Sans"><tspan x="8.253" y="53.424">+</tspan></text><text style="line-height:1.25;-inkscape-font-specification:'Noto Sans, Semi-Bold'" x="45" y="7.5" font-weight="600" font-size="24" font-family="Noto Sans"/><text style="line-height:1.25;-inkscape-font-specification:'Noto Sans, Semi-Bold'" x="71.714" y="52.097" font-weight="600" font-size="24" font-family="Noto Sans"><tspan x="71.714" y="52.097">!</tspan></text><text style="line-height:1.25;-inkscape-font-specification:'Noto Sans, Semi-Bold'" x="131.761" y="52.492" font-weight="600" font-size="24" font-family="Noto Sans"><tspan x="131.761" y="52.492">:</tspan></text><text style="line-height:1.25;-inkscape-font-specification:'Noto Sans, Semi-Bold'" x="191.674" y="52.411" font-weight="600" font-size="24" font-family="Noto Sans"><tspan x="191.674" y="52.411">.</tspan></text><text style="line-height:1.25;-inkscape-font-specification:'Noto Sans, Semi-Bold'" x="248.661" y="51.443" font-weight="600" font-size="24" font-family="Noto Sans"><tspan x="248.661" y="51.443">*</tspan></text><text style="line-height:1.25;-inkscape-font-specification:'Noto Sans, Semi-Bold'" x="309.619" y="50.344" font-weight="600" font-size="24" font-family="Noto Sans"><tspan x="309.619" y="50.344">_</tspan></text><text style="line-height:1.25;-inkscape-font-specification:'Noto Sans, Semi-Bold'" x="364.051" y="51.905" font-weight="600" font-size="24" font-family="Noto Sans"><tspan x="364.051" y="51.905">—</tspan></text><text style="line-height:1.25;-inkscape-font-specification:'Noto Sans, Semi-Bold'" x="428.406" y="53.324" font-weight="600" font-size="24" font-family="Noto Sans"><tspan x="428.406" y="53.324">=</tspan></text><text style="line-height:1.25;-inkscape-font-specification:'Noto Sans, Semi-Bold'" x="492.135" y="52.291" font-weight="600" font-size="24" font-family="Noto Sans"><tspan x="492.135" y="52.291">,</tspan></text><text style="line-height:1.25;-inkscape-font-specification:'Noto Sans, Semi-Bold'" x="551.669" y="52.75" font-weight="600" font-size="24" font-family="Noto Sans"><tspan x="551.669" y="52.75">;</tspan></text><text style="line-height:1.25;-inkscape-font-specification:'Noto Sans, Semi-Bold'" x="610.039" y="52.459" font-weight="600" font-size="24" font-family="Noto Sans"><tspan x="610.039" y="52.459">/</tspan></text><text style="line-height:1.25;-inkscape-font-specification:'Noto Sans, Semi-Bold'" x="730.291" y="52.383" font-weight="600" font-size="24" font-family="Noto Sans"><tspan x="730.291" y="52.383">?</tspan></text><text style="line-height:1.25;-inkscape-font-specification:'Noto Sans, Semi-Bold'" x="141.178" y="204.914" font-weight="600" font-size="24" font-family="Noto Sans"><tspan x="141.178" y="204.914">Ų</tspan></text><text style="line-height:1.25;-inkscape-font-specification:'Noto Sans, Semi-Bold'" x="202.939" y="204.777" font-weight="600" font-size="24" font-family="Noto Sans"><tspan x="202.939" y="204.777">Ę</tspan></text><text style="line-height:1.25;-inkscape-font-specification:'Noto Sans, Semi-Bold'" x="265.869" y="204.773" font-weight="600" font-size="24" font-family="Noto Sans"><tspan x="265.869" y="204.773">Į</tspan></text><text style="line-height:1.25;-inkscape-font-specification:'Noto Sans, Semi-Bold'" x="321.92" y="204.994" font-weight="600" font-size="24" font-family="Noto Sans"><tspan x="321.92" y="204.994">Ą</tspan></text><text style="line-height:1.25;-inkscape-font-specification:'Noto Sans, Semi-Bold'" x="382.215" y="204.981" font-weight="600" font-size="24" font-family="Noto Sans"><tspan x="382.215" y="204.981">X</tspan></text><text style="line-height:1.25;-inkscape-font-specification:'Noto Sans, Semi-Bold'" x="442.504" y="204.838" font-weight="600" font-size="24" font-family="Noto Sans"><tspan x="442.504" y="204.838">V</tspan></text><text style="line-height:1.25;-inkscape-font-specification:'Noto Sans, Semi-Bold'" x="499.063" y="204.653" font-weight="600" font-size="24" font-family="Noto Sans"><tspan x="499.063" y="204.653">M</tspan></text><text style="line-height:1.25;-inkscape-font-specification:'Noto Sans, Semi-Bold'" x="562.141" y="204.685" font-weight="600" font-size="24" font-family="Noto Sans"><tspan x="562.141" y="204.685">D</tspan></text><text style="line-height:1.25;-inkscape-font-specification:'Noto Sans, Semi-Bold'" x="623.147" y="204.945" font-weight="600" font-size="24" font-family="Noto Sans"><tspan x="623.147" y="204.945">Š</tspan></text><text style="line-height:1.25;-inkscape-font-specification:'Noto Sans, Semi-Bold'" x="681.896" y="204.91" font-weight="600" font-size="24" font-family="Noto Sans"><tspan x="681.896" y="204.91">Č</tspan></text><text style="line-height:1.25;-inkscape-font-specification:'Noto Sans, Semi-Bold';font-variant-ligatures:normal;font-variant-caps:normal;font-variant-numeric:normal;font-variant-east-asian:normal" x="178.91" y="278.923" font-weight="600" font-size="26.667" font-family="Noto Sans" stroke-width="1.162" fill="#fff"><tspan x="178.91" y="278.923" style="-inkscape-font-specification:'Noto Sans, Semi-Bold';font-variant-ligatures:normal;font-variant-caps:normal;font-variant-numeric:normal;font-variant-east-asian:normal" font-weight="400">⎇</tspan></text><text style="line-height:1.25;-inkscape-font-specification:'Noto Sans, Semi-Bold'" x="633.994" y="277.346" font-weight="600" font-size="27.887" font-family="Noto Sans" fill="#fff" stroke-width="1.162"><tspan x="633.994" y="277.346" style="-inkscape-font-specification:'Noto Sans, Semi-Bold';font-variant-ligatures:normal;font-variant-caps:normal;font-variant-numeric:normal;font-variant-east-asian:normal" font-weight="400" font-size="26.667">⇮</tspan></text><text style="line-height:1.25;-inkscape-font-specification:'Noto Sans, Semi-Bold';font-variant-ligatures:normal;font-variant-caps:normal;font-variant-numeric:normal;font-variant-east-asian:normal" x="37.251" y="277.48" font-weight="600" font-size="26.667" font-family="Noto Sans" fill="#fff" stroke-width="1.162"><tspan x="37.251" y="277.48" style="-inkscape-font-specification:'Noto Sans, Semi-Bold';font-variant-ligatures:normal;font-variant-caps:normal;font-variant-numeric:normal;font-variant-east-asian:normal" font-weight="400">⎈</tspan></text><text style="line-height:1.25;-inkscape-font-specification:'Noto Sans, Semi-Bold'" x="113.35" y="277.417" font-weight="600" font-size="27.887" font-family="Noto Sans" stroke-width="1.162" fill="#fff"><tspan x="113.35" y="277.417" style="-inkscape-font-specification:'Noto Sans, Semi-Bold';font-variant-ligatures:normal;font-variant-caps:normal;font-variant-numeric:normal;font-variant-east-asian:normal" font-size="26.667">◊</tspan></text><text style="line-height:1.25;-inkscape-font-specification:'Noto Sans, Semi-Bold'" x="849.272" y="132.623" font-weight="600" font-size="27.887" font-family="Noto Sans" stroke-width="1.162" fill="#fff"><tspan x="849.272" y="132.623" style="-inkscape-font-specification:'Noto Sans, Semi-Bold';font-variant-ligatures:normal;font-variant-caps:normal;font-variant-numeric:normal;font-variant-east-asian:normal" font-weight="400" font-size="26.667">⏎</tspan></text><text style="line-height:1.25;-inkscape-font-specification:'Noto Sans, Semi-Bold';font-variant-ligatures:normal;font-variant-caps:normal;font-variant-numeric:normal;font-variant-east-asian:normal" x="34.096" y="98.7" font-weight="600" font-size="26.667" font-family="Noto Sans" stroke-width="1.162" fill="#fff"><tspan x="34.096" y="98.7" style="-inkscape-font-specification:'Noto Sans, Semi-Bold';font-variant-ligatures:normal;font-variant-caps:normal;font-variant-numeric:normal;font-variant-east-asian:normal" font-weight="400">↹</tspan></text><text style="line-height:1.25;-inkscape-font-specification:'Noto Sans, Semi-Bold';font-variant-ligatures:normal;font-variant-caps:normal;font-variant-numeric:normal;font-variant-east-asian:normal" x="806.464" y="220.396" font-weight="600" font-size="26.667" font-family="Noto Sans" stroke-width="1.162" fill="#fff"><tspan x="806.464" y="220.396" style="-inkscape-font-specification:'Noto Sans, Semi-Bold';font-variant-ligatures:normal;font-variant-caps:normal;font-variant-numeric:normal;font-variant-east-asian:normal" font-weight="400">⇧</tspan></text><text style="line-height:1.25;-inkscape-font-specification:'Noto Sans, Semi-Bold';font-variant-ligatures:normal;font-variant-caps:normal;font-variant-numeric:normal;font-variant-east-asian:normal" x="41.446" y="159.65" font-weight="600" font-size="26.667" font-family="Noto Sans" stroke-width="1.162" fill="#fff"><tspan x="41.446" y="159.65" style="-inkscape-font-specification:'Noto Sans, Semi-Bold';font-variant-ligatures:normal;font-variant-caps:normal;font-variant-numeric:normal;font-variant-east-asian:normal" font-weight="400">⇪</tspan></text><text style="line-height:1.25;-inkscape-font-specification:'Noto Sans, Semi-Bold';font-variant-ligatures:normal;font-variant-caps:normal;font-variant-numeric:normal;font-variant-east-asian:normal" x="817.679" y="40.185" font-weight="600" font-size="26.667" font-family="Noto Sans" stroke-width="1.162" fill="#fff"><tspan x="817.679" y="40.185" style="-inkscape-font-specification:'Noto Sans, Semi-Bold';font-variant-ligatures:normal;font-variant-caps:normal;font-variant-numeric:normal;font-variant-east-asian:normal" font-weight="400">⌫</tspan></text><text style="line-height:1.25;-inkscape-font-specification:'Noto Sans, Semi-Bold';font-variant-ligatures:normal;font-variant-caps:normal;font-variant-numeric:normal;font-variant-east-asian:normal" x="26.298" y="219.327" font-weight="600" font-size="26.667" font-family="Noto Sans" stroke-width="1.162" fill="#fff"><tspan x="26.298" y="219.327" style="-inkscape-font-specification:'Noto Sans, Semi-Bold';font-variant-ligatures:normal;font-variant-caps:normal;font-variant-numeric:normal;font-variant-east-asian:normal" font-weight="400">⇧</tspan></text><text style="line-height:1.25;-inkscape-font-specification:'Noto Sans, Semi-Bold';font-variant-ligatures:normal;font-variant-caps:normal;font-variant-numeric:normal;font-variant-east-asian:normal" x="768.761" y="278.296" font-weight="600" font-size="26.667" font-family="Noto Sans" stroke-width="1.162" fill="#fff"><tspan x="768.761" y="278.296" style="-inkscape-font-specification:'Noto Sans, Semi-Bold';font-variant-ligatures:normal;font-variant-caps:normal;font-variant-numeric:normal;font-variant-east-asian:normal" font-weight="400">≣</tspan></text><text style="line-height:1.25;-inkscape-font-specification:'Noto Sans, Semi-Bold';font-variant-ligatures:normal;font-variant-caps:normal;font-variant-numeric:normal;font-variant-east-asian:normal" x="847.004" y="277.524" font-weight="600" font-size="26.667" font-family="Noto Sans" fill="#fff" stroke-width="1.162"><tspan x="847.004" y="277.524" style="-inkscape-font-specification:'Noto Sans, Semi-Bold';font-variant-ligatures:normal;font-variant-caps:normal;font-variant-numeric:normal;font-variant-east-asian:normal" font-weight="400">⎈</tspan></text><text style="line-height:1.25;-inkscape-font-specification:'Noto Sans, Semi-Bold'" x="713.577" y="277.875" font-weight="600" font-size="27.887" font-family="Noto Sans" stroke-width="1.162" fill="#fff"><tspan x="713.577" y="277.875" style="-inkscape-font-specification:'Noto Sans, Semi-Bold';font-variant-ligatures:normal;font-variant-caps:normal;font-variant-numeric:normal;font-variant-east-asian:normal" font-weight="700" font-size="26.667">◊</tspan></text><text style="line-height:1.25;-inkscape-font-specification:'Sans, Normal';font-variant-ligatures:none" x="105" y="105" font-size="21.333" font-family="Sans"/><text style="line-height:1.25;-inkscape-font-specification:'Sans, Normal';font-variant-ligatures:none" x="443.258" y="172.795" font-size="21.333" font-family="Sans" fill="#f0f"><tspan x="443.258" y="172.795">Ł</tspan></text><text style="line-height:1.25;-inkscape-font-specification:'Sans, Normal';font-variant-ligatures:none" x="666.206" y="52.495" font-size="21.333" font-family="Sans"><tspan x="666.206" y="52.495">w</tspan></text></svg>