<svg width="1027.336" height="868.155" viewBox="0 0 271.816 229.699" xmlns="http://www.w3.org/2000/svg"><g aria-label="À à Á á Ã ã    È è É é Ẽ ẽ        Ì  Í  Ĩ      Ý ý Ỹ ỹ      Ñ ñ  Ò ò Ó ó Õ õÙ ù Ú ú Ũ ũ        " style="line-height:1.25;-inkscape-font-specification:'Palemonas Bold'" font-weight="400" font-size="16.933" font-family="Palemonas" letter-spacing=".003" word-spacing="0" stroke-width=".265"><path d="M11.559 14.18H7.731v-.397l1.19-.264-1.347-3.498H3.588L2.282 13.52l1.463.264v.397H.248v-.397l1.38-.264 3.705-9.873 1.158-.223 3.886 10.096 1.182.264zm-7.78-4.655h3.605l-1.82-4.713zm2.38-6.854L2.903 0h1.753l1.728 2.596zM17.542 9.26V8.144q.877-.86 2.398-.86 2.365 0 2.365 2.067v4.168l1.083.264v.397h-2.224v-.72q-.298.249-.687.43-.38.174-.628.29-.24.107-.471.157-.232.05-.48.05-.364 0-.678-.108-.314-.107-.554-.314-.231-.207-.364-.496-.132-.29-.132-.653 0-.48.182-.844.182-.363.48-.636.305-.281.694-.48.397-.198.81-.339.422-.149.951-.256.538-.108.877-.207v-.703q0-1.612-1.456-1.612-1.488 0-1.653 1.521zm3.622 1.174q-.364.141-.951.298-.579.157-.992.405-.406.24-.687.596-.28.347-.28.876 0 .223.098.43.108.207.273.372.166.157.372.256.207.1.414.1.29 0 .794-.174t.959-.488zm.024-4.307l-3.257-2.67h1.753l1.728 2.595zM49.518 14.18h-3.829v-.397l1.191-.264-1.348-3.498h-3.985l-1.306 3.498 1.463.264v.397h-3.497v-.397l1.38-.264 3.705-9.873 1.157-.223 3.886 10.096 1.183.264zm-7.78-4.655h3.604l-1.819-4.713zM46.722 0l-3.266 2.67-.223-.074L44.962 0zM55.5 9.26V8.144q.877-.86 2.399-.86 2.364 0 2.364 2.067v4.168l1.084.264v.397h-2.225v-.72q-.297.249-.686.43-.38.174-.628.29-.24.107-.472.157-.231.05-.48.05-.363 0-.677-.108-.314-.107-.554-.314-.232-.207-.364-.496-.132-.29-.132-.653 0-.48.182-.844.182-.363.48-.636.305-.281.694-.48.397-.198.81-.339.422-.149.95-.256.538-.108.877-.207v-.703q0-1.612-1.455-1.612-1.488 0-1.653 1.521zm3.622 1.174q-.363.141-.95.298-.58.157-.993.405-.405.24-.686.596-.281.347-.281.876 0 .223.1.43.107.207.272.372.165.157.372.256.207.1.413.1.29 0 .794-.174.505-.174.96-.488zm1.356-6.978l-3.266 2.67-.223-.074 1.728-2.596zM87.476 14.18h-3.828v-.397l1.19-.264-1.347-3.498h-3.985l-1.307 3.498 1.464.264v.397h-3.498v-.397l1.381-.264 3.704-9.873 1.158-.223 3.886 10.096 1.182.264zm-7.78-4.655h3.605l-1.82-4.713zm-.157-7.094q.074-.91.438-1.298.364-.397 1.009-.397.488 0 1.108.438.628.43.918.43.347 0 .545-.182.199-.19.232-.686h.297q-.033.893-.388 1.306-.347.414-.992.38-.48 0-1.059-.43-.578-.438-.984-.438-.314 0-.554.199-.231.198-.272.678zM93.46 9.26V8.144q.876-.86 2.397-.86 2.365 0 2.365 2.067v4.168l1.083.264v.397h-2.224v-.72q-.298.249-.686.43-.38.174-.629.29-.24.107-.47.157-.232.05-.48.05-.364 0-.678-.108-.315-.107-.554-.314-.232-.207-.364-.496-.132-.29-.132-.653 0-.48.181-.844.182-.363.48-.636.306-.281.695-.48.396-.198.81-.339.421-.149.95-.256.538-.108.877-.207v-.703q0-1.612-1.455-1.612-1.488 0-1.654 1.521zm3.621 1.174q-.364.141-.95.298-.58.157-.993.405-.405.24-.686.596-.281.347-.281.876 0 .223.099.43.107.207.273.372.165.157.372.256.206.1.413.1.29 0 .794-.174t.959-.488zm-3.49-4.547q.075-.91.44-1.298.363-.397 1.008-.397.488 0 1.108.438.628.43.918.43.347 0 .545-.182.199-.19.232-.686h.297q-.033.893-.388 1.306-.347.414-.992.38-.48 0-1.059-.43-.579-.437-.984-.437-.314 0-.554.198-.231.198-.272.678zM125.427 14.18h-.182q-1.679.025-2.357.488-.719.488-.719 1.521 0 .554.306.893.314.347.777.347.662 0 1.15-.339l.165.29q-.587.364-1.075.496t-.876.132q-.678 0-1.092-.388-.413-.38-.413-.993 0-.719.297-1.124.298-.397.794-.769.505-.372.505-.984 0-.38-.19-.926l-1.075-2.803h-3.986l-1.306 3.498 1.463.264v.397h-3.497v-.397l1.38-.264 3.705-9.873 1.157-.223 3.886 10.096 1.183.264zm-7.78-4.655h3.604l-1.819-4.713zM122.64 0l-3.266 2.67-.223-.074L120.88 0zM131.41 9.26V8.144q.885-.86 2.398-.86 2.365 0 2.365 2.067v4.168l1.083.264v.397h-1.216q-.339.24-.595.455-.256.215-.422.438-.165.231-.248.496-.083.265-.083.595 0 .546.282.86.28.323.735.323.257 0 .571-.116.322-.108.703-.356l.099.248q-.62.397-1.125.563-.496.173-.892.173-.596 0-.96-.355-.363-.356-.363-.96 0-.305.132-.644.132-.331.364-.653.24-.315.562-.596.322-.273.711-.471-.207-.108-.314-.29-.108-.19-.166-.43-.223.19-.504.331-.281.14-.52.257-.24.115-.555.223-.306.116-.686.116-.364 0-.678-.108-.314-.107-.554-.314-.232-.207-.364-.496-.132-.29-.132-.653 0-.604.29-1.042.297-.438.752-.736.454-.306 1-.488.554-.182 1.075-.29.265-.057.488-.107.223-.05.388-.099v-.703q0-1.612-1.455-1.612-1.496 0-1.653 1.521zm3.621 1.174q-.272.108-.595.207-.322.1-.645.215-.322.108-.628.256-.298.15-.53.356-.23.198-.371.48-.14.28-.14.661 0 .223.098.43.108.207.273.372.165.157.372.256.207.1.414.1.14 0 .347-.042.207-.05.438-.132.24-.091.488-.215.256-.124.48-.273zm1.365-6.978l-3.266 2.67-.223-.074 1.728-2.596zM163.386 14.18h-.182q-1.679.025-2.357.488-.72.488-.72 1.521 0 .554.307.893.314.347.777.347.661 0 1.15-.339l.165.29q-.587.364-1.075.496t-.877.132q-.678 0-1.091-.388-.413-.38-.413-.993 0-.719.297-1.124.298-.397.794-.769.504-.372.504-.984 0-.38-.19-.926l-1.075-2.803h-3.985l-1.306 3.498 1.463.264v.397h-3.497v-.397l1.38-.264 3.705-9.873 1.157-.223 3.886 10.096 1.183.264zm-7.78-4.655h3.604l-1.819-4.713zm-.15-7.094q.075-.91.439-1.298.363-.397 1.008-.397.488 0 1.108.438.629.43.918.43.347 0 .546-.182.198-.19.231-.686h.298q-.033.893-.389 1.306-.347.414-.992.38-.48 0-1.058-.43-.58-.438-.984-.438-.314 0-.554.199-.232.198-.273.678zM169.369 9.26V8.144q.884-.86 2.397-.86 2.365 0 2.365 2.067v4.168l1.083.264v.397H174q-.34.24-.595.455-.257.215-.422.438-.165.231-.248.496-.083.265-.083.595 0 .546.281.86.281.323.736.323.256 0 .57-.116.323-.108.703-.356l.1.248q-.62.397-1.125.563-.496.173-.893.173-.595 0-.959-.355-.364-.356-.364-.96 0-.305.133-.644.132-.331.363-.653.24-.315.563-.596.322-.273.71-.471-.206-.108-.313-.29-.108-.19-.166-.43-.223.19-.504.331-.281.14-.521.257-.24.115-.554.223-.306.116-.686.116-.364 0-.678-.108-.315-.107-.554-.314-.232-.207-.364-.496-.132-.29-.132-.653 0-.604.289-1.042.298-.438.752-.736.455-.306 1-.488.555-.182 1.076-.29l.488-.107q.223-.05.388-.099v-.703q0-1.612-1.455-1.612-1.497 0-1.654 1.521zm3.621 1.174q-.273.108-.595.207-.323.1-.645.215-.323.108-.628.256-.298.15-.53.356-.231.198-.372.48-.14.28-.14.661 0 .223.099.43.107.207.273.372.165.157.372.256.207.1.413.1.14 0 .348-.042.206-.05.438-.132.24-.091.488-.215.256-.124.48-.273zm-3.563-4.547q.074-.91.438-1.298.364-.397 1.009-.397.487 0 1.107.438.629.43.918.43.348 0 .546-.182.198-.19.231-.686h.298q-.033.893-.388 1.306-.348.414-.993.38-.48 0-1.058-.43-.579-.437-.984-.437-.314 0-.554.198-.231.198-.273.678zM7.235 49.485v3.217h-.397L6.44 51.32H3.588v4.663h4.829l.81-1.993h.397l-.264 2.522H.587v-.397l1.596-.264V46.64l-1.596-.265v-.396h8.541l.14 2.356h-.396l-.596-1.827H3.588v4.283h2.853l.397-1.307zm-1.298-4.398l-3.258-2.671h1.753l1.728 2.596zM19.899 55.868q.578 0 1.05-.248.48-.256.926-.727l.248.223q-.265.322-.587.612-.323.29-.695.512-.372.224-.785.348-.405.132-.835.132-.62 0-1.166-.273-.538-.281-.935-.752-.396-.472-.628-1.1-.223-.637-.223-1.348 0-.719.248-1.372.248-.662.686-1.158.438-.504 1.034-.802.603-.297 1.306-.297.678 0 1.19.264.513.265.852.711.348.447.521 1.034.174.587.174 1.232h-4.961q0 .645.215 1.199t.57.959q.356.397.819.628.471.223.976.223zm1.157-3.448q0-.38-.116-.81-.107-.438-.33-.81-.224-.372-.57-.612-.34-.248-.803-.248-.471 0-.818.24-.34.231-.57.603-.224.364-.348.802-.124.439-.157.835zm-1.083-3.96l-3.258-2.67h1.753l1.728 2.596zM44.565 49.485v3.217h-.397l-.397-1.381H40.92v4.663h4.828l.81-1.993h.398l-.265 2.522h-8.773v-.397l1.596-.264V46.64l-1.596-.265v-.396h8.541l.141 2.356h-.397l-.595-1.827h-4.688v4.283h2.852l.397-1.307zm.728-7.07l-3.266 2.672-.224-.075 1.728-2.596zM57.229 55.868q.579 0 1.05-.248.48-.256.926-.727l.248.223q-.265.322-.587.612-.322.29-.694.512-.373.224-.786.348-.405.132-.835.132-.62 0-1.166-.273-.537-.281-.934-.752-.397-.472-.629-1.1-.223-.637-.223-1.348 0-.719.248-1.372.248-.662.686-1.158.439-.504 1.034-.802.604-.297 1.306-.297.678 0 1.191.264.513.265.852.711.347.447.52 1.034.174.587.174 1.232h-4.96q0 .645.214 1.199.215.554.57.959.356.397.82.628.47.223.975.223zm1.157-3.448q0-.38-.115-.81-.108-.438-.331-.81-.223-.372-.57-.612-.34-.248-.803-.248-.47 0-.818.24-.34.231-.57.603-.224.364-.348.802-.124.439-.157.835zm.72-6.63l-3.266 2.67-.223-.074 1.728-2.597zM81.895 49.485v3.217h-.397l-.396-1.381h-2.853v4.663h4.829l.81-1.993h.397l-.265 2.522h-8.772v-.397l1.595-.264V46.64l-1.595-.265v-.396h8.54l.141 2.356h-.397l-.595-1.827H78.25v4.283h2.853l.396-1.307zm-4.084-4.72q.074-.91.438-1.299.364-.397 1.009-.397.488 0 1.108.438.628.43.917.43.348 0 .546-.182.199-.19.232-.686h.297q-.033.893-.388 1.306-.348.414-.992.38-.48 0-1.059-.43-.579-.437-.984-.437-.314 0-.554.198-.231.199-.273.678zM94.56 55.868q.578 0 1.05-.248.479-.256.925-.727l.248.223q-.264.322-.587.612-.322.29-.694.512-.372.224-.786.348-.405.132-.835.132-.62 0-1.166-.273-.537-.281-.934-.752-.397-.472-.628-1.1-.223-.637-.223-1.348 0-.719.248-1.372.248-.662.686-1.158.438-.504 1.033-.802.604-.297 1.307-.297.678 0 1.19.264.513.265.852.711.347.447.52 1.034.174.587.174 1.232h-4.96q0 .645.215 1.199t.57.959q.356.397.819.628.47.223.975.223zm1.157-3.448q0-.38-.116-.81-.107-.438-.33-.81-.224-.372-.571-.612-.34-.248-.802-.248-.471 0-.819.24-.339.231-.57.603-.224.364-.348.802-.124.439-.157.835zm-4.052-4.2q.075-.91.439-1.298.363-.397 1.008-.397.488 0 1.108.438.629.43.918.43.347 0 .546-.182.198-.19.231-.686h.298q-.033.893-.389 1.307-.347.413-.992.38-.48 0-1.058-.43-.579-.438-.984-.438-.314 0-.554.198-.232.199-.273.678zM119.217 49.485v3.217h-.397l-.396-1.381h-2.853v4.663h4.829l.81-1.993h.397l-.265 2.522h-2q-.86 0-1.431.579-.57.579-.57 1.348 0 .587.297.934.306.347.77.347.429 0 .677-.099.256-.1.471-.24l.166.29q-.587.363-1.075.496-.48.132-.877.132-.661 0-1.091-.438-.422-.438-.422-1.116 0-.736.447-1.29.455-.554 1.24-.943h-5.374v-.397l1.595-.264V46.64l-1.595-.265v-.396h8.54l.141 2.356h-.397l-.595-1.827h-4.688v4.283h2.853l.397-1.307zm.736-7.07l-3.266 2.672-.223-.075 1.728-2.596zM134.122 55.116q-.554.736-1.761 1.422-1.397.819-1.397 1.96 0 .545.28.86.282.322.737.322.256 0 .57-.116.322-.107.703-.355l.099.248q-.62.397-1.124.562-.497.174-.893.174-.596 0-.96-.356-.363-.355-.363-.96 0-.363.132-.694.132-.322.33-.603.207-.281.455-.505.248-.214.48-.363-.041.008-.091.008h-.1q-.62 0-1.165-.273-.537-.281-.934-.752-.397-.472-.629-1.1-.223-.637-.223-1.348 0-.719.248-1.372.248-.662.686-1.158.439-.504 1.034-.802.603-.297 1.306-.297.678 0 1.19.264.514.265.853.711.347.447.52 1.034.174.587.174 1.232h-4.96q0 .645.214 1.199.215.554.57.959.356.397.82.628.47.223.975.223.579 0 1.05-.248.48-.256.926-.727zm-1.067-2.696q0-.38-.115-.81-.108-.438-.331-.81-.223-.372-.57-.612-.34-.248-.803-.248-.47 0-.818.24-.34.231-.57.603-.224.364-.348.802-.124.439-.157.835zm.711-6.63l-3.265 2.67-.224-.074 1.728-2.597zM156.548 49.485v3.217h-.397l-.397-1.381H152.9v4.663h4.829l.81-1.993h.397l-.264 2.522h-2.001q-.86 0-1.43.579-.571.579-.571 1.348 0 .587.297.934.306.347.77.347.43 0 .677-.099.257-.1.472-.24l.165.29q-.587.363-1.075.496-.48.132-.876.132-.662 0-1.092-.438-.421-.438-.421-1.116 0-.736.446-1.29.455-.554 1.24-.943H149.9v-.397l1.596-.264V46.64l-1.596-.265v-.396h8.541l.14 2.356h-.396l-.596-1.827h-4.688v4.283h2.853l.397-1.307zm-4.077-4.72q.075-.91.439-1.299.363-.397 1.008-.397.488 0 1.108.438.629.43.918.43.347 0 .546-.182.198-.19.231-.686h.298q-.033.893-.389 1.306-.347.414-.992.38-.48 0-1.058-.43-.579-.437-.984-.437-.314 0-.554.198-.232.199-.273.678zM171.452 55.116q-.554.736-1.76 1.422-1.398.819-1.398 1.96 0 .545.281.86.281.322.736.322.256 0 .57-.116.323-.107.703-.355l.1.248q-.62.397-1.125.562-.496.174-.893.174-.595 0-.96-.356-.363-.355-.363-.96 0-.363.132-.694.133-.322.331-.603.207-.281.455-.505.248-.214.48-.363-.042.008-.092.008h-.099q-.62 0-1.166-.273-.537-.281-.934-.752-.397-.472-.628-1.1-.224-.637-.224-1.348 0-.719.249-1.372.248-.662.686-1.158.438-.504 1.033-.802.604-.297 1.307-.297.678 0 1.19.264.513.265.852.711.347.447.52 1.034.174.587.174 1.232h-4.96q0 .645.214 1.199.215.554.571.959.356.397.819.628.47.223.975.223.579 0 1.05-.248.48-.256.926-.727zm-1.066-2.696q0-.38-.116-.81-.108-.438-.33-.81-.224-.372-.571-.612-.34-.248-.802-.248-.472 0-.819.24-.339.231-.57.603-.224.364-.348.802-.124.439-.157.835zm-4.06-4.2q.074-.91.438-1.298.364-.397 1.009-.397.488 0 1.108.438.628.43.918.43.347 0 .545-.182.199-.19.232-.686h.298q-.034.893-.39 1.307-.346.413-.991.38-.48 0-1.059-.43-.578-.438-.983-.438-.315 0-.554.198-.232.199-.273.678zM193.878 49.485v3.217h-.397l-.397-1.381h-2.852v4.663h4.828l.81-1.993h.398l-.265 2.522h-8.773v-.397l1.596-.264V46.64l-1.596-.265v-.396h8.541l.141 2.356h-.397l-.595-1.827h-4.688v4.283h2.852l.397-1.307zm-.885-5.432q0 .339-.231.57-.223.224-.57.224-.34 0-.571-.223-.223-.232-.223-.571 0-.347.223-.57.231-.232.57-.232.348 0 .57.232.232.223.232.57zm2.167-4.035l-3.266 2.67-.224-.074 1.728-2.596zM206.558 55.868q.58 0 1.05-.248.48-.256.927-.727l.248.223q-.265.322-.587.612-.323.29-.695.512-.372.224-.785.348-.406.132-.836.132-.62 0-1.165-.273-.538-.281-.935-.752-.397-.472-.628-1.1-.223-.637-.223-1.348 0-.719.248-1.372.248-.662.686-1.158.438-.504 1.034-.802.603-.297 1.306-.297.678 0 1.19.264.513.265.852.711.347.447.521 1.034.174.587.174 1.232h-4.961q0 .645.215 1.199t.57.959q.356.397.819.628.471.223.975.223zm1.158-3.448q0-.38-.116-.81-.107-.438-.33-.81-.224-.372-.571-.612-.339-.248-.802-.248-.471 0-.819.24-.339.231-.57.603-.223.364-.347.802-.124.439-.157.835zm-.868-5.242q0 .34-.232.57-.223.224-.57.224-.34 0-.57-.223-.224-.232-.224-.57 0-.348.223-.571.232-.232.57-.232.348 0 .571.232.232.223.232.57zm2.274-4.68l-3.266 2.671-.224-.074 1.728-2.596zM231.217 49.485v3.217h-.397l-.397-1.381h-2.853v4.663h4.829l.81-1.993h.397l-.264 2.522h-8.773v-.397l1.596-.264V46.64l-1.596-.265v-.396h8.541l.14 2.356h-.396l-.596-1.827h-4.688v4.283h2.853l.397-1.307zm-.885-5.432q0 .339-.232.57-.223.224-.57.224-.34 0-.57-.223-.224-.232-.224-.571 0-.347.223-.57.232-.232.57-.232.348 0 .571.232.232.223.232.57zm-3.076-1.852q.075-.91.438-1.298.364-.397 1.01-.397.487 0 1.107.438.628.43.918.43.347 0 .545-.182.199-.19.232-.686h.298q-.033.893-.389 1.306-.347.414-.992.38-.48 0-1.058-.43-.58-.437-.984-.437-.315 0-.554.198-.232.198-.273.678zM243.897 55.868q.579 0 1.05-.248.48-.256.926-.727l.248.223q-.264.322-.587.612-.322.29-.694.512-.372.224-.786.348-.405.132-.835.132-.62 0-1.166-.273-.537-.281-.934-.752-.397-.472-.628-1.1-.224-.637-.224-1.348 0-.719.248-1.372.248-.662.687-1.158.438-.504 1.033-.802.604-.297 1.307-.297.678 0 1.19.264.513.265.852.711.347.447.52 1.034.174.587.174 1.232h-4.96q0 .645.214 1.199.215.554.57.959.356.397.82.628.47.223.975.223zm1.158-3.448q0-.38-.116-.81-.108-.438-.33-.81-.224-.372-.571-.612-.34-.248-.802-.248-.472 0-.819.24-.339.231-.57.603-.224.364-.348.802-.124.439-.157.835zm-.869-5.242q0 .34-.231.57-.223.224-.57.224-.34 0-.571-.223-.223-.232-.223-.57 0-.348.223-.571.231-.232.57-.232.348 0 .57.232.232.223.232.57zm-3.026-2.249q.075-.909.438-1.298.364-.397 1.01-.397.487 0 1.107.439.629.43.918.43.347 0 .546-.182.198-.19.231-.687h.298q-.033.893-.389 1.307-.347.413-.992.38-.48 0-1.058-.43-.58-.438-.984-.438-.314 0-.554.198-.232.199-.273.678zM4.77 88.71l-1.273.264v9.211l1.274.265v.396H.819v-.396l1.273-.265v-9.21L.819 88.71v-.397H4.77zm-1.512-1.29L0 84.75h1.753l1.728 2.595zM13.243 98.185l1.157.265v.396h-3.456v-.396l1.158-.265v-5.374h-1.158v-.273l1.902-.67h.397zm.198-8.673q0 .339-.231.57-.224.223-.57.223-.34 0-.571-.223-.224-.231-.224-.57 0-.348.224-.57.231-.232.57-.232.347 0 .57.231.232.223.232.57zm-.471-2.01l-3.258-2.67h1.753l1.728 2.596zM34.015 88.71l-1.274.264v9.211l1.274.265v.396h-3.952v-.396l1.273-.265v-9.21l-1.273-.265v-.397h3.952zm.752-3.96l-3.266 2.67-.223-.075 1.728-2.596zM42.487 98.185l1.157.265v.396h-3.456v-.396l1.158-.265v-5.374h-1.158v-.273l1.902-.67h.397zm.198-8.673q0 .339-.231.57-.224.223-.57.223-.34 0-.571-.223-.224-.231-.224-.57 0-.348.224-.57.231-.232.57-.232.347 0 .57.231.232.223.232.57zm1.902-4.68l-3.266 2.67-.223-.074 1.728-2.596zM63.259 88.71l-1.274.264v9.211l1.274.265v.396h-3.952v-.396l1.273-.265v-9.21l-1.273-.265v-.397h3.952zm-4.25-1.613q.074-.91.438-1.298.364-.397 1.009-.397.488 0 1.108.439.628.43.918.43.347 0 .545-.182.199-.19.232-.687h.297q-.033.893-.388 1.307-.347.413-.992.38-.48 0-1.059-.43-.578-.438-.984-.438-.314 0-.554.198-.231.199-.272.678zM71.73 98.185l1.158.265v.396h-3.456v-.396l1.158-.265v-5.374h-1.158v-.273l1.902-.67h.397zm.2-8.673q0 .339-.232.57-.224.223-.57.223-.34 0-.571-.223-.224-.231-.224-.57 0-.348.224-.57.231-.232.57-.232.347 0 .57.231.232.223.232.57zm-3.044-2.25q.075-.909.439-1.297.363-.397 1.008-.397.488 0 1.108.438.629.43.918.43.347 0 .546-.182.198-.19.231-.686h.298q-.033.893-.389 1.306-.347.414-.992.38-.48 0-1.058-.43-.579-.438-.984-.438-.314 0-.554.199-.232.198-.273.678zM92.503 88.71l-1.274.264v9.211l1.274.265v.396h-.389q-.81 0-1.405.521-.596.521-.596 1.406 0 .587.298.934.306.348.769.348.43 0 .678-.1.256-.099.471-.24l.166.29q-.588.364-1.075.496-.48.132-.877.132-.661 0-1.091-.438-.422-.438-.422-1.116 0-.662.471-1.257.472-.595 1.323-.975h-2.273v-.397l1.273-.265v-9.21l-1.273-.265v-.397h3.952zm.752-3.96l-3.266 2.67-.223-.075 1.728-2.596zM102.132 98.846h-.52q-.72.025-1.299.604t-.579 1.38q0 .547.282.86.28.323.735.323.257 0 .571-.116.322-.107.703-.355l.099.248q-.612.397-1.116.562-.505.174-.901.174-.596 0-.96-.356-.363-.355-.363-.959 0-.744.512-1.372.513-.629 1.315-.993h-1.935v-.396l1.158-.265v-5.374h-1.158v-.273l1.902-.67h.397v6.317l1.157.265zm-.959-9.334q0 .339-.231.57-.224.223-.57.223-.34 0-.571-.223-.224-.231-.224-.57 0-.348.224-.57.231-.232.57-.232.347 0 .57.231.232.223.232.57zm1.902-4.68l-3.266 2.67-.223-.074 1.728-2.596zM121.747 88.71l-1.274.264v9.211l1.274.265v.396h-.389q-.81 0-1.405.521-.596.521-.596 1.406 0 .587.298.934.306.348.769.348.43 0 .678-.1.256-.099.471-.24l.166.29q-.588.364-1.075.496-.48.132-.877.132-.661 0-1.091-.438-.422-.438-.422-1.116 0-.662.471-1.257.472-.595 1.323-.975h-2.273v-.397l1.273-.265v-9.21l-1.273-.265v-.397h3.952zm-4.25-1.613q.074-.91.438-1.298.364-.397 1.009-.397.488 0 1.108.439.628.43.918.43.347 0 .545-.182.199-.19.232-.687h.297q-.033.893-.388 1.307-.347.413-.992.38-.48 0-1.059-.43-.578-.438-.984-.438-.314 0-.554.198-.231.199-.272.678zM131.376 98.846h-.52q-.72.025-1.299.604-.578.579-.578 1.38 0 .547.28.86.282.323.736.323.257 0 .571-.116.322-.107.703-.355l.099.248q-.612.397-1.116.562-.505.174-.901.174-.596 0-.96-.356-.363-.355-.363-.959 0-.744.512-1.372.513-.629 1.315-.993h-1.935v-.396l1.158-.265v-5.374h-1.158v-.273l1.902-.67h.397v6.317l1.157.265zm-.959-9.334q0 .339-.231.57-.224.223-.57.223-.34 0-.571-.223-.224-.231-.224-.57 0-.348.224-.57.231-.232.57-.232.347 0 .57.231.232.223.232.57zm-3.043-2.25q.075-.909.439-1.297.363-.397 1.008-.397.488 0 1.108.438.629.43.918.43.347 0 .546-.182.198-.19.231-.686h.298q-.033.893-.389 1.306-.347.414-.992.38-.48 0-1.058-.43-.579-.438-.984-.438-.314 0-.554.199-.232.198-.273.678zM157.853 88.71l-1.364.264-3.398 5.672v3.539l1.687.265v.396h-4.78v-.396l1.687-.265v-3.349l-3.828-5.862-1.34-.264v-.397h4.342v.397l-1.406.264 3.216 4.862 2.935-4.862-1.413-.264v-.397h3.662zm-2.984-3.87l-3.266 2.67-.224-.074 1.728-2.596zM164.622 101.914q1.406-.769 1.844-1.877l.43-1.025-2.919-6.201-1.042-.273v-.397h3.399v.397l-1.125.273 2.233 4.795 1.918-4.795-1.298-.273v-.397h2.81v.397l-1.008.273-3.117 7.813q-.504 1.265-1.207 2.166zm5.234-13.791l-3.266 2.67-.223-.074 1.728-2.596zM196.986 88.71l-1.364.264-3.398 5.672v3.539l1.686.265v.396h-4.779v-.396l1.687-.265v-3.349l-3.828-5.862-1.34-.264v-.397h4.341v.397l-1.405.264 3.216 4.862 2.935-4.862-1.414-.264v-.397h3.663zm-7.764-1.613q.075-.91.439-1.298.363-.397 1.008-.397.488 0 1.108.439.629.43.918.43.347 0 .546-.182.198-.19.231-.687h.298q-.033.893-.389 1.307-.347.413-.992.38-.48 0-1.058-.43-.579-.438-.984-.438-.314 0-.554.198-.232.199-.273.678zM203.755 101.914q1.405-.769 1.844-1.877l.43-1.025-2.919-6.201-1.042-.273v-.397h3.398v.397l-1.124.273 2.232 4.795 1.919-4.795-1.299-.273v-.397h2.812v.397l-1.01.273-3.116 7.813q-.505 1.265-1.207 2.166zm.256-11.36q.075-.91.438-1.299.364-.397 1.01-.397.487 0 1.107.439.628.43.918.43.347 0 .546-.182.198-.19.231-.687h.298q-.033.893-.389 1.307-.347.413-.992.38-.48 0-1.058-.43-.58-.438-.984-.438-.315 0-.554.198-.232.199-.273.678zM229.256 88.71l-1.273.264V99.5l-2.05 3.29-.422-.272q.38-.554.595-1.084.215-.52.323-1.017.107-.487.124-.942.024-.455.024-.877v-9.624l-1.273-.264v-.397h3.952zm-4.25-1.695q.075-.91.439-1.298.364-.397 1.008-.397.488 0 1.108.438.629.43.918.43.347 0 .546-.182.198-.19.231-.686h.298q-.033.893-.389 1.306-.347.413-.992.38-.48 0-1.058-.43-.579-.438-.984-.438-.314 0-.554.199-.231.198-.273.678zM237.728 100.326l-1.356 2.464-.372-.272q.224-.248.34-.505.115-.248.173-.554.058-.297.066-.678.008-.38.008-.901v-7.07h-1.158v-.272l1.902-.67h.397zm.199-10.814q0 .339-.232.57-.223.223-.57.223-.34 0-.57-.223-.224-.231-.224-.57 0-.348.223-.57.232-.232.57-.232.348 0 .571.231.232.223.232.57zm-3.068-2.25q.075-.909.438-1.297.364-.397 1.01-.397.487 0 1.107.438.629.43.918.43.347 0 .546-.182.198-.19.231-.686h.298q-.033.893-.389 1.306-.347.414-.992.38-.48 0-1.058-.43-.58-.438-.984-.438-.314 0-.554.199-.232.198-.273.678zM8.814 138.708L8.5 141.18H.819v-.397l1.356-.265v-9.21l-1.356-.265v-.397H5.1v.397l-1.52.264v9.344h4.175l.661-1.943zm-8.227-9.36q.074-.91.438-1.298.364-.397 1.009-.397.488 0 1.108.438.628.43.918.43.347 0 .545-.182.199-.19.232-.686h.298q-.034.893-.389 1.306-.347.414-.992.38-.48 0-1.059-.43-.578-.438-.983-.438-.315 0-.554.199-.232.198-.273.678zM18.262 141.18h-3.457v-.397l1.158-.265v-9.475h-1.158v-.397l1.91-.728h.389v10.6l1.158.265zm-4.002-12.41q.074-.91.438-1.299.364-.397 1.009-.397.487 0 1.108.438.628.43.917.43.348 0 .546-.182.198-.19.232-.686h.297q-.033.893-.388 1.307-.348.413-.993.38-.48 0-1.058-.43-.579-.438-.984-.438-.314 0-.554.198-.231.199-.273.678zM40.555 141.18h-.314l-4.225-9.195h-.033l-.34 8.533 1.315.265v.397h-3.522v-.397l1.414-.265.637-9.21-1.191-.265v-.397h2.555l3.919 8.55 3.894-8.55h2.489v.397l-1.141.264.645 9.211 1.397.265v.397h-4.349v-.397l1.563-.265-.554-8.533h-.042zm-2.092-11.584q.074-.91.438-1.298.364-.397 1.009-.397.488 0 1.108.438.628.43.918.43.347 0 .545-.182.199-.19.232-.686h.298q-.033.893-.389 1.306-.347.414-.992.38-.48 0-1.059-.43-.578-.437-.983-.437-.315 0-.554.198-.232.198-.273.678zM66.39 141.18h-3.456v-.397l1.158-.265v-4.217q0-1.339-1.257-1.339-.744 0-2.166 1v4.556l1.157.265v.397H58.37v-.397l1.157-.265v-4.217q0-1.339-1.256-1.339-.76 0-2.167 1.025v4.531l1.158.265v.397h-3.456v-.397l1.157-.265v-5.374h-1.157v-.273l1.902-.67h.396v1.373q1.563-1.29 2.91-1.29 1.373 0 1.605 1.298 1.612-1.298 2.96-1.298 1.654 0 1.654 1.885v4.35l1.157.264zm-8.566-8.293q.075-.91.438-1.298.364-.397 1.01-.397.487 0 1.107.438.629.43.918.43.347 0 .546-.182.198-.19.231-.686h.298q-.033.893-.389 1.306-.347.414-.992.38-.48 0-1.058-.43-.58-.438-.984-.438-.314 0-.554.199-.232.198-.273.678zM93.47 131.043l-1.388.264-.15 9.988h-.355l-7.755-9.26.099 8.483 1.637.265v.397h-3.754v-.397l1.332-.265.14-9.21-1.43-.265v-.397h2.497l7.086 8.434-.141-7.773-1.587-.264v-.397h3.77zm-8.11-1.447q.074-.91.438-1.298.364-.397 1.009-.397.487 0 1.108.438.628.43.917.43.348 0 .546-.182.199-.19.232-.686h.297q-.033.893-.388 1.306-.348.414-.993.38-.48 0-1.058-.43-.579-.437-.984-.437-.314 0-.554.198-.231.198-.273.678zM107.325 141.18h-3.456v-.397l1.158-.265v-4.217q0-1.339-1.257-1.339-.76 0-2.166 1.025v4.531l1.157.265v.397h-3.456v-.397l1.158-.265v-5.374h-1.158v-.273l1.902-.67h.397v1.373q1.562-1.29 2.91-1.29 1.654 0 1.654 1.885v4.35l1.157.264zm-6.283-8.293q.074-.91.438-1.298.364-.397 1.008-.397.488 0 1.108.438.629.43.918.43.347 0 .546-.182.198-.19.231-.686h.298q-.033.893-.389 1.306-.347.414-.992.38-.48 0-1.058-.43-.579-.438-.984-.438-.314 0-.554.199-.231.198-.273.678zM132.967 141.18h-2.604q-.248-.662-.455-1.298-.207-.637-.446-1.2-.24-.57-.546-1.041-.306-.48-.744-.819-.438-.347-1.042-.537-.595-.19-1.422-.19-.066 0-.1.016v4.407l1.778.265v.397h-4.779v-.397l1.596-.265V131.3l-1.596-.256v-.397h.96q.446 0 1.322-.074.877-.075 2.2-.075.967 0 1.653.223.687.215 1.117.587.438.373.636.869.207.487.207 1.033 0 .53-.174.976-.173.446-.52.785-.348.331-.877.546-.53.215-1.249.281v.033q.406.058.703.157.306.1.538.248.24.14.43.323.19.182.363.405.34.438.58.852.239.413.43.9.247.637.437 1.043.199.405.414.636.215.224.488.306.28.083.702.083zm-3.836-7.863q0-.496-.1-.935-.09-.438-.33-.769-.231-.33-.645-.52-.405-.199-1.033-.199-.43 0-.786.017-.347.016-.628.05v4.67q.19.017.364.026.181.008.355.008.645 0 1.166-.133.52-.132.885-.413.363-.29.554-.728.198-.446.198-1.075zm-4.448-4.134q.074-.91.438-1.299.364-.396 1.009-.396.487 0 1.108.438.628.43.917.43.348 0 .546-.182.198-.19.232-.686h.297q-.033.893-.388 1.306-.348.413-.993.38-.48 0-1.058-.43-.579-.438-.984-.438-.314 0-.554.199-.231.198-.273.678zM143.449 135.905l-.984-.364q-.199-.075-.298-.075-.57 0-1.075.86v4.192l1.38.265v.397h-3.678v-.397l1.157-.265v-5.374h-1.157v-.273l1.901-.67h.397v1.646q.752-1.455 1.637-1.455.157 0 .314.057l.844.306zm-4.383-3.208q.075-.91.439-1.299.363-.396 1.008-.396.488 0 1.108.438.629.43.918.43.347 0 .546-.182.198-.19.231-.686h.298q-.033.893-.389 1.306-.347.413-.992.38-.48 0-1.058-.43-.579-.438-.984-.438-.314 0-.554.199-.232.198-.273.678zM12.055 177.957q0 2.488-1.563 4.159-1.562 1.67-3.952 1.67-2.447 0-4.026-1.505-1.571-1.505-1.571-3.795 0-2.505 1.62-4.134 1.62-1.629 4.052-1.629 2.224 0 3.828 1.505 1.612 1.496 1.612 3.729zm-1.587.562q0-2.24-1.15-3.803-1.149-1.563-3.109-1.563-1.72 0-2.703 1.422-.984 1.422-.984 3.382 0 2.265 1.182 3.836 1.183 1.563 3.159 1.563 1.695 0 2.645-1.38.96-1.382.96-3.457zm-3.804-6.763l-3.257-2.671h1.752l1.728 2.596zM25.645 180.214q0 1.472-.992 2.489t-2.48 1.017q-1.58 0-2.589-1.017-1.008-1.026-1.008-2.489 0-1.604 1.033-2.596 1.042-1 2.514-1 1.53 0 2.522 1.033 1 1.033 1 2.563zm-1.273.389q0-1.464-.728-2.514-.72-1.058-1.761-1.058-.802 0-1.422.769-.612.76-.612 1.835 0 1.472.711 2.572.72 1.1 1.794 1.1.794 0 1.406-.745.612-.752.612-1.96zm-2.1-5.143l-3.258-2.67h1.753l1.728 2.595zM52.8 177.957q0 2.488-1.563 4.159-1.562 1.67-3.952 1.67-2.447 0-4.026-1.505-1.571-1.505-1.571-3.795 0-2.505 1.62-4.134 1.62-1.629 4.052-1.629 2.224 0 3.828 1.505 1.612 1.496 1.612 3.729zm-1.587.562q0-2.24-1.15-3.803-1.149-1.563-3.108-1.563-1.72 0-2.704 1.422-.984 1.422-.984 3.382 0 2.265 1.182 3.836 1.183 1.563 3.159 1.563 1.695 0 2.646-1.38.959-1.382.959-3.457zm-1.513-9.434l-3.266 2.67-.224-.074 1.728-2.596zM66.39 180.214q0 1.472-.992 2.489t-2.48 1.017q-1.58 0-2.588-1.017-1.01-1.026-1.01-2.489 0-1.604 1.034-2.596 1.042-1 2.514-1 1.53 0 2.522 1.033 1 1.033 1 2.563zm-1.273.389q0-1.464-.728-2.514-.72-1.058-1.76-1.058-.803 0-1.423.769-.612.76-.612 1.835 0 1.472.711 2.572.72 1.1 1.794 1.1.794 0 1.406-.745.612-.752.612-1.96zm.471-7.814l-3.266 2.67-.223-.074 1.728-2.596zM93.545 177.957q0 2.488-1.562 4.159-1.563 1.67-3.953 1.67-2.447 0-4.026-1.505-1.571-1.505-1.571-3.795 0-2.505 1.62-4.134 1.62-1.629 4.052-1.629 2.224 0 3.828 1.505 1.612 1.496 1.612 3.729zm-1.587.562q0-2.24-1.15-3.803-1.149-1.563-3.108-1.563-1.72 0-2.704 1.422-.984 1.422-.984 3.382 0 2.265 1.182 3.836 1.183 1.563 3.159 1.563 1.695 0 2.646-1.38.959-1.382.959-3.457zm-6.243-6.838q.075-.91.438-1.298.364-.397 1.01-.397.487 0 1.107.438.629.43.918.43.347 0 .546-.182.198-.19.231-.686h.298q-.033.893-.389 1.307-.347.413-.992.38-.48 0-1.058-.43-.58-.438-.984-.438-.314 0-.554.198-.232.199-.273.678zM107.135 180.214q0 1.472-.992 2.489t-2.48 1.017q-1.58 0-2.588-1.017-1.01-1.026-1.01-2.489 0-1.604 1.034-2.596 1.042-1 2.514-1 1.53 0 2.522 1.033 1 1.033 1 2.563zm-1.273.389q0-1.464-.728-2.514-.719-1.058-1.76-1.058-.803 0-1.423.769-.612.76-.612 1.835 0 1.472.711 2.572.72 1.1 1.794 1.1.794 0 1.406-.745.612-.752.612-1.96zm-4.54-5.383q.075-.91.439-1.298.364-.397 1.009-.397.487 0 1.108.438.628.43.917.43.348 0 .546-.182.198-.19.232-.686h.297q-.033.893-.388 1.306-.348.414-.993.38-.48 0-1.058-.43-.579-.437-.984-.437-.314 0-.554.198-.231.198-.273.678zM11.683 215.71l-1.538.264v5.788q0 .992-.223 1.802-.223.802-.703 1.373-.471.562-1.215.868-.745.306-1.778.306-1.133 0-1.96-.306-.826-.314-1.364-.877-.537-.562-.794-1.339-.256-.785-.256-1.736v-5.879l-1.455-.265v-.396h4.349v.396l-1.488.265v5.689q0 .835.173 1.53.174.685.538 1.181.364.497.934.77.579.272 1.373.272.868 0 1.471-.256.612-.256 1-.736.39-.488.563-1.19.182-.703.182-1.588v-5.672l-1.662-.265v-.396h3.853zm-4.738-.976l-3.257-2.67H5.44l1.729 2.595zM25.347 225.846H23.09v-1.042q-.851.645-1.563.951-.71.298-1.207.298-.76 0-1.281-.554-.513-.554-.513-1.257v-4.432H17.37v-.272l1.901-.67h.397v4.762q0 .943.38 1.34.389.388 1.141.388.315 0 .819-.256.513-.256 1.083-.703v-4.589h-1.157v-.272l1.901-.67h.397v6.317l1.116.264zm-3.307-8.053l-3.258-2.67h1.753l1.728 2.596zM51.874 215.71l-1.538.264v5.788q0 .992-.223 1.802-.223.802-.703 1.373-.471.562-1.215.868-.744.306-1.778.306-1.133 0-1.96-.306-.826-.314-1.364-.877-.537-.562-.793-1.339-.257-.785-.257-1.736v-5.879l-1.455-.265v-.396h4.35v.396l-1.49.265v5.689q0 .835.174 1.53.174.685.538 1.181.364.497.934.77.579.272 1.373.272.868 0 1.471-.256.612-.256 1-.736.39-.488.563-1.19.182-.703.182-1.588v-5.672l-1.662-.265v-.396h3.853zm-2.48-3.647l-3.266 2.67-.224-.074 1.729-2.596zM65.538 225.846h-2.257v-1.042q-.851.645-1.562.951-.711.298-1.208.298-.76 0-1.281-.554-.513-.554-.513-1.257v-4.432H57.56v-.272l1.901-.67h.397v4.762q0 .943.38 1.34.39.388 1.142.388.314 0 .818-.256.513-.256 1.083-.703v-4.589h-1.157v-.272l1.901-.67h.397v6.317l1.116.264zm-1.513-10.724l-3.266 2.671-.223-.074 1.728-2.597zM92.065 215.71l-1.538.264v5.788q0 .992-.223 1.802-.223.802-.703 1.373-.471.562-1.215.868-.744.306-1.778.306-1.133 0-1.96-.306-.826-.314-1.364-.877-.537-.562-.793-1.339-.257-.785-.257-1.736v-5.879l-1.455-.265v-.396h4.35v.396l-1.49.265v5.689q0 .835.175 1.53.173.685.537 1.181.364.497.934.77.58.272 1.373.272.868 0 1.472-.256.611-.256 1-.736.389-.488.562-1.19.182-.703.182-1.588v-5.672l-1.662-.265v-.396h3.853zm-7.755-1.696q.074-.91.438-1.298.364-.397 1.009-.397.487 0 1.108.439.628.43.917.43.348 0 .546-.182.198-.19.232-.687h.297q-.033.893-.388 1.307-.348.413-.993.38-.48 0-1.058-.43-.579-.438-.984-.438-.314 0-.554.198-.231.199-.273.678zM105.73 225.846h-2.258v-1.042q-.851.645-1.562.951-.711.298-1.207.298-.761 0-1.282-.554-.513-.554-.513-1.257v-4.432h-1.157v-.272l1.901-.67h.397v4.762q0 .943.38 1.34.39.388 1.142.388.314 0 .818-.256.513-.256 1.083-.703v-4.589h-1.157v-.272l1.902-.67h.396v6.317l1.117.264zm-6.26-8.293q.075-.91.439-1.298.364-.397 1.009-.397.487 0 1.107.438.629.43.918.43.347 0 .546-.182.198-.19.231-.686h.298q-.033.893-.389 1.307-.347.413-.992.38-.48 0-1.058-.43-.579-.438-.984-.438-.314 0-.554.198-.231.199-.273.678zM132.265 215.71l-1.538.264v5.788q0 .992-.224 1.802-.223.802-.702 1.373-.472.562-1.216.868-.132.05-.57.24-.438.198-.943.562-.496.372-.504 1.232 0 .587.297.934.306.347.77.347.43 0 .677-.099.257-.099.472-.24l.165.29q-.587.364-1.075.496-.48.132-.876.132-.662 0-1.092-.438-.421-.438-.421-1.116 0-.736.397-1.224.396-.488 1.083-.81h-.157q-1.133 0-1.96-.306-.827-.314-1.364-.877-.538-.562-.794-1.339-.256-.785-.256-1.736v-5.879l-1.455-.265v-.396h4.349v.396l-1.489.265v5.689q0 .835.174 1.53.174.685.537 1.182.364.496.935.768.578.273 1.372.273.868 0 1.472-.256.612-.256 1-.736.389-.488.563-1.19.182-.703.182-1.588v-5.672l-1.662-.265v-.396h3.853zm-2.49-3.647l-3.265 2.67-.223-.074 1.728-2.596zM145.929 225.846h-.86q-.496 0-.843.174-.34.182-.554.463-.215.281-.314.637-.091.355-.091.71 0 .199.057.406.067.215.19.388.133.174.323.281.19.108.447.108.256 0 .57-.116.323-.107.703-.355l.1.248q-.621.397-1.125.562-.496.174-.893.174-.306 0-.554-.124-.24-.124-.414-.315-.173-.19-.264-.421-.091-.232-.091-.455 0-1.546 1.356-2.356v-1.05q-.852.644-1.563.95-.711.298-1.207.298-.38 0-.711-.157-.323-.149-.57-.397-.24-.256-.381-.579-.132-.33-.132-.678v-4.432h-1.158v-.272l1.902-.67h.397v4.762q0 .943.38 1.34.389.388 1.141.388.314 0 .819-.256.512-.256 1.083-.703v-4.589h-1.158v-.272l1.902-.67h.397v6.317l1.116.264zm-1.521-10.724l-3.266 2.671-.224-.074 1.729-2.597zM172.456 215.71l-1.538.264v5.788q0 .992-.223 1.802-.224.802-.703 1.373-.471.562-1.216.868-.132.05-.57.24-.438.198-.943.562-.496.372-.504 1.232 0 .587.298.934.306.347.769.347.43 0 .678-.099.256-.099.47-.24l.166.29q-.587.364-1.075.496-.48.132-.876.132-.662 0-1.092-.438-.421-.438-.421-1.116 0-.736.397-1.224t1.083-.81h-.157q-1.133 0-1.96-.306-.827-.314-1.364-.877-.538-.562-.794-1.339-.256-.785-.256-1.736v-5.879l-1.455-.265v-.396h4.349v.396l-1.489.265v5.689q0 .835.174 1.53.174.685.538 1.182.363.496.934.768.579.273 1.372.273.869 0 1.472-.256.612-.256 1-.736.39-.488.563-1.19.182-.703.182-1.588v-5.672l-1.662-.265v-.396h3.853zm-7.764-1.696q.074-.91.438-1.298.364-.397 1.009-.397.488 0 1.108.439.628.43.918.43.347 0 .545-.182.199-.19.232-.687h.297q-.033.893-.388 1.307-.347.413-.992.38-.48 0-1.059-.43-.578-.438-.984-.438-.314 0-.554.198-.231.199-.272.678zM186.12 225.846h-.86q-.496 0-.843.174-.34.182-.554.463-.215.281-.314.637-.091.355-.091.71 0 .199.058.406.066.215.19.388.132.174.322.281.19.108.447.108.256 0 .57-.116.323-.107.703-.355l.1.248q-.62.397-1.125.562-.496.174-.893.174-.306 0-.554-.124-.24-.124-.413-.315-.174-.19-.265-.421-.091-.232-.091-.455 0-1.546 1.356-2.356v-1.05q-.852.644-1.563.95-.71.298-1.207.298-.38 0-.71-.157-.323-.149-.571-.397-.24-.256-.38-.579-.133-.33-.133-.678v-4.432h-1.158v-.272l1.902-.67h.397v4.762q0 .943.38 1.34.389.388 1.141.388.315 0 .819-.256.513-.256 1.083-.703v-4.589h-1.158v-.272l1.902-.67h.397v6.317l1.116.264zm-6.267-8.293q.074-.91.438-1.298.364-.397 1.009-.397.488 0 1.108.438.628.43.917.43.348 0 .546-.182.199-.19.232-.686h.297q-.033.893-.388 1.307-.348.413-.992.38-.48 0-1.059-.43-.579-.438-.984-.438-.314 0-.554.198-.231.199-.273.678zM212.647 215.71l-1.538.264v5.788q0 .992-.223 1.802-.224.802-.703 1.373-.471.562-1.215.868-.745.306-1.778.306-1.133 0-1.96-.306-.827-.314-1.364-.877-.537-.562-.794-1.339-.256-.785-.256-1.736v-5.879l-1.455-.265v-.396h4.349v.396l-1.488.265v5.689q0 .835.173 1.53.174.685.538 1.181.363.497.934.77.579.272 1.372.272.869 0 1.472-.256.612-.256 1-.736.39-.488.563-1.19.182-.703.182-1.588v-5.672l-1.662-.265v-.396h3.853zm-7.665-2.126h4.664v.596h-4.664zm5.317-3.82l-3.266 2.671-.223-.074 1.728-2.596zM226.311 225.846h-2.257v-1.042q-.852.645-1.563.951-.71.298-1.207.298-.76 0-1.281-.554-.513-.554-.513-1.257v-4.432h-1.158v-.272l1.902-.67h.397v4.762q0 .943.38 1.34.389.388 1.141.388.315 0 .819-.256.513-.256 1.083-.703v-4.589h-1.158v-.272l1.902-.67h.397v6.317l1.116.264zm-6.333-9.583h4.663v.596h-4.663zm5.143-3.87l-3.266 2.671-.224-.074 1.728-2.596zM252.846 215.71l-1.538.264v5.788q0 .992-.223 1.802-.223.802-.703 1.373-.471.562-1.215.868-.744.306-1.778.306-1.133 0-1.96-.306-.826-.314-1.364-.877-.537-.562-.793-1.339-.257-.785-.257-1.736v-5.879l-1.455-.265v-.396h4.35v.396l-1.49.265v5.689q0 .835.175 1.53.173.685.537 1.181.364.497.934.77.58.272 1.373.272.868 0 1.472-.256.611-.256 1-.736.389-.488.562-1.19.182-.703.182-1.588v-5.672l-1.662-.265v-.396h3.853zm-7.664-2.126h4.663v.596h-4.663zm.008-1.389q.074-.91.438-1.298.364-.397 1.009-.397.487 0 1.107.439.629.43.918.43.348 0 .546-.182.198-.19.231-.687h.298q-.033.893-.388 1.307-.348.413-.993.38-.48 0-1.058-.43-.579-.438-.984-.438-.314 0-.554.198-.231.199-.273.678zM266.51 225.846h-2.257v-1.042q-.851.645-1.562.951-.711.298-1.207.298-.761 0-1.282-.554-.513-.554-.513-1.257v-4.432h-1.157v-.272l1.902-.67h.396v4.762q0 .943.38 1.34.39.388 1.142.388.314 0 .818-.256.513-.256 1.083-.703v-4.589h-1.157v-.272l1.902-.67h.396v6.317l1.117.264zm-6.333-9.583h4.663v.596h-4.663zm.066-1.637q.075-.91.438-1.298.364-.397 1.01-.397.487 0 1.107.439.629.43.918.43.347 0 .546-.182.198-.19.231-.687h.298q-.033.893-.389 1.307-.347.413-.992.38-.48 0-1.058-.43-.58-.438-.984-.438-.314 0-.554.198-.232.199-.273.678z" style="-inkscape-font-specification:Palemonas"/></g></svg>