<svg xmlns="http://www.w3.org/2000/svg" width="1555.156" height="536.05" viewBox="0 0 411.468 141.83"><path d="M0 0v30.072h41.429V55.88H0v85.951h411.468V55.879h-36.824V30.072h36.824V0Zm.597.711h410.274v28.651h-36.824V56.59h36.824v84.531H.597v-84.53h41.429V29.361H.597Zm.597.711V28.65h27.021V1.422Zm27.618 0V28.65h27.022V1.422Zm27.619 0V28.65h27.02V1.422Zm27.618 0V28.65h27.021V1.422Zm27.618 0V28.65h27.021V1.422Zm27.618 0V28.65h27.022V1.422Zm27.619 0V28.65h27.021V1.422Zm27.618 0V28.65h27.021V1.422Zm27.618 0V28.65h27.022V1.422Zm27.619 0V28.65h27.02V1.422Zm27.618 0V28.65h27.021V1.422Zm27.618 0V28.65h27.021V1.422Zm27.618 0V28.65h27.022V1.422Zm27.619 0V28.65h50.037V1.422ZM1.779 2.133h25.827V27.94H1.78Zm27.618 0h25.828V27.94H29.397zm27.619 0h25.827V27.94H57.016zm27.618 0h25.827V27.94H84.634zm27.618 0h25.827V27.94h-25.827zm27.619 0h25.827V27.94H139.87zm27.618 0h25.827V27.94h-25.827zm27.618 0h25.827V27.94h-25.827zm27.618 0h25.828V27.94h-25.828zm27.619 0h25.827V27.94h-25.827zm27.618 0h25.827V27.94h-25.827zm27.618 0h25.827V27.94H305.58zm27.619 0h25.827V27.94h-25.827zm27.618 0h48.843V27.94h-48.843zM65.123 7.006c-.241 0-.486.035-.735.104a3.84 3.84 0 0 0-.754.305v.844c.28-.185.543-.323.792-.414.248-.09.486-.136.712-.136.319 0 .569.098.75.294.184.195.276.465.276.81 0 .218-.043.431-.13.64-.087.207-.255.479-.504.815-.132.17-.372.464-.72.88-.348.417-.755.896-1.22 1.44v.702h3.384v-.703h-2.56c.543-.63.946-1.105 1.21-1.422.265-.317.468-.565.607-.744.25-.32.428-.612.538-.876.112-.265.168-.53.168-.794 0-.521-.167-.941-.5-1.261-.331-.323-.769-.484-1.314-.484zm27.626 0c-.182 0-.39.022-.627.066-.234.044-.501.11-.802.199v.769c.258-.11.506-.193.742-.248a3.02 3.02 0 0 1 .687-.083c.333 0 .59.085.768.256.182.168.273.411.273.728 0 .3-.097.535-.291.703-.194.168-.464.252-.81.252h-.575v.686h.575c.378 0 .678.106.9.318.22.21.331.494.331.852 0 .389-.11.686-.332.893-.221.207-.538.31-.951.31a2.62 2.62 0 0 1-.735-.107 3.427 3.427 0 0 1-.75-.327v.83c.256.1.517.176.783.228.266.053.528.079.784.079.61 0 1.086-.161 1.429-.484.346-.325.519-.772.519-1.34 0-.41-.097-.752-.291-1.025-.194-.275-.474-.467-.84-.574.326-.094.573-.254.743-.48.171-.226.257-.508.257-.847 0-.499-.163-.899-.489-1.199-.323-.303-.756-.455-1.298-.455zm83.36 0c-.686 0-1.21.274-1.574.823-.36.546-.54 1.34-.54 2.381 0 1.105.15 1.916.45 2.43.302.514.776.77 1.422.77.55 0 .977-.183 1.28-.55.304-.367.455-.883.455-1.55 0-.67-.148-1.187-.444-1.55-.293-.367-.709-.55-1.246-.55-.274 0-.516.074-.728.223a1.44 1.44 0 0 0-.496.632c0-.774.123-1.36.37-1.757.246-.4.608-.599 1.085-.599.192 0 .376.028.553.083.176.052.343.13.5.231v-.769a2.62 2.62 0 0 0-.534-.182 2.363 2.363 0 0 0-.552-.066zm54.925 0c-.518 0-.927.145-1.228.434-.301.287-.452.676-.452 1.166 0 .35.09.65.27.897.18.248.432.418.753.509-.373.09-.66.275-.858.554-.197.275-.295.634-.295 1.074 0 .554.159.989.477 1.303.321.311.765.467 1.333.467.567 0 1.01-.157 1.332-.471.32-.315.481-.75.481-1.307 0-.438-.1-.795-.299-1.07-.196-.276-.48-.46-.854-.55.32-.091.57-.26.75-.509.182-.248.272-.547.272-.897 0-.49-.15-.88-.451-1.166-.301-.29-.712-.434-1.231-.434zm27.53 0c-.553 0-.98.183-1.284.55-.301.364-.452.878-.452 1.542 0 .673.147 1.192.44 1.559.297.366.713.55 1.25.55.274 0 .517-.074.728-.22.212-.149.376-.36.493-.636 0 .774-.123 1.361-.37 1.76-.243.398-.604.596-1.082.596-.191 0-.375-.026-.552-.078a2.012 2.012 0 0 1-.5-.236v.769c.172.08.35.14.534.182.184.044.367.066.548.066.69 0 1.214-.273 1.575-.819.363-.548.545-1.342.545-2.38 0-1.106-.15-1.916-.452-2.432-.3-.515-.775-.773-1.422-.773zm27.709 0c-.595 0-1.044.27-1.348.81-.303.54-.455 1.339-.455 2.394 0 1.053.152 1.85.455 2.39.304.54.753.81 1.348.81.594 0 1.043-.27 1.347-.81.306-.54.459-1.337.459-2.39 0-1.055-.153-1.853-.46-2.394-.303-.54-.752-.81-1.346-.81zm-248.696.112-1.254.306v.76l1.261-.314v4.717h-1.172v.703h3.075v-.703H38.33v-5.47zm81.066 3.91v.79h2.362v1.472h.75v-1.472h.742v-.678h-.742c.282-5.93-.873-4.022-3.112-.111zm28.01-3.91v3.1c.174-.102.357-.177.548-.227.192-.052.388-.078.59-.078.415 0 .739.122.97.367.234.246.35.589.35 1.03 0 .446-.112.79-.339 1.033-.224.243-.543.364-.959.364-.241 0-.477-.033-.709-.1a2.998 2.998 0 0 1-.69-.31v.848c.194.089.413.155.657.199.246.044.517.066.813.066.615 0 1.098-.188 1.452-.562.355-.375.533-.888.533-1.538 0-.645-.169-1.156-.507-1.534-.339-.378-.796-.566-1.373-.566-.11 0-.22.01-.329.033-.107.02-.214.05-.32.095V7.82h2.134v-.703zm54.983 0v.703h2.668l-1.94 5.469h.787l1.993-5.817v-.355zm111.27.252c-.335 0-.617.128-.846.384a1.35 1.35 0 0 0-.343.939c0 .372.114.685.343.938.229.254.511.38.847.38.333 0 .616-.126.847-.38a1.35 1.35 0 0 0 .347-.938c0-.18-.031-.349-.093-.509a1.307 1.307 0 0 0-.258-.43 1.162 1.162 0 0 0-.388-.285 1.08 1.08 0 0 0-.455-.099zm-81.872.281c.306 0 .537.088.694.265.159.176.238.432.238.769 0 .33-.08.583-.238.756-.16.174-.391.26-.694.26-.301 0-.532-.086-.69-.26-.16-.173-.24-.426-.24-.756 0-.334.08-.589.24-.765.158-.18.389-.269.69-.269zm27.544.008c.32 0 .572.129.754.385.184.256.276.61.276 1.062 0 .452-.092.806-.276 1.063a.873.873 0 0 1-.754.384c-.336 0-.588-.121-.758-.364-.166-.242-.25-.603-.25-1.083 0-.477.085-.836.254-1.079.17-.245.42-.368.754-.368zm27.695.009c.353 0 .615.21.787.628.174.419.261 1.057.261 1.914 0 .854-.087 1.491-.261 1.91-.172.419-.434.628-.787.628-.351 0-.614-.209-.788-.628-.171-.419-.257-1.056-.257-1.91 0-.857.086-1.495.257-1.914.174-.419.437-.628.788-.628zm-165.27.21v3.262h-1.758zm191.904.054c.191 0 .354.075.489.223a.765.765 0 0 1 .201.538.78.78 0 0 1-.201.541.64.64 0 0 1-.49.22.642.642 0 0 1-.492-.215.793.793 0 0 1-.194-.546c0-.215.066-.396.198-.542a.64.64 0 0 1 .489-.219zm28.292.517v1.836h-1.657v.702h1.657v1.836h.626v-1.836h1.661v-.702h-1.66V8.449zm-25.395.794-3.888 1.728.13.397 3.91-1.728zm-305.366.355-.335.372.597.662H8.028v.678H10.7l-.597.661.335.372 1.086-1.203v1.203h.612V9.598h-.612v1.203zm376.149 0-1.086 1.203v.34l1.086 1.202.336-.372-.598-.661h3.284v-.678h-3.284l.598-.662zm-100.312.033a.448.448 0 0 0-.347.166.584.584 0 0 0-.142.392c0 .16.046.293.138.397a.454.454 0 0 0 .35.157.464.464 0 0 0 .36-.16c.099-.108.148-.24.148-.394a.567.567 0 0 0-.149-.392.466.466 0 0 0-.358-.166zm-110.414.232c.334 0 .585.121.754.364.17.242.254.603.254 1.083 0 .477-.085.838-.254 1.083-.169.242-.42.364-.754.364a.883.883 0 0 1-.757-.385c-.184-.256-.276-.61-.276-1.062 0-.452.092-.806.276-1.063a.882.882 0 0 1 .757-.384zm55.182.496c.333 0 .592.105.776.314.187.21.28.503.28.88 0 .387-.092.684-.276.894-.182.206-.442.31-.78.31-.33 0-.59-.105-.776-.314-.184-.213-.276-.509-.276-.89 0-.38.09-.673.272-.88.184-.21.444-.314.78-.314zm83.839.29c-.334 0-.615.127-.843.384a1.35 1.35 0 0 0-.344.938c0 .375.113.69.34.943.226.25.509.376.847.376.336 0 .62-.128.85-.384.232-.257.348-.568.348-.935 0-.173-.031-.34-.094-.5a1.44 1.44 0 0 0-.265-.434 1.188 1.188 0 0 0-.388-.29 1.055 1.055 0 0 0-.451-.099zm0 .557a.63.63 0 0 1 .485.224.78.78 0 0 1 .201.541.78.78 0 0 1-.201.542.628.628 0 0 1-.485.219.632.632 0 0 1-.489-.22.787.787 0 0 1-.194-.54c0-.218.065-.4.194-.546a.632.632 0 0 1 .489-.22zm-138.67 4.973a8.851 8.851 0 0 0-.839 1.91 6.523 6.523 0 0 0-.276 1.856c0 .618.092 1.238.276 1.86a9.06 9.06 0 0 0 .84 1.915h.597a9.054 9.054 0 0 1-.743-1.89 7.474 7.474 0 0 1 0-3.77 8.875 8.875 0 0 1 .743-1.88zm26.212 0c.331.631.577 1.26.739 1.885.164.626.246 1.253.246 1.881 0 .626-.082 1.252-.246 1.877a9.077 9.077 0 0 1-.739 1.898h.597c.376-.65.656-1.287.84-1.91a6.55 6.55 0 0 0 .276-1.865c0-.614-.092-1.233-.276-1.856a8.852 8.852 0 0 0-.84-1.91zm-82.069.14v1.56l-1.254-.84-.212.41 1.335.801-1.335.807.212.405 1.254-.84v1.559h.43v-1.559l1.253.84.213-.405-1.336-.807 1.336-.802-.213-.409-1.254.84v-1.56zm193.61 0c-.259 0-.508.04-.746.117a2.86 2.86 0 0 0-.706.35v.778a3.23 3.23 0 0 1 .698-.422c.221-.096.43-.144.623-.144.271 0 .488.076.65.227.164.152.246.35.246.595a.86.86 0 0 1-.09.385 1.75 1.75 0 0 1-.317.426l-.336.368c-.209.226-.352.434-.429.624a1.86 1.86 0 0 0-.112.686v.637h.71v-.703c0-.168.023-.31.07-.426.047-.116.157-.264.328-.446l.329-.356c.234-.253.392-.47.474-.649.084-.182.127-.377.127-.587 0-.444-.139-.798-.415-1.062-.273-.265-.641-.397-1.104-.397zm-276.637.112v2.708l.079 1.476h.6l.079-1.476v-2.708zm109.812 0v2.295h.65V16.43zm1.429 0v2.295h.65V16.43zm138.722 0-2.937 6.958h.713L288 16.431zM64.845 18.21v1.253h.94v-1.253zm193.335 0v1.253h.94v-1.253zm81.362.55v.703h3.945v-.703zm0 1.678v.711h3.945v-.71zm-274.702.906v1.26h.94v-1.26zm27.618 0v1.26h.94v-1.26zm138.144.008v.856l-.369 1.583h.575l.735-1.583v-.856zm27.619 0v.856l-.37 1.583h.575l.735-1.583v-.856zm-220.901.203v1.05h.757v-1.05zm276.087 0v1.05h.758v-1.05zm-270.81 7.808V56.59H69.62V29.362zm27.619 0V56.59h27.021V29.362zm27.618 0V56.59h27.021V29.362zm27.618 0V56.59h27.022V29.362zm27.619 0V56.59h27.02V29.362zm27.618 0V56.59h27.021V29.362zm27.618 0V56.59h27.021V29.362zm27.618 0V56.59h27.022V29.362zm27.619 0V56.59h27.021V29.362zm27.618 0V56.59h27.021V29.362zm27.618 0V56.59h27.022V29.362zm27.619 0V56.59h27.02V29.362zm-303.216.71H69.01V55.88H43.183zm27.618 0h25.827V55.88H70.801zm27.618 0h25.827V55.88H98.42zm27.618 0h25.828V55.88h-25.828zm27.619 0h25.827V55.88h-25.827zm27.618 0H207.1V55.88h-25.827zm27.618 0h25.827V55.88h-25.827zm27.619 0h25.827V55.88H236.51zm27.618 0h25.827V55.88h-25.827zm27.618 0h25.827V55.88h-25.827zm27.618 0h25.828V55.88h-25.828zm27.619 0h25.827V55.88h-25.827zM78.705 33.38v1.017h1.027V33.38zm-28.399.12v.777h2.355v-.778zm84.032 1.446c-.644 0-1.131.27-1.462.81-.329.54-.493 1.339-.493 2.394 0 1.053.164 1.85.493 2.39.33.54.818.81 1.462.81.647 0 1.135-.27 1.463-.81.33-.54.496-1.337.496-2.39 0-1.055-.165-1.853-.496-2.393-.328-.54-.816-.81-1.463-.81zm138.548 0c-.749 0-1.322.275-1.72.823-.396.549-.594 1.342-.594 2.381 0 1.023.197 1.812.59 2.37.393.553.95.83 1.672.83.29 0 .563-.05.817-.153.256-.105.49-.258.701-.459V37.91h-1.716v1.026h.754v1.178a.523.523 0 0 1-.206.107 1.193 1.193 0 0 1-.298.033c-.38 0-.67-.179-.87-.537-.198-.358-.298-.88-.298-1.567 0-.708.103-1.236.31-1.583.206-.35.518-.525.936-.525.24 0 .458.056.657.17.202.11.38.275.534.495v-1.351a2.241 2.241 0 0 0-.609-.302 2.089 2.089 0 0 0-.66-.108zm55.37 0c-.751 0-1.324.275-1.72.823-.395.549-.593 1.342-.593 2.381 0 1.037.198 1.829.593 2.377.396.549.969.823 1.72.823.212 0 .413-.025.605-.074.191-.05.374-.124.548-.224v-1.356a2.172 2.172 0 0 1-.552.426c-.177.088-.36.133-.549.133-.403 0-.707-.177-.914-.53-.204-.355-.306-.88-.306-1.575 0-.697.102-1.222.306-1.575.207-.355.511-.533.914-.533.19 0 .372.045.549.136.18.089.363.23.552.422v-1.356c-.169-.1-.35-.174-.545-.223a2.446 2.446 0 0 0-.608-.075zm-30.032.104v6.18h1.794c.73 0 1.255-.134 1.579-.4.323-.268.485-.7.485-1.295 0-.485-.108-.862-.325-1.133-.214-.27-.533-.428-.959-.475.356-.036.626-.165.81-.389.184-.223.276-.533.276-.93 0-.518-.157-.907-.47-1.166-.311-.261-.776-.392-1.396-.392zm-248.649.008v3.894c0 .838.15 1.447.452 1.828.303.38.787.57 1.451.57.667 0 1.151-.19 1.452-.57.3-.38.451-.99.451-1.828v-3.894h-1.1v4.2c0 .309-.071.551-.213.728-.142.173-.338.26-.59.26-.25 0-.447-.087-.59-.26-.14-.177-.212-.42-.212-.728v-4.2zm27.85 0v6.172h3.47v-1.075h-2.369V38.54h2.146v-1.075h-2.146v-1.331h2.37v-1.075zm27.022 0 1.72 3.741v2.431h1.1V38.8l1.72-3.742h-1.186l-1.086 2.48-1.082-2.48zm84.142 0v1.075h1.347v3.117c0 .35-.067.605-.202.765-.134.16-.346.24-.634.24a1.58 1.58 0 0 1-.735-.19 2.421 2.421 0 0 1-.683-.555v1.414c.261.14.52.247.776.319.259.071.506.107.743.107.654 0 1.123-.161 1.406-.484.286-.325.43-.864.43-1.616v-4.192zm26.749 0v6.172h.97v-4.485l1.56 4.485h1.175v-6.172h-.97v4.485l-1.552-4.485zm27.61 0v6.172h1.102v-2.092l.488-.686 1.321 2.778h1.224l-1.82-3.741 1.757-2.431h-1.247l-1.723 2.439v-2.44zm110.72 0v6.172h1.1V38.54h2.157v-1.075h-2.156v-1.331h2.37v-1.075zm-54.389.963h.731c.274 0 .47.058.59.174.122.113.183.296.183.55 0 .253-.06.435-.18.545-.116.11-.314.166-.593.166h-.73zm-164.945.02c.283 0 .49.168.619.501.13.33.194.867.194 1.608 0 .739-.065 1.275-.194 1.608-.13.331-.336.497-.62.497-.28 0-.486-.166-.615-.497-.13-.333-.194-.87-.194-1.608 0-.741.065-1.277.194-1.608.13-.333.335-.5.616-.5zm164.945 2.386h.731c.339 0 .581.073.728.22.147.145.22.385.22.719 0 .328-.07.558-.212.69-.14.132-.385.199-.736.199h-.73zm-139.627 4.47v.33h4.601v-.33zm1.329 4.988v.678h1.944v-.678zM1.138 57.3V84.53h50.038V57.301zm50.635 0V84.53h27.021V57.301zm27.618 0V84.53h27.022V57.301zm27.619 0V84.53h27.02V57.301zm27.618 0V84.53h27.021V57.301zm27.618 0V84.53h27.021V57.301zm27.619 0V84.53h27.02V57.301zm27.618 0V84.53h27.021V57.301zm27.618 0V84.53h27.021V57.301zm27.618 0V84.53h27.022V57.301zm27.619 0V84.53h27.02V57.301zm27.618 0V84.53h27.021V57.301zm27.618 0V84.53h27.021V57.301zm27.618 0V84.53h27.022V57.301zM1.72 58.012h48.843V83.82H1.72zm50.634 0h25.828V83.82H52.353zm27.619 0h25.827V83.82H79.972zm27.618 0h25.827V83.82H107.59zm27.618 0h25.827V83.82h-25.827zm27.619 0h25.827V83.82h-25.827zm27.618 0h25.827V83.82h-25.827zm27.618 0h25.827V83.82h-25.827zm27.618 0h25.828V83.82H245.68zm27.619 0h25.827V83.82H273.3zm27.618 0h25.827V83.82h-25.827zm27.618 0h25.827V83.82h-25.827zm27.619 0h25.827V83.82h-25.827zm27.618 0H409.6V83.82h-25.827zm-48.33 3.307.824 1.092h1.153l.832-1.092h-.664l-.742.67-.74-.67zm-53.835 1.567c-.565 0-1.009.16-1.332.48-.324.32-.485.759-.485 1.318 0 .436.098.783.294 1.042.197.256.573.502 1.127.736l.541.227c.19.08.334.19.433.331.1.138.15.299.15.484 0 .245-.075.436-.224.574-.15.135-.36.203-.631.203-.269 0-.541-.057-.817-.17a3.636 3.636 0 0 1-.851-.516v1.26a3.429 3.429 0 0 0 1.634.435c.672 0 1.173-.153 1.504-.46.333-.308.5-.774.5-1.397 0-.457-.106-.836-.317-1.136-.211-.3-.541-.542-.989-.724l-.474-.198c-.328-.135-.545-.258-.649-.368a.612.612 0 0 1-.153-.426c0-.22.07-.39.213-.509.141-.118.345-.177.612-.177.238 0 .48.048.724.144.243.097.483.237.72.422v-1.19a3.615 3.615 0 0 0-.762-.286 3.064 3.064 0 0 0-.768-.099zm-222.857.112v3.894c0 .838.15 1.447.452 1.827.303.38.787.57 1.451.57.667 0 1.15-.19 1.452-.57.3-.38.451-.99.451-1.827v-3.894h-1.1v4.2c0 .308-.072.551-.213.727-.142.174-.339.26-.59.26-.251 0-.448-.086-.59-.26-.141-.176-.212-.419-.212-.727v-4.2zm27.85 0v6.172h3.47v-1.075h-2.37v-1.617h2.146v-1.074h-2.145v-1.332h2.37v-1.074zm27.635 0v1.074h1.108v4.023h-1.108v1.075h3.317v-1.075h-1.108v-4.023h1.108v-1.074zm28.605 0-1.504 6.172h1.1l.336-1.526h1.474l.344 1.526h1.1l-1.503-6.172zm26.503 0v6.172h1.1v-2.745h1.377v2.745h1.101v-6.172h-1.1v2.352h-1.378v-2.352zm27.947 0v6.172h3.456v-1.075h-2.355v-5.098zm27.277 0v6.172h1.101v-2.44h.35c.267 0 .498.233.695.7l.078.181.672 1.559h1.209l-1.008-2.22c-.117-.26-.216-.433-.298-.521a.525.525 0 0 0-.284-.174c.351-.05.62-.2.806-.45.187-.251.28-.589.28-1.013 0-.634-.157-1.092-.47-1.373-.311-.28-.825-.422-1.541-.422zm27.459 0v1.066h1.414v5.106h1.1v-5.106h1.415v-1.066zm55.506 0v6.172h1.1v-2.311h.411c.769 0 1.321-.152 1.657-.455.338-.303.507-.795.507-1.476 0-.68-.169-1.173-.507-1.476-.336-.303-.888-.454-1.657-.454zm27.525 0v1.074h2.422l-2.504 4.089v1.009h3.903v-1.075h-2.634l2.582-4.089v-1.008zm27.618 0v1.074h2.422l-2.504 4.089v1.009h3.904v-1.075h-2.635l2.582-4.089v-1.008zm-137.01 1.025h.52c.303 0 .52.065.649.194.13.13.194.345.194.645 0 .3-.066.517-.198.65-.13.129-.345.193-.646.193h-.518zm82.965 0h.452c.36 0 .613.067.757.202.147.135.22.37.22.703 0 .334-.073.568-.22.703-.144.135-.396.203-.757.203h-.452zm-165.122.09.523 2.527h-1.041Zm-133.492.336L8.63 65.99h.747v2.021h-.747v1.158h2.784v-1.158h-.754v-2.021h.754zm0 .413.269.294h-.534zm-.447.496h.895l.284.306h-.351v2.638h.754v.578H8.89v-.578h.747v-2.638h-.344zm388.566.252v1.848h-2.694l.597-.661-.336-.372-1.082 1.203v.339l1.082 1.203.336-.372-.597-.662h3.306V65.61zM1.116 85.241v27.228h63.848V85.241zm64.445 0v27.228h27.021V85.241zm27.618 0v27.228H120.2V85.241zm27.618 0v27.228h27.022V85.241zm27.619 0v27.228h27.02V85.241zm27.618 0v27.228h27.021V85.241zm27.618 0v27.228h27.021V85.241zm27.618 0v27.228h27.022V85.241zm27.619 0v27.228h27.021V85.241zm27.618 0v27.228h27.021V85.241zm27.618 0v27.228h27.022V85.241zm27.619 0v27.228h68.45V85.241zm-340.04.711h62.653v25.807H1.703zm64.444 0h25.827v25.807H66.148zm27.618 0h25.828v25.807H93.766zm27.619 0h25.827v25.807h-25.827zm27.618 0h25.827v25.807h-25.827zm27.618 0h25.828v25.807H176.62zm27.619 0h25.827v25.807H204.24zm27.618 0h25.827v25.807h-25.827zm27.618 0h25.827v25.807h-25.827zm27.618 0h25.828v25.807h-25.828zm27.619 0h25.827v25.807h-25.827zm27.618 0h67.256v25.807H342.33zm-48.33 3.307.824 1.091h1.153l.833-1.091h-.665l-.742.67-.739-.67zm28.13 0 .824 1.091h1.153l.832-1.091h-.664l-.743.67-.739-.67zm-26.728 1.566c-.565 0-1.01.16-1.332.48-.324.32-.486.76-.486 1.319 0 .435.099.782.295 1.042.197.256.572.501 1.127.735l.541.228c.19.08.334.19.433.33.1.138.15.3.15.484 0 .245-.075.437-.225.575-.149.135-.36.202-.63.202-.269 0-.541-.056-.817-.17a3.636 3.636 0 0 1-.851-.516v1.261a3.428 3.428 0 0 0 1.634.434c.672 0 1.173-.153 1.504-.459.333-.308.5-.774.5-1.397 0-.458-.106-.837-.317-1.137-.212-.3-.541-.542-.989-.723l-.474-.199c-.328-.135-.545-.258-.65-.368a.612.612 0 0 1-.152-.426c0-.22.07-.39.213-.508.141-.119.345-.178.611-.178.24 0 .48.048.724.145.244.096.484.237.72.422V91.21a3.615 3.615 0 0 0-.76-.285 3.064 3.064 0 0 0-.77-.1zm28.2 0c-.75 0-1.324.275-1.72.823-.395.549-.593 1.342-.593 2.381 0 1.037.198 1.829.593 2.377.396.549.97.823 1.72.823.212 0 .414-.025.605-.074.192-.05.374-.124.549-.224v-1.356a2.172 2.172 0 0 1-.553.426c-.176.088-.36.133-.548.133-.403 0-.708-.177-.914-.53-.204-.355-.306-.88-.306-1.575 0-.697.102-1.222.306-1.575.206-.355.51-.533.914-.533.189 0 .372.045.548.136.18.089.364.23.553.422v-1.356c-.17-.1-.351-.174-.545-.223a2.446 2.446 0 0 0-.608-.075zm-251.06.112v3.894c0 .838.151 1.447.452 1.828.257.321.643.505 1.158.555-.124.154-.22.3-.285.437-.067.151-.1.3-.1.446 0 .237.077.42.23.546.155.127.374.19.657.19.102 0 .212-.008.329-.025.12-.013.246-.036.38-.066v-.645c-.099.044-.197.076-.294.095-.095.022-.19.033-.284.033a.437.437 0 0 1-.302-.103.331.331 0 0 1-.112-.26.61.61 0 0 1 .067-.248c.043-.088.126-.223.24-.393.547-.04.954-.228 1.22-.562.3-.38.45-.99.45-1.828v-3.894h-1.1v4.2c0 .309-.071.551-.213.728-.142.173-.338.26-.59.26-.25 0-.447-.087-.589-.26-.142-.177-.213-.42-.213-.728v-4.2zm27.85 0v6.172h2.292c-.14.168-.244.327-.314.476-.067.151-.1.3-.1.446 0 .237.076.419.23.546.155.127.374.19.657.19.102 0 .212-.008.329-.025.12-.014.246-.036.38-.066v-.645c-.1.044-.197.076-.294.095-.095.022-.19.033-.284.033a.437.437 0 0 1-.302-.103.331.331 0 0 1-.112-.26.61.61 0 0 1 .067-.249c.047-.096.137-.242.269-.438h.653v-1.075h-2.37v-1.616h2.146v-1.075h-2.146v-1.331h2.37v-1.075zm27.633 0v1.075h1.108v4.022h-1.108v1.075h1.683c-.14.168-.244.327-.314.476-.067.151-.1.3-.1.446 0 .237.077.419.231.546.154.127.373.19.657.19.102 0 .211-.008.328-.025.12-.014.246-.036.38-.066v-.645c-.099.044-.197.076-.294.095-.095.022-.19.033-.284.033a.437.437 0 0 1-.302-.103.331.331 0 0 1-.112-.26.61.61 0 0 1 .067-.249c.048-.096.137-.242.27-.438h1.107v-1.075h-1.108v-4.022h1.108v-1.075zm28.605 0-1.504 6.172h1.1l.336-1.525h1.474l.344 1.525h.026c-.14.168-.244.327-.314.476-.067.151-.1.3-.1.446 0 .237.077.419.23.546.155.127.374.19.658.19.102 0 .211-.008.328-.025.12-.014.246-.036.38-.066v-.645c-.099.044-.197.076-.294.095-.095.022-.19.033-.284.033a.437.437 0 0 1-.302-.103.331.331 0 0 1-.112-.26.61.61 0 0 1 .067-.249 4.2 4.2 0 0 1 .269-.438h.548l-1.503-6.172zm26.137 0 1.59 3.038-1.635 3.134h1.139l1.06-2.042 1.063 2.042h1.138l-1.627-3.134 1.582-3.038h-1.138l-1.019 1.964-1.015-1.964zm27.688 0 1.324 6.172h1.527l1.324-6.172h-1.108l-.981 5.155-.978-5.155zm27.728 0v6.172h.948v-4.944l.597 2.7h.877l.59-2.7v4.944h.947v-6.172h-1.32l-.661 2.708-.665-2.708zm27.81 0v6.172h1.178c.91 0 1.566-.241 1.967-.723.4-.485.6-1.275.6-2.37 0-1.09-.2-1.876-.6-2.356-.4-.482-1.056-.723-1.967-.723zm1.1 1.1h.299c.432 0 .74.15.925.45.184.3.276.81.276 1.53 0 .725-.092 1.239-.276 1.542-.184.3-.493.45-.925.45h-.299zm-109.79.016.522 2.526h-1.04zm-147.302.335L8.614 93.93h.746v3.18h1.283v-3.18h.754zm340.637 0-1.388 1.542h.746v3.18h1.284v-3.18h.754zm-340.637.413.731.802h-.35v3.217H9.62v-3.217h-.343zm340.637 0 .731.802h-.35v3.217h-.762v-3.217h-.343zM1.094 113.181v27.228h409.08V113.18zm.597.71h407.886v25.807H1.691z"/></svg>