<svg width="341.74mm" height="430.828" viewBox="0 0 341.74 113.99" xmlns="http://www.w3.org/2000/svg"><g word-spacing="0"><g aria-label="╔═════╦═════╦═════╦═════╦═════╦═════╦═════╦═════╦═════╦═════╦═════╦═════╦═════╦══════════╗║ ˜ ║ 1 ║ 2 ║ 3 ║ 4 ║ 5 ║ 6 ║ 7 ║ 8 ║ 9 ║ § ║ % ║ + ║ ← ║║ ` ´ ║ ! ║ : ║ . ║ * ║ &quot; ║ ( ║ ) ║ , ║ ; ║ / ║ ? ║ = ║ ║╠═════╩══╦══╩══╦══╩══╦══╩══╦══╩══╦══╩══╦══╩══╦══╩══╦══╩══╦══╩══╦══╩══╦══╩══╦══╩══╦═══════╣║ ⇥ ║ Ū ║ Ė ║ Y ║ O ║ _ ║ J ║ N ║ K ║ G ║ B ║ C ║ F ║ ║║ ║ ║ ║ ║ ║ - ║ ║ ║ ║ ║ ║ ║ ║ ║╠════════╩═╦═══╩═╦═══╩═╦═══╩═╦═══╩═╦═══╩═╦═══╩═╦═══╩═╦═══╩═╦═══╩═╦═══╩═╦═══╩═╦═══╩═╗ ║║ ⇬ ║ U ║ E ║ I ║ A ║ H ║ L ║ R ║ T ║ S ║ P ║ Ž ║ Z ║ ↵ ║║ ║ ║ ║ ║ ║ ║ ║ ║ ║ ║ ║ ║ ║ ║╠══════════╩══╦══╩══╦══╩══╦══╩══╦══╩══╦══╩══╦══╩══╦══╩══╦══╩══╦══╩══╦══╩══╦══╩═════╩═════╣║ ⇧ ║ Ų ║ Ę ║ Į ║ Ą ║ X ║ V ║ M ║ D ║ Š ║ Č ║ ⇧ ║║ ║ ║ ║ ║ ║ ║ ║ ║ ║ ║ ║ ║╠═════════════╩═════╩═════╩═════╩═════╩═════╩═════╩═════╩═════╩═════╩═════╩══════════════╣║ ║║ ║╚════════════════════════════════════════════════════════════════════════════════════════╝" style="font-size:6.35px;font-family:'DejaVu Sans Mono';letter-spacing:0;stroke-width:.26458"><path d="M0 4.57V0h2.719v.533H.496V4.57zm.992 0V1.067h1.727V1.6H1.488v2.97z"/><path d="M2.595.533V0h3.947v.533zm0 1.067v-.533h3.947V1.6z"/><path d="M6.418.533V0h3.947v.533zm0 1.067v-.533h3.947V1.6z"/><path d="M10.241.533V0h3.947v.533zm0 1.067v-.533h3.947V1.6z"/><path d="M14.064.533V0h3.947v.533zm0 1.067v-.533h3.947V1.6z"/><path d="M17.887.533V0h3.947v.533zm0 1.067v-.533h3.947V1.6z"/><path d="M21.71.533V0h3.947v.533zm1.228 4.037V1.6H21.71v-.533h1.724V4.57zm.992 0V1.067h1.727V1.6h-1.23v2.97z"/><path d="M25.533.533V0h3.947v.533zm0 1.067v-.533h3.947V1.6z"/><path d="M29.356.533V0h3.947v.533zm0 1.067v-.533h3.947V1.6z"/><path d="M33.18.533V0h3.946v.533zm0 1.067v-.533h3.946V1.6z"/><path d="M37.002.533V0h3.947v.533zm0 1.067v-.533h3.947V1.6z"/><path d="M40.825.533V0h3.947v.533zm0 1.067v-.533h3.947V1.6z"/><path d="M44.648.533V0h3.947v.533zm1.228 4.037V1.6h-1.228v-.533h1.724V4.57zm.992 0V1.067h1.727V1.6h-1.23v2.97z"/><path d="M48.471.533V0h3.947v.533zm0 1.067v-.533h3.947V1.6z"/><path d="M52.294.533V0h3.947v.533zm0 1.067v-.533h3.947V1.6z"/><path d="M56.117.533V0h3.947v.533zm0 1.067v-.533h3.947V1.6z"/><path d="M59.94.533V0h3.947v.533zm0 1.067v-.533h3.947V1.6z"/><path d="M63.763.533V0h3.947v.533zm0 1.067v-.533h3.947V1.6z"/><path d="M67.586.533V0h3.947v.533zm1.228 4.037V1.6h-1.228v-.533h1.724V4.57zm.992 0V1.067h1.727V1.6h-1.23v2.97z"/><path d="M71.41.533V0h3.946v.533zm0 1.067v-.533h3.946V1.6z"/><path d="M75.232.533V0h3.947v.533zm0 1.067v-.533h3.947V1.6z"/><path d="M79.055.533V0h3.947v.533zm0 1.067v-.533h3.947V1.6z"/><path d="M82.878.533V0h3.947v.533zm0 1.067v-.533h3.947V1.6z"/><path d="M86.701.533V0h3.947v.533zm0 1.067v-.533h3.947V1.6z"/><path d="M90.524.533V0h3.947v.533zm1.228 4.037V1.6h-1.228v-.533h1.724V4.57zm.992 0V1.067h1.727V1.6h-1.23v2.97z"/><path d="M94.347.533V0h3.948v.533zm0 1.067v-.533h3.948V1.6z"/><path d="M98.17.533V0h3.948v.533zm0 1.067v-.533h3.948V1.6z"/><path d="M101.994.533V0h3.947v.533zm0 1.067v-.533h3.947V1.6z"/><path d="M105.817.533V0h3.947v.533zm0 1.067v-.533h3.947V1.6z"/><path d="M109.64.533V0h3.947v.533zm0 1.067v-.533h3.947V1.6z"/><path d="M113.463.533V0h3.947v.533zm1.227 4.037V1.6h-1.227v-.533h1.724V4.57zm.993 0V1.067h1.727V1.6h-1.231v2.97z"/><path d="M117.286.533V0h3.947v.533zm0 1.067v-.533h3.947V1.6z"/><path d="M121.109.533V0h3.947v.533zm0 1.067v-.533h3.947V1.6z"/><path d="M124.932.533V0h3.947v.533zm0 1.067v-.533h3.947V1.6z"/><path d="M128.755.533V0h3.947v.533zm0 1.067v-.533h3.947V1.6z"/><path d="M132.578.533V0h3.947v.533zm0 1.067v-.533h3.947V1.6z"/><path d="M136.4.533V0h3.948v.533zm1.229 4.037V1.6H136.4v-.533h1.724V4.57zm.992 0V1.067h1.727V1.6h-1.231v2.97z"/><path d="M140.224.533V0h3.947v.533zm0 1.067v-.533h3.947V1.6z"/><path d="M144.047.533V0h3.947v.533zm0 1.067v-.533h3.947V1.6z"/><path d="M147.87.533V0h3.947v.533zm0 1.067v-.533h3.947V1.6z"/><path d="M151.693.533V0h3.947v.533zm0 1.067v-.533h3.947V1.6z"/><path d="M155.516.533V0h3.947v.533zm0 1.067v-.533h3.947V1.6z"/><path d="M159.339.533V0h3.947v.533zm1.228 4.037V1.6h-1.228v-.533h1.724V4.57zm.992 0V1.067h1.727V1.6h-1.231v2.97z"/><path d="M163.162.533V0h3.947v.533zm0 1.067v-.533h3.947V1.6z"/><path d="M166.985.533V0h3.947v.533zm0 1.067v-.533h3.947V1.6z"/><path d="M170.808.533V0h3.947v.533zm0 1.067v-.533h3.947V1.6z"/><path d="M174.63.533V0h3.948v.533zm0 1.067v-.533h3.948V1.6z"/><path d="M178.454.533V0h3.947v.533zm0 1.067v-.533h3.947V1.6z"/><path d="M182.277.533V0h3.947v.533zm1.228 4.037V1.6h-1.228v-.533h1.724V4.57zm.992 0V1.067h1.727V1.6h-1.23v2.97z"/><path d="M186.1.533V0h3.947v.533zm0 1.067v-.533h3.947V1.6z"/><path d="M189.923.533V0h3.947v.533zm0 1.067v-.533h3.947V1.6z"/><path d="M193.746.533V0h3.947v.533zm0 1.067v-.533h3.947V1.6z"/><path d="M197.57.533V0h3.946v.533zm0 1.067v-.533h3.946V1.6z"/><path d="M201.392.533V0h3.947v.533zm0 1.067v-.533h3.947V1.6z"/><path d="M205.215.533V0h3.947v.533zm1.228 4.037V1.6h-1.228v-.533h1.724V4.57zm.992 0V1.067h1.727V1.6h-1.23v2.97z"/><path d="M209.038.533V0h3.947v.533zm0 1.067v-.533h3.947V1.6z"/><path d="M212.861.533V0h3.947v.533zm0 1.067v-.533h3.947V1.6z"/><path d="M216.684.533V0h3.947v.533zm0 1.067v-.533h3.947V1.6z"/><path d="M220.507.533V0h3.947v.533zm0 1.067v-.533h3.947V1.6z"/><path d="M224.33.533V0h3.947v.533zm0 1.067v-.533h3.947V1.6z"/><path d="M228.153.533V0h3.947v.533zm1.228 4.037V1.6h-1.228v-.533h1.724V4.57zm.992 0V1.067h1.727V1.6h-1.23v2.97z"/><path d="M231.976.533V0h3.947v.533zm0 1.067v-.533h3.947V1.6z"/><path d="M235.8.533V0h3.946v.533zm0 1.067v-.533h3.946V1.6z"/><path d="M239.622.533V0h3.947v.533zm0 1.067v-.533h3.947V1.6z"/><path d="M243.445.533V0h3.947v.533zm0 1.067v-.533h3.947V1.6z"/><path d="M247.268.533V0h3.947v.533zm0 1.067v-.533h3.947V1.6z"/><path d="M251.091.533V0h3.947v.533zm1.228 4.037V1.6h-1.228v-.533h1.724V4.57zm.992 0V1.067h1.727V1.6h-1.23v2.97z"/><path d="M254.914.533V0h3.947v.533zm0 1.067v-.533h3.947V1.6z"/><path d="M258.737.533V0h3.947v.533zm0 1.067v-.533h3.947V1.6z"/><path d="M262.56.533V0h3.948v.533zm0 1.067v-.533h3.948V1.6z"/><path d="M266.383.533V0h3.948v.533zm0 1.067v-.533h3.948V1.6z"/><path d="M270.207.533V0h3.947v.533zm0 1.067v-.533h3.947V1.6z"/><path d="M274.03.533V0h3.947v.533zm1.227 4.037V1.6h-1.227v-.533h1.723V4.57zm.993 0V1.067h1.727V1.6h-1.231v2.97z"/><path d="M277.853.533V0h3.947v.533zm0 1.067v-.533h3.947V1.6z"/><path d="M281.676.533V0h3.947v.533zm0 1.067v-.533h3.947V1.6z"/><path d="M285.499.533V0h3.947v.533zm0 1.067v-.533h3.947V1.6z"/><path d="M289.322.533V0h3.947v.533zm0 1.067v-.533h3.947V1.6z"/><path d="M293.145.533V0h3.947v.533zm0 1.067v-.533h3.947V1.6z"/><path d="M296.968.533V0h3.947v.533zm1.227 4.037V1.6h-1.227v-.533h1.724V4.57zm.993 0V1.067h1.727V1.6h-1.231v2.97z"/><path d="M300.79.533V0h3.948v.533zm0 1.067v-.533h3.948V1.6z"/><path d="M304.614.533V0h3.947v.533zm0 1.067v-.533h3.947V1.6z"/><path d="M308.437.533V0h3.947v.533zm0 1.067v-.533h3.947V1.6z"/><path d="M312.26.533V0h3.947v.533zm0 1.067v-.533h3.947V1.6z"/><path d="M316.083.533V0h3.947v.533zm0 1.067v-.533h3.947V1.6z"/><path d="M319.906.533V0h3.947v.533zm0 1.067v-.533h3.947V1.6z"/><path d="M323.729.533V0h3.947v.533zm0 1.067v-.533h3.947V1.6z"/><path d="M327.552.533V0h3.947v.533zm0 1.067v-.533h3.947V1.6z"/><path d="M331.375.533V0h3.947v.533zm0 1.067v-.533h3.947V1.6z"/><path d="M335.198.533V0h3.947v.533zm0 1.067v-.533h3.947V1.6z"/><path d="M341.24 4.57V.533h-2.22V0h2.717v4.57zm-.991 0V1.6h-1.228v-.533h1.724V4.57zM0 12.063V4.52h.496v7.543zm.992 0V4.52h.496v7.543zM8.378 6.228l-.177-.17q-.065-.063-.118-.09-.05-.032-.093-.032-.118 0-.174.115-.055.115-.062.366H7.37q.003-.415.161-.645.158-.23.44-.23.121 0 .22.044.1.044.214.146l.177.17q.065.062.115.093.053.028.093.028.12 0 .177-.114.055-.115.059-.366h.387q-.003.415-.161.645-.158.23-.44.23-.121 0-.22-.044-.1-.044-.214-.146zM22.938 12.063V4.52h.496v7.543zm.992 0V4.52h.496v7.543zM30.255 9.949h.974V6.41l-1.048.236v-.571l1.042-.23h.626V9.95h.961v.527h-2.555zM45.876 12.063V4.52h.496v7.543zm.992 0V4.52h.496v7.543zM53.513 9.949h2.127v.527h-2.812v-.527q.58-.611 1.013-1.08.434-.468.599-.66.31-.378.418-.61.109-.236.109-.481 0-.388-.23-.608-.226-.22-.623-.22-.282 0-.592.102-.31.103-.657.31V6.07q.32-.152.626-.23.31-.077.61-.077.68 0 1.092.363.416.36.416.945 0 .298-.14.596-.136.297-.446.657-.174.201-.506.558-.328.357-1.004 1.067zM68.814 12.063V4.52h.496v7.543zm.992 0V4.52h.496v7.543zM77.7 7.998q.456.121.698.431.242.307.242.77 0 .638-.431 1.004-.428.363-1.188.363-.319 0-.65-.06-.332-.058-.652-.17v-.623q.316.164.623.245.307.08.611.08.515 0 .79-.232.277-.233.277-.67 0-.403-.276-.638-.276-.24-.747-.24h-.478v-.514h.478q.43 0 .672-.189.242-.19.242-.527 0-.357-.226-.546-.223-.192-.639-.192-.276 0-.57.062-.295.062-.617.186v-.577q.375-.099.666-.149.295-.05.521-.05.676 0 1.08.342.405.338.405.9 0 .38-.214.635-.21.254-.617.36zM91.752 12.063V4.52h.496v7.543zm.992 0V4.52h.497v7.543zM100.511 6.417l-1.46 2.446h1.46zm-.102-.57h.726v3.016h.617v.509h-.617v1.104h-.624V9.372H98.55V8.78zM114.69 12.063V4.52h.497v7.543zm.993 0V4.52h.496v7.543zM121.812 5.847h2.345v.527h-1.774v1.138q.133-.05.267-.072.136-.025.272-.025.72 0 1.141.425.422.425.422 1.15 0 .732-.443 1.154-.44.422-1.206.422-.37 0-.676-.05-.304-.05-.546-.149v-.635q.285.155.574.232.288.075.589.075.518 0 .797-.273.282-.273.282-.775 0-.497-.292-.772-.288-.276-.806-.276-.251 0-.49.058-.238.056-.456.171zM137.629 12.063V4.52h.496v7.543zm.992 0V4.52h.496v7.543zM147.181 5.949v.577q-.195-.115-.415-.174-.22-.062-.459-.062-.595 0-.902.45-.307.446-.307 1.317.149-.31.412-.474.264-.168.605-.168.67 0 1.035.413.37.41.37 1.163 0 .75-.379 1.162-.378.413-1.063.413-.806 0-1.182-.577-.375-.58-.375-1.823 0-1.172.45-1.786.452-.617 1.308-.617.23 0 .46.05.229.046.442.136zm-1.116 1.956q-.4 0-.63.289-.229.288-.229.797 0 .508.23.796.23.289.63.289.415 0 .626-.273.21-.276.21-.812 0-.54-.21-.813-.211-.273-.627-.273zM160.567 12.063V4.52h.496v7.543zm.992 0V4.52h.496v7.543zM167.478 5.847h2.914v.266l-1.655 4.363h-.654l1.612-4.102h-2.217zM183.505 12.063V4.52H184v7.543zm.992 0V4.52h.496v7.543zM191.895 8.277q-.419 0-.648.236-.226.233-.226.66 0 .428.23.667.232.236.644.236.422 0 .648-.233.23-.235.23-.67 0-.424-.233-.66-.23-.236-.645-.236zm-.546-.26q-.4-.102-.626-.381-.223-.28-.223-.673 0-.552.375-.875.375-.325 1.02-.325.648 0 1.023.325.375.323.375.875 0 .394-.226.673-.223.279-.623.381.465.102.71.412.248.31.248.803 0 .627-.4.98-.4.354-1.107.354t-1.107-.35q-.397-.354-.397-.977 0-.496.245-.807.248-.313.713-.415zm-.226-.995q0 .372.198.567.199.195.574.195.378 0 .577-.195.198-.195.198-.567 0-.379-.198-.577-.196-.198-.577-.198-.375 0-.574.201-.198.199-.198.574zM206.443 12.063V4.52h.496v7.543zm.992 0V4.52h.496v7.543zM214.771 8.423q.4 0 .626-.288.23-.289.23-.797 0-.509-.23-.797-.226-.288-.626-.288-.415 0-.626.276-.211.273-.211.809 0 .54.208.812.21.273.63.273zm-1.116 1.957v-.577q.195.115.415.177.22.059.46.059.595 0 .898-.447.307-.45.307-1.32-.145.31-.409.477-.263.164-.604.164-.67 0-1.04-.412-.365-.413-.365-1.17 0-.746.375-1.156.378-.412 1.067-.412.806 0 1.181.58t.375 1.823q0 1.169-.452 1.786-.45.614-1.309.614-.226 0-.456-.05-.23-.046-.443-.136zM229.381 12.063V4.52h.496v7.543zm.992 0V4.52h.496v7.543zM238.763 5.943v.508q-.257-.12-.48-.18-.22-.062-.397-.062-.3 0-.468.124-.165.124-.165.345 0 .279.636.635.08.047.124.071.657.37.859.608.202.239.202.552 0 .28-.143.496-.14.217-.428.382.19.16.28.331.089.168.089.366 0 .44-.316.7-.317.261-.853.261-.226 0-.468-.046-.239-.044-.509-.133v-.509q.27.121.5.18.229.062.406.062.316 0 .49-.13.176-.13.176-.366 0-.316-.685-.698l-.074-.043q-.664-.372-.862-.608-.199-.239-.199-.555 0-.282.143-.502.146-.224.428-.375-.186-.137-.28-.31-.09-.174-.09-.388 0-.403.311-.648.31-.248.828-.248.223 0 .459.046.238.044.486.134zm-1.398 1.63q-.192.14-.288.28-.093.14-.093.285 0 .236.217.446.22.208.986.62.192-.139.285-.279.093-.14.093-.285 0-.235-.223-.446-.22-.211-.977-.62zM252.32 12.063V4.52h.495v7.543zm.991 0V4.52h.497v7.543zM260.957 9.487q0 .242.162.406.164.164.406.164.239 0 .403-.164.167-.168.167-.406 0-.24-.167-.407-.167-.167-.403-.167-.242 0-.406.164-.162.165-.162.41zm-.418 0q0-.419.285-.704.285-.289.7-.289.2 0 .376.075.18.074.322.217.143.146.22.325.078.18.078.376 0 .412-.288.7-.289.289-.707.289-.422 0-.704-.282-.282-.286-.282-.707zm-1.364-.453-.109-.298 3.23-1.296.128.298zm.145-2.006q0 .245.162.41.164.16.409.16.239 0 .406-.164.167-.167.167-.406 0-.239-.167-.403-.167-.168-.406-.168-.239 0-.406.165-.165.164-.165.406zm-.418 0q0-.419.285-.704.285-.288.704-.288.198 0 .378.074.183.075.323.214.14.14.214.323.077.18.077.38 0 .416-.288.705-.289.285-.704.285-.419 0-.704-.285-.285-.286-.285-.704zM275.257 12.063V4.52h.496v7.543zm.993 0V4.52h.496v7.543zM283.908 6.845v1.377h1.38v.527h-1.38v1.376h-.52V8.75h-1.378v-.527h1.377V6.845zM298.195 12.063V4.52h.497v7.543zm.993 0V4.52h.496v7.543zM320.172 8.863V8.61l.903-.902.279.279-.496.496h2.728v.509h-2.728l.496.496-.28.279z"/><path d="M340.249 12.063V4.52h.496v7.543zm.992 0V4.52h.496v7.543zM0 19.556v-7.543h.496v7.543zm.992 0v-7.543h.496v7.543zM7.959 12.89l.871 1.166h-.477L7.345 12.89zM16.47 12.89h.614l-1.008 1.166H15.6zM22.938 19.556v-7.543h.496v7.543zm.992 0v-7.543h.496v7.543zM31.018 13.34h.63v2.03l-.066 1.107h-.499l-.065-1.107zm0 3.841h.63v.788h-.63zM45.876 19.556v-7.543h.496v7.543zm.992 0v-7.543h.496v7.543zM53.872 14.673h.782v.94h-.782zm0 2.35h.782v.946h-.782zM68.814 19.556v-7.543h.496v7.543zm.992 0v-7.543h.496v7.543zM76.81 17.023h.782v.946h-.781zM91.752 19.556v-7.543h.496v7.543zm.992 0v-7.543h.497v7.543zM101.54 14.102l-1.11.602 1.11.604-.176.304-1.042-.63v1.17h-.356v-1.17l-1.042.63-.177-.304 1.11-.604-1.11-.602.177-.307 1.042.63v-1.17h.356v1.17l1.042-.63zM114.69 19.556v-7.543h.497v7.543zm.993 0v-7.543h.496v7.543zM123.946 13.34v1.72h-.54v-1.72zm-1.188 0v1.72h-.54v-1.72zM137.629 19.556v-7.543h.496v7.543zm.992 0v-7.543h.496v7.543zM146.853 13.15q-.413.707-.617 1.411-.202.7-.202 1.414 0 .71.202 1.414.204.704.617 1.417h-.496q-.468-.738-.698-1.436-.23-.7-.23-1.395 0-.691.23-1.392.23-.7.698-1.433zM160.567 19.556v-7.543h.496v7.543zm.992 0v-7.543h.496v7.543zM168.126 13.15h.496q.468.732.698 1.433.23.7.23 1.392 0 .698-.23 1.398-.23.701-.698 1.433h-.496q.412-.72.614-1.423.204-.704.204-1.408 0-.707-.204-1.41-.202-.705-.614-1.415zM183.505 19.556v-7.543H184v7.543zm.992 0v-7.543h.496v7.543zM191.542 17.03h.78v.641l-.61 1.188h-.477l.307-1.188zM206.443 19.556v-7.543h.496v7.543zm.992 0v-7.543h.496v7.543zM214.48 17.03h.781v.641l-.61 1.188h-.478l.307-1.188zm-.04-2.357h.78v.94h-.78zM229.381 19.556v-7.543h.496v7.543zm.992 0v-7.543h.496v7.543zM238.618 13.34h.589l-2.437 5.218h-.592zM252.32 19.556v-7.543h.495v7.543zm.991 0v-7.543h.497v7.543zM260.92 16.725h-.589v-.477q0-.304.093-.515.096-.214.357-.468l.279-.276q.192-.183.263-.32.075-.136.075-.288 0-.276-.205-.446-.201-.17-.54-.17-.241 0-.517.108-.276.105-.58.316v-.583q.291-.177.586-.263.298-.087.62-.087.577 0 .918.298.344.297.344.796 0 .236-.105.44-.103.202-.394.487l-.273.267q-.214.205-.273.335-.059.13-.059.32v.145zm-.61.456h.629v.788h-.63zM275.257 19.556v-7.543h.496v7.543zm.993 0v-7.543h.496v7.543zM282.01 16.344h3.278v.533h-3.278zm0-1.259h3.278v.527h-3.278zM298.195 19.556v-7.543h.497v7.543zm.993 0v-7.543h.496v7.543z"/><path d="M340.249 19.556v-7.543h.496v7.543zm.992 0v-7.543h.496v7.543zM.992 23.012v-3.506h.496v2.973h1.231v.533zM0 27.05v-7.543h.496v7.543zm.992 0v-3.503h1.727v.533H1.488v2.97z"/><path d="M2.595 23.012v-.533h3.947v.533zm0 1.067v-.533h3.947v.533z"/><path d="M6.418 23.012v-.533h3.947v.533zm0 1.067v-.533h3.947v.533z"/><path d="M10.241 23.012v-.533h3.947v.533zm0 1.067v-.533h3.947v.533z"/><path d="M14.064 23.012v-.533h3.947v.533zm0 1.067v-.533h3.947v.533z"/><path d="M17.887 23.012v-.533h3.947v.533zm0 1.067v-.533h3.947v.533z"/><path d="M21.71 24.079v-.533h3.947v.533zm0-1.067v-.533h1.228v-2.973h.496v3.506zm2.22 0v-3.506h.496v2.973h1.231v.533z"/><path d="M25.533 23.012v-.533h3.947v.533zm0 1.067v-.533h3.947v.533z"/><path d="M29.356 23.012v-.533h3.947v.533zm0 1.067v-.533h3.947v.533z"/><path d="M33.18 23.012v-.533h3.946v.533zm1.227 4.037v-2.97h-1.228v-.533h1.724v3.503zm.992 0v-3.503h1.727v.533h-1.23v2.97z"/><path d="M37.002 23.012v-.533h3.947v.533zm0 1.067v-.533h3.947v.533z"/><path d="M40.825 23.012v-.533h3.947v.533zm0 1.067v-.533h3.947v.533z"/><path d="M44.648 24.079v-.533h3.947v.533zm0-1.067v-.533h1.228v-2.973h.496v3.506zm2.22 0v-3.506h.496v2.973h1.231v.533z"/><path d="M48.471 23.012v-.533h3.947v.533zm0 1.067v-.533h3.947v.533z"/><path d="M52.294 23.012v-.533h3.947v.533zm0 1.067v-.533h3.947v.533z"/><path d="M56.117 23.012v-.533h3.947v.533zm1.228 4.037v-2.97h-1.228v-.533h1.724v3.503zm.992 0v-3.503h1.727v.533h-1.23v2.97z"/><path d="M59.94 23.012v-.533h3.947v.533zm0 1.067v-.533h3.947v.533z"/><path d="M63.763 23.012v-.533h3.947v.533zm0 1.067v-.533h3.947v.533z"/><path d="M67.586 24.079v-.533h3.947v.533zm0-1.067v-.533h1.228v-2.973h.496v3.506zm2.22 0v-3.506h.496v2.973h1.231v.533z"/><path d="M71.41 23.012v-.533h3.946v.533zm0 1.067v-.533h3.946v.533z"/><path d="M75.232 23.012v-.533h3.947v.533zm0 1.067v-.533h3.947v.533z"/><path d="M79.055 23.012v-.533h3.947v.533zm1.228 4.037v-2.97h-1.228v-.533h1.724v3.503zm.992 0v-3.503h1.727v.533h-1.23v2.97z"/><path d="M82.878 23.012v-.533h3.947v.533zm0 1.067v-.533h3.947v.533z"/><path d="M86.701 23.012v-.533h3.947v.533zm0 1.067v-.533h3.947v.533z"/><path d="M90.524 24.079v-.533h3.947v.533zm0-1.067v-.533h1.228v-2.973h.496v3.506zm2.22 0v-3.506h.497v2.973h1.23v.533z"/><path d="M94.347 23.012v-.533h3.948v.533zm0 1.067v-.533h3.948v.533z"/><path d="M98.17 23.012v-.533h3.948v.533zm0 1.067v-.533h3.948v.533z"/><path d="M101.994 23.012v-.533h3.947v.533zm1.227 4.037v-2.97h-1.227v-.533h1.723v3.503zm.993 0v-3.503h1.727v.533h-1.231v2.97z"/><path d="M105.817 23.012v-.533h3.947v.533zm0 1.067v-.533h3.947v.533z"/><path d="M109.64 23.012v-.533h3.947v.533zm0 1.067v-.533h3.947v.533z"/><path d="M113.463 24.079v-.533h3.947v.533zm0-1.067v-.533h1.227v-2.973h.497v3.506zm2.22 0v-3.506h.496v2.973h1.23v.533z"/><path d="M117.286 23.012v-.533h3.947v.533zm0 1.067v-.533h3.947v.533z"/><path d="M121.109 23.012v-.533h3.947v.533zm0 1.067v-.533h3.947v.533z"/><path d="M124.932 23.012v-.533h3.947v.533zm1.227 4.037v-2.97h-1.227v-.533h1.724v3.503zm.993 0v-3.503h1.727v.533h-1.231v2.97z"/><path d="M128.755 23.012v-.533h3.947v.533zm0 1.067v-.533h3.947v.533z"/><path d="M132.578 23.012v-.533h3.947v.533zm0 1.067v-.533h3.947v.533z"/><path d="M136.4 24.079v-.533h3.948v.533zm0-1.067v-.533h1.229v-2.973h.496v3.506zm2.22 0v-3.506h.497v2.973h1.23v.533z"/><path d="M140.224 23.012v-.533h3.947v.533zm0 1.067v-.533h3.947v.533z"/><path d="M144.047 23.012v-.533h3.947v.533zm0 1.067v-.533h3.947v.533z"/><path d="M147.87 23.012v-.533h3.947v.533zm1.228 4.037v-2.97h-1.228v-.533h1.724v3.503zm.992 0v-3.503h1.727v.533h-1.231v2.97z"/><path d="M151.693 23.012v-.533h3.947v.533zm0 1.067v-.533h3.947v.533z"/><path d="M155.516 23.012v-.533h3.947v.533zm0 1.067v-.533h3.947v.533z"/><path d="M159.339 24.079v-.533h3.947v.533zm0-1.067v-.533h1.228v-2.973h.496v3.506zm2.22 0v-3.506h.496v2.973h1.23v.533z"/><path d="M163.162 23.012v-.533h3.947v.533zm0 1.067v-.533h3.947v.533z"/><path d="M166.985 23.012v-.533h3.947v.533zm0 1.067v-.533h3.947v.533z"/><path d="M170.808 23.012v-.533h3.947v.533zm1.228 4.037v-2.97h-1.228v-.533h1.724v3.503zm.992 0v-3.503h1.727v.533h-1.231v2.97z"/><path d="M174.63 23.012v-.533h3.948v.533zm0 1.067v-.533h3.948v.533z"/><path d="M178.454 23.012v-.533h3.947v.533zm0 1.067v-.533h3.947v.533z"/><path d="M182.277 24.079v-.533h3.947v.533zm0-1.067v-.533h1.228v-2.973H184v3.506zm2.22 0v-3.506h.496v2.973h1.231v.533z"/><path d="M186.1 23.012v-.533h3.947v.533zm0 1.067v-.533h3.947v.533z"/><path d="M189.923 23.012v-.533h3.947v.533zm0 1.067v-.533h3.947v.533z"/><path d="M193.746 23.012v-.533h3.947v.533zm1.228 4.037v-2.97h-1.228v-.533h1.724v3.503zm.992 0v-3.503h1.727v.533h-1.23v2.97z"/><path d="M197.57 23.012v-.533h3.946v.533zm0 1.067v-.533h3.946v.533z"/><path d="M201.392 23.012v-.533h3.947v.533zm0 1.067v-.533h3.947v.533z"/><path d="M205.215 24.079v-.533h3.947v.533zm0-1.067v-.533h1.228v-2.973h.496v3.506zm2.22 0v-3.506h.496v2.973h1.231v.533z"/><path d="M209.038 23.012v-.533h3.947v.533zm0 1.067v-.533h3.947v.533z"/><path d="M212.861 23.012v-.533h3.947v.533zm0 1.067v-.533h3.947v.533z"/><path d="M216.684 23.012v-.533h3.947v.533zm1.228 4.037v-2.97h-1.228v-.533h1.724v3.503zm.992 0v-3.503h1.727v.533h-1.23v2.97z"/><path d="M220.507 23.012v-.533h3.947v.533zm0 1.067v-.533h3.947v.533z"/><path d="M224.33 23.012v-.533h3.947v.533zm0 1.067v-.533h3.947v.533z"/><path d="M228.153 24.079v-.533h3.947v.533zm0-1.067v-.533h1.228v-2.973h.496v3.506zm2.22 0v-3.506h.496v2.973h1.231v.533z"/><path d="M231.976 23.012v-.533h3.947v.533zm0 1.067v-.533h3.947v.533z"/><path d="M235.8 23.012v-.533h3.946v.533zm0 1.067v-.533h3.946v.533z"/><path d="M239.622 23.012v-.533h3.947v.533zm1.228 4.037v-2.97h-1.228v-.533h1.724v3.503zm.992 0v-3.503h1.727v.533h-1.23v2.97z"/><path d="M243.445 23.012v-.533h3.947v.533zm0 1.067v-.533h3.947v.533z"/><path d="M247.268 23.012v-.533h3.947v.533zm0 1.067v-.533h3.947v.533z"/><path d="M251.091 24.079v-.533h3.947v.533zm0-1.067v-.533h1.228v-2.973h.496v3.506zm2.22 0v-3.506h.496v2.973h1.231v.533z"/><path d="M254.914 23.012v-.533h3.947v.533zm0 1.067v-.533h3.947v.533z"/><path d="M258.737 23.012v-.533h3.947v.533zm0 1.067v-.533h3.947v.533z"/><path d="M262.56 23.012v-.533h3.948v.533zm1.228 4.037v-2.97h-1.228v-.533h1.724v3.503zm.992 0v-3.503h1.728v.533h-1.231v2.97z"/><path d="M266.383 23.012v-.533h3.948v.533zm0 1.067v-.533h3.948v.533z"/><path d="M270.207 23.012v-.533h3.947v.533zm0 1.067v-.533h3.947v.533z"/><path d="M274.03 24.079v-.533h3.947v.533zm0-1.067v-.533h1.227v-2.973h.496v3.506zm2.22 0v-3.506h.496v2.973h1.23v.533z"/><path d="M277.853 23.012v-.533h3.947v.533zm0 1.067v-.533h3.947v.533z"/><path d="M281.676 23.012v-.533h3.947v.533zm0 1.067v-.533h3.947v.533z"/><path d="M285.499 23.012v-.533h3.947v.533zm1.227 4.037v-2.97H285.5v-.533h1.724v3.503zm.993 0v-3.503h1.727v.533h-1.231v2.97z"/><path d="M289.322 23.012v-.533h3.947v.533zm0 1.067v-.533h3.947v.533z"/><path d="M293.145 23.012v-.533h3.947v.533zm0 1.067v-.533h3.947v.533z"/><path d="M296.968 24.079v-.533h3.947v.533zm0-1.067v-.533h1.227v-2.973h.497v3.506zm2.22 0v-3.506h.496v2.973h1.23v.533z"/><path d="M300.79 23.012v-.533h3.948v.533zm0 1.067v-.533h3.948v.533z"/><path d="M304.614 23.012v-.533h3.947v.533zm0 1.067v-.533h3.947v.533z"/><path d="M308.437 23.012v-.533h3.947v.533zm1.228 4.037v-2.97h-1.228v-.533h1.724v3.503zm.992 0v-3.503h1.727v.533h-1.231v2.97z"/><path d="M312.26 23.012v-.533h3.947v.533zm0 1.067v-.533h3.947v.533z"/><path d="M316.083 23.012v-.533h3.947v.533zm0 1.067v-.533h3.947v.533z"/><path d="M319.906 23.012v-.533h3.947v.533zm0 1.067v-.533h3.947v.533z"/><path d="M323.729 23.012v-.533h3.947v.533zm0 1.067v-.533h3.947v.533z"/><path d="M327.552 23.012v-.533h3.947v.533zm0 1.067v-.533h3.947v.533z"/><path d="M331.375 23.012v-.533h3.947v.533zm0 1.067v-.533h3.947v.533z"/><path d="M335.198 23.012v-.533h3.947v.533zm0 1.067v-.533h3.947v.533z"/><path d="M339.02 23.012v-.533h1.229v-2.973h.496v3.506zm1.229 4.037v-2.97h-1.228v-.533h1.724v3.503zm.992 0v-7.543h.496v7.543zM0 34.542V27h.496v7.543zm.992 0V27h.496v7.543zM9.59 31.088v-.902h.508v2.059H9.59v-.903l-.902.903-.28-.28.497-.495h-2.22v-.509h2.22l-.496-.496.279-.28zM34.407 34.542V27h.496v7.543zm.992 0V27h.496v7.543zM41.82 27.157h1.957v.583H41.82zm-.604 4.09v-2.921h.915v3.15q0 .347.176.545.177.196.49.196t.49-.196q.177-.198.177-.545v-3.15h.914v2.92q0 .943-.375 1.37-.375.429-1.206.429-.828 0-1.206-.428-.375-.428-.375-1.37zM57.345 34.542V27h.496v7.543zm.992 0V27h.496v7.543zM67.23 32.955h-2.884v-4.63h2.884v.807h-1.97v.998h1.784v.806H65.26v1.213h1.969zm-1.823-5.888h.852v.762h-.852zM80.283 34.542V27h.496v7.543zm.992 0V27h.497v7.543zM86.788 28.326h.986l.9 1.86.902-1.86h.986l-1.43 2.806v1.823h-.914v-1.823zM103.221 34.542V27h.496v7.543zm.993 0V27h.496v7.543zM111.612 29.064q-.35 0-.512.375-.161.372-.161 1.206 0 .83.16 1.206.162.372.513.372.353 0 .514-.372.161-.375.161-1.206 0-.834-.16-1.206-.162-.375-.515-.375zm-1.625 1.58q0-1.187.41-1.794.411-.608 1.215-.608.806 0 1.215.608.412.607.412 1.795 0 1.184-.412 1.792-.41.608-1.215.608-.804 0-1.216-.608-.41-.608-.41-1.792zM126.16 34.542V27h.496v7.543zm.992 0V27h.496v7.543zM136.463 34.204v.248h-3.823v-.248zM149.098 34.542V27h.496v7.543zm.992 0V27h.496v7.543zM155.916 32.725v-1.06q.266.273.567.415.304.143.611.143.36 0 .527-.18.168-.18.168-.573v-2.338h-1.12v-.806h2.034v3.144q0 .846-.356 1.212-.354.363-1.17.363-.294 0-.616-.08-.32-.082-.645-.24zM172.036 34.542V27h.496v7.543zm.992 0V27h.496v7.543zM178.885 28.326h.983l1.29 3.364v-3.364h.806v4.629h-.977l-1.296-3.364v3.364h-.806zM194.974 34.542V27h.496v7.543zm.992 0V27h.496v7.543zM201.817 28.326h.915v1.829l1.432-1.83h1.036l-1.46 1.824 1.512 2.806h-1.017l-1.097-2.084-.406.515v1.569h-.915zM217.912 34.542V27h.496v7.543zm.992 0V27h.496v7.543zM227.096 32.118v-.884h-.626v-.769h1.426v2.12q-.264.227-.583.345-.316.115-.679.115-.9 0-1.39-.624-.489-.626-.489-1.776 0-1.17.493-1.786.496-.617 1.43-.617.278 0 .548.08.27.078.506.227v1.014q-.193-.248-.444-.372-.248-.128-.546-.128-.52 0-.778.394-.257.39-.257 1.188 0 .772.248 1.175t.722.403q.143 0 .248-.025.106-.028.171-.08zM240.85 34.542V27h.496v7.543zm.992 0V27h.496v7.543zM248.602 30.853v1.37h.607q.438 0 .611-.149.177-.149.177-.518 0-.375-.183-.54-.183-.163-.605-.163zm0-1.805v1.076h.607q.348 0 .493-.124.15-.124.15-.41 0-.285-.153-.412-.149-.13-.49-.13zm-.884-.729h1.491q.772 0 1.16.295.39.291.39.874 0 .447-.229.698-.23.251-.673.291.53.053.797.357.27.304.27.85 0 .67-.403.97-.403.3-1.312.3h-1.491zM263.788 34.542V27h.496v7.543zm.992 0V27h.497v7.543zM273.62 32.821q-.217.112-.456.168-.238.056-.502.056-.936 0-1.43-.617-.492-.617-.492-1.783 0-1.17.493-1.786.493-.617 1.43-.617.263 0 .505.056.241.055.452.167v1.017q-.235-.217-.459-.316-.22-.103-.455-.103-.503 0-.76.4-.254.397-.254 1.182 0 .781.254 1.181.257.397.76.397.235 0 .455-.1.224-.102.46-.319zM286.726 34.542V27h.497v7.543zm.993 0V27h.496v7.543zM296.654 29.132h-1.968v.998h1.792v.806h-1.792v2.019h-.915v-4.63h2.883zM309.665 34.542V27h.496v7.543zm.992 0V27h.496v7.543z"/><path d="M340.249 34.542V27h.496v7.543zm.992 0V27h.496v7.543zM0 42.035v-7.543h.496v7.543zm.992 0v-7.543h.496v7.543zM34.407 42.035v-7.543h.496v7.543zm.992 0v-7.543h.496v7.543zM57.345 42.035v-7.543h.496v7.543zm.992 0v-7.543h.496v7.543zM80.283 42.035v-7.543h.496v7.543zm.992 0v-7.543h.497v7.543zM103.221 42.035v-7.543h.496v7.543zm.993 0v-7.543h.496v7.543zM126.16 42.035v-7.543h.496v7.543zm.992 0v-7.543h.496v7.543zM133.744 38.454h1.615v.509h-1.615zM149.098 42.035v-7.543h.496v7.543zm.992 0v-7.543h.496v7.543zM172.036 42.035v-7.543h.496v7.543zm.992 0v-7.543h.496v7.543zM194.974 42.035v-7.543h.496v7.543zm.992 0v-7.543h.496v7.543zM217.912 42.035v-7.543h.496v7.543zm.992 0v-7.543h.496v7.543zM240.85 42.035v-7.543h.496v7.543zm.992 0v-7.543h.496v7.543zM263.788 42.035v-7.543h.496v7.543zm.992 0v-7.543h.497v7.543zM286.726 42.035v-7.543h.497v7.543zm.993 0v-7.543h.496v7.543zM309.665 42.035v-7.543h.496v7.543zm.992 0v-7.543h.496v7.543z"/><path d="M340.249 42.035v-7.543h.496v7.543zm.992 0v-7.543h.496v7.543zM.992 45.491v-3.506h.496v2.973h1.231v.533zM0 49.528v-7.543h.496v7.543zm.992 0v-3.503h1.727v.533H1.488v2.97z"/><path d="M2.595 45.491v-.533h3.947v.533zm0 1.067v-.533h3.947v.533z"/><path d="M6.418 45.491v-.533h3.947v.533zm0 1.067v-.533h3.947v.533z"/><path d="M10.241 45.491v-.533h3.947v.533zm0 1.067v-.533h3.947v.533z"/><path d="M14.064 45.491v-.533h3.947v.533zm0 1.067v-.533h3.947v.533z"/><path d="M17.887 45.491v-.533h3.947v.533zm0 1.067v-.533h3.947v.533z"/><path d="M21.71 45.491v-.533h3.947v.533zm0 1.067v-.533h3.947v.533z"/><path d="M25.533 45.491v-.533h3.947v.533zm0 1.067v-.533h3.947v.533z"/><path d="M29.356 45.491v-.533h3.947v.533zm0 1.067v-.533h3.947v.533z"/><path d="M33.18 46.558v-.533h3.946v.533zm0-1.067v-.533h1.227v-2.973h.496v3.506zm2.22 0v-3.506h.495v2.973h1.231v.533z"/><path d="M37.002 45.491v-.533h3.947v.533zm0 1.067v-.533h3.947v.533z"/><path d="M40.825 45.491v-.533h3.947v.533zm1.228 4.037v-2.97h-1.228v-.533h1.724v3.503zm.992 0v-3.503h1.727v.533h-1.23v2.97z"/><path d="M44.648 45.491v-.533h3.947v.533zm0 1.067v-.533h3.947v.533z"/><path d="M48.471 45.491v-.533h3.947v.533zm0 1.067v-.533h3.947v.533z"/><path d="M52.294 45.491v-.533h3.947v.533zm0 1.067v-.533h3.947v.533z"/><path d="M56.117 46.558v-.533h3.947v.533zm0-1.067v-.533h1.228v-2.973h.496v3.506zm2.22 0v-3.506h.496v2.973h1.231v.533z"/><path d="M59.94 45.491v-.533h3.947v.533zm0 1.067v-.533h3.947v.533z"/><path d="M63.763 45.491v-.533h3.947v.533zm1.228 4.037v-2.97h-1.228v-.533h1.724v3.503zm.992 0v-3.503h1.727v.533h-1.23v2.97z"/><path d="M67.586 45.491v-.533h3.947v.533zm0 1.067v-.533h3.947v.533z"/><path d="M71.41 45.491v-.533h3.946v.533zm0 1.067v-.533h3.946v.533z"/><path d="M75.232 45.491v-.533h3.947v.533zm0 1.067v-.533h3.947v.533z"/><path d="M79.055 46.558v-.533h3.947v.533zm0-1.067v-.533h1.228v-2.973h.496v3.506zm2.22 0v-3.506h.497v2.973h1.23v.533z"/><path d="M82.878 45.491v-.533h3.947v.533zm0 1.067v-.533h3.947v.533z"/><path d="M86.701 45.491v-.533h3.947v.533zm1.228 4.037v-2.97h-1.228v-.533h1.724v3.503zm.992 0v-3.503h1.727v.533h-1.23v2.97z"/><path d="M90.524 45.491v-.533h3.947v.533zm0 1.067v-.533h3.947v.533z"/><path d="M94.347 45.491v-.533h3.948v.533zm0 1.067v-.533h3.948v.533z"/><path d="M98.17 45.491v-.533h3.948v.533zm0 1.067v-.533h3.948v.533z"/><path d="M101.994 46.558v-.533h3.947v.533zm0-1.067v-.533h1.227v-2.973h.496v3.506zm2.22 0v-3.506h.496v2.973h1.23v.533z"/><path d="M105.817 45.491v-.533h3.947v.533zm0 1.067v-.533h3.947v.533z"/><path d="M109.64 45.491v-.533h3.947v.533zm1.227 4.037v-2.97h-1.227v-.533h1.723v3.503zm.993 0v-3.503h1.727v.533h-1.231v2.97z"/><path d="M113.463 45.491v-.533h3.947v.533zm0 1.067v-.533h3.947v.533z"/><path d="M117.286 45.491v-.533h3.947v.533zm0 1.067v-.533h3.947v.533z"/><path d="M121.109 45.491v-.533h3.947v.533zm0 1.067v-.533h3.947v.533z"/><path d="M124.932 46.558v-.533h3.947v.533zm0-1.067v-.533h1.227v-2.973h.497v3.506zm2.22 0v-3.506h.496v2.973h1.23v.533z"/><path d="M128.755 45.491v-.533h3.947v.533zm0 1.067v-.533h3.947v.533z"/><path d="M132.578 45.491v-.533h3.947v.533zm1.228 4.037v-2.97h-1.228v-.533h1.724v3.503zm.992 0v-3.503h1.727v.533h-1.231v2.97z"/><path d="M136.4 45.491v-.533h3.948v.533zm0 1.067v-.533h3.948v.533z"/><path d="M140.224 45.491v-.533h3.947v.533zm0 1.067v-.533h3.947v.533z"/><path d="M144.047 45.491v-.533h3.947v.533zm0 1.067v-.533h3.947v.533z"/><path d="M147.87 46.558v-.533h3.947v.533zm0-1.067v-.533h1.228v-2.973h.496v3.506zm2.22 0v-3.506h.496v2.973h1.23v.533z"/><path d="M151.693 45.491v-.533h3.947v.533zm0 1.067v-.533h3.947v.533z"/><path d="M155.516 45.491v-.533h3.947v.533zm1.228 4.037v-2.97h-1.228v-.533h1.724v3.503zm.992 0v-3.503h1.727v.533h-1.231v2.97z"/><path d="M159.339 45.491v-.533h3.947v.533zm0 1.067v-.533h3.947v.533z"/><path d="M163.162 45.491v-.533h3.947v.533zm0 1.067v-.533h3.947v.533z"/><path d="M166.985 45.491v-.533h3.947v.533zm0 1.067v-.533h3.947v.533z"/><path d="M170.808 46.558v-.533h3.947v.533zm0-1.067v-.533h1.228v-2.973h.496v3.506zm2.22 0v-3.506h.496v2.973h1.231v.533z"/><path d="M174.63 45.491v-.533h3.948v.533zm0 1.067v-.533h3.948v.533z"/><path d="M178.454 45.491v-.533h3.947v.533zm1.228 4.037v-2.97h-1.228v-.533h1.724v3.503zm.992 0v-3.503h1.727v.533h-1.23v2.97z"/><path d="M182.277 45.491v-.533h3.947v.533zm0 1.067v-.533h3.947v.533z"/><path d="M186.1 45.491v-.533h3.947v.533zm0 1.067v-.533h3.947v.533z"/><path d="M189.923 45.491v-.533h3.947v.533zm0 1.067v-.533h3.947v.533z"/><path d="M193.746 46.558v-.533h3.947v.533zm0-1.067v-.533h1.228v-2.973h.496v3.506zm2.22 0v-3.506h.496v2.973h1.231v.533z"/><path d="M197.57 45.491v-.533h3.946v.533zm0 1.067v-.533h3.946v.533z"/><path d="M201.392 45.491v-.533h3.947v.533zm1.228 4.037v-2.97h-1.228v-.533h1.724v3.503zm.992 0v-3.503h1.727v.533h-1.23v2.97z"/><path d="M205.215 45.491v-.533h3.947v.533zm0 1.067v-.533h3.947v.533z"/><path d="M209.038 45.491v-.533h3.947v.533zm0 1.067v-.533h3.947v.533z"/><path d="M212.861 45.491v-.533h3.947v.533zm0 1.067v-.533h3.947v.533z"/><path d="M216.684 46.558v-.533h3.947v.533zm0-1.067v-.533h1.228v-2.973h.496v3.506zm2.22 0v-3.506h.496v2.973h1.231v.533z"/><path d="M220.507 45.491v-.533h3.947v.533zm0 1.067v-.533h3.947v.533z"/><path d="M224.33 45.491v-.533h3.947v.533zm1.228 4.037v-2.97h-1.228v-.533h1.724v3.503zm.992 0v-3.503h1.727v.533h-1.23v2.97z"/><path d="M228.153 45.491v-.533h3.947v.533zm0 1.067v-.533h3.947v.533z"/><path d="M231.976 45.491v-.533h3.947v.533zm0 1.067v-.533h3.947v.533z"/><path d="M235.8 45.491v-.533h3.946v.533zm0 1.067v-.533h3.946v.533z"/><path d="M239.622 46.558v-.533h3.947v.533zm0-1.067v-.533h1.228v-2.973h.496v3.506zm2.22 0v-3.506h.496v2.973h1.231v.533z"/><path d="M243.445 45.491v-.533h3.947v.533zm0 1.067v-.533h3.947v.533z"/><path d="M247.268 45.491v-.533h3.947v.533zm1.228 4.037v-2.97h-1.228v-.533h1.724v3.503zm.992 0v-3.503h1.727v.533h-1.23v2.97z"/><path d="M251.091 45.491v-.533h3.947v.533zm0 1.067v-.533h3.947v.533z"/><path d="M254.914 45.491v-.533h3.947v.533zm0 1.067v-.533h3.947v.533z"/><path d="M258.737 45.491v-.533h3.947v.533zm0 1.067v-.533h3.947v.533z"/><path d="M262.56 46.558v-.533h3.948v.533zm0-1.067v-.533h1.228v-2.973h.496v3.506zm2.22 0v-3.506h.497v2.973h1.23v.533z"/><path d="M266.383 45.491v-.533h3.948v.533zm0 1.067v-.533h3.948v.533z"/><path d="M270.207 45.491v-.533h3.947v.533zm1.227 4.037v-2.97h-1.227v-.533h1.723v3.503zm.993 0v-3.503h1.727v.533h-1.231v2.97z"/><path d="M274.03 45.491v-.533h3.947v.533zm0 1.067v-.533h3.947v.533z"/><path d="M277.853 45.491v-.533h3.947v.533zm0 1.067v-.533h3.947v.533z"/><path d="M281.676 45.491v-.533h3.947v.533zm0 1.067v-.533h3.947v.533z"/><path d="M285.499 46.558v-.533h3.947v.533zm0-1.067v-.533h1.227v-2.973h.497v3.506zm2.22 0v-3.506h.496v2.973h1.23v.533z"/><path d="M289.322 45.491v-.533h3.947v.533zm0 1.067v-.533h3.947v.533z"/><path d="M293.145 45.491v-.533h3.947v.533zm1.227 4.037v-2.97h-1.227v-.533h1.724v3.503zm.993 0v-3.503h1.727v.533h-1.231v2.97z"/><path d="M296.968 45.491v-.533h3.947v.533zm0 1.067v-.533h3.947v.533z"/><path d="M300.79 45.491v-.533h3.948v.533zm0 1.067v-.533h3.948v.533z"/><path d="M304.614 45.491v-.533h3.947v.533zm0 1.067v-.533h3.947v.533z"/><path d="M308.437 46.558v-.533h3.947v.533zm0-1.067v-.533h1.228v-2.973h.496v3.506zm2.22 0v-3.506h.496v2.973h1.23v.533z"/><path d="M312.26 45.491v-.533h3.947v.533zm0 1.067v-.533h3.947v.533z"/><path d="M318.303 49.528v-4.037h-2.22v-.533h2.716v4.57zm-.992 0v-2.97h-1.228v-.533h1.724v3.503zM340.249 49.528v-7.543h.496v7.543zm.992 0v-7.543h.496v7.543zM0 57.021v-7.543h.496v7.543zm.992 0v-7.543h.496v7.543zM8.762 52.575h-.744l-.23.23h.286v1.978h-.62v.434h1.879v-.434h-.627v-1.979h.292zm-.149-.152-.223-.22-.22.22zm-.756 2.143v-1.517h-.62l1.153-1.156 1.16 1.156h-.627v1.517h.627v.868H7.237v-.868zM42.053 57.021v-7.543h.496v7.543zm.992 0v-7.543h.496v7.543zM48.862 53.725v-2.92h.915v3.15q0 .347.176.545.177.196.49.196t.49-.196q.177-.198.177-.545v-3.15h.914v2.92q0 .943-.375 1.37-.375.429-1.206.429-.828 0-1.206-.428-.375-.428-.375-1.37zM64.991 57.021v-7.543h.496v7.543zm.992 0v-7.543h.496v7.543zM74.876 55.434h-2.884v-4.63h2.884v.807h-1.97v.998h1.784v.806h-1.783v1.213h1.969zM87.93 57.021v-7.543h.495v7.543zm.991 0v-7.543h.497v7.543zM94.943 51.61v-.805h2.756v.806h-.92v3.017h.92v.806h-2.756v-.806h.92V51.61zM110.867 57.021v-7.543h.496v7.543zm.993 0v-7.543h.496v7.543zM119.258 51.642l-.431 1.894h.865zm-.559-.837h1.12l1.25 4.629h-.915l-.286-1.144h-1.224l-.28 1.144h-.914zM133.806 57.021v-7.543h.496v7.543zm.992 0v-7.543h.496v7.543zM140.71 50.805h.915v1.764h1.144v-1.764h.915v4.629h-.915v-2.059h-1.144v2.059h-.914zM156.744 57.021v-7.543h.496v7.543zm.992 0v-7.543h.496v7.543zM163.922 55.434v-4.63h.914v3.824h1.957v.806zM179.682 57.021v-7.543h.496v7.543zm.992 0v-7.543h.496v7.543zM188.664 53.248q.137.028.236.13.102.1.248.39l.837 1.666h-1.005l-.558-1.17-.065-.136q-.245-.524-.576-.524h-.292v1.83h-.915v-4.63h1.321q.893 0 1.28.317.391.316.391 1.03 0 .477-.232.759-.233.282-.67.338zm-1.175-1.674v1.261h.431q.375 0 .536-.145.165-.15.165-.487 0-.338-.161-.484-.162-.145-.54-.145zM202.62 57.021v-7.543h.496v7.543zm.992 0v-7.543h.496v7.543zM211.469 55.434h-.915v-3.83h-1.175v-.8h3.265v.8h-1.175zM225.558 57.021v-7.543h.496v7.543zm.992 0v-7.543h.496v7.543zM233.62 53.403q-.692-.264-.937-.552-.245-.291-.245-.781 0-.63.403-.99t1.107-.36q.32 0 .639.075.32.072.632.214v.893q-.294-.208-.598-.316-.304-.109-.601-.109-.332 0-.509.134-.177.133-.177.381 0 .192.127.32.13.123.54.275l.394.15q.558.204.821.542.264.338.264.852 0 .701-.416 1.048-.412.345-1.25.345-.343 0-.69-.084-.345-.08-.667-.242v-.946q.366.26.707.388.344.127.679.127.338 0 .524-.152.186-.155.186-.43 0-.209-.124-.364-.124-.158-.36-.248zM248.496 57.021v-7.543h.496v7.543zm.992 0v-7.543h.496v7.543zM256.393 51.574v1.358h.376q.45 0 .629-.152.183-.152.183-.527 0-.376-.183-.528-.18-.151-.63-.151zm-.914-.77h1.255q.959 0 1.377.342.422.34.422 1.107 0 .765-.422 1.106-.418.342-1.377.342h-.34v1.733h-.915zM271.434 57.021v-7.543h.496v7.543zm.993 0v-7.543h.496v7.543zM278.34 50.805h3.13v.756l-2.145 3.067h2.19v.806h-3.244v-.757l2.08-3.066h-2.012zm1.004-.44-.685-.82h.552l.614.503.617-.502h.551l-.691.818zM294.372 57.021v-7.543h.497v7.543zm.993 0v-7.543h.496v7.543zM301.277 50.805h3.132v.756l-2.146 3.067h2.19v.806h-3.244v-.757l2.08-3.066h-2.012z"/><path d="M317.31 57.021v-7.543h.497v7.543zm.993 0v-7.543h.496v7.543zM328.494 54.15h2.239v-1.386h.509v1.895h-2.748l.497.496-.28.279-.899-.903v-.254l.9-.902.279.279zM340.249 57.021v-7.543h.496v7.543zm.992 0v-7.543h.496v7.543zM0 64.514v-7.543h.496v7.543zm.992 0v-7.543h.496v7.543zM42.053 64.514v-7.543h.496v7.543zm.992 0v-7.543h.496v7.543zM64.991 64.514v-7.543h.496v7.543zm.992 0v-7.543h.496v7.543zM87.93 64.514v-7.543h.495v7.543zm.991 0v-7.543h.497v7.543zM110.867 64.514v-7.543h.496v7.543zm.993 0v-7.543h.496v7.543zM133.806 64.514v-7.543h.496v7.543zm.992 0v-7.543h.496v7.543zM156.744 64.514v-7.543h.496v7.543zm.992 0v-7.543h.496v7.543zM179.682 64.514v-7.543h.496v7.543zm.992 0v-7.543h.496v7.543zM202.62 64.514v-7.543h.496v7.543zm.992 0v-7.543h.496v7.543zM225.558 64.514v-7.543h.496v7.543zm.992 0v-7.543h.496v7.543zM248.496 64.514v-7.543h.496v7.543zm.992 0v-7.543h.496v7.543zM271.434 64.514v-7.543h.496v7.543zm.993 0v-7.543h.496v7.543zM294.372 64.514v-7.543h.497v7.543zm.993 0v-7.543h.496v7.543z"/><path d="M317.31 64.514v-7.543h.497v7.543zm.993 0v-7.543h.496v7.543zM340.249 64.514v-7.543h.496v7.543zm.992 0v-7.543h.496v7.543zM.992 67.97v-3.506h.496v2.973h1.231v.533zM0 72.007v-7.543h.496v7.543zm.992 0v-3.503h1.727v.533H1.488v2.97z"/><path d="M2.595 67.97v-.533h3.947v.533zm0 1.067v-.533h3.947v.533z"/><path d="M6.418 67.97v-.533h3.947v.533zm0 1.067v-.533h3.947v.533z"/><path d="M10.241 67.97v-.533h3.947v.533zm0 1.067v-.533h3.947v.533z"/><path d="M14.064 67.97v-.533h3.947v.533zm0 1.067v-.533h3.947v.533z"/><path d="M17.887 67.97v-.533h3.947v.533zm0 1.067v-.533h3.947v.533z"/><path d="M21.71 67.97v-.533h3.947v.533zm0 1.067v-.533h3.947v.533z"/><path d="M25.533 67.97v-.533h3.947v.533zm0 1.067v-.533h3.947v.533z"/><path d="M29.356 67.97v-.533h3.947v.533zm0 1.067v-.533h3.947v.533z"/><path d="M33.18 67.97v-.533h3.946v.533zm0 1.067v-.533h3.946v.533z"/><path d="M37.002 67.97v-.533h3.947v.533zm0 1.067v-.533h3.947v.533z"/><path d="M40.825 69.037v-.533h3.947v.533zm0-1.067v-.533h1.228v-2.973h.496v3.506zm2.22 0v-3.506h.496v2.973h1.231v.533z"/><path d="M44.648 67.97v-.533h3.947v.533zm0 1.067v-.533h3.947v.533z"/><path d="M48.471 67.97v-.533h3.947v.533zm0 1.067v-.533h3.947v.533z"/><path d="M52.294 67.97v-.533h3.947v.533zm1.228 4.037v-2.97h-1.228v-.533h1.724v3.503zm.992 0v-3.503h1.727v.533h-1.23v2.97z"/><path d="M56.117 67.97v-.533h3.947v.533zm0 1.067v-.533h3.947v.533z"/><path d="M59.94 67.97v-.533h3.947v.533zm0 1.067v-.533h3.947v.533z"/><path d="M63.763 69.037v-.533h3.947v.533zm0-1.067v-.533h1.228v-2.973h.496v3.506zm2.22 0v-3.506h.496v2.973h1.231v.533z"/><path d="M67.586 67.97v-.533h3.947v.533zm0 1.067v-.533h3.947v.533z"/><path d="M71.41 67.97v-.533h3.946v.533zm0 1.067v-.533h3.946v.533z"/><path d="M75.232 67.97v-.533h3.947v.533zm1.228 4.037v-2.97h-1.228v-.533h1.724v3.503zm.992 0v-3.503h1.727v.533h-1.23v2.97z"/><path d="M79.055 67.97v-.533h3.947v.533zm0 1.067v-.533h3.947v.533z"/><path d="M82.878 67.97v-.533h3.947v.533zm0 1.067v-.533h3.947v.533z"/><path d="M86.701 69.037v-.533h3.947v.533zm0-1.067v-.533h1.228v-2.973h.496v3.506zm2.22 0v-3.506h.497v2.973h1.23v.533z"/><path d="M90.524 67.97v-.533h3.947v.533zm0 1.067v-.533h3.947v.533z"/><path d="M94.347 67.97v-.533h3.948v.533zm0 1.067v-.533h3.948v.533z"/><path d="M98.17 67.97v-.533h3.948v.533zm1.228 4.037v-2.97H98.17v-.533h1.724v3.503zm.993 0v-3.503h1.727v.533h-1.231v2.97z"/><path d="M101.994 67.97v-.533h3.947v.533zm0 1.067v-.533h3.947v.533z"/><path d="M105.817 67.97v-.533h3.947v.533zm0 1.067v-.533h3.947v.533z"/><path d="M109.64 69.037v-.533h3.947v.533zm0-1.067v-.533h1.227v-2.973h.496v3.506zm2.22 0v-3.506h.496v2.973h1.23v.533z"/><path d="M113.463 67.97v-.533h3.947v.533zm0 1.067v-.533h3.947v.533z"/><path d="M117.286 67.97v-.533h3.947v.533zm0 1.067v-.533h3.947v.533z"/><path d="M121.109 67.97v-.533h3.947v.533zm1.227 4.037v-2.97h-1.227v-.533h1.724v3.503zm.993 0v-3.503h1.727v.533h-1.231v2.97z"/><path d="M124.932 67.97v-.533h3.947v.533zm0 1.067v-.533h3.947v.533z"/><path d="M128.755 67.97v-.533h3.947v.533zm0 1.067v-.533h3.947v.533z"/><path d="M132.578 69.037v-.533h3.947v.533zm0-1.067v-.533h1.228v-2.973h.496v3.506zm2.22 0v-3.506h.496v2.973h1.23v.533z"/><path d="M136.4 67.97v-.533h3.948v.533zm0 1.067v-.533h3.948v.533z"/><path d="M140.224 67.97v-.533h3.947v.533zm0 1.067v-.533h3.947v.533z"/><path d="M144.047 67.97v-.533h3.947v.533zm1.228 4.037v-2.97h-1.228v-.533h1.724v3.503zm.992 0v-3.503h1.727v.533h-1.231v2.97z"/><path d="M147.87 67.97v-.533h3.947v.533zm0 1.067v-.533h3.947v.533z"/><path d="M151.693 67.97v-.533h3.947v.533zm0 1.067v-.533h3.947v.533z"/><path d="M155.516 69.037v-.533h3.947v.533zm0-1.067v-.533h1.228v-2.973h.496v3.506zm2.22 0v-3.506h.496v2.973h1.23v.533z"/><path d="M159.339 67.97v-.533h3.947v.533zm0 1.067v-.533h3.947v.533z"/><path d="M163.162 67.97v-.533h3.947v.533zm0 1.067v-.533h3.947v.533z"/><path d="M166.985 67.97v-.533h3.947v.533zm1.228 4.037v-2.97h-1.228v-.533h1.724v3.503zm.992 0v-3.503h1.727v.533H169.7v2.97z"/><path d="M170.808 67.97v-.533h3.947v.533zm0 1.067v-.533h3.947v.533z"/><path d="M174.63 67.97v-.533h3.948v.533zm0 1.067v-.533h3.948v.533z"/><path d="M178.454 69.037v-.533h3.947v.533zm0-1.067v-.533h1.228v-2.973h.496v3.506zm2.22 0v-3.506h.496v2.973h1.231v.533z"/><path d="M182.277 67.97v-.533h3.947v.533zm0 1.067v-.533h3.947v.533z"/><path d="M186.1 67.97v-.533h3.947v.533zm0 1.067v-.533h3.947v.533z"/><path d="M189.923 67.97v-.533h3.947v.533zm1.228 4.037v-2.97h-1.228v-.533h1.724v3.503zm.992 0v-3.503h1.727v.533h-1.23v2.97z"/><path d="M193.746 67.97v-.533h3.947v.533zm0 1.067v-.533h3.947v.533z"/><path d="M197.57 67.97v-.533h3.946v.533zm0 1.067v-.533h3.946v.533z"/><path d="M201.392 69.037v-.533h3.947v.533zm0-1.067v-.533h1.228v-2.973h.496v3.506zm2.22 0v-3.506h.496v2.973h1.231v.533z"/><path d="M205.215 67.97v-.533h3.947v.533zm0 1.067v-.533h3.947v.533z"/><path d="M209.038 67.97v-.533h3.947v.533zm0 1.067v-.533h3.947v.533z"/><path d="M212.861 67.97v-.533h3.947v.533zm1.228 4.037v-2.97h-1.228v-.533h1.724v3.503zm.992 0v-3.503h1.727v.533h-1.23v2.97z"/><path d="M216.684 67.97v-.533h3.947v.533zm0 1.067v-.533h3.947v.533z"/><path d="M220.507 67.97v-.533h3.947v.533zm0 1.067v-.533h3.947v.533z"/><path d="M224.33 69.037v-.533h3.947v.533zm0-1.067v-.533h1.228v-2.973h.496v3.506zm2.22 0v-3.506h.496v2.973h1.231v.533z"/><path d="M228.153 67.97v-.533h3.947v.533zm0 1.067v-.533h3.947v.533z"/><path d="M231.976 67.97v-.533h3.947v.533zm0 1.067v-.533h3.947v.533z"/><path d="M235.8 67.97v-.533h3.946v.533zm1.227 4.037v-2.97H235.8v-.533h1.724v3.503zm.992 0v-3.503h1.727v.533h-1.23v2.97z"/><path d="M239.622 67.97v-.533h3.947v.533zm0 1.067v-.533h3.947v.533z"/><path d="M243.445 67.97v-.533h3.947v.533zm0 1.067v-.533h3.947v.533z"/><path d="M247.268 69.037v-.533h3.947v.533zm0-1.067v-.533h1.228v-2.973h.496v3.506zm2.22 0v-3.506h.496v2.973h1.231v.533z"/><path d="M251.091 67.97v-.533h3.947v.533zm0 1.067v-.533h3.947v.533z"/><path d="M254.914 67.97v-.533h3.947v.533zm0 1.067v-.533h3.947v.533z"/><path d="M258.737 67.97v-.533h3.947v.533zm1.228 4.037v-2.97h-1.228v-.533h1.724v3.503zm.992 0v-3.503h1.727v.533h-1.23v2.97z"/><path d="M262.56 67.97v-.533h3.948v.533zm0 1.067v-.533h3.948v.533z"/><path d="M266.383 67.97v-.533h3.948v.533zm0 1.067v-.533h3.948v.533z"/><path d="M270.207 69.037v-.533h3.947v.533zm0-1.067v-.533h1.227v-2.973h.496v3.506zm2.22 0v-3.506h.496v2.973h1.23v.533z"/><path d="M274.03 67.97v-.533h3.947v.533zm0 1.067v-.533h3.947v.533z"/><path d="M277.853 67.97v-.533h3.947v.533zm0 1.067v-.533h3.947v.533z"/><path d="M281.676 67.97v-.533h3.947v.533zm1.227 4.037v-2.97h-1.227v-.533h1.724v3.503zm.993 0v-3.503h1.727v.533h-1.231v2.97z"/><path d="M285.499 67.97v-.533h3.947v.533zm0 1.067v-.533h3.947v.533z"/><path d="M289.322 67.97v-.533h3.947v.533zm0 1.067v-.533h3.947v.533z"/><path d="M293.145 69.037v-.533h3.947v.533zm0-1.067v-.533h1.227v-2.973h.497v3.506zm2.22 0v-3.506h.496v2.973h1.23v.533z"/><path d="M296.968 67.97v-.533h3.947v.533zm0 1.067v-.533h3.947v.533z"/><path d="M300.79 67.97v-.533h3.948v.533zm0 1.067v-.533h3.948v.533z"/><path d="M304.614 67.97v-.533h3.947v.533zm0 1.067v-.533h3.947v.533z"/><path d="M308.437 67.97v-.533h3.947v.533zm0 1.067v-.533h3.947v.533z"/><path d="M312.26 67.97v-.533h3.947v.533zm0 1.067v-.533h3.947v.533z"/><path d="M316.083 69.037v-.533h3.947v.533zm0-1.067v-.533h1.228v-2.973h.496v3.506zm2.22 0v-3.506h.496v2.973h1.23v.533z"/><path d="M319.906 67.97v-.533h3.947v.533zm0 1.067v-.533h3.947v.533z"/><path d="M323.729 67.97v-.533h3.947v.533zm0 1.067v-.533h3.947v.533z"/><path d="M327.552 67.97v-.533h3.947v.533zm0 1.067v-.533h3.947v.533z"/><path d="M331.375 67.97v-.533h3.947v.533zm0 1.067v-.533h3.947v.533z"/><path d="M335.198 67.97v-.533h3.947v.533zm0 1.067v-.533h3.947v.533z"/><path d="M339.02 67.97v-.533h1.229v-2.973h.496v3.506zm1.229 4.037v-2.97h-1.228v-.533h1.724v3.503zm.992 0v-7.543h.496v7.543zM0 79.5v-7.543h.496V79.5zm.992 0v-7.543h.496V79.5zM7.788 75.283h.286v2.413h.632v-2.413h.292l-.608-.601zm1.762.245h-.627v2.385H7.857v-2.385h-.62l1.153-1.156zM53.522 79.5v-7.543h.496V79.5zm.992 0v-7.543h.496V79.5zM60.331 76.204v-2.92h.915v3.15q0 .347.176.545.177.196.49.196t.49-.196q.177-.198.177-.545v-3.15h.915v2.92q0 .943-.376 1.37-.375.429-1.206.429-.828 0-1.206-.428-.375-.428-.375-1.37zm1.361 1.758h.437q-.164.22-.223.329-.056.109-.056.186 0 .121.093.195.096.078.251.078.118 0 .236-.025.121-.022.245-.071v.483q-.167.035-.316.05-.146.019-.273.019-.354 0-.546-.143-.192-.143-.192-.41 0-.164.084-.334.086-.168.26-.357zM76.46 79.5v-7.543h.496V79.5zm.992 0v-7.543h.496V79.5zM85.365 77.913h.437q-.164.22-.223.328-.056.109-.056.186 0 .121.093.196.096.077.251.077.118 0 .236-.025.12-.021.245-.07v.483q-.167.034-.316.05-.146.018-.273.018-.354 0-.546-.143-.192-.142-.192-.409 0-.164.084-.335.086-.167.26-.356zm.98 0H83.46v-4.63h2.884v.807h-1.969v.998h1.783v.806h-1.783v1.213h1.969zM99.398 79.5v-7.543h.496V79.5zm.993 0v-7.543h.496V79.5zM106.412 74.09v-.806h2.756v.806h-.92v3.017h.92v.806h-2.756v-.806h.92V74.09zm1.398 3.823h.437q-.164.22-.223.328-.056.109-.056.186 0 .121.093.196.096.077.252.077.117 0 .235-.025.121-.021.245-.07v.483q-.167.034-.316.05-.146.018-.273.018-.353 0-.546-.143-.192-.142-.192-.409 0-.164.084-.335.087-.167.26-.356zM122.336 79.5v-7.543h.497V79.5zm.993 0v-7.543h.496V79.5zM131.644 77.913h.438q-.165.22-.224.328-.055.109-.055.186 0 .121.093.196.096.077.25.077.119 0 .236-.025.121-.021.245-.07v.483q-.167.034-.316.05-.146.018-.273.018-.353 0-.546-.143-.192-.142-.192-.409 0-.164.084-.335.087-.167.26-.356zm-.917-3.792-.431 1.894h.865zm-.558-.837h1.119l1.25 4.629h-.915l-.286-1.144h-1.224l-.28 1.144h-.914ZM145.275 79.5v-7.543h.496V79.5zm.992 0v-7.543h.496V79.5zM155.494 77.913h-.946l-.883-1.532-.88 1.532h-.946l1.358-2.35-1.321-2.28h.945l.844 1.473.846-1.472h.946l-1.315 2.278zM168.213 79.5v-7.543h.496V79.5zm.992 0v-7.543h.496V79.5zM176.603 77.15l.815-3.866h.921l-1.1 4.629h-1.269l-1.1-4.63h.92zM191.15 79.5v-7.543h.497V79.5zm.993 0v-7.543h.496V79.5zM197.898 73.284h1.091l.552 2.03.549-2.03h1.097v4.629h-.787v-3.709l-.49 2.025h-.729l-.496-2.025v3.709h-.787zM214.089 79.5v-7.543h.496V79.5zm.992 0v-7.543h.496V79.5zM221.909 74.108v2.98h.248q.54 0 .769-.338.23-.341.23-1.156 0-.81-.23-1.148-.23-.338-.77-.338zm-.915-.824h.98q1.135 0 1.634.542.499.54.499 1.768 0 1.23-.5 1.776-.498.543-1.633.543h-.98ZM237.027 79.5v-7.543h.496V79.5zm.992 0v-7.543h.496V79.5zM245.089 75.882q-.692-.264-.937-.552-.245-.292-.245-.781 0-.63.403-.99t1.107-.36q.32 0 .639.075.32.072.633.214v.893q-.295-.208-.599-.316-.304-.109-.601-.109-.332 0-.509.134-.177.133-.177.381 0 .192.128.32.13.123.539.275l.394.15q.558.204.821.542.264.338.264.852 0 .701-.415 1.048-.413.345-1.25.345-.344 0-.691-.084-.345-.08-.667-.242v-.946q.366.26.707.388.344.127.679.127.338 0 .524-.152.186-.155.186-.43 0-.209-.124-.364-.124-.158-.36-.248zm-.152-3.039-.686-.818h.552l.614.502.617-.502h.552l-.691.818zM259.965 79.5v-7.543h.496V79.5zm.992 0v-7.543h.497V79.5zM269.797 77.78q-.217.111-.456.167-.238.056-.502.056-.936 0-1.43-.617-.492-.617-.492-1.783 0-1.17.493-1.786.493-.617 1.43-.617.263 0 .505.056.241.055.452.167v1.017q-.235-.217-.459-.316-.22-.103-.455-.103-.503 0-.76.4-.254.397-.254 1.182 0 .781.254 1.181.257.397.76.397.235 0 .455-.1.224-.102.46-.319zm-1.497-4.937-.686-.818h.552l.614.502.617-.502h.552l-.691.818zM282.903 79.5v-7.543h.497V79.5zm.993 0v-7.543h.496V79.5zM290.692 75.283h.285v2.413h.633v-2.413h.291l-.607-.601zm1.761.245h-.626v2.385h-1.067v-2.385h-.62l1.154-1.156z"/><path d="M340.249 79.5v-7.543h.496V79.5zm.992 0v-7.543h.496V79.5zM0 86.993V79.45h.496v7.543zm.992 0V79.45h.496v7.543zM53.522 86.993V79.45h.496v7.543zm.992 0V79.45h.496v7.543zM76.46 86.993V79.45h.496v7.543zm.992 0V79.45h.496v7.543zM99.398 86.993V79.45h.496v7.543zm.993 0V79.45h.496v7.543zM122.336 86.993V79.45h.497v7.543zm.993 0V79.45h.496v7.543zM145.275 86.993V79.45h.496v7.543zm.992 0V79.45h.496v7.543zM168.213 86.993V79.45h.496v7.543zm.992 0V79.45h.496v7.543zM191.15 86.993V79.45h.497v7.543zm.993 0V79.45h.496v7.543zM214.089 86.993V79.45h.496v7.543zm.992 0V79.45h.496v7.543zM237.027 86.993V79.45h.496v7.543zm.992 0V79.45h.496v7.543zM259.965 86.993V79.45h.496v7.543zm.992 0V79.45h.497v7.543zM282.903 86.993V79.45h.497v7.543zm.993 0V79.45h.496v7.543z"/><path d="M340.249 86.993V79.45h.496v7.543zm.992 0V79.45h.496v7.543zM.992 90.45v-3.507h.496v2.973h1.231v.533zM0 94.485v-7.543h.496v7.543zm.992 0v-3.503h1.727v.533H1.488v2.97z"/><path d="M2.595 90.45v-.534h3.947v.533zm0 1.066v-.533h3.947v.533z"/><path d="M6.418 90.45v-.534h3.947v.533zm0 1.066v-.533h3.947v.533z"/><path d="M10.241 90.45v-.534h3.947v.533zm0 1.066v-.533h3.947v.533z"/><path d="M14.064 90.45v-.534h3.947v.533zm0 1.066v-.533h3.947v.533z"/><path d="M17.887 90.45v-.534h3.947v.533zm0 1.066v-.533h3.947v.533z"/><path d="M21.71 90.45v-.534h3.947v.533zm0 1.066v-.533h3.947v.533z"/><path d="M25.533 90.45v-.534h3.947v.533zm0 1.066v-.533h3.947v.533z"/><path d="M29.356 90.45v-.534h3.947v.533zm0 1.066v-.533h3.947v.533z"/><path d="M33.18 90.45v-.534h3.946v.533zm0 1.066v-.533h3.946v.533z"/><path d="M37.002 90.45v-.534h3.947v.533zm0 1.066v-.533h3.947v.533z"/><path d="M40.825 90.45v-.534h3.947v.533zm0 1.066v-.533h3.947v.533z"/><path d="M44.648 90.45v-.534h3.947v.533zm0 1.066v-.533h3.947v.533z"/><path d="M48.471 90.45v-.534h3.947v.533zm0 1.066v-.533h3.947v.533z"/><path d="M52.294 91.516v-.533h3.947v.533zm0-1.067v-.533h1.228v-2.973h.496v3.506zm2.22 0v-3.506h.496v2.973h1.231v.533z"/><path d="M56.117 90.45v-.534h3.947v.533zm0 1.066v-.533h3.947v.533z"/><path d="M59.94 90.45v-.534h3.947v.533zm0 1.066v-.533h3.947v.533z"/><path d="M63.763 90.45v-.534h3.947v.533zm0 1.066v-.533h3.947v.533z"/><path d="M67.586 90.45v-.534h3.947v.533zm0 1.066v-.533h3.947v.533z"/><path d="M71.41 90.45v-.534h3.946v.533zm0 1.066v-.533h3.946v.533z"/><path d="M75.232 91.516v-.533h3.947v.533zm0-1.067v-.533h1.228v-2.973h.496v3.506zm2.22 0v-3.506h.496v2.973h1.231v.533z"/><path d="M79.055 90.45v-.534h3.947v.533zm0 1.066v-.533h3.947v.533z"/><path d="M82.878 90.45v-.534h3.947v.533zm0 1.066v-.533h3.947v.533z"/><path d="M86.701 90.45v-.534h3.947v.533zm0 1.066v-.533h3.947v.533z"/><path d="M90.524 90.45v-.534h3.947v.533zm0 1.066v-.533h3.947v.533z"/><path d="M94.347 90.45v-.534h3.948v.533zm0 1.066v-.533h3.948v.533z"/><path d="M98.17 91.516v-.533h3.948v.533zm0-1.067v-.533h1.228v-2.973h.496v3.506zm2.22 0v-3.506h.497v2.973h1.23v.533z"/><path d="M101.994 90.45v-.534h3.947v.533zm0 1.066v-.533h3.947v.533z"/><path d="M105.817 90.45v-.534h3.947v.533zm0 1.066v-.533h3.947v.533z"/><path d="M109.64 90.45v-.534h3.947v.533zm0 1.066v-.533h3.947v.533z"/><path d="M113.463 90.45v-.534h3.947v.533zm0 1.066v-.533h3.947v.533z"/><path d="M117.286 90.45v-.534h3.947v.533zm0 1.066v-.533h3.947v.533z"/><path d="M121.109 91.516v-.533h3.947v.533zm0-1.067v-.533h1.227v-2.973h.497v3.506zm2.22 0v-3.506h.496v2.973h1.23v.533z"/><path d="M124.932 90.45v-.534h3.947v.533zm0 1.066v-.533h3.947v.533z"/><path d="M128.755 90.45v-.534h3.947v.533zm0 1.066v-.533h3.947v.533z"/><path d="M132.578 90.45v-.534h3.947v.533zm0 1.066v-.533h3.947v.533z"/><path d="M136.4 90.45v-.534h3.948v.533zm0 1.066v-.533h3.948v.533z"/><path d="M140.224 90.45v-.534h3.947v.533zm0 1.066v-.533h3.947v.533z"/><path d="M144.047 91.516v-.533h3.947v.533zm0-1.067v-.533h1.228v-2.973h.496v3.506zm2.22 0v-3.506h.496v2.973h1.23v.533z"/><path d="M147.87 90.45v-.534h3.947v.533zm0 1.066v-.533h3.947v.533z"/><path d="M151.693 90.45v-.534h3.947v.533zm0 1.066v-.533h3.947v.533z"/><path d="M155.516 90.45v-.534h3.947v.533zm0 1.066v-.533h3.947v.533z"/><path d="M159.339 90.45v-.534h3.947v.533zm0 1.066v-.533h3.947v.533z"/><path d="M163.162 90.45v-.534h3.947v.533zm0 1.066v-.533h3.947v.533z"/><path d="M166.985 91.516v-.533h3.947v.533zm0-1.067v-.533h1.228v-2.973h.496v3.506zm2.22 0v-3.506h.496v2.973h1.23v.533z"/><path d="M170.808 90.45v-.534h3.947v.533zm0 1.066v-.533h3.947v.533z"/><path d="M174.63 90.45v-.534h3.948v.533zm0 1.066v-.533h3.948v.533z"/><path d="M178.454 90.45v-.534h3.947v.533zm0 1.066v-.533h3.947v.533z"/><path d="M182.277 90.45v-.534h3.947v.533zm0 1.066v-.533h3.947v.533z"/><path d="M186.1 90.45v-.534h3.947v.533zm0 1.066v-.533h3.947v.533z"/><path d="M189.923 91.516v-.533h3.947v.533zm0-1.067v-.533h1.228v-2.973h.496v3.506zm2.22 0v-3.506h.496v2.973h1.231v.533z"/><path d="M193.746 90.45v-.534h3.947v.533zm0 1.066v-.533h3.947v.533z"/><path d="M197.57 90.45v-.534h3.946v.533zm0 1.066v-.533h3.946v.533z"/><path d="M201.392 90.45v-.534h3.947v.533zm0 1.066v-.533h3.947v.533z"/><path d="M205.215 90.45v-.534h3.947v.533zm0 1.066v-.533h3.947v.533z"/><path d="M209.038 90.45v-.534h3.947v.533zm0 1.066v-.533h3.947v.533z"/><path d="M212.861 91.516v-.533h3.947v.533zm0-1.067v-.533h1.228v-2.973h.496v3.506zm2.22 0v-3.506h.496v2.973h1.231v.533z"/><path d="M216.684 90.45v-.534h3.947v.533zm0 1.066v-.533h3.947v.533z"/><path d="M220.507 90.45v-.534h3.947v.533zm0 1.066v-.533h3.947v.533z"/><path d="M224.33 90.45v-.534h3.947v.533zm0 1.066v-.533h3.947v.533z"/><path d="M228.153 90.45v-.534h3.947v.533zm0 1.066v-.533h3.947v.533z"/><path d="M231.976 90.45v-.534h3.947v.533zm0 1.066v-.533h3.947v.533z"/><path d="M235.8 91.516v-.533h3.946v.533zm0-1.067v-.533h1.227v-2.973h.496v3.506zm2.22 0v-3.506h.495v2.973h1.231v.533z"/><path d="M239.622 90.45v-.534h3.947v.533zm0 1.066v-.533h3.947v.533z"/><path d="M243.445 90.45v-.534h3.947v.533zm0 1.066v-.533h3.947v.533z"/><path d="M247.268 90.45v-.534h3.947v.533zm0 1.066v-.533h3.947v.533z"/><path d="M251.091 90.45v-.534h3.947v.533zm0 1.066v-.533h3.947v.533z"/><path d="M254.914 90.45v-.534h3.947v.533zm0 1.066v-.533h3.947v.533z"/><path d="M258.737 91.516v-.533h3.947v.533zm0-1.067v-.533h1.228v-2.973h.496v3.506zm2.22 0v-3.506h.497v2.973h1.23v.533z"/><path d="M262.56 90.45v-.534h3.948v.533zm0 1.066v-.533h3.948v.533z"/><path d="M266.383 90.45v-.534h3.948v.533zm0 1.066v-.533h3.948v.533z"/><path d="M270.207 90.45v-.534h3.947v.533zm0 1.066v-.533h3.947v.533z"/><path d="M274.03 90.45v-.534h3.947v.533zm0 1.066v-.533h3.947v.533z"/><path d="M277.853 90.45v-.534h3.947v.533zm0 1.066v-.533h3.947v.533z"/><path d="M281.676 91.516v-.533h3.947v.533zm0-1.067v-.533h1.227v-2.973h.496v3.506zm2.22 0v-3.506h.496v2.973h1.23v.533z"/><path d="M285.499 90.45v-.534h3.947v.533zm0 1.066v-.533h3.947v.533z"/><path d="M289.322 90.45v-.534h3.947v.533zm0 1.066v-.533h3.947v.533z"/><path d="M293.145 90.45v-.534h3.947v.533zm0 1.066v-.533h3.947v.533z"/><path d="M296.968 90.45v-.534h3.947v.533zm0 1.066v-.533h3.947v.533z"/><path d="M300.79 90.45v-.534h3.948v.533zm0 1.066v-.533h3.948v.533z"/><path d="M304.614 90.45v-.534h3.947v.533zm0 1.066v-.533h3.947v.533z"/><path d="M308.437 90.45v-.534h3.947v.533zm0 1.066v-.533h3.947v.533z"/><path d="M312.26 90.45v-.534h3.947v.533zm0 1.066v-.533h3.947v.533z"/><path d="M316.083 90.45v-.534h3.947v.533zm0 1.066v-.533h3.947v.533z"/><path d="M319.906 90.45v-.534h3.947v.533zm0 1.066v-.533h3.947v.533z"/><path d="M323.729 90.45v-.534h3.947v.533zm0 1.066v-.533h3.947v.533z"/><path d="M327.552 90.45v-.534h3.947v.533zm0 1.066v-.533h3.947v.533z"/><path d="M331.375 90.45v-.534h3.947v.533zm0 1.066v-.533h3.947v.533z"/><path d="M335.198 90.45v-.534h3.947v.533zm0 1.066v-.533h3.947v.533z"/><path d="M339.02 90.45v-.534h1.229v-2.973h.496v3.506zm1.229 4.036v-2.97h-1.228v-.533h1.724v3.503zm.992 0v-7.543h.496v7.543zM0 101.98v-7.544h.496v7.543zm.992 0v-7.544h.496v7.543z"/><path d="M340.249 101.98v-7.544h.496v7.543zm.992 0v-7.544h.496v7.543zM0 109.472v-7.543h.496v7.543zm.992 0v-7.543h.496v7.543z"/><path d="M340.249 109.472v-7.543h.496v7.543zm.992 0v-7.543h.496v7.543zM.992 112.928v-3.506h.496v2.973h1.231v.533zM0 113.995v-4.573h.496v4.04h2.223v.533z"/><path d="M2.595 112.928v-.533h3.947v.533zm0 1.067v-.533h3.947v.533z"/><path d="M6.418 112.928v-.533h3.947v.533zm0 1.067v-.533h3.947v.533z"/><path d="M10.241 112.928v-.533h3.947v.533zm0 1.067v-.533h3.947v.533z"/><path d="M14.064 112.928v-.533h3.947v.533zm0 1.067v-.533h3.947v.533z"/><path d="M17.887 112.928v-.533h3.947v.533zm0 1.067v-.533h3.947v.533z"/><path d="M21.71 112.928v-.533h3.947v.533zm0 1.067v-.533h3.947v.533z"/><path d="M25.533 112.928v-.533h3.947v.533zm0 1.067v-.533h3.947v.533z"/><path d="M29.356 112.928v-.533h3.947v.533zm0 1.067v-.533h3.947v.533z"/><path d="M33.18 112.928v-.533h3.946v.533zm0 1.067v-.533h3.946v.533z"/><path d="M37.002 112.928v-.533h3.947v.533zm0 1.067v-.533h3.947v.533z"/><path d="M40.825 112.928v-.533h3.947v.533zm0 1.067v-.533h3.947v.533z"/><path d="M44.648 112.928v-.533h3.947v.533zm0 1.067v-.533h3.947v.533z"/><path d="M48.471 112.928v-.533h3.947v.533zm0 1.067v-.533h3.947v.533z"/><path d="M52.294 112.928v-.533h3.947v.533zm0 1.067v-.533h3.947v.533z"/><path d="M56.117 112.928v-.533h3.947v.533zm0 1.067v-.533h3.947v.533z"/><path d="M59.94 112.928v-.533h3.947v.533zm0 1.067v-.533h3.947v.533z"/><path d="M63.763 112.928v-.533h3.947v.533zm0 1.067v-.533h3.947v.533z"/><path d="M67.586 112.928v-.533h3.947v.533zm0 1.067v-.533h3.947v.533z"/><path d="M71.41 112.928v-.533h3.946v.533zm0 1.067v-.533h3.946v.533z"/><path d="M75.232 112.928v-.533h3.947v.533zm0 1.067v-.533h3.947v.533z"/><path d="M79.055 112.928v-.533h3.947v.533zm0 1.067v-.533h3.947v.533z"/><path d="M82.878 112.928v-.533h3.947v.533zm0 1.067v-.533h3.947v.533z"/><path d="M86.701 112.928v-.533h3.947v.533zm0 1.067v-.533h3.947v.533z"/><path d="M90.524 112.928v-.533h3.947v.533zm0 1.067v-.533h3.947v.533z"/><path d="M94.347 112.928v-.533h3.948v.533zm0 1.067v-.533h3.948v.533z"/><path d="M98.17 112.928v-.533h3.948v.533zm0 1.067v-.533h3.948v.533z"/><path d="M101.994 112.928v-.533h3.947v.533zm0 1.067v-.533h3.947v.533z"/><path d="M105.817 112.928v-.533h3.947v.533zm0 1.067v-.533h3.947v.533z"/><path d="M109.64 112.928v-.533h3.947v.533zm0 1.067v-.533h3.947v.533z"/><path d="M113.463 112.928v-.533h3.947v.533zm0 1.067v-.533h3.947v.533z"/><path d="M117.286 112.928v-.533h3.947v.533zm0 1.067v-.533h3.947v.533z"/><path d="M121.109 112.928v-.533h3.947v.533zm0 1.067v-.533h3.947v.533z"/><path d="M124.932 112.928v-.533h3.947v.533zm0 1.067v-.533h3.947v.533z"/><path d="M128.755 112.928v-.533h3.947v.533zm0 1.067v-.533h3.947v.533z"/><path d="M132.578 112.928v-.533h3.947v.533zm0 1.067v-.533h3.947v.533z"/><path d="M136.4 112.928v-.533h3.948v.533zm0 1.067v-.533h3.948v.533z"/><path d="M140.224 112.928v-.533h3.947v.533zm0 1.067v-.533h3.947v.533z"/><path d="M144.047 112.928v-.533h3.947v.533zm0 1.067v-.533h3.947v.533z"/><path d="M147.87 112.928v-.533h3.947v.533zm0 1.067v-.533h3.947v.533z"/><path d="M151.693 112.928v-.533h3.947v.533zm0 1.067v-.533h3.947v.533z"/><path d="M155.516 112.928v-.533h3.947v.533zm0 1.067v-.533h3.947v.533z"/><path d="M159.339 112.928v-.533h3.947v.533zm0 1.067v-.533h3.947v.533z"/><path d="M163.162 112.928v-.533h3.947v.533zm0 1.067v-.533h3.947v.533z"/><path d="M166.985 112.928v-.533h3.947v.533zm0 1.067v-.533h3.947v.533z"/><path d="M170.808 112.928v-.533h3.947v.533zm0 1.067v-.533h3.947v.533z"/><path d="M174.63 112.928v-.533h3.948v.533zm0 1.067v-.533h3.948v.533z"/><path d="M178.454 112.928v-.533h3.947v.533zm0 1.067v-.533h3.947v.533z"/><path d="M182.277 112.928v-.533h3.947v.533zm0 1.067v-.533h3.947v.533z"/><path d="M186.1 112.928v-.533h3.947v.533zm0 1.067v-.533h3.947v.533z"/><path d="M189.923 112.928v-.533h3.947v.533zm0 1.067v-.533h3.947v.533z"/><path d="M193.746 112.928v-.533h3.947v.533zm0 1.067v-.533h3.947v.533z"/><path d="M197.57 112.928v-.533h3.946v.533zm0 1.067v-.533h3.946v.533z"/><path d="M201.392 112.928v-.533h3.947v.533zm0 1.067v-.533h3.947v.533z"/><path d="M205.215 112.928v-.533h3.947v.533zm0 1.067v-.533h3.947v.533z"/><path d="M209.038 112.928v-.533h3.947v.533zm0 1.067v-.533h3.947v.533z"/><path d="M212.861 112.928v-.533h3.947v.533zm0 1.067v-.533h3.947v.533z"/><path d="M216.684 112.928v-.533h3.947v.533zm0 1.067v-.533h3.947v.533z"/><path d="M220.507 112.928v-.533h3.947v.533zm0 1.067v-.533h3.947v.533z"/><path d="M224.33 112.928v-.533h3.947v.533zm0 1.067v-.533h3.947v.533z"/><path d="M228.153 112.928v-.533h3.947v.533zm0 1.067v-.533h3.947v.533z"/><path d="M231.976 112.928v-.533h3.947v.533zm0 1.067v-.533h3.947v.533z"/><path d="M235.8 112.928v-.533h3.946v.533zm0 1.067v-.533h3.946v.533z"/><path d="M239.622 112.928v-.533h3.947v.533zm0 1.067v-.533h3.947v.533z"/><path d="M243.445 112.928v-.533h3.947v.533zm0 1.067v-.533h3.947v.533z"/><path d="M247.268 112.928v-.533h3.947v.533zm0 1.067v-.533h3.947v.533z"/><path d="M251.091 112.928v-.533h3.947v.533zm0 1.067v-.533h3.947v.533z"/><path d="M254.914 112.928v-.533h3.947v.533zm0 1.067v-.533h3.947v.533z"/><path d="M258.737 112.928v-.533h3.947v.533zm0 1.067v-.533h3.947v.533z"/><path d="M262.56 112.928v-.533h3.948v.533zm0 1.067v-.533h3.948v.533z"/><path d="M266.383 112.928v-.533h3.948v.533zm0 1.067v-.533h3.948v.533z"/><path d="M270.207 112.928v-.533h3.947v.533zm0 1.067v-.533h3.947v.533z"/><path d="M274.03 112.928v-.533h3.947v.533zm0 1.067v-.533h3.947v.533z"/><path d="M277.853 112.928v-.533h3.947v.533zm0 1.067v-.533h3.947v.533z"/><path d="M281.676 112.928v-.533h3.947v.533zm0 1.067v-.533h3.947v.533z"/><path d="M285.499 112.928v-.533h3.947v.533zm0 1.067v-.533h3.947v.533z"/><path d="M289.322 112.928v-.533h3.947v.533zm0 1.067v-.533h3.947v.533z"/><path d="M293.145 112.928v-.533h3.947v.533zm0 1.067v-.533h3.947v.533z"/><path d="M296.968 112.928v-.533h3.947v.533zm0 1.067v-.533h3.947v.533z"/><path d="M300.79 112.928v-.533h3.948v.533zm0 1.067v-.533h3.948v.533z"/><path d="M304.614 112.928v-.533h3.947v.533zm0 1.067v-.533h3.947v.533z"/><path d="M308.437 112.928v-.533h3.947v.533zm0 1.067v-.533h3.947v.533z"/><path d="M312.26 112.928v-.533h3.947v.533zm0 1.067v-.533h3.947v.533z"/><path d="M316.083 112.928v-.533h3.947v.533zm0 1.067v-.533h3.947v.533z"/><path d="M319.906 112.928v-.533h3.947v.533zm0 1.067v-.533h3.947v.533z"/><path d="M323.729 112.928v-.533h3.947v.533zm0 1.067v-.533h3.947v.533z"/><path d="M327.552 112.928v-.533h3.947v.533zm0 1.067v-.533h3.947v.533z"/><path d="M331.375 112.928v-.533h3.947v.533zm0 1.067v-.533h3.947v.533z"/><path d="M335.198 112.928v-.533h3.947v.533zm0 1.067v-.533h3.947v.533z"/><path d="M339.02 112.928v-.533h1.229v-2.973h.496v3.506zm0 1.067v-.533h2.22v-4.04h.497v4.573z"/></g></g></svg>