<svg width="826" height="241" version="1.0" xmlns="http://www.w3.org/2000/svg"><path d="M330.5 60.5h60v60h-60zm435 60h60v60h-60zM.5.5h60v60H.5zm60 0h60v60h-60zm60 0h60v60h-60zm60 0h60v60h-60zm60 0h60v60h-60zm60 0h60v60h-60zm60 0h60v60h-60zm60 0h60v60h-60zm60 0h60v60h-60zm60 0h60v60h-60zm60 0h60v60h-60zm60 0h60v60h-60zm60 0h60v60h-60z" fill="#fff" fill-rule="evenodd" stroke="#000"/><path d="M90.5 60.5h60v60h-60zm60 0h60v60h-60zm60 0h60v60h-60zm60 0h60v60h-60zm90-60h60v60h-60zm30 60h60v60h-60zm60 0h60v60h-60zm60 0h60v60h-60zm60 0h60v60h-60zm60 0h60v60h-60zm60 0h60v60h-60zm60 0h60v60h-60zm-645 60h60v60h-60zm60 0h60v60h-60zm60 0h60v60h-60zm60 0h60v60h-60zm60 0h60v60h-60zm60 0h60v60h-60zm60 0h60v60h-60zm60 0h60v60h-60zm60 0h60v60h-60zm60 0h60v60h-60zm60 0h60v60h-60zm-570 60h60v60h-60zm60 0h60v60h-60zm60 0h60v60h-60zm60 0h60v60h-60zm60 0h60v60h-60zm60 0h60v60h-60zm60 0h60v60h-60zm60 0h60v60h-60zm60 0h60v60h-60zm60 0h60v60h-60zm-600 0h60v60h-60z" fill="#fff" fill-rule="evenodd" stroke="#000"/><text style="line-height:1.25;-inkscape-font-specification:'Noto Sans, Semi-Bold';font-variant-ligatures:normal;font-variant-caps:normal;font-variant-numeric:normal;font-variant-east-asian:normal" x="99.419" y="96.288" font-weight="600" font-size="33.575" font-family="'Noto Sans'" transform="scale(.99334 1.0067)" stroke-width="1.399"><tspan x="99.419" y="96.288">Ū</tspan></text><text style="line-height:1.25;-inkscape-font-specification:'Noto Sans, Semi-Bold'" x="160.3" y="96.524" font-weight="600" font-size="33.575" font-family="'Noto Sans'" transform="scale(.99334 1.0067)" stroke-width="1.399"><tspan x="160.3" y="96.524">Ė</tspan></text><text style="line-height:1.25;-inkscape-font-specification:'Noto Sans, Semi-Bold'" x="220.18" y="96.081" font-weight="600" font-size="33.575" font-family="'Noto Sans'" transform="scale(.99334 1.0067)" stroke-width="1.399"><tspan x="220.18" y="96.081">Y</tspan></text><text style="line-height:1.25;-inkscape-font-specification:'Noto Sans, Semi-Bold'" x="281.481" y="96.451" font-weight="600" font-size="33.575" font-family="'Noto Sans'" transform="scale(.99334 1.0067)" stroke-width="1.399"><tspan x="281.481" y="96.451">O</tspan></text><text style="line-height:1.25;-inkscape-font-specification:'Noto Sans, Semi-Bold'" x="342.814" y="96.451" font-weight="600" font-size="33.575" font-family="'Noto Sans'" transform="scale(.99334 1.0067)" stroke-width="1.399"><tspan x="342.814" y="96.451">Q</tspan></text><text style="line-height:1.25;-inkscape-font-specification:'Noto Sans, Semi-Bold'" x="405.971" y="96.081" font-weight="600" font-size="33.575" font-family="'Noto Sans'" transform="scale(.99334 1.0067)" stroke-width="1.399"><tspan x="405.971" y="96.081">J</tspan></text><text style="line-height:1.25;-inkscape-font-specification:'Noto Sans, Semi-Bold'" x="461.959" y="96.081" font-weight="600" font-size="33.575" font-family="'Noto Sans'" transform="scale(.99334 1.0067)" stroke-width="1.399"><tspan x="461.959" y="96.081">N</tspan></text><text style="line-height:1.25;-inkscape-font-specification:'Noto Sans, Semi-Bold'" x="522.462" y="96.081" font-weight="600" font-size="33.575" font-family="'Noto Sans'" transform="scale(.99334 1.0067)" stroke-width="1.399"><tspan x="522.462" y="96.081">K</tspan></text><text style="line-height:1.25;-inkscape-font-specification:'Noto Sans, Semi-Bold'" x="584.198" y="96.417" font-weight="600" font-size="33.575" font-family="'Noto Sans'" transform="scale(.99334 1.0067)" stroke-width="1.399"><tspan x="584.198" y="96.417">G</tspan></text><text style="line-height:1.25;-inkscape-font-specification:'Noto Sans, Semi-Bold'" x="644.654" y="96.081" font-weight="600" font-size="33.575" font-family="'Noto Sans'" transform="scale(.99334 1.0067)" stroke-width="1.399"><tspan x="644.654" y="96.081">B</tspan></text><text style="line-height:1.25;-inkscape-font-specification:'Noto Sans, Semi-Bold'" x="706.602" y="96.417" font-weight="600" font-size="33.575" font-family="'Noto Sans'" transform="scale(.99334 1.0067)" stroke-width="1.399"><tspan x="706.602" y="96.417">C</tspan></text><text style="line-height:1.25;-inkscape-font-specification:'Noto Sans, Semi-Bold'" x="766.896" y="96.081" font-weight="600" font-size="33.575" font-family="'Noto Sans'" transform="scale(.99334 1.0067)" stroke-width="1.399"><tspan x="766.896" y="96.081">F</tspan></text><text style="line-height:1.25;-inkscape-font-specification:'Noto Sans, Semi-Bold'" x="781.015" y="156.724" font-weight="600" font-size="33.575" font-family="'Noto Sans'" transform="scale(.99334 1.0067)" stroke-width="1.399"><tspan x="781.015" y="156.724">Z</tspan></text><text style="line-height:1.25;-inkscape-font-specification:'Noto Sans, Semi-Bold'" x="722.149" y="157.033" font-weight="600" font-size="33.575" font-family="'Noto Sans'" transform="scale(.99334 1.0067)" stroke-width="1.399"><tspan x="722.149" y="157.033">Ž</tspan></text><text style="line-height:1.25;-inkscape-font-specification:'Noto Sans, Semi-Bold'" x="659.911" y="156.724" font-weight="600" font-size="33.575" font-family="'Noto Sans'" transform="scale(.99334 1.0067)" stroke-width="1.399"><tspan x="659.911" y="156.724">P</tspan></text><text style="line-height:1.25;-inkscape-font-specification:'Noto Sans, Semi-Bold'" x="600.088" y="157.06" font-weight="600" font-size="33.575" font-family="'Noto Sans'" transform="scale(.99334 1.0067)" stroke-width="1.399"><tspan x="600.088" y="157.06">S</tspan></text><text style="line-height:1.25;-inkscape-font-specification:'Noto Sans, Semi-Bold'" x="540.526" y="156.724" font-weight="600" font-size="33.575" font-family="'Noto Sans'" transform="scale(.99334 1.0067)" stroke-width="1.399"><tspan x="540.526" y="156.724">T</tspan></text><text style="line-height:1.25;-inkscape-font-specification:'Noto Sans, Semi-Bold'" x="478.659" y="156.724" font-weight="600" font-size="33.575" font-family="'Noto Sans'" transform="scale(.99334 1.0067)" stroke-width="1.399"><tspan x="478.659" y="156.724">R</tspan></text><text style="line-height:1.25;-inkscape-font-specification:'Noto Sans, Semi-Bold'" x="418.923" y="156.724" font-weight="600" font-size="33.575" font-family="'Noto Sans'" transform="scale(.99334 1.0067)" stroke-width="1.399"><tspan x="418.923" y="156.724">L</tspan></text><text style="line-height:1.25;-inkscape-font-specification:'Noto Sans, Semi-Bold'" x="359.742" y="156.724" font-weight="600" font-size="33.575" font-family="'Noto Sans'" transform="scale(.99334 1.0067)" stroke-width="1.399"><tspan x="359.742" y="156.724">H</tspan></text><text style="line-height:1.25;-inkscape-font-specification:'Noto Sans, Semi-Bold'" x="298.048" y="156.825" font-weight="600" font-size="33.575" font-family="'Noto Sans'" transform="scale(.99334 1.0067)" stroke-width="1.399"><tspan x="298.048" y="156.825">A</tspan></text><text style="line-height:1.25;-inkscape-font-specification:'Noto Sans, Semi-Bold'" x="240.977" y="156.724" font-weight="600" font-size="33.575" font-family="'Noto Sans'" transform="scale(.99334 1.0067)" stroke-width="1.399"><tspan x="240.977" y="156.724">I</tspan></text><text style="line-height:1.25;-inkscape-font-specification:'Noto Sans, Semi-Bold'" x="174.552" y="156.724" font-weight="600" font-size="33.575" font-family="'Noto Sans'" transform="scale(.99334 1.0067)" stroke-width="1.399"><tspan x="174.552" y="156.724">E</tspan></text><text style="line-height:1.25;-inkscape-font-specification:'Noto Sans, Semi-Bold'" x="113.747" y="156.724" font-weight="600" font-size="33.575" font-family="'Noto Sans'" transform="scale(.99334 1.0067)" stroke-width="1.399"><tspan x="113.747" y="156.724">U</tspan></text><text style="line-height:1.25;-inkscape-font-specification:'Noto Sans, Semi-Bold'" x="672.098" y="51.801" font-weight="600" font-size="24" font-family="'Noto Sans'"><tspan x="672.098" y="51.801">-</tspan></text><text style="line-height:1.25;-inkscape-font-specification:'Noto Sans, Semi-Bold'" x="8.753" y="53.924" font-weight="600" font-size="24" font-family="'Noto Sans'"><tspan x="8.753" y="53.924">+</tspan></text><text style="line-height:1.25;-inkscape-font-specification:'Noto Sans, Semi-Bold'" x="72.214" y="52.597" font-weight="600" font-size="24" font-family="'Noto Sans'"><tspan x="72.214" y="52.597">!</tspan></text><text style="line-height:1.25;-inkscape-font-specification:'Noto Sans, Semi-Bold'" x="132.261" y="52.992" font-weight="600" font-size="24" font-family="'Noto Sans'"><tspan x="132.261" y="52.992">:</tspan></text><text style="line-height:1.25;-inkscape-font-specification:'Noto Sans, Semi-Bold'" x="192.174" y="52.911" font-weight="600" font-size="24" font-family="'Noto Sans'"><tspan x="192.174" y="52.911">.</tspan></text><text style="line-height:1.25;-inkscape-font-specification:'Noto Sans, Semi-Bold'" x="249.161" y="51.943" font-weight="600" font-size="24" font-family="'Noto Sans'"><tspan x="249.161" y="51.943">*</tspan></text><text style="line-height:1.25;-inkscape-font-specification:'Noto Sans, Semi-Bold'" x="310.119" y="50.844" font-weight="600" font-size="24" font-family="'Noto Sans'"><tspan x="310.119" y="50.844">_</tspan></text><text style="line-height:1.25;-inkscape-font-specification:'Noto Sans, Semi-Bold'" x="364.551" y="52.405" font-weight="600" font-size="24" font-family="'Noto Sans'"><tspan x="364.551" y="52.405">—</tspan></text><text style="line-height:1.25;-inkscape-font-specification:'Noto Sans, Semi-Bold'" x="428.906" y="53.824" font-weight="600" font-size="24" font-family="'Noto Sans'"><tspan x="428.906" y="53.824">=</tspan></text><text style="line-height:1.25;-inkscape-font-specification:'Noto Sans, Semi-Bold'" x="492.635" y="52.791" font-weight="600" font-size="24" font-family="'Noto Sans'"><tspan x="492.635" y="52.791">,</tspan></text><text style="line-height:1.25;-inkscape-font-specification:'Noto Sans, Semi-Bold'" x="552.169" y="53.25" font-weight="600" font-size="24" font-family="'Noto Sans'"><tspan x="552.169" y="53.25">;</tspan></text><text style="line-height:1.25;-inkscape-font-specification:'Noto Sans, Semi-Bold'" x="610.539" y="52.959" font-weight="600" font-size="24" font-family="'Noto Sans'"><tspan x="610.539" y="52.959">/</tspan></text><text style="line-height:1.25;-inkscape-font-specification:'Noto Sans, Semi-Bold'" x="83.435" y="216.881" font-weight="600" font-size="33.575" font-family="'Noto Sans'" transform="scale(.99334 1.0067)" stroke-width="1.399"><tspan x="83.435" y="216.881">W</tspan></text><text style="line-height:1.25;-inkscape-font-specification:'Noto Sans, Semi-Bold'" x="730.791" y="52.883" font-weight="600" font-size="24" font-family="'Noto Sans'"><tspan x="730.791" y="52.883">?</tspan></text><text style="line-height:1.25;-inkscape-font-specification:'Noto Sans, Semi-Bold'" x="143.064" y="216.799" font-weight="600" font-size="33.575" font-family="'Noto Sans'" transform="scale(.99334 1.0067)" stroke-width="1.399"><tspan x="143.064" y="216.799">Ų</tspan></text><text style="line-height:1.25;-inkscape-font-specification:'Noto Sans, Semi-Bold'" x="204.302" y="216.799" font-weight="600" font-size="33.575" font-family="'Noto Sans'" transform="scale(.99334 1.0067)" stroke-width="1.399"><tspan x="204.302" y="216.799">Ę</tspan></text><text style="line-height:1.25;-inkscape-font-specification:'Noto Sans, Semi-Bold'" x="269.937" y="216.799" font-weight="600" font-size="33.575" font-family="'Noto Sans'" transform="scale(.99334 1.0067)" stroke-width="1.399"><tspan x="269.937" y="216.799">Į</tspan></text><text style="line-height:1.25;-inkscape-font-specification:'Noto Sans, Semi-Bold'" x="327.952" y="216.899" font-weight="600" font-size="33.575" font-family="'Noto Sans'" transform="scale(.99334 1.0067)" stroke-width="1.399"><tspan x="327.952" y="216.899">Ą</tspan></text><text style="line-height:1.25;-inkscape-font-specification:'Noto Sans, Semi-Bold'" x="391.097" y="216.799" font-weight="600" font-size="33.575" font-family="'Noto Sans'" transform="scale(.99334 1.0067)" stroke-width="1.399"><tspan x="391.097" y="216.799">X</tspan></text><text style="line-height:1.25;-inkscape-font-specification:'Noto Sans, Semi-Bold'" x="449.028" y="216.799" font-weight="600" font-size="33.575" font-family="'Noto Sans'" transform="scale(.99334 1.0067)" stroke-width="1.399"><tspan x="449.028" y="216.799">V</tspan></text><text style="line-height:1.25;-inkscape-font-specification:'Noto Sans, Semi-Bold'" x="507.146" y="216.799" font-weight="600" font-size="33.575" font-family="'Noto Sans'" transform="scale(.99334 1.0067)" stroke-width="1.399"><tspan x="507.146" y="216.799">M</tspan></text><text style="line-height:1.25;-inkscape-font-specification:'Noto Sans, Semi-Bold'" x="571.216" y="216.799" font-weight="600" font-size="33.575" font-family="'Noto Sans'" transform="scale(.99334 1.0067)" stroke-width="1.399"><tspan x="571.216" y="216.799">D</tspan></text><text style="line-height:1.25;-inkscape-font-specification:'Noto Sans, Semi-Bold'" x="634.416" y="217.023" font-weight="600" font-size="33.575" font-family="'Noto Sans'" transform="scale(.99334 1.0067)" stroke-width="1.399"><tspan x="634.416" y="217.023">Š</tspan></text><text style="line-height:1.25;-inkscape-font-specification:'Noto Sans, Semi-Bold'" x="692.543" y="216.926" font-weight="600" font-size="33.575" font-family="'Noto Sans'" transform="scale(.99334 1.0067)" stroke-width="1.399"><tspan x="692.543" y="216.926">Č</tspan></text></svg>