<svg width="901" height="241" version="1.0" xmlns="http://www.w3.org/2000/svg"><defs><path id="a" d="M97.5 330H855v202.5H97.5z"/></defs><g transform="translate(.5 .5)"><path d="M330 60h60v60h-60z" fill="#d5ffd5" fill-rule="evenodd" stroke="#000"/><path d="M765 120h60v60h-60z" fill="#d5f6ff" fill-rule="evenodd" stroke="#000"/><path d="M0 0h60v60H0zM60 0h60v60H60z" fill="#ffd5d5" fill-rule="evenodd" stroke="#000"/><path d="M120 0h60v60h-60z" fill="#d5d5ff" fill-rule="evenodd" stroke="#000"/><path d="M180 0h60v60h-60z" fill="#ffe6d5" fill-rule="evenodd" stroke="#000"/><path d="M240 0h60v60h-60zM300 0h60v60h-60z" fill="#d5ffd5" fill-rule="evenodd" stroke="#000"/><path d="M360 0h60v60h-60z" fill="#fff" fill-rule="evenodd" stroke="#000"/><path d="M420 0h60v60h-60z" fill="#f6d5ff" fill-rule="evenodd" stroke="#000"/><path d="M480 0h60v60h-60z" fill="#fff6d5" fill-rule="evenodd" stroke="#000"/><path d="M540 0h60v60h-60z" fill="#ffd5e5" fill-rule="evenodd" stroke="#000"/><path d="M600 0h60v60h-60zM660 0h60v60h-60zM720 0h60v60h-60zM780 0h120v60H780z" fill="#d5f6ff" fill-rule="evenodd" stroke="#000"/><path d="M0 60h90v60H0zM90 60h60v60H90z" fill="#ffd5d5" fill-rule="evenodd" stroke="#000"/><path d="M150 60h60v60h-60z" fill="#d5d5ff" fill-rule="evenodd" stroke="#000"/><path d="M210 60h60v60h-60z" fill="#ffe6d5" fill-rule="evenodd" stroke="#000"/><path d="M270 60h60v60h-60z" fill="#d5ffd5" fill-rule="evenodd" stroke="#000"/><path d="M360 0h60v60h-60zM390 60h60v60h-60zM450 60h60v60h-60z" fill="#f6d5ff" fill-rule="evenodd" stroke="#000"/><path d="M510 60h60v60h-60z" fill="#fff6d5" fill-rule="evenodd" stroke="#000"/><path d="M570 60h60v60h-60z" fill="#ffd5e5" fill-rule="evenodd" stroke="#000"/><path d="M630 60h60v60h-60zM690 60h60v60h-60zM750 60h60v60h-60z" fill="#d5f6ff" fill-rule="evenodd" stroke="#000"/><path d="M0 120h105v60H0z" fill="#ffd5d5" fill-rule="evenodd" stroke="#000"/><path d="M105 120h60v60h-60z" fill="#faa" fill-rule="evenodd" stroke="#000"/><path d="M165 120h60v60h-60z" fill="#aaf" fill-rule="evenodd" stroke="#000"/><path d="M225 120h60v60h-60z" fill="#fca" fill-rule="evenodd" stroke="#000"/><path d="M285 120h60v60h-60z" fill="#afa" fill-rule="evenodd" stroke="#000"/><path d="M345 120h60v60h-60z" fill="#d5ffd5" fill-rule="evenodd" stroke="#000"/><path d="M405 120h60v60h-60z" fill="#f6d5ff" fill-rule="evenodd" stroke="#000"/><path d="M465 120h60v60h-60z" fill="#eaf" fill-rule="evenodd" stroke="#000"/><circle cx="495.047" cy="149.97" r="2.041" fill="red" fill-opacity=".465" paint-order="markers stroke fill"/><path d="M525 120h60v60h-60z" fill="#fea" fill-rule="evenodd" stroke="#000"/><path d="M585 120h60v60h-60z" fill="#fac" fill-rule="evenodd" stroke="#000"/><path d="M645 120h60v60h-60z" fill="#aef" fill-rule="evenodd" stroke="#000"/><path d="M705 120h60v60h-60zM825 120h-15V60h90v120h-75.11z" fill="#d5f6ff" fill-rule="evenodd" stroke="#000"/><path d="M0 180h75.002v60H0zM135 180h60v60h-60z" fill="#ffd5d5" fill-rule="evenodd" stroke="#000"/><path d="M195 180h60v60h-60z" fill="#d5d5ff" fill-rule="evenodd" stroke="#000"/><path d="M255 180h60v60h-60z" fill="#ffe6d5" fill-rule="evenodd" stroke="#000"/><path d="M315 180h60v60h-60zM375 180h60v60h-60z" fill="#d5ffd5" fill-rule="evenodd" stroke="#000"/><path d="M435 180h60v60h-60zM495 180h60v60h-60z" fill="#f6d5ff" fill-rule="evenodd" stroke="#000"/><path d="M555 180h60v60h-60z" fill="#fff6d5" fill-rule="evenodd" stroke="#000"/><path d="M615 180h60v60h-60z" fill="#ffd5e5" fill-rule="evenodd" stroke="#000"/><path d="M675 180h60v60h-60zM735 180h165v60H735z" fill="#d5f6ff" fill-rule="evenodd" stroke="#000"/><path d="M75 180h60v60H75z" fill="#ffd5d5" fill-rule="evenodd" stroke="#000"/><text style="line-height:1.25;-inkscape-font-specification:'Noto Sans, Semi-Bold';font-variant-ligatures:normal;font-variant-caps:normal;font-variant-numeric:normal;font-variant-east-asian:normal" x="96.321" y="84.733" font-weight="600" font-size="24" font-family="Noto Sans"><tspan x="96.321" y="84.733">Ū</tspan></text><text style="line-height:1.25;-inkscape-font-specification:'Noto Sans, Semi-Bold'" x="157.554" y="84.755" font-weight="600" font-size="24" font-family="Noto Sans"><tspan x="157.554" y="84.755">Ė</tspan></text><text style="line-height:1.25;-inkscape-font-specification:'Noto Sans, Semi-Bold'" x="217.954" y="84.549" font-weight="600" font-size="24" font-family="Noto Sans"><tspan x="217.954" y="84.549">Y</tspan></text><text style="line-height:1.25;-inkscape-font-specification:'Noto Sans, Semi-Bold'" x="275.553" y="84.873" font-weight="600" font-size="24" font-family="Noto Sans"><tspan x="275.553" y="84.873">O</tspan></text><text style="line-height:1.25;-inkscape-font-specification:'Noto Sans, Semi-Bold'" x="335.411" y="85.065" font-weight="600" font-size="24" font-family="Noto Sans"><tspan x="335.411" y="85.065">Q</tspan></text><text style="line-height:1.25;-inkscape-font-specification:'Noto Sans, Semi-Bold'" x="401.61" y="84.619" font-weight="600" font-size="24" font-family="Noto Sans"><tspan x="401.61" y="84.619">J</tspan></text><text style="line-height:1.25;-inkscape-font-specification:'Noto Sans, Semi-Bold'" x="455.349" y="84.739" font-weight="600" font-size="24" font-family="Noto Sans"><tspan x="455.349" y="84.739">N</tspan></text><text style="line-height:1.25;-inkscape-font-specification:'Noto Sans, Semi-Bold'" x="517.822" y="84.544" font-weight="600" font-size="24" font-family="Noto Sans"><tspan x="517.822" y="84.544">K</tspan></text><text style="line-height:1.25;-inkscape-font-specification:'Noto Sans, Semi-Bold'" x="576.429" y="84.492" font-weight="600" font-size="24" font-family="Noto Sans"><tspan x="576.429" y="84.492">G</tspan></text><text style="line-height:1.25;-inkscape-font-specification:'Noto Sans, Semi-Bold'" x="637.36" y="84.99" font-weight="600" font-size="24" font-family="Noto Sans"><tspan x="637.36" y="84.99">B</tspan></text><text style="line-height:1.25;-inkscape-font-specification:'Noto Sans, Semi-Bold'" x="696.617" y="85.023" font-weight="600" font-size="24" font-family="Noto Sans"><tspan x="696.617" y="85.023">C</tspan></text><text style="line-height:1.25;-inkscape-font-specification:'Noto Sans, Semi-Bold'" x="757.832" y="84.757" font-weight="600" font-size="24" font-family="Noto Sans"><tspan x="757.832" y="84.757">F</tspan></text><text style="line-height:1.25;-inkscape-font-specification:'Noto Sans, Semi-Bold'" x="773.712" y="144.722" font-weight="600" font-size="24" font-family="Noto Sans"><tspan x="773.712" y="144.722">Z</tspan></text><text style="line-height:1.25;-inkscape-font-specification:'Noto Sans, Semi-Bold'" x="712.983" y="144.788" font-weight="600" font-size="24" font-family="Noto Sans"><tspan x="712.983" y="144.788">Ž</tspan></text><text style="line-height:1.25;-inkscape-font-specification:'Noto Sans, Semi-Bold'" x="653.614" y="144.499" font-weight="600" font-size="24" font-family="Noto Sans"><tspan x="653.614" y="144.499">P</tspan></text><text style="line-height:1.25;-inkscape-font-specification:'Noto Sans, Semi-Bold'" x="593.729" y="144.969" font-weight="600" font-size="24" font-family="Noto Sans"><tspan x="593.729" y="144.969">S</tspan></text><text style="line-height:1.25;-inkscape-font-specification:'Noto Sans, Semi-Bold'" x="533.145" y="144.408" font-weight="600" font-size="24" font-family="Noto Sans"><tspan x="533.145" y="144.408">T</tspan></text><text style="line-height:1.25;-inkscape-font-specification:'Noto Sans, Semi-Bold'" x="473.092" y="144.383" font-weight="600" font-size="24" font-family="Noto Sans"><tspan x="473.092" y="144.383">R</tspan></text><text style="line-height:1.25;-inkscape-font-specification:'Noto Sans, Semi-Bold'" x="411.73" y="144.696" font-weight="600" font-size="24" font-family="Noto Sans"><tspan x="411.73" y="144.696">L</tspan></text><text style="line-height:1.25;-inkscape-font-specification:'Noto Sans, Semi-Bold'" x="350.997" y="144.647" font-weight="600" font-size="24" font-family="Noto Sans"><tspan x="350.997" y="144.647">H</tspan></text><text style="line-height:1.25;-inkscape-font-specification:'Noto Sans, Semi-Bold'" x="292.123" y="144.575" font-weight="600" font-size="24" font-family="Noto Sans"><tspan x="292.123" y="144.575">A</tspan></text><text style="line-height:1.25;-inkscape-font-specification:'Noto Sans, Semi-Bold'" x="235.605" y="144.734" font-weight="600" font-size="24" font-family="Noto Sans"><tspan x="235.605" y="144.734">I</tspan></text><text style="line-height:1.25;-inkscape-font-specification:'Noto Sans, Semi-Bold'" x="172.67" y="144.804" font-weight="600" font-size="24" font-family="Noto Sans"><tspan x="172.67" y="144.804">E</tspan></text><text style="line-height:1.25;-inkscape-font-specification:'Noto Sans, Semi-Bold'" x="110.911" y="144.766" font-weight="600" font-size="24" font-family="Noto Sans"><tspan x="110.911" y="144.766">U</tspan></text><text style="line-height:1.25;-inkscape-font-specification:'Noto Sans, Semi-Bold'" x="90" y="202.5" font-weight="600" font-size="24" font-family="Noto Sans"/><text style="line-height:1.25;-inkscape-font-specification:'Noto Sans, Semi-Bold'" x="85.964" y="231.763" font-weight="600" font-size="24" font-family="Noto Sans"><tspan x="85.964" y="231.763">-</tspan></text><text style="line-height:1.25;-inkscape-font-specification:'Noto Sans, Semi-Bold'" x="83.739" y="202.799" font-weight="600" font-size="24" font-family="Noto Sans"><tspan x="83.739" y="202.799">–</tspan></text><text style="line-height:1.25;-inkscape-font-specification:'Noto Sans, Semi-Bold'" x="8.253" y="53.424" font-weight="600" font-size="24" font-family="Noto Sans"><tspan x="8.253" y="53.424">+</tspan></text><text style="line-height:1.25;-inkscape-font-specification:'Noto Sans, Semi-Bold'" x="9.183" y="25.899" font-weight="600" font-size="24" font-family="Noto Sans"><tspan x="9.183" y="25.899">§</tspan></text><text style="line-height:1.25;-inkscape-font-specification:'Noto Sans, Semi-Bold'" x="45" y="7.5" font-weight="600" font-size="24" font-family="Noto Sans"/><text style="line-height:1.25;-inkscape-font-specification:'Noto Sans, Semi-Bold'" x="71.714" y="52.097" font-weight="600" font-size="24" font-family="Noto Sans"><tspan x="71.714" y="52.097">!</tspan></text><text style="line-height:1.25;-inkscape-font-specification:'Noto Sans, Semi-Bold'" x="68.16" y="23.345" font-weight="600" font-size="24" font-family="Noto Sans"><tspan x="68.16" y="23.345">¤</tspan></text><text style="line-height:1.25;-inkscape-font-specification:'Noto Sans, Semi-Bold'" x="131.761" y="52.492" font-weight="600" font-size="24" font-family="Noto Sans"><tspan x="131.761" y="52.492">:</tspan></text><text style="line-height:1.25;-inkscape-font-specification:'Noto Sans, Semi-Bold'" x="126.132" y="25.242" font-weight="600" font-size="24" font-family="Noto Sans"><tspan x="126.132" y="25.242">@</tspan></text><text style="line-height:1.25;-inkscape-font-specification:'Noto Sans, Semi-Bold'" x="191.674" y="52.411" font-weight="600" font-size="24" font-family="Noto Sans"><tspan x="191.674" y="52.411">.</tspan></text><text style="line-height:1.25;-inkscape-font-specification:'Noto Sans, Semi-Bold'" x="187.629" y="25.01" font-weight="600" font-size="24" font-family="Noto Sans"><tspan x="187.629" y="25.01">#</tspan></text><text style="line-height:1.25;-inkscape-font-specification:'Noto Sans, Semi-Bold'" x="248.661" y="51.443" font-weight="600" font-size="24" font-family="Noto Sans"><tspan x="248.661" y="51.443">*</tspan></text><text style="line-height:1.25;-inkscape-font-specification:'Noto Sans, Semi-Bold'" x="248.384" y="24.085" font-weight="600" font-size="24" font-family="Noto Sans"><tspan x="248.384" y="24.085">$</tspan></text><text style="line-height:1.25;-inkscape-font-specification:'Noto Sans, Semi-Bold'" x="309.619" y="50.344" font-weight="600" font-size="24" font-family="Noto Sans"><tspan x="309.619" y="50.344">_</tspan></text><text style="line-height:1.25;-inkscape-font-specification:'Noto Sans, Semi-Bold'" x="305.592" y="23.677" font-weight="600" font-size="24" font-family="Noto Sans"><tspan x="305.592" y="23.677">%</tspan></text><text style="line-height:1.25;-inkscape-font-specification:'Noto Sans, Semi-Bold'" x="364.051" y="51.905" font-weight="600" font-size="24" font-family="Noto Sans"><tspan x="364.051" y="51.905">—</tspan></text><text style="line-height:1.25;-inkscape-font-specification:'Noto Sans, Semi-Bold'" x="368.551" y="24.839" font-weight="600" font-size="24" font-family="Noto Sans"><tspan x="368.551" y="24.839">|</tspan></text><text style="line-height:1.25;-inkscape-font-specification:'Noto Sans, Semi-Bold'" x="428.406" y="53.324" font-weight="600" font-size="24" font-family="Noto Sans"><tspan x="428.406" y="53.324">=</tspan></text><text style="line-height:1.25;-inkscape-font-specification:'Noto Sans, Semi-Bold'" x="428.014" y="25.779" font-weight="600" font-size="24" font-family="Noto Sans"><tspan x="428.014" y="25.779">&amp;</tspan></text><text style="line-height:1.25;-inkscape-font-specification:'Noto Sans, Semi-Bold'" x="492.135" y="52.291" font-weight="600" font-size="24" font-family="Noto Sans"><tspan x="492.135" y="52.291">,</tspan></text><text style="line-height:1.25;-inkscape-font-specification:'Noto Sans, Semi-Bold'" x="487.853" y="23.633" font-weight="600" font-size="24" font-family="Noto Sans"><tspan x="487.853" y="23.633">&lt;</tspan></text><text style="line-height:1.25;-inkscape-font-specification:'Noto Sans, Semi-Bold'" x="551.669" y="52.75" font-weight="600" font-size="24" font-family="Noto Sans"><tspan x="551.669" y="52.75">;</tspan></text><text style="line-height:1.25;-inkscape-font-specification:'Noto Sans, Semi-Bold'" x="548.438" y="23.454" font-weight="600" font-size="24" font-family="Noto Sans"><tspan x="548.438" y="23.454">&gt;</tspan></text><text style="line-height:1.25;-inkscape-font-specification:'Noto Sans, Semi-Bold'" x="610.039" y="52.459" font-weight="600" font-size="24" font-family="Noto Sans"><tspan x="610.039" y="52.459">/</tspan></text><text style="line-height:1.25;-inkscape-font-specification:'Noto Sans, Semi-Bold'" x="610.382" y="24.759" font-weight="600" font-size="24" font-family="Noto Sans"><tspan x="610.382" y="24.759">\</tspan></text><text style="line-height:1.25;-inkscape-font-specification:'Noto Sans, Semi-Bold'" x="663.474" y="24.626" font-weight="600" font-size="24" font-family="Noto Sans"><tspan x="663.474" y="24.626">W</tspan></text><text style="line-height:1.25;-inkscape-font-specification:'Noto Sans, Semi-Bold'" x="730.291" y="52.383" font-weight="600" font-size="24" font-family="Noto Sans"><tspan x="730.291" y="52.383">?</tspan></text><text style="line-height:1.25;-inkscape-font-specification:'Noto Sans, Semi-Bold'" x="727.938" y="23.425" font-weight="600" font-size="24" font-family="Noto Sans"><tspan x="727.938" y="23.425">~</tspan></text><text style="line-height:1.25;-inkscape-font-specification:'Noto Sans, Semi-Bold'" x="141.178" y="204.914" font-weight="600" font-size="24" font-family="Noto Sans"><tspan x="141.178" y="204.914">Ų</tspan></text><text style="line-height:1.25;-inkscape-font-specification:'Noto Sans, Semi-Bold'" x="202.939" y="204.777" font-weight="600" font-size="24" font-family="Noto Sans"><tspan x="202.939" y="204.777">Ę</tspan></text><text style="line-height:1.25;-inkscape-font-specification:'Noto Sans, Semi-Bold'" x="265.869" y="204.773" font-weight="600" font-size="24" font-family="Noto Sans"><tspan x="265.869" y="204.773">Į</tspan></text><text style="line-height:1.25;-inkscape-font-specification:'Noto Sans, Semi-Bold'" x="321.92" y="204.994" font-weight="600" font-size="24" font-family="Noto Sans"><tspan x="321.92" y="204.994">Ą</tspan></text><text style="line-height:1.25;-inkscape-font-specification:'Noto Sans, Semi-Bold'" x="382.215" y="204.981" font-weight="600" font-size="24" font-family="Noto Sans"><tspan x="382.215" y="204.981">X</tspan></text><text style="line-height:1.25;-inkscape-font-specification:'Noto Sans, Semi-Bold'" x="442.504" y="204.838" font-weight="600" font-size="24" font-family="Noto Sans"><tspan x="442.504" y="204.838">V</tspan></text><text style="line-height:1.25;-inkscape-font-specification:'Noto Sans, Semi-Bold'" x="499.063" y="204.653" font-weight="600" font-size="24" font-family="Noto Sans"><tspan x="499.063" y="204.653">M</tspan></text><text style="line-height:1.25;-inkscape-font-specification:'Noto Sans, Semi-Bold'" x="562.951" y="204.843" font-weight="600" font-size="24" font-family="Noto Sans"><tspan x="562.951" y="204.843">D</tspan></text><text style="line-height:1.25;-inkscape-font-specification:'Noto Sans, Semi-Bold'" x="623.147" y="204.945" font-weight="600" font-size="24" font-family="Noto Sans"><tspan x="623.147" y="204.945">Š</tspan></text><text style="line-height:1.25;-inkscape-font-specification:'Noto Sans, Semi-Bold'" x="681.896" y="204.91" font-weight="600" font-size="24" font-family="Noto Sans"><tspan x="681.896" y="204.91">Č</tspan></text><circle cx="315.047" cy="149.97" r="2.041" fill="red" fill-opacity=".465" paint-order="markers stroke fill"/></g></svg>