<svg width="554.074" height="708.155" viewBox="0 0 146.599 187.366" xmlns="http://www.w3.org/2000/svg"><defs><path id="a" d="M37.557 72.821h210.672v114.07H37.557z"/></defs><g aria-label="                              " style="line-height:1.25;-inkscape-font-specification:'Palemonas Bold'" font-weight="400" font-size="16.933" font-family="Palemonas" letter-spacing=".003" word-spacing="0" stroke-width=".265"><path d="M12.212 14.18h-.182q-1.678.025-2.356.488-.72.488-.72 1.521 0 .554.306.893.315.347.778.347.661 0 1.149-.339l.165.29q-.587.364-1.075.496-.487.132-.876.132-.678 0-1.091-.388-.414-.38-.414-.993 0-.719.298-1.124.297-.397.794-.769.504-.372.504-.984 0-.38-.19-.926l-1.075-2.803H4.242L2.935 13.52l1.464.264v.397H.9v-.397l1.381-.264 3.704-9.873 1.158-.223 3.886 10.096 1.182.264zm-7.78-4.655h3.605l-1.82-4.713zM9.426 0L6.16 2.67l-.223-.074L7.665 0zM18.195 9.26V8.144q.885-.86 2.398-.86 2.365 0 2.365 2.067v4.168l1.083.264v.397h-1.215q-.34.24-.596.455-.256.215-.421.438-.166.231-.248.496-.083.265-.083.595 0 .546.281.86.281.323.736.323.256 0 .57-.116.323-.108.703-.356l.1.248q-.62.397-1.125.563-.496.173-.893.173-.595 0-.96-.355-.363-.356-.363-.96 0-.305.132-.644.133-.331.364-.653.24-.315.562-.596.323-.273.711-.471-.206-.108-.314-.29-.107-.19-.165-.43-.223.19-.505.331-.28.14-.52.257-.24.115-.554.223-.306.116-.687.116-.363 0-.678-.108-.314-.107-.554-.314-.231-.207-.363-.496-.133-.29-.133-.653 0-.604.29-1.042.297-.438.752-.736.455-.306 1-.488.555-.182 1.075-.29.265-.057.488-.107.223-.05.389-.099v-.703q0-1.612-1.455-1.612-1.497 0-1.654 1.521zm3.622 1.174q-.273.108-.595.207-.323.1-.645.215-.323.108-.629.256-.297.15-.529.356-.231.198-.372.48-.14.28-.14.661 0 .223.099.43.107.207.272.372.166.157.373.256.206.1.413.1.14 0 .347-.042.207-.05.438-.132.24-.091.488-.215.257-.124.48-.273zm1.364-6.978l-3.266 2.67-.223-.074 1.728-2.596zM50.17 14.18h-.181q-1.678.025-2.356.488-.72.488-.72 1.521 0 .554.306.893.314.347.777.347.662 0 1.15-.339l.165.29q-.587.364-1.075.496t-.876.132q-.678 0-1.092-.388-.413-.38-.413-.993 0-.719.298-1.124.297-.397.793-.769.505-.372.505-.984 0-.38-.19-.926l-1.075-2.803H42.2l-1.306 3.498 1.463.264v.397H38.86v-.397l1.38-.264 3.705-9.873 1.157-.223 3.887 10.096 1.182.264zm-7.78-4.655h3.605l-1.819-4.713zm-.148-7.094q.074-.91.438-1.298.364-.397 1.009-.397.487 0 1.108.438.628.43.917.43.348 0 .546-.182.198-.19.232-.686h.297q-.033.893-.388 1.306-.348.414-.993.38-.48 0-1.058-.43-.579-.438-.984-.438-.314 0-.554.199-.231.198-.273.678zM56.154 9.26V8.144q.885-.86 2.398-.86 2.365 0 2.365 2.067v4.168l1.083.264v.397h-1.216q-.339.24-.595.455-.256.215-.422.438-.165.231-.248.496-.082.265-.082.595 0 .546.28.86.282.323.737.323.256 0 .57-.116.323-.108.703-.356l.1.248q-.621.397-1.125.563-.497.173-.893.173-.596 0-.96-.355-.363-.356-.363-.96 0-.305.132-.644.132-.331.364-.653.24-.315.562-.596.322-.273.711-.471-.207-.108-.314-.29-.108-.19-.165-.43-.224.19-.505.331-.28.14-.52.257-.24.115-.555.223-.306.116-.686.116-.364 0-.678-.108-.314-.107-.554-.314-.231-.207-.364-.496-.132-.29-.132-.653 0-.604.29-1.042.297-.438.752-.736.455-.306 1-.488.554-.182 1.075-.29.265-.057.488-.107.223-.05.389-.099v-.703q0-1.612-1.456-1.612-1.496 0-1.653 1.521zm3.622 1.174q-.273.108-.596.207-.322.1-.645.215-.322.108-.628.256-.298.15-.53.356-.23.198-.371.48-.14.28-.14.661 0 .223.098.43.108.207.273.372.166.157.372.256.207.1.414.1.14 0 .347-.042.207-.05.438-.132.24-.091.488-.215.256-.124.48-.273zm-3.564-4.547q.074-.91.438-1.298.364-.397 1.009-.397.488 0 1.108.438.628.43.918.43.347 0 .545-.182.199-.19.232-.686h.297q-.033.893-.388 1.306-.347.414-.992.38-.48 0-1.059-.43-.578-.437-.984-.437-.314 0-.554.198-.231.198-.272.678zM7.888 49.485v3.217H7.49l-.397-1.381H4.242v4.663H9.07l.81-1.993h.397l-.264 2.522H8.012q-.86 0-1.43.579-.571.579-.571 1.348 0 .587.298.934.306.347.769.347.43 0 .678-.099.256-.1.47-.24l.166.29q-.587.363-1.075.496-.48.132-.876.132-.662 0-1.091-.438-.422-.438-.422-1.116 0-.736.446-1.29.455-.554 1.24-.943H1.24v-.397l1.596-.264V46.64l-1.596-.265v-.396h8.541l.14 2.356h-.396l-.595-1.827H4.242v4.283h2.852l.397-1.307zm.736-7.07l-3.266 2.672-.223-.075 1.728-2.596zM22.792 55.116q-.553.736-1.76 1.422-1.398.819-1.398 1.96 0 .545.281.86.281.322.736.322.256 0 .57-.116.323-.107.703-.355l.1.248q-.62.397-1.125.562-.496.174-.893.174-.595 0-.959-.356-.364-.355-.364-.96 0-.363.132-.694.133-.322.331-.603.207-.281.455-.505.248-.214.48-.363-.042.008-.091.008h-.1q-.62 0-1.165-.273-.538-.281-.935-.752-.397-.472-.628-1.1-.223-.637-.223-1.348 0-.719.248-1.372.248-.662.686-1.158.438-.504 1.033-.802.604-.297 1.307-.297.678 0 1.19.264.513.265.852.711.347.447.521 1.034.174.587.174 1.232h-4.961q0 .645.215 1.199t.57.959q.356.397.819.628.471.223.975.223.58 0 1.05-.248.48-.256.926-.727zm-1.066-2.696q0-.38-.116-.81-.107-.438-.33-.81-.224-.372-.571-.612-.34-.248-.802-.248-.471 0-.819.24-.339.231-.57.603-.223.364-.347.802-.124.439-.158.835zm.711-6.63l-3.266 2.67-.223-.074 1.728-2.597zM45.218 49.485v3.217h-.397l-.397-1.381h-2.852v4.663H46.4l.81-1.993h.397l-.265 2.522h-2q-.86 0-1.431.579-.57.579-.57 1.348 0 .587.297.934.306.347.769.347.43 0 .678-.099.256-.1.471-.24l.166.29q-.587.363-1.075.496-.48.132-.877.132-.661 0-1.091-.438-.422-.438-.422-1.116 0-.736.447-1.29.454-.554 1.24-.943H38.57v-.397l1.595-.264V46.64l-1.595-.265v-.396h8.54l.141 2.356h-.397l-.595-1.827h-4.688v4.283h2.852l.397-1.307zm-4.076-4.72q.074-.91.438-1.299.364-.397 1.009-.397.488 0 1.108.438.628.43.918.43.347 0 .545-.182.199-.19.232-.686h.297q-.033.893-.388 1.306-.347.414-.992.38-.48 0-1.059-.43-.578-.437-.984-.437-.314 0-.554.198-.231.199-.272.678zM60.123 55.116q-.554.736-1.761 1.422-1.398.819-1.398 1.96 0 .545.281.86.282.322.736.322.257 0 .57-.116.323-.107.704-.355l.099.248q-.62.397-1.125.562-.496.174-.893.174-.595 0-.959-.356-.363-.355-.363-.96 0-.363.132-.694.132-.322.33-.603.207-.281.455-.505.248-.214.48-.363-.042.008-.091.008h-.1q-.62 0-1.165-.273-.538-.281-.934-.752-.397-.472-.629-1.1-.223-.637-.223-1.348 0-.719.248-1.372.248-.662.686-1.158.438-.504 1.034-.802.603-.297 1.306-.297.678 0 1.19.264.513.265.852.711.348.447.521 1.034.174.587.174 1.232h-4.961q0 .645.215 1.199t.57.959q.356.397.819.628.471.223.976.223.578 0 1.05-.248.48-.256.926-.727zm-1.067-2.696q0-.38-.116-.81-.107-.438-.33-.81-.224-.372-.57-.612-.34-.248-.803-.248-.471 0-.818.24-.34.231-.57.603-.224.364-.348.802-.124.439-.157.835zm-4.06-4.2q.075-.91.439-1.298.364-.397 1.008-.397.488 0 1.108.438.629.43.918.43.347 0 .546-.182.198-.19.231-.686h.298q-.033.893-.389 1.307-.347.413-.992.38-.48 0-1.058-.43-.579-.438-.984-.438-.314 0-.554.198-.231.199-.273.678zM82.549 49.485v3.217h-.397l-.397-1.381h-2.853v4.663h4.829l.81-1.993h.397l-.265 2.522h-8.772v-.397l1.596-.264V46.64l-1.596-.265v-.396h8.54l.141 2.356h-.396l-.596-1.827h-4.688v4.283h2.853l.397-1.307zm-.885-5.432q0 .339-.232.57-.223.224-.57.224-.34 0-.57-.223-.224-.232-.224-.571 0-.347.223-.57.232-.232.57-.232.348 0 .571.232.232.223.232.57zm2.166-4.035l-3.266 2.67-.223-.074 1.728-2.596zM95.229 55.868q.579 0 1.05-.248.48-.256.926-.727l.248.223q-.264.322-.587.612-.322.29-.694.512-.373.224-.786.348-.405.132-.835.132-.62 0-1.166-.273-.537-.281-.934-.752-.397-.472-.629-1.1-.223-.637-.223-1.348 0-.719.248-1.372.248-.662.687-1.158.438-.504 1.033-.802.604-.297 1.306-.297.678 0 1.191.264.513.265.852.711.347.447.52 1.034.174.587.174 1.232h-4.96q0 .645.214 1.199.215.554.57.959.356.397.82.628.47.223.975.223zm1.158-3.448q0-.38-.116-.81-.108-.438-.331-.81-.223-.372-.57-.612-.34-.248-.802-.248-.472 0-.819.24-.339.231-.57.603-.224.364-.348.802-.124.439-.157.835zm-.869-5.242q0 .34-.231.57-.223.224-.57.224-.34 0-.571-.223-.223-.232-.223-.57 0-.348.223-.571.231-.232.57-.232.348 0 .57.232.232.223.232.57zm2.274-4.68l-3.266 2.671-.223-.074 1.728-2.596zM119.887 49.485v3.217h-.397l-.397-1.381h-2.852v4.663h4.828l.81-1.993h.398l-.265 2.522h-8.773v-.397l1.596-.264V46.64l-1.596-.265v-.396h8.542l.14 2.356h-.397l-.595-1.827h-4.688v4.283h2.852l.397-1.307zm-.885-5.432q0 .339-.231.57-.223.224-.57.224-.34 0-.571-.223-.223-.232-.223-.571 0-.347.223-.57.231-.232.57-.232.348 0 .57.232.232.223.232.57zm-3.075-1.852q.074-.91.438-1.298.364-.397 1.009-.397.487 0 1.108.438.628.43.917.43.348 0 .546-.182.198-.19.231-.686h.298q-.033.893-.388 1.306-.348.414-.993.38-.48 0-1.058-.43-.579-.437-.984-.437-.314 0-.554.198-.231.198-.273.678zM132.568 55.868q.578 0 1.05-.248.48-.256.926-.727l.248.223q-.265.322-.587.612-.323.29-.695.512-.372.224-.785.348-.405.132-.835.132-.62 0-1.166-.273-.538-.281-.935-.752-.396-.472-.628-1.1-.223-.637-.223-1.348 0-.719.248-1.372.248-.662.686-1.158.438-.504 1.034-.802.603-.297 1.306-.297.678 0 1.19.264.513.265.852.711.348.447.521 1.034.174.587.174 1.232h-4.961q0 .645.215 1.199t.57.959q.356.397.819.628.471.223.976.223zm1.157-3.448q0-.38-.116-.81-.107-.438-.33-.81-.224-.372-.57-.612-.34-.248-.803-.248-.471 0-.818.24-.34.231-.571.603-.223.364-.347.802-.124.439-.157.835zm-.868-5.242q0 .34-.232.57-.223.224-.57.224-.34 0-.57-.223-.224-.232-.224-.57 0-.348.223-.571.232-.232.57-.232.348 0 .571.232.232.223.232.57zm-3.026-2.249q.074-.909.438-1.298.364-.397 1.009-.397.488 0 1.108.439.628.43.917.43.348 0 .546-.182.199-.19.232-.687h.297q-.033.893-.388 1.307-.348.413-.992.38-.48 0-1.059-.43-.579-.438-.984-.438-.314 0-.554.198-.231.199-.273.678zM3.53 98.185l1.158.265v.396H1.232v-.396l1.158-.265v-5.374H1.232v-.273l1.902-.67h.397zm.199-8.673q0 .339-.232.57-.223.223-.57.223-.339 0-.57-.223-.224-.231-.224-.57 0-.348.223-.57.232-.232.57-.232.348 0 .571.231.232.223.232.57zm-.471-2.01L0 84.832h1.753l1.728 2.596zM22.4 98.185l1.158.265v.396h-3.456v-.396l1.158-.265v-5.374h-1.158v-.273l1.902-.67h.397zm.2-8.673q0 .339-.232.57-.223.223-.57.223-.34 0-.571-.223-.223-.231-.223-.57 0-.348.223-.57.231-.232.57-.232.348 0 .57.231.232.223.232.57zm1.901-4.68l-3.266 2.67-.223-.074 1.728-2.596zM41.271 98.185l1.158.265v.396h-3.456v-.396l1.157-.265v-5.374h-1.157v-.273l1.901-.67h.397zm.199-8.673q0 .339-.232.57-.223.223-.57.223-.34 0-.57-.223-.224-.231-.224-.57 0-.348.223-.57.232-.232.57-.232.348 0 .571.231.232.223.232.57zm-3.043-2.25q.074-.909.438-1.297.364-.397 1.009-.397.488 0 1.108.438.628.43.918.43.347 0 .545-.182.199-.19.232-.686h.298q-.034.893-.39 1.306-.346.414-.991.38-.48 0-1.059-.43-.578-.438-.984-.438-.314 0-.553.199-.232.198-.273.678zM62.043 88.71l-1.273.264v9.211l1.273.265v.396h-.388q-.81 0-1.406.521-.595.521-.595 1.406 0 .587.297.934.306.348.77.348.43 0 .677-.1.257-.099.472-.24l.165.29q-.587.364-1.075.496-.48.132-.876.132-.662 0-1.092-.438-.421-.438-.421-1.116 0-.662.471-1.257.471-.595 1.323-.975H58.09v-.397l1.273-.265v-9.21l-1.273-.265v-.397h3.952zm.753-3.96l-3.266 2.67-.223-.075 1.728-2.596zM71.673 98.846h-.521q-.72.025-1.298.604-.579.579-.579 1.38 0 .547.281.86.281.323.736.323.256 0 .57-.116.323-.107.703-.355l.1.248q-.612.397-1.117.562-.504.174-.9.174-.596 0-.96-.356-.364-.355-.364-.959 0-.744.513-1.372.512-.629 1.314-.993h-1.934v-.396l1.157-.265v-5.374h-1.157v-.273l1.901-.67h.397v6.317l1.158.265zm-.96-9.334q0 .339-.23.57-.224.223-.571.223-.34 0-.57-.223-.224-.231-.224-.57 0-.348.223-.57.232-.232.57-.232.348 0 .571.231.232.223.232.57zm1.902-4.68l-3.266 2.67-.223-.074 1.728-2.596zM91.287 88.71l-1.273.264v9.211l1.273.265v.396H90.9q-.81 0-1.406.521-.595.521-.595 1.406 0 .587.297.934.306.348.77.348.43 0 .677-.1.257-.099.472-.24l.165.29q-.587.364-1.075.496-.48.132-.876.132-.662 0-1.092-.438-.421-.438-.421-1.116 0-.662.471-1.257.471-.595 1.323-.975h-2.274v-.397l1.273-.265v-9.21l-1.273-.265v-.397h3.952zm-4.25-1.613q.075-.91.439-1.298.364-.397 1.008-.397.488 0 1.108.439.629.43.918.43.347 0 .546-.182.198-.19.231-.687h.298q-.033.893-.389 1.307-.347.413-.992.38-.48 0-1.058-.43-.579-.438-.984-.438-.314 0-.554.198-.232.199-.273.678zM100.917 98.846h-.521q-.72.025-1.298.604-.579.579-.579 1.38 0 .547.281.86.281.323.736.323.256 0 .57-.116.323-.107.703-.355l.1.248q-.612.397-1.117.562-.504.174-.9.174-.596 0-.96-.356-.364-.355-.364-.959 0-.744.513-1.372.512-.629 1.314-.993h-1.934v-.396l1.157-.265v-5.374h-1.157v-.273l1.901-.67h.397v6.317l1.158.265zm-.96-9.334q0 .339-.23.57-.224.223-.571.223-.34 0-.57-.223-.224-.231-.224-.57 0-.348.223-.57.232-.232.57-.232.348 0 .571.231.232.223.232.57zm-3.042-2.25q.074-.909.438-1.297.364-.397 1.009-.397.488 0 1.108.438.628.43.918.43.347 0 .545-.182.199-.19.232-.686h.298q-.034.893-.39 1.306-.346.414-.991.38-.48 0-1.059-.43-.578-.438-.983-.438-.315 0-.554.199-.232.198-.273.678zM120.531 88.71l-1.273.264V99.5l-2.05 3.29-.422-.272q.38-.554.595-1.084.215-.52.323-1.017.107-.487.124-.942.024-.455.024-.877v-9.624l-1.273-.264v-.397h3.952zm-4.25-1.695q.075-.91.439-1.298.364-.397 1.008-.397.488 0 1.108.438.629.43.918.43.347 0 .546-.182.198-.19.231-.686h.298q-.033.893-.389 1.306-.347.413-.992.38-.48 0-1.058-.43-.579-.438-.984-.438-.314 0-.554.199-.231.198-.273.678zM129.003 100.326l-1.356 2.464-.372-.272q.223-.248.34-.505.115-.248.173-.554.058-.297.066-.678.008-.38.008-.901v-7.07h-1.158v-.272l1.902-.67h.397zm.199-10.814q0 .339-.232.57-.223.223-.57.223-.34 0-.57-.223-.224-.231-.224-.57 0-.348.223-.57.232-.232.57-.232.348 0 .571.231.232.223.232.57zm-3.068-2.25q.075-.909.438-1.297.364-.397 1.01-.397.487 0 1.107.438.628.43.918.43.347 0 .546-.182.198-.19.231-.686h.298q-.033.893-.389 1.306-.347.414-.992.38-.48 0-1.058-.43-.58-.438-.984-.438-.314 0-.554.199-.232.198-.273.678zM9.475 138.708l-.314 2.472H1.48v-.397l1.356-.265v-9.21l-1.356-.265v-.397h4.283v.397l-1.521.264v9.344h4.175l.661-1.943zm-8.226-9.36q.074-.91.438-1.298.364-.397 1.008-.397.488 0 1.108.438.629.43.918.43.347 0 .546-.182.198-.19.231-.686h.298q-.033.893-.389 1.306-.347.414-.992.38-.48 0-1.058-.43-.579-.438-.984-.438-.314 0-.554.199-.232.198-.273.678zM18.923 141.18h-3.456v-.397l1.157-.265v-9.475h-1.157v-.397l1.91-.728h.388v10.6l1.158.265zm-4.002-12.41q.075-.91.438-1.299.364-.397 1.01-.397.487 0 1.107.438.628.43.918.43.347 0 .545-.182.199-.19.232-.686h.298q-.033.893-.389 1.307-.347.413-.992.38-.48 0-1.058-.43-.58-.438-.984-.438-.315 0-.554.198-.232.199-.273.678zM41.216 141.18h-.314l-4.225-9.195h-.033l-.339 8.533 1.315.265v.397h-3.523v-.397l1.414-.265.637-9.21-1.19-.265v-.397h2.554l3.92 8.55 3.894-8.55h2.488v.397l-1.14.264.644 9.211 1.398.265v.397h-4.35v-.397l1.563-.265-.554-8.533h-.041zm-2.091-11.584q.074-.91.438-1.298.364-.397 1.008-.397.488 0 1.108.438.629.43.918.43.347 0 .546-.182.198-.19.231-.686h.298q-.033.893-.389 1.306-.347.414-.992.38-.48 0-1.058-.43-.579-.437-.984-.437-.314 0-.554.198-.231.198-.273.678zM67.052 141.18h-3.457v-.397l1.158-.265v-4.217q0-1.339-1.257-1.339-.744 0-2.166 1v4.556l1.158.265v.397H59.03v-.397l1.158-.265v-4.217q0-1.339-1.257-1.339-.76 0-2.166 1.025v4.531l1.157.265v.397h-3.456v-.397l1.158-.265v-5.374h-1.158v-.273l1.902-.67h.397v1.373q1.563-1.29 2.91-1.29 1.373 0 1.604 1.298 1.613-1.298 2.96-1.298 1.654 0 1.654 1.885v4.35l1.158.264zm-8.566-8.293q.074-.91.438-1.298.364-.397 1.009-.397.487 0 1.108.438.628.43.917.43.348 0 .546-.182.198-.19.232-.686h.297q-.033.893-.388 1.306-.348.414-.993.38-.48 0-1.058-.43-.579-.438-.984-.438-.314 0-.554.199-.231.198-.273.678zM92.702 141.18h-2.605q-.248-.662-.454-1.298-.207-.637-.447-1.2-.24-.57-.546-1.041-.305-.48-.744-.819-.438-.347-1.041-.537-.596-.19-1.423-.19-.066 0-.099.016v4.407l1.778.265v.397h-4.78v-.397l1.597-.265V131.3l-1.596-.256v-.397h.959q.446 0 1.323-.074.876-.075 2.2-.075.967 0 1.653.223.686.215 1.116.587.438.373.637.869.206.487.206 1.033 0 .53-.173.976-.174.446-.521.785-.347.331-.877.546-.529.215-1.248.281v.033q.405.058.703.157.306.1.537.248.24.14.43.323.19.182.364.405.339.438.579.852.24.413.43.9.248.637.438 1.043.198.405.413.636.215.224.488.306.281.083.703.083zm-3.837-7.863q0-.496-.099-.935-.09-.438-.33-.769-.232-.33-.645-.52-.406-.199-1.034-.199-.43 0-.785.017-.348.016-.629.05v4.67q.19.017.364.026.182.008.356.008.644 0 1.165-.133.521-.132.885-.413.364-.29.554-.728.198-.446.198-1.075zm-4.448-4.134q.075-.91.438-1.299.364-.396 1.01-.396.487 0 1.107.438.628.43.918.43.347 0 .545-.182.199-.19.232-.686h.298q-.033.893-.389 1.306-.347.413-.992.38-.48 0-1.058-.43-.58-.438-.984-.438-.315 0-.554.199-.232.198-.273.678zM103.183 135.905l-.984-.364q-.198-.075-.298-.075-.57 0-1.074.86v4.192l1.38.265v.397h-3.679v-.397l1.158-.265v-5.374h-1.158v-.273l1.902-.67h.397v1.646q.752-1.455 1.637-1.455.157 0 .314.057l.843.306zm-4.382-3.208q.074-.91.438-1.299.364-.396 1.009-.396.488 0 1.108.438.628.43.917.43.348 0 .546-.182.199-.19.232-.686h.297q-.033.893-.388 1.306-.348.413-.992.38-.48 0-1.059-.43-.579-.438-.984-.438-.314 0-.554.199-.231.198-.272.678zM12.353 173.376l-1.538.265v5.787q0 .993-.223 1.803-.224.802-.703 1.372-.472.563-1.216.869-.132.05-.57.24-.438.198-.943.562-.496.372-.504 1.232 0 .587.298.934.305.347.769.347.43 0 .678-.099.256-.1.47-.24l.166.29q-.587.363-1.075.496-.48.132-.876.132-.662 0-1.092-.438-.421-.438-.421-1.116 0-.736.397-1.224t1.083-.81h-.157q-1.133 0-1.96-.306-.827-.315-1.364-.877-.538-.562-.794-1.34-.256-.785-.256-1.736v-5.878l-1.455-.265v-.397h4.349v.397l-1.489.265v5.688q0 .835.174 1.53.174.686.537 1.182.364.496.935.77.579.272 1.372.272.868 0 1.472-.256.612-.257 1-.736.39-.488.563-1.19.182-.704.182-1.588v-5.672l-1.662-.265v-.397h3.853zm-2.489-3.646l-3.266 2.67-.223-.074 1.728-2.596zM26.017 183.513h-.86q-.496 0-.843.174-.34.182-.554.463-.215.28-.314.636-.091.356-.091.711 0 .199.058.405.066.215.19.39.132.173.322.28.19.108.447.108.256 0 .57-.116.323-.108.703-.356l.1.248q-.62.397-1.125.563-.496.173-.893.173-.306 0-.554-.124-.24-.124-.414-.314-.173-.19-.264-.422-.091-.231-.091-.454 0-1.546 1.356-2.357v-1.05q-.852.645-1.563.951-.71.298-1.207.298-.38 0-.711-.157-.323-.15-.57-.397-.24-.257-.38-.58-.133-.33-.133-.677v-4.432h-1.158v-.273l1.902-.67h.397v4.763q0 .943.38 1.34.389.388 1.141.388.314 0 .819-.256.512-.256 1.083-.703v-4.589h-1.158v-.273l1.902-.67h.397v6.318l1.116.264zm-1.521-10.724l-3.266 2.67-.223-.074 1.728-2.596zM52.544 173.376l-1.538.265v5.787q0 .993-.223 1.803-.224.802-.703 1.372-.471.563-1.216.869-.132.05-.57.24-.438.198-.943.562-.496.372-.504 1.232 0 .587.298.934.306.347.769.347.43 0 .678-.099.256-.1.47-.24l.166.29q-.587.363-1.075.496-.48.132-.876.132-.661 0-1.091-.438-.422-.438-.422-1.116 0-.736.397-1.224t1.083-.81h-.157q-1.133 0-1.96-.306-.827-.315-1.364-.877-.537-.562-.794-1.34-.256-.785-.256-1.736v-5.878l-1.455-.265v-.397h4.349v.397l-1.488.265v5.688q0 .835.173 1.53.174.686.538 1.182.363.496.934.77.579.272 1.372.272.869 0 1.472-.256.612-.257 1-.736.39-.488.563-1.19.182-.704.182-1.588v-5.672l-1.662-.265v-.397h3.853zm-7.764-1.695q.074-.91.438-1.298.364-.397 1.009-.397.488 0 1.108.438.628.43.918.43.347 0 .545-.182.199-.19.232-.686h.297q-.033.893-.388 1.307-.347.413-.992.38-.48 0-1.059-.43-.578-.438-.984-.438-.314 0-.554.198-.231.199-.272.678zM66.208 183.513h-.86q-.496 0-.843.174-.339.182-.554.463-.215.28-.314.636-.091.356-.091.711 0 .199.058.405.066.215.19.39.132.173.322.28.19.108.447.108.256 0 .57-.116.323-.108.703-.356l.1.248q-.62.397-1.125.563-.496.173-.893.173-.306 0-.554-.124-.24-.124-.413-.314-.174-.19-.265-.422-.091-.231-.091-.454 0-1.546 1.356-2.357v-1.05q-.852.645-1.563.951-.71.298-1.207.298-.38 0-.71-.157-.323-.15-.571-.397-.24-.257-.38-.58-.133-.33-.133-.677v-4.432h-1.158v-.273l1.902-.67h.397v4.763q0 .943.38 1.34.389.388 1.141.388.314 0 .819-.256.512-.256 1.083-.703v-4.589h-1.158v-.273l1.902-.67h.397v6.318l1.116.264zm-6.267-8.293q.074-.91.438-1.298.364-.397 1.009-.397.488 0 1.108.438.628.43.918.43.347 0 .545-.182.199-.19.232-.686h.297q-.033.893-.388 1.306-.347.414-.992.38-.48 0-1.059-.43-.578-.437-.984-.437-.314 0-.554.198-.231.198-.272.678zM92.735 173.376l-1.538.265v5.787q0 .993-.223 1.803-.223.802-.703 1.372-.471.563-1.215.869-.745.306-1.778.306-1.133 0-1.96-.306-.826-.315-1.364-.877-.537-.562-.794-1.34-.256-.785-.256-1.736v-5.878l-1.455-.265v-.397h4.349v.397l-1.488.265v5.688q0 .835.173 1.53.174.686.538 1.182.364.496.934.77.579.272 1.373.272.868 0 1.471-.256.612-.257 1-.736.39-.488.563-1.19.182-.704.182-1.588v-5.672l-1.662-.265v-.397h3.853zm-7.665-2.125h4.664v.596H85.07zm5.317-3.82l-3.266 2.67-.223-.073 1.728-2.597zM106.4 183.513h-2.258v-1.042q-.852.645-1.563.951-.71.298-1.207.298-.76 0-1.281-.554-.513-.554-.513-1.257v-4.432h-1.157v-.273l1.901-.67h.397v4.763q0 .943.38 1.34.389.388 1.141.388.315 0 .819-.256.513-.256 1.083-.703v-4.589h-1.157v-.273l1.901-.67h.397v6.318l1.116.264zm-6.334-9.583h4.663v.595h-4.663zm5.143-3.87l-3.266 2.671-.223-.074 1.728-2.596zM132.934 173.376l-1.538.265v5.787q0 .993-.223 1.803-.223.802-.703 1.372-.47.563-1.215.869-.744.306-1.778.306-1.132 0-1.96-.306-.826-.315-1.363-.877-.538-.562-.794-1.34-.257-.785-.257-1.736v-5.878l-1.455-.265v-.397h4.35v.397l-1.489.265v5.688q0 .835.174 1.53.173.686.537 1.182.364.496.934.77.58.272 1.373.272.868 0 1.472-.256.612-.257 1-.736.389-.488.562-1.19.182-.704.182-1.588v-5.672l-1.662-.265v-.397h3.853zm-7.664-2.125h4.663v.596h-4.663zm.008-1.389q.074-.91.438-1.298.364-.397 1.009-.397.487 0 1.108.438.628.43.917.43.348 0 .546-.182.198-.19.232-.686h.297q-.033.893-.388 1.307-.348.413-.993.38-.48 0-1.058-.43-.579-.438-.984-.438-.314 0-.554.198-.231.199-.273.678zM146.599 183.513h-2.257v-1.042q-.852.645-1.563.951-.711.298-1.207.298-.761 0-1.282-.554-.513-.554-.513-1.257v-4.432h-1.157v-.273l1.902-.67h.396v4.763q0 .943.38 1.34.39.388 1.142.388.314 0 .818-.256.513-.256 1.084-.703v-4.589h-1.158v-.273l1.902-.67h.397v6.318l1.116.264zm-6.334-9.583h4.664v.595h-4.664zm.066-1.637q.075-.91.439-1.298.363-.397 1.008-.397.488 0 1.108.438.629.43.918.43.347 0 .546-.182.198-.19.231-.686h.298q-.033.893-.389 1.306-.347.414-.992.38-.48 0-1.058-.43-.579-.437-.984-.437-.314 0-.554.198-.232.198-.273.678z" style="-inkscape-font-specification:Palemonas"/></g></svg>