<svg width="60.955" height="61.043" version="1.0" xmlns="http://www.w3.org/2000/svg"><defs><path id="a" d="M97.5 330H855v202.5H97.5z"/></defs><text style="line-height:1.25;-inkscape-font-specification:'Noto Sans, Semi-Bold'" x="90" y="202.5" font-weight="600" font-size="24" font-family="Noto Sans" transform="translate(-449.523 -119.478)"/><text style="line-height:1.25;-inkscape-font-specification:'Noto Sans, Semi-Bold'" x="45" y="7.5" font-weight="600" font-size="24" font-family="Noto Sans" transform="translate(-449.523 -119.478)"/><text style="line-height:1.25;-inkscape-font-specification:'Sans, Normal';font-variant-ligatures:none" x="105" y="105" font-size="21.333" font-family="Sans" transform="translate(-449.523 -119.478)"/><path d="M705-90h60v60h-60z" fill="#fff" fill-rule="evenodd" stroke="#000" transform="matrix(.99926 0 0 1.0007 -703.978 90.564)"/><text style="line-height:1.25;-inkscape-font-specification:'Sans, Normal';font-variant-ligatures:none" x="742.735" y="-67.241" font-size="21.333" font-family="Sans" transform="matrix(.99926 0 0 1.0007 -703.978 90.564)"><tspan x="742.735" y="-67.241">4</tspan></text><text style="line-height:1.25;-inkscape-font-specification:'Sans, Normal';font-variant-ligatures:none" x="743.899" y="-37.851" font-size="21.333" font-family="Sans" transform="matrix(.99926 0 0 1.0007 -703.978 90.564)"><tspan x="743.899" y="-37.851">3</tspan></text><text style="line-height:1.25;-inkscape-font-specification:'Sans, Normal';font-variant-ligatures:none" x="713.484" y="-67.122" font-size="21.333" font-family="Sans" transform="matrix(.99926 0 0 1.0007 -703.978 90.564)"><tspan x="713.484" y="-67.122">2</tspan></text><text style="line-height:1.25;-inkscape-font-specification:'Sans, Normal';font-variant-ligatures:none" x="713.119" y="-37.645" font-size="21.333" font-family="Sans" transform="matrix(.99926 0 0 1.0007 -703.978 90.564)"><tspan x="713.119" y="-37.645">1</tspan></text></svg>